<?xml version="1.0" encoding="utf-8" standalone="no"?>
<!DOCTYPE svg PUBLIC "-//W3C//DTD SVG 1.1//EN"
  "http://www.w3.org/Graphics/SVG/1.1/DTD/svg11.dtd">
<svg xmlns:xlink="http://www.w3.org/1999/xlink" width="540pt" height="216pt" viewBox="0 0 540 216" xmlns="http://www.w3.org/2000/svg" version="1.1">
 <metadata>
  <rdf:RDF xmlns:dc="http://purl.org/dc/elements/1.1/" xmlns:cc="http://creativecommons.org/ns#" xmlns:rdf="http://www.w3.org/1999/02/22-rdf-syntax-ns#">
   <cc:Work>
    <dc:type rdf:resource="http://purl.org/dc/dcmitype/StillImage"/>
    <dc:date>2025-05-12T23:21:58.300712</dc:date>
    <dc:format>image/svg+xml</dc:format>
    <dc:creator>
     <cc:Agent>
      <dc:title>Matplotlib v3.9.4, https://matplotlib.org/</dc:title>
     </cc:Agent>
    </dc:creator>
   </cc:Work>
  </rdf:RDF>
 </metadata>
 <defs>
  <style type="text/css">*{stroke-linejoin: round; stroke-linecap: butt}</style>
 </defs>
 <g id="figure_1">
  <g id="patch_1">
   <path d="M 0 216 
L 540 216 
L 540 0 
L 0 0 
z
" style="fill: #ffffff"/>
  </g>
  <g id="axes_1">
   <g id="patch_2">
    <path d="M 44.57 174.04 
L 519.75 174.04 
L 519.75 10.8 
L 44.57 10.8 
z
" style="fill: #ffffff"/>
   </g>
   <g id="patch_3">
    <path d="M 42.90687 174.04 
L 44.57 174.04 
L 44.57 46.335238 
L 42.90687 46.335238 
z
" clip-path="url(#pafe25ac2da)" style="fill: #8e7fb8"/>
   </g>
   <g id="patch_4">
    <path d="M 47.65867 174.04 
L 49.3218 174.04 
L 49.3218 51.887619 
L 47.65867 51.887619 
z
" clip-path="url(#pafe25ac2da)" style="fill: #8e7fb8"/>
   </g>
   <g id="patch_5">
    <path d="M 52.41047 174.04 
L 54.0736 174.04 
L 54.0736 57.44 
L 52.41047 57.44 
z
" clip-path="url(#pafe25ac2da)" style="fill: #8e7fb8"/>
   </g>
   <g id="patch_6">
    <path d="M 57.16227 174.04 
L 58.8254 174.04 
L 58.8254 129.620952 
L 57.16227 129.620952 
z
" clip-path="url(#pafe25ac2da)" style="fill: #8e7fb8"/>
   </g>
   <g id="patch_7">
    <path d="M 61.91407 174.04 
L 63.5772 174.04 
L 63.5772 96.306667 
L 61.91407 96.306667 
z
" clip-path="url(#pafe25ac2da)" style="fill: #8e7fb8"/>
   </g>
   <g id="patch_8">
    <path d="M 66.66587 174.04 
L 68.329 174.04 
L 68.329 90.754286 
L 66.66587 90.754286 
z
" clip-path="url(#pafe25ac2da)" style="fill: #8e7fb8"/>
   </g>
   <g id="patch_9">
    <path d="M 71.41767 174.04 
L 73.0808 174.04 
L 73.0808 79.649524 
L 71.41767 79.649524 
z
" clip-path="url(#pafe25ac2da)" style="fill: #8e7fb8"/>
   </g>
   <g id="patch_10">
    <path d="M 76.16947 174.04 
L 77.8326 174.04 
L 77.8326 101.859048 
L 76.16947 101.859048 
z
" clip-path="url(#pafe25ac2da)" style="fill: #8e7fb8"/>
   </g>
   <g id="patch_11">
    <path d="M 80.92127 174.04 
L 82.5844 174.04 
L 82.5844 129.620952 
L 80.92127 129.620952 
z
" clip-path="url(#pafe25ac2da)" style="fill: #8e7fb8"/>
   </g>
   <g id="patch_12">
    <path d="M 85.67307 174.04 
L 87.3362 174.04 
L 87.3362 18.573333 
L 85.67307 18.573333 
z
" clip-path="url(#pafe25ac2da)" style="fill: #8e7fb8"/>
   </g>
   <g id="patch_13">
    <path d="M 90.42487 174.04 
L 92.088 174.04 
L 92.088 129.620952 
L 90.42487 129.620952 
z
" clip-path="url(#pafe25ac2da)" style="fill: #8e7fb8"/>
   </g>
   <g id="patch_14">
    <path d="M 95.17667 174.04 
L 96.8398 174.04 
L 96.8398 151.830476 
L 95.17667 151.830476 
z
" clip-path="url(#pafe25ac2da)" style="fill: #8e7fb8"/>
   </g>
   <g id="patch_15">
    <path d="M 99.92847 174.04 
L 101.5916 174.04 
L 101.5916 124.068571 
L 99.92847 124.068571 
z
" clip-path="url(#pafe25ac2da)" style="fill: #8e7fb8"/>
   </g>
   <g id="patch_16">
    <path d="M 104.68027 174.04 
L 106.3434 174.04 
L 106.3434 140.725714 
L 104.68027 140.725714 
z
" clip-path="url(#pafe25ac2da)" style="fill: #8e7fb8"/>
   </g>
   <g id="patch_17">
    <path d="M 109.43207 174.04 
L 111.0952 174.04 
L 111.0952 140.725714 
L 109.43207 140.725714 
z
" clip-path="url(#pafe25ac2da)" style="fill: #8e7fb8"/>
   </g>
   <g id="patch_18">
    <path d="M 114.18387 174.04 
L 115.847 174.04 
L 115.847 168.487619 
L 114.18387 168.487619 
z
" clip-path="url(#pafe25ac2da)" style="fill: #8e7fb8"/>
   </g>
   <g id="patch_19">
    <path d="M 118.93567 174.04 
L 120.5988 174.04 
L 120.5988 168.487619 
L 118.93567 168.487619 
z
" clip-path="url(#pafe25ac2da)" style="fill: #8e7fb8"/>
   </g>
   <g id="patch_20">
    <path d="M 123.68747 174.04 
L 125.3506 174.04 
L 125.3506 162.935238 
L 123.68747 162.935238 
z
" clip-path="url(#pafe25ac2da)" style="fill: #8e7fb8"/>
   </g>
   <g id="patch_21">
    <path d="M 128.43927 174.04 
L 130.1024 174.04 
L 130.1024 146.278095 
L 128.43927 146.278095 
z
" clip-path="url(#pafe25ac2da)" style="fill: #8e7fb8"/>
   </g>
   <g id="patch_22">
    <path d="M 133.19107 174.04 
L 134.8542 174.04 
L 134.8542 146.278095 
L 133.19107 146.278095 
z
" clip-path="url(#pafe25ac2da)" style="fill: #8e7fb8"/>
   </g>
   <g id="patch_23">
    <path d="M 137.94287 174.04 
L 139.606 174.04 
L 139.606 157.382857 
L 137.94287 157.382857 
z
" clip-path="url(#pafe25ac2da)" style="fill: #8e7fb8"/>
   </g>
   <g id="patch_24">
    <path d="M 142.69467 174.04 
L 144.3578 174.04 
L 144.3578 112.96381 
L 142.69467 112.96381 
z
" clip-path="url(#pafe25ac2da)" style="fill: #8e7fb8"/>
   </g>
   <g id="patch_25">
    <path d="M 147.44647 174.04 
L 149.1096 174.04 
L 149.1096 162.935238 
L 147.44647 162.935238 
z
" clip-path="url(#pafe25ac2da)" style="fill: #8e7fb8"/>
   </g>
   <g id="patch_26">
    <path d="M 152.19827 174.04 
L 153.8614 174.04 
L 153.8614 151.830476 
L 152.19827 151.830476 
z
" clip-path="url(#pafe25ac2da)" style="fill: #8e7fb8"/>
   </g>
   <g id="patch_27">
    <path d="M 156.95007 174.04 
L 158.6132 174.04 
L 158.6132 151.830476 
L 156.95007 151.830476 
z
" clip-path="url(#pafe25ac2da)" style="fill: #8e7fb8"/>
   </g>
   <g id="patch_28">
    <path d="M 161.70187 174.04 
L 163.365 174.04 
L 163.365 146.278095 
L 161.70187 146.278095 
z
" clip-path="url(#pafe25ac2da)" style="fill: #8e7fb8"/>
   </g>
   <g id="patch_29">
    <path d="M 166.45367 174.04 
L 168.1168 174.04 
L 168.1168 162.935238 
L 166.45367 162.935238 
z
" clip-path="url(#pafe25ac2da)" style="fill: #8e7fb8"/>
   </g>
   <g id="patch_30">
    <path d="M 171.20547 174.04 
L 172.8686 174.04 
L 172.8686 162.935238 
L 171.20547 162.935238 
z
" clip-path="url(#pafe25ac2da)" style="fill: #8e7fb8"/>
   </g>
   <g id="patch_31">
    <path d="M 175.95727 174.04 
L 177.6204 174.04 
L 177.6204 157.382857 
L 175.95727 157.382857 
z
" clip-path="url(#pafe25ac2da)" style="fill: #8e7fb8"/>
   </g>
   <g id="patch_32">
    <path d="M 180.70907 174.04 
L 182.3722 174.04 
L 182.3722 168.487619 
L 180.70907 168.487619 
z
" clip-path="url(#pafe25ac2da)" style="fill: #8e7fb8"/>
   </g>
   <g id="patch_33">
    <path d="M 185.46087 174.04 
L 187.124 174.04 
L 187.124 157.382857 
L 185.46087 157.382857 
z
" clip-path="url(#pafe25ac2da)" style="fill: #8e7fb8"/>
   </g>
   <g id="patch_34">
    <path d="M 190.21267 174.04 
L 191.8758 174.04 
L 191.8758 157.382857 
L 190.21267 157.382857 
z
" clip-path="url(#pafe25ac2da)" style="fill: #8e7fb8"/>
   </g>
   <g id="patch_35">
    <path d="M 194.96447 174.04 
L 196.6276 174.04 
L 196.6276 151.830476 
L 194.96447 151.830476 
z
" clip-path="url(#pafe25ac2da)" style="fill: #8e7fb8"/>
   </g>
   <g id="patch_36">
    <path d="M 199.71627 174.04 
L 201.3794 174.04 
L 201.3794 151.830476 
L 199.71627 151.830476 
z
" clip-path="url(#pafe25ac2da)" style="fill: #8e7fb8"/>
   </g>
   <g id="patch_37">
    <path d="M 204.46807 174.04 
L 206.1312 174.04 
L 206.1312 168.487619 
L 204.46807 168.487619 
z
" clip-path="url(#pafe25ac2da)" style="fill: #8e7fb8"/>
   </g>
   <g id="patch_38">
    <path d="M 209.21987 174.04 
L 210.883 174.04 
L 210.883 151.830476 
L 209.21987 151.830476 
z
" clip-path="url(#pafe25ac2da)" style="fill: #8e7fb8"/>
   </g>
   <g id="patch_39">
    <path d="M 213.97167 174.04 
L 215.6348 174.04 
L 215.6348 140.725714 
L 213.97167 140.725714 
z
" clip-path="url(#pafe25ac2da)" style="fill: #8e7fb8"/>
   </g>
   <g id="patch_40">
    <path d="M 218.72347 174.04 
L 220.3866 174.04 
L 220.3866 157.382857 
L 218.72347 157.382857 
z
" clip-path="url(#pafe25ac2da)" style="fill: #8e7fb8"/>
   </g>
   <g id="patch_41">
    <path d="M 223.47527 174.04 
L 225.1384 174.04 
L 225.1384 157.382857 
L 223.47527 157.382857 
z
" clip-path="url(#pafe25ac2da)" style="fill: #8e7fb8"/>
   </g>
   <g id="patch_42">
    <path d="M 228.22707 174.04 
L 229.8902 174.04 
L 229.8902 162.935238 
L 228.22707 162.935238 
z
" clip-path="url(#pafe25ac2da)" style="fill: #8e7fb8"/>
   </g>
   <g id="patch_43">
    <path d="M 232.97887 174.04 
L 234.642 174.04 
L 234.642 151.830476 
L 232.97887 151.830476 
z
" clip-path="url(#pafe25ac2da)" style="fill: #8e7fb8"/>
   </g>
   <g id="patch_44">
    <path d="M 237.73067 174.04 
L 239.3938 174.04 
L 239.3938 168.487619 
L 237.73067 168.487619 
z
" clip-path="url(#pafe25ac2da)" style="fill: #8e7fb8"/>
   </g>
   <g id="patch_45">
    <path d="M 242.48247 174.04 
L 244.1456 174.04 
L 244.1456 157.382857 
L 242.48247 157.382857 
z
" clip-path="url(#pafe25ac2da)" style="fill: #8e7fb8"/>
   </g>
   <g id="patch_46">
    <path d="M 247.23427 174.04 
L 248.8974 174.04 
L 248.8974 162.935238 
L 247.23427 162.935238 
z
" clip-path="url(#pafe25ac2da)" style="fill: #8e7fb8"/>
   </g>
   <g id="patch_47">
    <path d="M 251.98607 174.04 
L 253.6492 174.04 
L 253.6492 157.382857 
L 251.98607 157.382857 
z
" clip-path="url(#pafe25ac2da)" style="fill: #8e7fb8"/>
   </g>
   <g id="patch_48">
    <path d="M 256.73787 174.04 
L 258.401 174.04 
L 258.401 157.382857 
L 256.73787 157.382857 
z
" clip-path="url(#pafe25ac2da)" style="fill: #8e7fb8"/>
   </g>
   <g id="patch_49">
    <path d="M 261.48967 174.04 
L 263.1528 174.04 
L 263.1528 168.487619 
L 261.48967 168.487619 
z
" clip-path="url(#pafe25ac2da)" style="fill: #8e7fb8"/>
   </g>
   <g id="patch_50">
    <path d="M 266.24147 174.04 
L 267.9046 174.04 
L 267.9046 157.382857 
L 266.24147 157.382857 
z
" clip-path="url(#pafe25ac2da)" style="fill: #8e7fb8"/>
   </g>
   <g id="patch_51">
    <path d="M 270.99327 174.04 
L 272.6564 174.04 
L 272.6564 162.935238 
L 270.99327 162.935238 
z
" clip-path="url(#pafe25ac2da)" style="fill: #8e7fb8"/>
   </g>
   <g id="patch_52">
    <path d="M 275.74507 174.04 
L 277.4082 174.04 
L 277.4082 168.487619 
L 275.74507 168.487619 
z
" clip-path="url(#pafe25ac2da)" style="fill: #8e7fb8"/>
   </g>
   <g id="patch_53">
    <path d="M 280.49687 174.04 
L 282.16 174.04 
L 282.16 168.487619 
L 280.49687 168.487619 
z
" clip-path="url(#pafe25ac2da)" style="fill: #8e7fb8"/>
   </g>
   <g id="patch_54">
    <path d="M 285.24867 174.04 
L 286.9118 174.04 
L 286.9118 157.382857 
L 285.24867 157.382857 
z
" clip-path="url(#pafe25ac2da)" style="fill: #8e7fb8"/>
   </g>
   <g id="patch_55">
    <path d="M 290.00047 174.04 
L 291.6636 174.04 
L 291.6636 174.04 
L 290.00047 174.04 
z
" clip-path="url(#pafe25ac2da)" style="fill: #8e7fb8"/>
   </g>
   <g id="patch_56">
    <path d="M 294.75227 174.04 
L 296.4154 174.04 
L 296.4154 168.487619 
L 294.75227 168.487619 
z
" clip-path="url(#pafe25ac2da)" style="fill: #8e7fb8"/>
   </g>
   <g id="patch_57">
    <path d="M 299.50407 174.04 
L 301.1672 174.04 
L 301.1672 174.04 
L 299.50407 174.04 
z
" clip-path="url(#pafe25ac2da)" style="fill: #8e7fb8"/>
   </g>
   <g id="patch_58">
    <path d="M 304.25587 174.04 
L 305.919 174.04 
L 305.919 146.278095 
L 304.25587 146.278095 
z
" clip-path="url(#pafe25ac2da)" style="fill: #8e7fb8"/>
   </g>
   <g id="patch_59">
    <path d="M 309.00767 174.04 
L 310.6708 174.04 
L 310.6708 151.830476 
L 309.00767 151.830476 
z
" clip-path="url(#pafe25ac2da)" style="fill: #8e7fb8"/>
   </g>
   <g id="patch_60">
    <path d="M 313.75947 174.04 
L 315.4226 174.04 
L 315.4226 168.487619 
L 313.75947 168.487619 
z
" clip-path="url(#pafe25ac2da)" style="fill: #8e7fb8"/>
   </g>
   <g id="patch_61">
    <path d="M 318.51127 174.04 
L 320.1744 174.04 
L 320.1744 162.935238 
L 318.51127 162.935238 
z
" clip-path="url(#pafe25ac2da)" style="fill: #8e7fb8"/>
   </g>
   <g id="patch_62">
    <path d="M 323.26307 174.04 
L 324.9262 174.04 
L 324.9262 162.935238 
L 323.26307 162.935238 
z
" clip-path="url(#pafe25ac2da)" style="fill: #8e7fb8"/>
   </g>
   <g id="patch_63">
    <path d="M 328.01487 174.04 
L 329.678 174.04 
L 329.678 162.935238 
L 328.01487 162.935238 
z
" clip-path="url(#pafe25ac2da)" style="fill: #8e7fb8"/>
   </g>
   <g id="patch_64">
    <path d="M 332.76667 174.04 
L 334.4298 174.04 
L 334.4298 174.04 
L 332.76667 174.04 
z
" clip-path="url(#pafe25ac2da)" style="fill: #8e7fb8"/>
   </g>
   <g id="patch_65">
    <path d="M 337.51847 174.04 
L 339.1816 174.04 
L 339.1816 168.487619 
L 337.51847 168.487619 
z
" clip-path="url(#pafe25ac2da)" style="fill: #8e7fb8"/>
   </g>
   <g id="patch_66">
    <path d="M 342.27027 174.04 
L 343.9334 174.04 
L 343.9334 162.935238 
L 342.27027 162.935238 
z
" clip-path="url(#pafe25ac2da)" style="fill: #8e7fb8"/>
   </g>
   <g id="patch_67">
    <path d="M 347.02207 174.04 
L 348.6852 174.04 
L 348.6852 162.935238 
L 347.02207 162.935238 
z
" clip-path="url(#pafe25ac2da)" style="fill: #8e7fb8"/>
   </g>
   <g id="patch_68">
    <path d="M 351.77387 174.04 
L 353.437 174.04 
L 353.437 162.935238 
L 351.77387 162.935238 
z
" clip-path="url(#pafe25ac2da)" style="fill: #8e7fb8"/>
   </g>
   <g id="patch_69">
    <path d="M 356.52567 174.04 
L 358.1888 174.04 
L 358.1888 162.935238 
L 356.52567 162.935238 
z
" clip-path="url(#pafe25ac2da)" style="fill: #8e7fb8"/>
   </g>
   <g id="patch_70">
    <path d="M 361.27747 174.04 
L 362.9406 174.04 
L 362.9406 162.935238 
L 361.27747 162.935238 
z
" clip-path="url(#pafe25ac2da)" style="fill: #8e7fb8"/>
   </g>
   <g id="patch_71">
    <path d="M 366.02927 174.04 
L 367.6924 174.04 
L 367.6924 174.04 
L 366.02927 174.04 
z
" clip-path="url(#pafe25ac2da)" style="fill: #8e7fb8"/>
   </g>
   <g id="patch_72">
    <path d="M 370.78107 174.04 
L 372.4442 174.04 
L 372.4442 168.487619 
L 370.78107 168.487619 
z
" clip-path="url(#pafe25ac2da)" style="fill: #8e7fb8"/>
   </g>
   <g id="patch_73">
    <path d="M 375.53287 174.04 
L 377.196 174.04 
L 377.196 162.935238 
L 375.53287 162.935238 
z
" clip-path="url(#pafe25ac2da)" style="fill: #8e7fb8"/>
   </g>
   <g id="patch_74">
    <path d="M 380.28467 174.04 
L 381.9478 174.04 
L 381.9478 174.04 
L 380.28467 174.04 
z
" clip-path="url(#pafe25ac2da)" style="fill: #8e7fb8"/>
   </g>
   <g id="patch_75">
    <path d="M 385.03647 174.04 
L 386.6996 174.04 
L 386.6996 174.04 
L 385.03647 174.04 
z
" clip-path="url(#pafe25ac2da)" style="fill: #8e7fb8"/>
   </g>
   <g id="patch_76">
    <path d="M 389.78827 174.04 
L 391.4514 174.04 
L 391.4514 174.04 
L 389.78827 174.04 
z
" clip-path="url(#pafe25ac2da)" style="fill: #8e7fb8"/>
   </g>
   <g id="patch_77">
    <path d="M 394.54007 174.04 
L 396.2032 174.04 
L 396.2032 174.04 
L 394.54007 174.04 
z
" clip-path="url(#pafe25ac2da)" style="fill: #8e7fb8"/>
   </g>
   <g id="patch_78">
    <path d="M 399.29187 174.04 
L 400.955 174.04 
L 400.955 162.935238 
L 399.29187 162.935238 
z
" clip-path="url(#pafe25ac2da)" style="fill: #8e7fb8"/>
   </g>
   <g id="patch_79">
    <path d="M 404.04367 174.04 
L 405.7068 174.04 
L 405.7068 168.487619 
L 404.04367 168.487619 
z
" clip-path="url(#pafe25ac2da)" style="fill: #8e7fb8"/>
   </g>
   <g id="patch_80">
    <path d="M 408.79547 174.04 
L 410.4586 174.04 
L 410.4586 162.935238 
L 408.79547 162.935238 
z
" clip-path="url(#pafe25ac2da)" style="fill: #8e7fb8"/>
   </g>
   <g id="patch_81">
    <path d="M 413.54727 174.04 
L 415.2104 174.04 
L 415.2104 168.487619 
L 413.54727 168.487619 
z
" clip-path="url(#pafe25ac2da)" style="fill: #8e7fb8"/>
   </g>
   <g id="patch_82">
    <path d="M 418.29907 174.04 
L 419.9622 174.04 
L 419.9622 168.487619 
L 418.29907 168.487619 
z
" clip-path="url(#pafe25ac2da)" style="fill: #8e7fb8"/>
   </g>
   <g id="patch_83">
    <path d="M 423.05087 174.04 
L 424.714 174.04 
L 424.714 168.487619 
L 423.05087 168.487619 
z
" clip-path="url(#pafe25ac2da)" style="fill: #8e7fb8"/>
   </g>
   <g id="patch_84">
    <path d="M 427.80267 174.04 
L 429.4658 174.04 
L 429.4658 174.04 
L 427.80267 174.04 
z
" clip-path="url(#pafe25ac2da)" style="fill: #8e7fb8"/>
   </g>
   <g id="patch_85">
    <path d="M 432.55447 174.04 
L 434.2176 174.04 
L 434.2176 168.487619 
L 432.55447 168.487619 
z
" clip-path="url(#pafe25ac2da)" style="fill: #8e7fb8"/>
   </g>
   <g id="patch_86">
    <path d="M 437.30627 174.04 
L 438.9694 174.04 
L 438.9694 168.487619 
L 437.30627 168.487619 
z
" clip-path="url(#pafe25ac2da)" style="fill: #8e7fb8"/>
   </g>
   <g id="patch_87">
    <path d="M 442.05807 174.04 
L 443.7212 174.04 
L 443.7212 174.04 
L 442.05807 174.04 
z
" clip-path="url(#pafe25ac2da)" style="fill: #8e7fb8"/>
   </g>
   <g id="patch_88">
    <path d="M 446.80987 174.04 
L 448.473 174.04 
L 448.473 168.487619 
L 446.80987 168.487619 
z
" clip-path="url(#pafe25ac2da)" style="fill: #8e7fb8"/>
   </g>
   <g id="patch_89">
    <path d="M 451.56167 174.04 
L 453.2248 174.04 
L 453.2248 174.04 
L 451.56167 174.04 
z
" clip-path="url(#pafe25ac2da)" style="fill: #8e7fb8"/>
   </g>
   <g id="patch_90">
    <path d="M 456.31347 174.04 
L 457.9766 174.04 
L 457.9766 174.04 
L 456.31347 174.04 
z
" clip-path="url(#pafe25ac2da)" style="fill: #8e7fb8"/>
   </g>
   <g id="patch_91">
    <path d="M 461.06527 174.04 
L 462.7284 174.04 
L 462.7284 168.487619 
L 461.06527 168.487619 
z
" clip-path="url(#pafe25ac2da)" style="fill: #8e7fb8"/>
   </g>
   <g id="patch_92">
    <path d="M 465.81707 174.04 
L 467.4802 174.04 
L 467.4802 174.04 
L 465.81707 174.04 
z
" clip-path="url(#pafe25ac2da)" style="fill: #8e7fb8"/>
   </g>
   <g id="patch_93">
    <path d="M 470.56887 174.04 
L 472.232 174.04 
L 472.232 174.04 
L 470.56887 174.04 
z
" clip-path="url(#pafe25ac2da)" style="fill: #8e7fb8"/>
   </g>
   <g id="patch_94">
    <path d="M 475.32067 174.04 
L 476.9838 174.04 
L 476.9838 174.04 
L 475.32067 174.04 
z
" clip-path="url(#pafe25ac2da)" style="fill: #8e7fb8"/>
   </g>
   <g id="patch_95">
    <path d="M 480.07247 174.04 
L 481.7356 174.04 
L 481.7356 174.04 
L 480.07247 174.04 
z
" clip-path="url(#pafe25ac2da)" style="fill: #8e7fb8"/>
   </g>
   <g id="patch_96">
    <path d="M 484.82427 174.04 
L 486.4874 174.04 
L 486.4874 174.04 
L 484.82427 174.04 
z
" clip-path="url(#pafe25ac2da)" style="fill: #8e7fb8"/>
   </g>
   <g id="patch_97">
    <path d="M 489.57607 174.04 
L 491.2392 174.04 
L 491.2392 174.04 
L 489.57607 174.04 
z
" clip-path="url(#pafe25ac2da)" style="fill: #8e7fb8"/>
   </g>
   <g id="patch_98">
    <path d="M 494.32787 174.04 
L 495.991 174.04 
L 495.991 174.04 
L 494.32787 174.04 
z
" clip-path="url(#pafe25ac2da)" style="fill: #8e7fb8"/>
   </g>
   <g id="patch_99">
    <path d="M 499.07967 174.04 
L 500.7428 174.04 
L 500.7428 174.04 
L 499.07967 174.04 
z
" clip-path="url(#pafe25ac2da)" style="fill: #8e7fb8"/>
   </g>
   <g id="patch_100">
    <path d="M 503.83147 174.04 
L 505.4946 174.04 
L 505.4946 174.04 
L 503.83147 174.04 
z
" clip-path="url(#pafe25ac2da)" style="fill: #8e7fb8"/>
   </g>
   <g id="patch_101">
    <path d="M 508.58327 174.04 
L 510.2464 174.04 
L 510.2464 174.04 
L 508.58327 174.04 
z
" clip-path="url(#pafe25ac2da)" style="fill: #8e7fb8"/>
   </g>
   <g id="patch_102">
    <path d="M 44.57 174.04 
L 46.23313 174.04 
L 46.23313 51.887619 
L 44.57 51.887619 
z
" clip-path="url(#pafe25ac2da)" style="fill: #a2c9ae"/>
   </g>
   <g id="patch_103">
    <path d="M 49.3218 174.04 
L 50.98493 174.04 
L 50.98493 90.754286 
L 49.3218 90.754286 
z
" clip-path="url(#pafe25ac2da)" style="fill: #a2c9ae"/>
   </g>
   <g id="patch_104">
    <path d="M 54.0736 174.04 
L 55.73673 174.04 
L 55.73673 124.068571 
L 54.0736 124.068571 
z
" clip-path="url(#pafe25ac2da)" style="fill: #a2c9ae"/>
   </g>
   <g id="patch_105">
    <path d="M 58.8254 174.04 
L 60.48853 174.04 
L 60.48853 74.097143 
L 58.8254 74.097143 
z
" clip-path="url(#pafe25ac2da)" style="fill: #a2c9ae"/>
   </g>
   <g id="patch_106">
    <path d="M 63.5772 174.04 
L 65.24033 174.04 
L 65.24033 129.620952 
L 63.5772 129.620952 
z
" clip-path="url(#pafe25ac2da)" style="fill: #a2c9ae"/>
   </g>
   <g id="patch_107">
    <path d="M 68.329 174.04 
L 69.99213 174.04 
L 69.99213 74.097143 
L 68.329 74.097143 
z
" clip-path="url(#pafe25ac2da)" style="fill: #a2c9ae"/>
   </g>
   <g id="patch_108">
    <path d="M 73.0808 174.04 
L 74.74393 174.04 
L 74.74393 112.96381 
L 73.0808 112.96381 
z
" clip-path="url(#pafe25ac2da)" style="fill: #a2c9ae"/>
   </g>
   <g id="patch_109">
    <path d="M 77.8326 174.04 
L 79.49573 174.04 
L 79.49573 124.068571 
L 77.8326 124.068571 
z
" clip-path="url(#pafe25ac2da)" style="fill: #a2c9ae"/>
   </g>
   <g id="patch_110">
    <path d="M 82.5844 174.04 
L 84.24753 174.04 
L 84.24753 74.097143 
L 82.5844 74.097143 
z
" clip-path="url(#pafe25ac2da)" style="fill: #a2c9ae"/>
   </g>
   <g id="patch_111">
    <path d="M 87.3362 174.04 
L 88.99933 174.04 
L 88.99933 151.830476 
L 87.3362 151.830476 
z
" clip-path="url(#pafe25ac2da)" style="fill: #a2c9ae"/>
   </g>
   <g id="patch_112">
    <path d="M 92.088 174.04 
L 93.75113 174.04 
L 93.75113 79.649524 
L 92.088 79.649524 
z
" clip-path="url(#pafe25ac2da)" style="fill: #a2c9ae"/>
   </g>
   <g id="patch_113">
    <path d="M 96.8398 174.04 
L 98.50293 174.04 
L 98.50293 124.068571 
L 96.8398 124.068571 
z
" clip-path="url(#pafe25ac2da)" style="fill: #a2c9ae"/>
   </g>
   <g id="patch_114">
    <path d="M 101.5916 174.04 
L 103.25473 174.04 
L 103.25473 101.859048 
L 101.5916 101.859048 
z
" clip-path="url(#pafe25ac2da)" style="fill: #a2c9ae"/>
   </g>
   <g id="patch_115">
    <path d="M 106.3434 174.04 
L 108.00653 174.04 
L 108.00653 90.754286 
L 106.3434 90.754286 
z
" clip-path="url(#pafe25ac2da)" style="fill: #a2c9ae"/>
   </g>
   <g id="patch_116">
    <path d="M 111.0952 174.04 
L 112.75833 174.04 
L 112.75833 157.382857 
L 111.0952 157.382857 
z
" clip-path="url(#pafe25ac2da)" style="fill: #a2c9ae"/>
   </g>
   <g id="patch_117">
    <path d="M 115.847 174.04 
L 117.51013 174.04 
L 117.51013 124.068571 
L 115.847 124.068571 
z
" clip-path="url(#pafe25ac2da)" style="fill: #a2c9ae"/>
   </g>
   <g id="patch_118">
    <path d="M 120.5988 174.04 
L 122.26193 174.04 
L 122.26193 140.725714 
L 120.5988 140.725714 
z
" clip-path="url(#pafe25ac2da)" style="fill: #a2c9ae"/>
   </g>
   <g id="patch_119">
    <path d="M 125.3506 174.04 
L 127.01373 174.04 
L 127.01373 112.96381 
L 125.3506 112.96381 
z
" clip-path="url(#pafe25ac2da)" style="fill: #a2c9ae"/>
   </g>
   <g id="patch_120">
    <path d="M 130.1024 174.04 
L 131.76553 174.04 
L 131.76553 146.278095 
L 130.1024 146.278095 
z
" clip-path="url(#pafe25ac2da)" style="fill: #a2c9ae"/>
   </g>
   <g id="patch_121">
    <path d="M 134.8542 174.04 
L 136.51733 174.04 
L 136.51733 162.935238 
L 134.8542 162.935238 
z
" clip-path="url(#pafe25ac2da)" style="fill: #a2c9ae"/>
   </g>
   <g id="patch_122">
    <path d="M 139.606 174.04 
L 141.26913 174.04 
L 141.26913 118.51619 
L 139.606 118.51619 
z
" clip-path="url(#pafe25ac2da)" style="fill: #a2c9ae"/>
   </g>
   <g id="patch_123">
    <path d="M 144.3578 174.04 
L 146.02093 174.04 
L 146.02093 157.382857 
L 144.3578 157.382857 
z
" clip-path="url(#pafe25ac2da)" style="fill: #a2c9ae"/>
   </g>
   <g id="patch_124">
    <path d="M 149.1096 174.04 
L 150.77273 174.04 
L 150.77273 129.620952 
L 149.1096 129.620952 
z
" clip-path="url(#pafe25ac2da)" style="fill: #a2c9ae"/>
   </g>
   <g id="patch_125">
    <path d="M 153.8614 174.04 
L 155.52453 174.04 
L 155.52453 162.935238 
L 153.8614 162.935238 
z
" clip-path="url(#pafe25ac2da)" style="fill: #a2c9ae"/>
   </g>
   <g id="patch_126">
    <path d="M 158.6132 174.04 
L 160.27633 174.04 
L 160.27633 140.725714 
L 158.6132 140.725714 
z
" clip-path="url(#pafe25ac2da)" style="fill: #a2c9ae"/>
   </g>
   <g id="patch_127">
    <path d="M 163.365 174.04 
L 165.02813 174.04 
L 165.02813 168.487619 
L 163.365 168.487619 
z
" clip-path="url(#pafe25ac2da)" style="fill: #a2c9ae"/>
   </g>
   <g id="patch_128">
    <path d="M 168.1168 174.04 
L 169.77993 174.04 
L 169.77993 146.278095 
L 168.1168 146.278095 
z
" clip-path="url(#pafe25ac2da)" style="fill: #a2c9ae"/>
   </g>
   <g id="patch_129">
    <path d="M 172.8686 174.04 
L 174.53173 174.04 
L 174.53173 151.830476 
L 172.8686 151.830476 
z
" clip-path="url(#pafe25ac2da)" style="fill: #a2c9ae"/>
   </g>
   <g id="patch_130">
    <path d="M 177.6204 174.04 
L 179.28353 174.04 
L 179.28353 162.935238 
L 177.6204 162.935238 
z
" clip-path="url(#pafe25ac2da)" style="fill: #a2c9ae"/>
   </g>
   <g id="patch_131">
    <path d="M 182.3722 174.04 
L 184.03533 174.04 
L 184.03533 162.935238 
L 182.3722 162.935238 
z
" clip-path="url(#pafe25ac2da)" style="fill: #a2c9ae"/>
   </g>
   <g id="patch_132">
    <path d="M 187.124 174.04 
L 188.78713 174.04 
L 188.78713 162.935238 
L 187.124 162.935238 
z
" clip-path="url(#pafe25ac2da)" style="fill: #a2c9ae"/>
   </g>
   <g id="patch_133">
    <path d="M 191.8758 174.04 
L 193.53893 174.04 
L 193.53893 151.830476 
L 191.8758 151.830476 
z
" clip-path="url(#pafe25ac2da)" style="fill: #a2c9ae"/>
   </g>
   <g id="patch_134">
    <path d="M 196.6276 174.04 
L 198.29073 174.04 
L 198.29073 168.487619 
L 196.6276 168.487619 
z
" clip-path="url(#pafe25ac2da)" style="fill: #a2c9ae"/>
   </g>
   <g id="patch_135">
    <path d="M 201.3794 174.04 
L 203.04253 174.04 
L 203.04253 162.935238 
L 201.3794 162.935238 
z
" clip-path="url(#pafe25ac2da)" style="fill: #a2c9ae"/>
   </g>
   <g id="patch_136">
    <path d="M 206.1312 174.04 
L 207.79433 174.04 
L 207.79433 146.278095 
L 206.1312 146.278095 
z
" clip-path="url(#pafe25ac2da)" style="fill: #a2c9ae"/>
   </g>
   <g id="patch_137">
    <path d="M 210.883 174.04 
L 212.54613 174.04 
L 212.54613 157.382857 
L 210.883 157.382857 
z
" clip-path="url(#pafe25ac2da)" style="fill: #a2c9ae"/>
   </g>
   <g id="patch_138">
    <path d="M 215.6348 174.04 
L 217.29793 174.04 
L 217.29793 151.830476 
L 215.6348 151.830476 
z
" clip-path="url(#pafe25ac2da)" style="fill: #a2c9ae"/>
   </g>
   <g id="patch_139">
    <path d="M 220.3866 174.04 
L 222.04973 174.04 
L 222.04973 151.830476 
L 220.3866 151.830476 
z
" clip-path="url(#pafe25ac2da)" style="fill: #a2c9ae"/>
   </g>
   <g id="patch_140">
    <path d="M 225.1384 174.04 
L 226.80153 174.04 
L 226.80153 135.173333 
L 225.1384 135.173333 
z
" clip-path="url(#pafe25ac2da)" style="fill: #a2c9ae"/>
   </g>
   <g id="patch_141">
    <path d="M 229.8902 174.04 
L 231.55333 174.04 
L 231.55333 157.382857 
L 229.8902 157.382857 
z
" clip-path="url(#pafe25ac2da)" style="fill: #a2c9ae"/>
   </g>
   <g id="patch_142">
    <path d="M 234.642 174.04 
L 236.30513 174.04 
L 236.30513 162.935238 
L 234.642 162.935238 
z
" clip-path="url(#pafe25ac2da)" style="fill: #a2c9ae"/>
   </g>
   <g id="patch_143">
    <path d="M 239.3938 174.04 
L 241.05693 174.04 
L 241.05693 151.830476 
L 239.3938 151.830476 
z
" clip-path="url(#pafe25ac2da)" style="fill: #a2c9ae"/>
   </g>
   <g id="patch_144">
    <path d="M 244.1456 174.04 
L 245.80873 174.04 
L 245.80873 162.935238 
L 244.1456 162.935238 
z
" clip-path="url(#pafe25ac2da)" style="fill: #a2c9ae"/>
   </g>
   <g id="patch_145">
    <path d="M 248.8974 174.04 
L 250.56053 174.04 
L 250.56053 151.830476 
L 248.8974 151.830476 
z
" clip-path="url(#pafe25ac2da)" style="fill: #a2c9ae"/>
   </g>
   <g id="patch_146">
    <path d="M 253.6492 174.04 
L 255.31233 174.04 
L 255.31233 168.487619 
L 253.6492 168.487619 
z
" clip-path="url(#pafe25ac2da)" style="fill: #a2c9ae"/>
   </g>
   <g id="patch_147">
    <path d="M 258.401 174.04 
L 260.06413 174.04 
L 260.06413 168.487619 
L 258.401 168.487619 
z
" clip-path="url(#pafe25ac2da)" style="fill: #a2c9ae"/>
   </g>
   <g id="patch_148">
    <path d="M 263.1528 174.04 
L 264.81593 174.04 
L 264.81593 140.725714 
L 263.1528 140.725714 
z
" clip-path="url(#pafe25ac2da)" style="fill: #a2c9ae"/>
   </g>
   <g id="patch_149">
    <path d="M 267.9046 174.04 
L 269.56773 174.04 
L 269.56773 174.04 
L 267.9046 174.04 
z
" clip-path="url(#pafe25ac2da)" style="fill: #a2c9ae"/>
   </g>
   <g id="patch_150">
    <path d="M 272.6564 174.04 
L 274.31953 174.04 
L 274.31953 151.830476 
L 272.6564 151.830476 
z
" clip-path="url(#pafe25ac2da)" style="fill: #a2c9ae"/>
   </g>
   <g id="patch_151">
    <path d="M 277.4082 174.04 
L 279.07133 174.04 
L 279.07133 162.935238 
L 277.4082 162.935238 
z
" clip-path="url(#pafe25ac2da)" style="fill: #a2c9ae"/>
   </g>
   <g id="patch_152">
    <path d="M 282.16 174.04 
L 283.82313 174.04 
L 283.82313 157.382857 
L 282.16 157.382857 
z
" clip-path="url(#pafe25ac2da)" style="fill: #a2c9ae"/>
   </g>
   <g id="patch_153">
    <path d="M 286.9118 174.04 
L 288.57493 174.04 
L 288.57493 174.04 
L 286.9118 174.04 
z
" clip-path="url(#pafe25ac2da)" style="fill: #a2c9ae"/>
   </g>
   <g id="patch_154">
    <path d="M 291.6636 174.04 
L 293.32673 174.04 
L 293.32673 168.487619 
L 291.6636 168.487619 
z
" clip-path="url(#pafe25ac2da)" style="fill: #a2c9ae"/>
   </g>
   <g id="patch_155">
    <path d="M 296.4154 174.04 
L 298.07853 174.04 
L 298.07853 174.04 
L 296.4154 174.04 
z
" clip-path="url(#pafe25ac2da)" style="fill: #a2c9ae"/>
   </g>
   <g id="patch_156">
    <path d="M 301.1672 174.04 
L 302.83033 174.04 
L 302.83033 162.935238 
L 301.1672 162.935238 
z
" clip-path="url(#pafe25ac2da)" style="fill: #a2c9ae"/>
   </g>
   <g id="patch_157">
    <path d="M 305.919 174.04 
L 307.58213 174.04 
L 307.58213 157.382857 
L 305.919 157.382857 
z
" clip-path="url(#pafe25ac2da)" style="fill: #a2c9ae"/>
   </g>
   <g id="patch_158">
    <path d="M 310.6708 174.04 
L 312.33393 174.04 
L 312.33393 157.382857 
L 310.6708 157.382857 
z
" clip-path="url(#pafe25ac2da)" style="fill: #a2c9ae"/>
   </g>
   <g id="patch_159">
    <path d="M 315.4226 174.04 
L 317.08573 174.04 
L 317.08573 157.382857 
L 315.4226 157.382857 
z
" clip-path="url(#pafe25ac2da)" style="fill: #a2c9ae"/>
   </g>
   <g id="patch_160">
    <path d="M 320.1744 174.04 
L 321.83753 174.04 
L 321.83753 168.487619 
L 320.1744 168.487619 
z
" clip-path="url(#pafe25ac2da)" style="fill: #a2c9ae"/>
   </g>
   <g id="patch_161">
    <path d="M 324.9262 174.04 
L 326.58933 174.04 
L 326.58933 162.935238 
L 324.9262 162.935238 
z
" clip-path="url(#pafe25ac2da)" style="fill: #a2c9ae"/>
   </g>
   <g id="patch_162">
    <path d="M 329.678 174.04 
L 331.34113 174.04 
L 331.34113 162.935238 
L 329.678 162.935238 
z
" clip-path="url(#pafe25ac2da)" style="fill: #a2c9ae"/>
   </g>
   <g id="patch_163">
    <path d="M 334.4298 174.04 
L 336.09293 174.04 
L 336.09293 162.935238 
L 334.4298 162.935238 
z
" clip-path="url(#pafe25ac2da)" style="fill: #a2c9ae"/>
   </g>
   <g id="patch_164">
    <path d="M 339.1816 174.04 
L 340.84473 174.04 
L 340.84473 168.487619 
L 339.1816 168.487619 
z
" clip-path="url(#pafe25ac2da)" style="fill: #a2c9ae"/>
   </g>
   <g id="patch_165">
    <path d="M 343.9334 174.04 
L 345.59653 174.04 
L 345.59653 168.487619 
L 343.9334 168.487619 
z
" clip-path="url(#pafe25ac2da)" style="fill: #a2c9ae"/>
   </g>
   <g id="patch_166">
    <path d="M 348.6852 174.04 
L 350.34833 174.04 
L 350.34833 157.382857 
L 348.6852 157.382857 
z
" clip-path="url(#pafe25ac2da)" style="fill: #a2c9ae"/>
   </g>
   <g id="patch_167">
    <path d="M 353.437 174.04 
L 355.10013 174.04 
L 355.10013 174.04 
L 353.437 174.04 
z
" clip-path="url(#pafe25ac2da)" style="fill: #a2c9ae"/>
   </g>
   <g id="patch_168">
    <path d="M 358.1888 174.04 
L 359.85193 174.04 
L 359.85193 174.04 
L 358.1888 174.04 
z
" clip-path="url(#pafe25ac2da)" style="fill: #a2c9ae"/>
   </g>
   <g id="patch_169">
    <path d="M 362.9406 174.04 
L 364.60373 174.04 
L 364.60373 168.487619 
L 362.9406 168.487619 
z
" clip-path="url(#pafe25ac2da)" style="fill: #a2c9ae"/>
   </g>
   <g id="patch_170">
    <path d="M 367.6924 174.04 
L 369.35553 174.04 
L 369.35553 174.04 
L 367.6924 174.04 
z
" clip-path="url(#pafe25ac2da)" style="fill: #a2c9ae"/>
   </g>
   <g id="patch_171">
    <path d="M 372.4442 174.04 
L 374.10733 174.04 
L 374.10733 157.382857 
L 372.4442 157.382857 
z
" clip-path="url(#pafe25ac2da)" style="fill: #a2c9ae"/>
   </g>
   <g id="patch_172">
    <path d="M 377.196 174.04 
L 378.85913 174.04 
L 378.85913 174.04 
L 377.196 174.04 
z
" clip-path="url(#pafe25ac2da)" style="fill: #a2c9ae"/>
   </g>
   <g id="patch_173">
    <path d="M 381.9478 174.04 
L 383.61093 174.04 
L 383.61093 174.04 
L 381.9478 174.04 
z
" clip-path="url(#pafe25ac2da)" style="fill: #a2c9ae"/>
   </g>
   <g id="patch_174">
    <path d="M 386.6996 174.04 
L 388.36273 174.04 
L 388.36273 174.04 
L 386.6996 174.04 
z
" clip-path="url(#pafe25ac2da)" style="fill: #a2c9ae"/>
   </g>
   <g id="patch_175">
    <path d="M 391.4514 174.04 
L 393.11453 174.04 
L 393.11453 168.487619 
L 391.4514 168.487619 
z
" clip-path="url(#pafe25ac2da)" style="fill: #a2c9ae"/>
   </g>
   <g id="patch_176">
    <path d="M 396.2032 174.04 
L 397.86633 174.04 
L 397.86633 162.935238 
L 396.2032 162.935238 
z
" clip-path="url(#pafe25ac2da)" style="fill: #a2c9ae"/>
   </g>
   <g id="patch_177">
    <path d="M 400.955 174.04 
L 402.61813 174.04 
L 402.61813 174.04 
L 400.955 174.04 
z
" clip-path="url(#pafe25ac2da)" style="fill: #a2c9ae"/>
   </g>
   <g id="patch_178">
    <path d="M 405.7068 174.04 
L 407.36993 174.04 
L 407.36993 168.487619 
L 405.7068 168.487619 
z
" clip-path="url(#pafe25ac2da)" style="fill: #a2c9ae"/>
   </g>
   <g id="patch_179">
    <path d="M 410.4586 174.04 
L 412.12173 174.04 
L 412.12173 174.04 
L 410.4586 174.04 
z
" clip-path="url(#pafe25ac2da)" style="fill: #a2c9ae"/>
   </g>
   <g id="patch_180">
    <path d="M 415.2104 174.04 
L 416.87353 174.04 
L 416.87353 168.487619 
L 415.2104 168.487619 
z
" clip-path="url(#pafe25ac2da)" style="fill: #a2c9ae"/>
   </g>
   <g id="patch_181">
    <path d="M 419.9622 174.04 
L 421.62533 174.04 
L 421.62533 162.935238 
L 419.9622 162.935238 
z
" clip-path="url(#pafe25ac2da)" style="fill: #a2c9ae"/>
   </g>
   <g id="patch_182">
    <path d="M 424.714 174.04 
L 426.37713 174.04 
L 426.37713 168.487619 
L 424.714 168.487619 
z
" clip-path="url(#pafe25ac2da)" style="fill: #a2c9ae"/>
   </g>
   <g id="patch_183">
    <path d="M 429.4658 174.04 
L 431.12893 174.04 
L 431.12893 168.487619 
L 429.4658 168.487619 
z
" clip-path="url(#pafe25ac2da)" style="fill: #a2c9ae"/>
   </g>
   <g id="patch_184">
    <path d="M 434.2176 174.04 
L 435.88073 174.04 
L 435.88073 174.04 
L 434.2176 174.04 
z
" clip-path="url(#pafe25ac2da)" style="fill: #a2c9ae"/>
   </g>
   <g id="patch_185">
    <path d="M 438.9694 174.04 
L 440.63253 174.04 
L 440.63253 174.04 
L 438.9694 174.04 
z
" clip-path="url(#pafe25ac2da)" style="fill: #a2c9ae"/>
   </g>
   <g id="patch_186">
    <path d="M 443.7212 174.04 
L 445.38433 174.04 
L 445.38433 168.487619 
L 443.7212 168.487619 
z
" clip-path="url(#pafe25ac2da)" style="fill: #a2c9ae"/>
   </g>
   <g id="patch_187">
    <path d="M 448.473 174.04 
L 450.13613 174.04 
L 450.13613 174.04 
L 448.473 174.04 
z
" clip-path="url(#pafe25ac2da)" style="fill: #a2c9ae"/>
   </g>
   <g id="patch_188">
    <path d="M 453.2248 174.04 
L 454.88793 174.04 
L 454.88793 168.487619 
L 453.2248 168.487619 
z
" clip-path="url(#pafe25ac2da)" style="fill: #a2c9ae"/>
   </g>
   <g id="patch_189">
    <path d="M 457.9766 174.04 
L 459.63973 174.04 
L 459.63973 174.04 
L 457.9766 174.04 
z
" clip-path="url(#pafe25ac2da)" style="fill: #a2c9ae"/>
   </g>
   <g id="patch_190">
    <path d="M 462.7284 174.04 
L 464.39153 174.04 
L 464.39153 174.04 
L 462.7284 174.04 
z
" clip-path="url(#pafe25ac2da)" style="fill: #a2c9ae"/>
   </g>
   <g id="patch_191">
    <path d="M 467.4802 174.04 
L 469.14333 174.04 
L 469.14333 168.487619 
L 467.4802 168.487619 
z
" clip-path="url(#pafe25ac2da)" style="fill: #a2c9ae"/>
   </g>
   <g id="patch_192">
    <path d="M 472.232 174.04 
L 473.89513 174.04 
L 473.89513 174.04 
L 472.232 174.04 
z
" clip-path="url(#pafe25ac2da)" style="fill: #a2c9ae"/>
   </g>
   <g id="patch_193">
    <path d="M 476.9838 174.04 
L 478.64693 174.04 
L 478.64693 174.04 
L 476.9838 174.04 
z
" clip-path="url(#pafe25ac2da)" style="fill: #a2c9ae"/>
   </g>
   <g id="patch_194">
    <path d="M 481.7356 174.04 
L 483.39873 174.04 
L 483.39873 174.04 
L 481.7356 174.04 
z
" clip-path="url(#pafe25ac2da)" style="fill: #a2c9ae"/>
   </g>
   <g id="patch_195">
    <path d="M 486.4874 174.04 
L 488.15053 174.04 
L 488.15053 174.04 
L 486.4874 174.04 
z
" clip-path="url(#pafe25ac2da)" style="fill: #a2c9ae"/>
   </g>
   <g id="patch_196">
    <path d="M 491.2392 174.04 
L 492.90233 174.04 
L 492.90233 174.04 
L 491.2392 174.04 
z
" clip-path="url(#pafe25ac2da)" style="fill: #a2c9ae"/>
   </g>
   <g id="patch_197">
    <path d="M 495.991 174.04 
L 497.65413 174.04 
L 497.65413 174.04 
L 495.991 174.04 
z
" clip-path="url(#pafe25ac2da)" style="fill: #a2c9ae"/>
   </g>
   <g id="patch_198">
    <path d="M 500.7428 174.04 
L 502.40593 174.04 
L 502.40593 174.04 
L 500.7428 174.04 
z
" clip-path="url(#pafe25ac2da)" style="fill: #a2c9ae"/>
   </g>
   <g id="patch_199">
    <path d="M 505.4946 174.04 
L 507.15773 174.04 
L 507.15773 174.04 
L 505.4946 174.04 
z
" clip-path="url(#pafe25ac2da)" style="fill: #a2c9ae"/>
   </g>
   <g id="patch_200">
    <path d="M 510.2464 174.04 
L 511.90953 174.04 
L 511.90953 174.04 
L 510.2464 174.04 
z
" clip-path="url(#pafe25ac2da)" style="fill: #a2c9ae"/>
   </g>
   <g id="matplotlib.axis_1">
    <g id="xtick_1">
     <g id="line2d_1">
      <defs>
       <path id="m72a1fab91d" d="M 0 0 
L 0 3.5 
" style="stroke: #000000; stroke-width: 0.8"/>
      </defs>
      <g>
       <use xlink:href="#m72a1fab91d" x="44.57" y="174.04" style="stroke: #000000; stroke-width: 0.8"/>
      </g>
     </g>
     <g id="text_1">
      <!-- 0 -->
      <g transform="translate(41.38875 188.638438) scale(0.1 -0.1)">
       <defs>
        <path id="DejaVuSans-30" d="M 2034 4250 
Q 1547 4250 1301 3770 
Q 1056 3291 1056 2328 
Q 1056 1369 1301 889 
Q 1547 409 2034 409 
Q 2525 409 2770 889 
Q 3016 1369 3016 2328 
Q 3016 3291 2770 3770 
Q 2525 4250 2034 4250 
z
M 2034 4750 
Q 2819 4750 3233 4129 
Q 3647 3509 3647 2328 
Q 3647 1150 3233 529 
Q 2819 -91 2034 -91 
Q 1250 -91 836 529 
Q 422 1150 422 2328 
Q 422 3509 836 4129 
Q 1250 4750 2034 4750 
z
" transform="scale(0.015625)"/>
       </defs>
       <use xlink:href="#DejaVuSans-30"/>
      </g>
     </g>
    </g>
    <g id="xtick_2">
     <g id="line2d_2">
      <g>
       <use xlink:href="#m72a1fab91d" x="92.088" y="174.04" style="stroke: #000000; stroke-width: 0.8"/>
      </g>
     </g>
     <g id="text_2">
      <!-- 50 -->
      <g transform="translate(85.7255 188.638438) scale(0.1 -0.1)">
       <defs>
        <path id="DejaVuSans-35" d="M 691 4666 
L 3169 4666 
L 3169 4134 
L 1269 4134 
L 1269 2991 
Q 1406 3038 1543 3061 
Q 1681 3084 1819 3084 
Q 2600 3084 3056 2656 
Q 3513 2228 3513 1497 
Q 3513 744 3044 326 
Q 2575 -91 1722 -91 
Q 1428 -91 1123 -41 
Q 819 9 494 109 
L 494 744 
Q 775 591 1075 516 
Q 1375 441 1709 441 
Q 2250 441 2565 725 
Q 2881 1009 2881 1497 
Q 2881 1984 2565 2268 
Q 2250 2553 1709 2553 
Q 1456 2553 1204 2497 
Q 953 2441 691 2322 
L 691 4666 
z
" transform="scale(0.015625)"/>
       </defs>
       <use xlink:href="#DejaVuSans-35"/>
       <use xlink:href="#DejaVuSans-30" x="63.623047"/>
      </g>
     </g>
    </g>
    <g id="xtick_3">
     <g id="line2d_3">
      <g>
       <use xlink:href="#m72a1fab91d" x="139.606" y="174.04" style="stroke: #000000; stroke-width: 0.8"/>
      </g>
     </g>
     <g id="text_3">
      <!-- 100 -->
      <g transform="translate(130.06225 188.638438) scale(0.1 -0.1)">
       <defs>
        <path id="DejaVuSans-31" d="M 794 531 
L 1825 531 
L 1825 4091 
L 703 3866 
L 703 4441 
L 1819 4666 
L 2450 4666 
L 2450 531 
L 3481 531 
L 3481 0 
L 794 0 
L 794 531 
z
" transform="scale(0.015625)"/>
       </defs>
       <use xlink:href="#DejaVuSans-31"/>
       <use xlink:href="#DejaVuSans-30" x="63.623047"/>
       <use xlink:href="#DejaVuSans-30" x="127.246094"/>
      </g>
     </g>
    </g>
    <g id="xtick_4">
     <g id="line2d_4">
      <g>
       <use xlink:href="#m72a1fab91d" x="187.124" y="174.04" style="stroke: #000000; stroke-width: 0.8"/>
      </g>
     </g>
     <g id="text_4">
      <!-- 150 -->
      <g transform="translate(177.58025 188.638438) scale(0.1 -0.1)">
       <use xlink:href="#DejaVuSans-31"/>
       <use xlink:href="#DejaVuSans-35" x="63.623047"/>
       <use xlink:href="#DejaVuSans-30" x="127.246094"/>
      </g>
     </g>
    </g>
    <g id="xtick_5">
     <g id="line2d_5">
      <g>
       <use xlink:href="#m72a1fab91d" x="234.642" y="174.04" style="stroke: #000000; stroke-width: 0.8"/>
      </g>
     </g>
     <g id="text_5">
      <!-- 200 -->
      <g transform="translate(225.09825 188.638438) scale(0.1 -0.1)">
       <defs>
        <path id="DejaVuSans-32" d="M 1228 531 
L 3431 531 
L 3431 0 
L 469 0 
L 469 531 
Q 828 903 1448 1529 
Q 2069 2156 2228 2338 
Q 2531 2678 2651 2914 
Q 2772 3150 2772 3378 
Q 2772 3750 2511 3984 
Q 2250 4219 1831 4219 
Q 1534 4219 1204 4116 
Q 875 4013 500 3803 
L 500 4441 
Q 881 4594 1212 4672 
Q 1544 4750 1819 4750 
Q 2544 4750 2975 4387 
Q 3406 4025 3406 3419 
Q 3406 3131 3298 2873 
Q 3191 2616 2906 2266 
Q 2828 2175 2409 1742 
Q 1991 1309 1228 531 
z
" transform="scale(0.015625)"/>
       </defs>
       <use xlink:href="#DejaVuSans-32"/>
       <use xlink:href="#DejaVuSans-30" x="63.623047"/>
       <use xlink:href="#DejaVuSans-30" x="127.246094"/>
      </g>
     </g>
    </g>
    <g id="xtick_6">
     <g id="line2d_6">
      <g>
       <use xlink:href="#m72a1fab91d" x="282.16" y="174.04" style="stroke: #000000; stroke-width: 0.8"/>
      </g>
     </g>
     <g id="text_6">
      <!-- 250 -->
      <g transform="translate(272.61625 188.638438) scale(0.1 -0.1)">
       <use xlink:href="#DejaVuSans-32"/>
       <use xlink:href="#DejaVuSans-35" x="63.623047"/>
       <use xlink:href="#DejaVuSans-30" x="127.246094"/>
      </g>
     </g>
    </g>
    <g id="xtick_7">
     <g id="line2d_7">
      <g>
       <use xlink:href="#m72a1fab91d" x="329.678" y="174.04" style="stroke: #000000; stroke-width: 0.8"/>
      </g>
     </g>
     <g id="text_7">
      <!-- 300 -->
      <g transform="translate(320.13425 188.638438) scale(0.1 -0.1)">
       <defs>
        <path id="DejaVuSans-33" d="M 2597 2516 
Q 3050 2419 3304 2112 
Q 3559 1806 3559 1356 
Q 3559 666 3084 287 
Q 2609 -91 1734 -91 
Q 1441 -91 1130 -33 
Q 819 25 488 141 
L 488 750 
Q 750 597 1062 519 
Q 1375 441 1716 441 
Q 2309 441 2620 675 
Q 2931 909 2931 1356 
Q 2931 1769 2642 2001 
Q 2353 2234 1838 2234 
L 1294 2234 
L 1294 2753 
L 1863 2753 
Q 2328 2753 2575 2939 
Q 2822 3125 2822 3475 
Q 2822 3834 2567 4026 
Q 2313 4219 1838 4219 
Q 1578 4219 1281 4162 
Q 984 4106 628 3988 
L 628 4550 
Q 988 4650 1302 4700 
Q 1616 4750 1894 4750 
Q 2613 4750 3031 4423 
Q 3450 4097 3450 3541 
Q 3450 3153 3228 2886 
Q 3006 2619 2597 2516 
z
" transform="scale(0.015625)"/>
       </defs>
       <use xlink:href="#DejaVuSans-33"/>
       <use xlink:href="#DejaVuSans-30" x="63.623047"/>
       <use xlink:href="#DejaVuSans-30" x="127.246094"/>
      </g>
     </g>
    </g>
    <g id="xtick_8">
     <g id="line2d_8">
      <g>
       <use xlink:href="#m72a1fab91d" x="377.196" y="174.04" style="stroke: #000000; stroke-width: 0.8"/>
      </g>
     </g>
     <g id="text_8">
      <!-- 350 -->
      <g transform="translate(367.65225 188.638438) scale(0.1 -0.1)">
       <use xlink:href="#DejaVuSans-33"/>
       <use xlink:href="#DejaVuSans-35" x="63.623047"/>
       <use xlink:href="#DejaVuSans-30" x="127.246094"/>
      </g>
     </g>
    </g>
    <g id="xtick_9">
     <g id="line2d_9">
      <g>
       <use xlink:href="#m72a1fab91d" x="424.714" y="174.04" style="stroke: #000000; stroke-width: 0.8"/>
      </g>
     </g>
     <g id="text_9">
      <!-- 400 -->
      <g transform="translate(415.17025 188.638438) scale(0.1 -0.1)">
       <defs>
        <path id="DejaVuSans-34" d="M 2419 4116 
L 825 1625 
L 2419 1625 
L 2419 4116 
z
M 2253 4666 
L 3047 4666 
L 3047 1625 
L 3713 1625 
L 3713 1100 
L 3047 1100 
L 3047 0 
L 2419 0 
L 2419 1100 
L 313 1100 
L 313 1709 
L 2253 4666 
z
" transform="scale(0.015625)"/>
       </defs>
       <use xlink:href="#DejaVuSans-34"/>
       <use xlink:href="#DejaVuSans-30" x="63.623047"/>
       <use xlink:href="#DejaVuSans-30" x="127.246094"/>
      </g>
     </g>
    </g>
    <g id="xtick_10">
     <g id="line2d_10">
      <g>
       <use xlink:href="#m72a1fab91d" x="472.232" y="174.04" style="stroke: #000000; stroke-width: 0.8"/>
      </g>
     </g>
     <g id="text_10">
      <!-- 450 -->
      <g transform="translate(462.68825 188.638438) scale(0.1 -0.1)">
       <use xlink:href="#DejaVuSans-34"/>
       <use xlink:href="#DejaVuSans-35" x="63.623047"/>
       <use xlink:href="#DejaVuSans-30" x="127.246094"/>
      </g>
     </g>
    </g>
    <g id="xtick_11">
     <g id="line2d_11">
      <g>
       <use xlink:href="#m72a1fab91d" x="519.75" y="174.04" style="stroke: #000000; stroke-width: 0.8"/>
      </g>
     </g>
     <g id="text_11">
      <!-- 500 -->
      <g transform="translate(510.20625 188.638438) scale(0.1 -0.1)">
       <use xlink:href="#DejaVuSans-35"/>
       <use xlink:href="#DejaVuSans-30" x="63.623047"/>
       <use xlink:href="#DejaVuSans-30" x="127.246094"/>
      </g>
     </g>
    </g>
    <g id="text_12">
     <!-- Diffusion Step -->
     <g transform="translate(247.035781 202.316563) scale(0.1 -0.1)">
      <defs>
       <path id="DejaVuSans-44" d="M 1259 4147 
L 1259 519 
L 2022 519 
Q 2988 519 3436 956 
Q 3884 1394 3884 2338 
Q 3884 3275 3436 3711 
Q 2988 4147 2022 4147 
L 1259 4147 
z
M 628 4666 
L 1925 4666 
Q 3281 4666 3915 4102 
Q 4550 3538 4550 2338 
Q 4550 1131 3912 565 
Q 3275 0 1925 0 
L 628 0 
L 628 4666 
z
" transform="scale(0.015625)"/>
       <path id="DejaVuSans-69" d="M 603 3500 
L 1178 3500 
L 1178 0 
L 603 0 
L 603 3500 
z
M 603 4863 
L 1178 4863 
L 1178 4134 
L 603 4134 
L 603 4863 
z
" transform="scale(0.015625)"/>
       <path id="DejaVuSans-66" d="M 2375 4863 
L 2375 4384 
L 1825 4384 
Q 1516 4384 1395 4259 
Q 1275 4134 1275 3809 
L 1275 3500 
L 2222 3500 
L 2222 3053 
L 1275 3053 
L 1275 0 
L 697 0 
L 697 3053 
L 147 3053 
L 147 3500 
L 697 3500 
L 697 3744 
Q 697 4328 969 4595 
Q 1241 4863 1831 4863 
L 2375 4863 
z
" transform="scale(0.015625)"/>
       <path id="DejaVuSans-75" d="M 544 1381 
L 544 3500 
L 1119 3500 
L 1119 1403 
Q 1119 906 1312 657 
Q 1506 409 1894 409 
Q 2359 409 2629 706 
Q 2900 1003 2900 1516 
L 2900 3500 
L 3475 3500 
L 3475 0 
L 2900 0 
L 2900 538 
Q 2691 219 2414 64 
Q 2138 -91 1772 -91 
Q 1169 -91 856 284 
Q 544 659 544 1381 
z
M 1991 3584 
L 1991 3584 
z
" transform="scale(0.015625)"/>
       <path id="DejaVuSans-73" d="M 2834 3397 
L 2834 2853 
Q 2591 2978 2328 3040 
Q 2066 3103 1784 3103 
Q 1356 3103 1142 2972 
Q 928 2841 928 2578 
Q 928 2378 1081 2264 
Q 1234 2150 1697 2047 
L 1894 2003 
Q 2506 1872 2764 1633 
Q 3022 1394 3022 966 
Q 3022 478 2636 193 
Q 2250 -91 1575 -91 
Q 1294 -91 989 -36 
Q 684 19 347 128 
L 347 722 
Q 666 556 975 473 
Q 1284 391 1588 391 
Q 1994 391 2212 530 
Q 2431 669 2431 922 
Q 2431 1156 2273 1281 
Q 2116 1406 1581 1522 
L 1381 1569 
Q 847 1681 609 1914 
Q 372 2147 372 2553 
Q 372 3047 722 3315 
Q 1072 3584 1716 3584 
Q 2034 3584 2315 3537 
Q 2597 3491 2834 3397 
z
" transform="scale(0.015625)"/>
       <path id="DejaVuSans-6f" d="M 1959 3097 
Q 1497 3097 1228 2736 
Q 959 2375 959 1747 
Q 959 1119 1226 758 
Q 1494 397 1959 397 
Q 2419 397 2687 759 
Q 2956 1122 2956 1747 
Q 2956 2369 2687 2733 
Q 2419 3097 1959 3097 
z
M 1959 3584 
Q 2709 3584 3137 3096 
Q 3566 2609 3566 1747 
Q 3566 888 3137 398 
Q 2709 -91 1959 -91 
Q 1206 -91 779 398 
Q 353 888 353 1747 
Q 353 2609 779 3096 
Q 1206 3584 1959 3584 
z
" transform="scale(0.015625)"/>
       <path id="DejaVuSans-6e" d="M 3513 2113 
L 3513 0 
L 2938 0 
L 2938 2094 
Q 2938 2591 2744 2837 
Q 2550 3084 2163 3084 
Q 1697 3084 1428 2787 
Q 1159 2491 1159 1978 
L 1159 0 
L 581 0 
L 581 3500 
L 1159 3500 
L 1159 2956 
Q 1366 3272 1645 3428 
Q 1925 3584 2291 3584 
Q 2894 3584 3203 3211 
Q 3513 2838 3513 2113 
z
" transform="scale(0.015625)"/>
       <path id="DejaVuSans-20" transform="scale(0.015625)"/>
       <path id="DejaVuSans-53" d="M 3425 4513 
L 3425 3897 
Q 3066 4069 2747 4153 
Q 2428 4238 2131 4238 
Q 1616 4238 1336 4038 
Q 1056 3838 1056 3469 
Q 1056 3159 1242 3001 
Q 1428 2844 1947 2747 
L 2328 2669 
Q 3034 2534 3370 2195 
Q 3706 1856 3706 1288 
Q 3706 609 3251 259 
Q 2797 -91 1919 -91 
Q 1588 -91 1214 -16 
Q 841 59 441 206 
L 441 856 
Q 825 641 1194 531 
Q 1563 422 1919 422 
Q 2459 422 2753 634 
Q 3047 847 3047 1241 
Q 3047 1584 2836 1778 
Q 2625 1972 2144 2069 
L 1759 2144 
Q 1053 2284 737 2584 
Q 422 2884 422 3419 
Q 422 4038 858 4394 
Q 1294 4750 2059 4750 
Q 2388 4750 2728 4690 
Q 3069 4631 3425 4513 
z
" transform="scale(0.015625)"/>
       <path id="DejaVuSans-74" d="M 1172 4494 
L 1172 3500 
L 2356 3500 
L 2356 3053 
L 1172 3053 
L 1172 1153 
Q 1172 725 1289 603 
Q 1406 481 1766 481 
L 2356 481 
L 2356 0 
L 1766 0 
Q 1100 0 847 248 
Q 594 497 594 1153 
L 594 3053 
L 172 3053 
L 172 3500 
L 594 3500 
L 594 4494 
L 1172 4494 
z
" transform="scale(0.015625)"/>
       <path id="DejaVuSans-65" d="M 3597 1894 
L 3597 1613 
L 953 1613 
Q 991 1019 1311 708 
Q 1631 397 2203 397 
Q 2534 397 2845 478 
Q 3156 559 3463 722 
L 3463 178 
Q 3153 47 2828 -22 
Q 2503 -91 2169 -91 
Q 1331 -91 842 396 
Q 353 884 353 1716 
Q 353 2575 817 3079 
Q 1281 3584 2069 3584 
Q 2775 3584 3186 3129 
Q 3597 2675 3597 1894 
z
M 3022 2063 
Q 3016 2534 2758 2815 
Q 2500 3097 2075 3097 
Q 1594 3097 1305 2825 
Q 1016 2553 972 2059 
L 3022 2063 
z
" transform="scale(0.015625)"/>
       <path id="DejaVuSans-70" d="M 1159 525 
L 1159 -1331 
L 581 -1331 
L 581 3500 
L 1159 3500 
L 1159 2969 
Q 1341 3281 1617 3432 
Q 1894 3584 2278 3584 
Q 2916 3584 3314 3078 
Q 3713 2572 3713 1747 
Q 3713 922 3314 415 
Q 2916 -91 2278 -91 
Q 1894 -91 1617 61 
Q 1341 213 1159 525 
z
M 3116 1747 
Q 3116 2381 2855 2742 
Q 2594 3103 2138 3103 
Q 1681 3103 1420 2742 
Q 1159 2381 1159 1747 
Q 1159 1113 1420 752 
Q 1681 391 2138 391 
Q 2594 391 2855 752 
Q 3116 1113 3116 1747 
z
" transform="scale(0.015625)"/>
      </defs>
      <use xlink:href="#DejaVuSans-44"/>
      <use xlink:href="#DejaVuSans-69" x="77.001953"/>
      <use xlink:href="#DejaVuSans-66" x="104.785156"/>
      <use xlink:href="#DejaVuSans-66" x="139.990234"/>
      <use xlink:href="#DejaVuSans-75" x="175.195312"/>
      <use xlink:href="#DejaVuSans-73" x="238.574219"/>
      <use xlink:href="#DejaVuSans-69" x="290.673828"/>
      <use xlink:href="#DejaVuSans-6f" x="318.457031"/>
      <use xlink:href="#DejaVuSans-6e" x="379.638672"/>
      <use xlink:href="#DejaVuSans-20" x="443.017578"/>
      <use xlink:href="#DejaVuSans-53" x="474.804688"/>
      <use xlink:href="#DejaVuSans-74" x="538.28125"/>
      <use xlink:href="#DejaVuSans-65" x="577.490234"/>
      <use xlink:href="#DejaVuSans-70" x="639.013672"/>
     </g>
    </g>
   </g>
   <g id="matplotlib.axis_2">
    <g id="ytick_1">
     <g id="line2d_12">
      <path d="M 44.57 174.04 
L 519.75 174.04 
" clip-path="url(#pafe25ac2da)" style="fill: none; stroke: #b0b0b0; stroke-opacity: 0.3; stroke-width: 0.8; stroke-linecap: square"/>
     </g>
     <g id="line2d_13">
      <defs>
       <path id="m6e7927d805" d="M 0 0 
L -3.5 0 
" style="stroke: #000000; stroke-width: 0.8"/>
      </defs>
      <g>
       <use xlink:href="#m6e7927d805" x="44.57" y="174.04" style="stroke: #000000; stroke-width: 0.8"/>
      </g>
     </g>
     <g id="text_13">
      <!-- 0 -->
      <g transform="translate(31.2075 177.839219) scale(0.1 -0.1)">
       <use xlink:href="#DejaVuSans-30"/>
      </g>
     </g>
    </g>
    <g id="ytick_2">
     <g id="line2d_14">
      <path d="M 44.57 146.278095 
L 519.75 146.278095 
" clip-path="url(#pafe25ac2da)" style="fill: none; stroke: #b0b0b0; stroke-opacity: 0.3; stroke-width: 0.8; stroke-linecap: square"/>
     </g>
     <g id="line2d_15">
      <g>
       <use xlink:href="#m6e7927d805" x="44.57" y="146.278095" style="stroke: #000000; stroke-width: 0.8"/>
      </g>
     </g>
     <g id="text_14">
      <!-- 5 -->
      <g transform="translate(31.2075 150.077314) scale(0.1 -0.1)">
       <use xlink:href="#DejaVuSans-35"/>
      </g>
     </g>
    </g>
    <g id="ytick_3">
     <g id="line2d_16">
      <path d="M 44.57 118.51619 
L 519.75 118.51619 
" clip-path="url(#pafe25ac2da)" style="fill: none; stroke: #b0b0b0; stroke-opacity: 0.3; stroke-width: 0.8; stroke-linecap: square"/>
     </g>
     <g id="line2d_17">
      <g>
       <use xlink:href="#m6e7927d805" x="44.57" y="118.51619" style="stroke: #000000; stroke-width: 0.8"/>
      </g>
     </g>
     <g id="text_15">
      <!-- 10 -->
      <g transform="translate(24.845 122.315409) scale(0.1 -0.1)">
       <use xlink:href="#DejaVuSans-31"/>
       <use xlink:href="#DejaVuSans-30" x="63.623047"/>
      </g>
     </g>
    </g>
    <g id="ytick_4">
     <g id="line2d_18">
      <path d="M 44.57 90.754286 
L 519.75 90.754286 
" clip-path="url(#pafe25ac2da)" style="fill: none; stroke: #b0b0b0; stroke-opacity: 0.3; stroke-width: 0.8; stroke-linecap: square"/>
     </g>
     <g id="line2d_19">
      <g>
       <use xlink:href="#m6e7927d805" x="44.57" y="90.754286" style="stroke: #000000; stroke-width: 0.8"/>
      </g>
     </g>
     <g id="text_16">
      <!-- 15 -->
      <g transform="translate(24.845 94.553504) scale(0.1 -0.1)">
       <use xlink:href="#DejaVuSans-31"/>
       <use xlink:href="#DejaVuSans-35" x="63.623047"/>
      </g>
     </g>
    </g>
    <g id="ytick_5">
     <g id="line2d_20">
      <path d="M 44.57 62.992381 
L 519.75 62.992381 
" clip-path="url(#pafe25ac2da)" style="fill: none; stroke: #b0b0b0; stroke-opacity: 0.3; stroke-width: 0.8; stroke-linecap: square"/>
     </g>
     <g id="line2d_21">
      <g>
       <use xlink:href="#m6e7927d805" x="44.57" y="62.992381" style="stroke: #000000; stroke-width: 0.8"/>
      </g>
     </g>
     <g id="text_17">
      <!-- 20 -->
      <g transform="translate(24.845 66.7916) scale(0.1 -0.1)">
       <use xlink:href="#DejaVuSans-32"/>
       <use xlink:href="#DejaVuSans-30" x="63.623047"/>
      </g>
     </g>
    </g>
    <g id="ytick_6">
     <g id="line2d_22">
      <path d="M 44.57 35.230476 
L 519.75 35.230476 
" clip-path="url(#pafe25ac2da)" style="fill: none; stroke: #b0b0b0; stroke-opacity: 0.3; stroke-width: 0.8; stroke-linecap: square"/>
     </g>
     <g id="line2d_23">
      <g>
       <use xlink:href="#m6e7927d805" x="44.57" y="35.230476" style="stroke: #000000; stroke-width: 0.8"/>
      </g>
     </g>
     <g id="text_18">
      <!-- 25 -->
      <g transform="translate(24.845 39.029695) scale(0.1 -0.1)">
       <use xlink:href="#DejaVuSans-32"/>
       <use xlink:href="#DejaVuSans-35" x="63.623047"/>
      </g>
     </g>
    </g>
    <g id="text_19">
     <!-- Number of Bonds -->
     <g transform="translate(18.765313 135.941094) rotate(-90) scale(0.1 -0.1)">
      <defs>
       <path id="DejaVuSans-4e" d="M 628 4666 
L 1478 4666 
L 3547 763 
L 3547 4666 
L 4159 4666 
L 4159 0 
L 3309 0 
L 1241 3903 
L 1241 0 
L 628 0 
L 628 4666 
z
" transform="scale(0.015625)"/>
       <path id="DejaVuSans-6d" d="M 3328 2828 
Q 3544 3216 3844 3400 
Q 4144 3584 4550 3584 
Q 5097 3584 5394 3201 
Q 5691 2819 5691 2113 
L 5691 0 
L 5113 0 
L 5113 2094 
Q 5113 2597 4934 2840 
Q 4756 3084 4391 3084 
Q 3944 3084 3684 2787 
Q 3425 2491 3425 1978 
L 3425 0 
L 2847 0 
L 2847 2094 
Q 2847 2600 2669 2842 
Q 2491 3084 2119 3084 
Q 1678 3084 1418 2786 
Q 1159 2488 1159 1978 
L 1159 0 
L 581 0 
L 581 3500 
L 1159 3500 
L 1159 2956 
Q 1356 3278 1631 3431 
Q 1906 3584 2284 3584 
Q 2666 3584 2933 3390 
Q 3200 3197 3328 2828 
z
" transform="scale(0.015625)"/>
       <path id="DejaVuSans-62" d="M 3116 1747 
Q 3116 2381 2855 2742 
Q 2594 3103 2138 3103 
Q 1681 3103 1420 2742 
Q 1159 2381 1159 1747 
Q 1159 1113 1420 752 
Q 1681 391 2138 391 
Q 2594 391 2855 752 
Q 3116 1113 3116 1747 
z
M 1159 2969 
Q 1341 3281 1617 3432 
Q 1894 3584 2278 3584 
Q 2916 3584 3314 3078 
Q 3713 2572 3713 1747 
Q 3713 922 3314 415 
Q 2916 -91 2278 -91 
Q 1894 -91 1617 61 
Q 1341 213 1159 525 
L 1159 0 
L 581 0 
L 581 4863 
L 1159 4863 
L 1159 2969 
z
" transform="scale(0.015625)"/>
       <path id="DejaVuSans-72" d="M 2631 2963 
Q 2534 3019 2420 3045 
Q 2306 3072 2169 3072 
Q 1681 3072 1420 2755 
Q 1159 2438 1159 1844 
L 1159 0 
L 581 0 
L 581 3500 
L 1159 3500 
L 1159 2956 
Q 1341 3275 1631 3429 
Q 1922 3584 2338 3584 
Q 2397 3584 2469 3576 
Q 2541 3569 2628 3553 
L 2631 2963 
z
" transform="scale(0.015625)"/>
       <path id="DejaVuSans-42" d="M 1259 2228 
L 1259 519 
L 2272 519 
Q 2781 519 3026 730 
Q 3272 941 3272 1375 
Q 3272 1813 3026 2020 
Q 2781 2228 2272 2228 
L 1259 2228 
z
M 1259 4147 
L 1259 2741 
L 2194 2741 
Q 2656 2741 2882 2914 
Q 3109 3088 3109 3444 
Q 3109 3797 2882 3972 
Q 2656 4147 2194 4147 
L 1259 4147 
z
M 628 4666 
L 2241 4666 
Q 2963 4666 3353 4366 
Q 3744 4066 3744 3513 
Q 3744 3084 3544 2831 
Q 3344 2578 2956 2516 
Q 3422 2416 3680 2098 
Q 3938 1781 3938 1306 
Q 3938 681 3513 340 
Q 3088 0 2303 0 
L 628 0 
L 628 4666 
z
" transform="scale(0.015625)"/>
       <path id="DejaVuSans-64" d="M 2906 2969 
L 2906 4863 
L 3481 4863 
L 3481 0 
L 2906 0 
L 2906 525 
Q 2725 213 2448 61 
Q 2172 -91 1784 -91 
Q 1150 -91 751 415 
Q 353 922 353 1747 
Q 353 2572 751 3078 
Q 1150 3584 1784 3584 
Q 2172 3584 2448 3432 
Q 2725 3281 2906 2969 
z
M 947 1747 
Q 947 1113 1208 752 
Q 1469 391 1925 391 
Q 2381 391 2643 752 
Q 2906 1113 2906 1747 
Q 2906 2381 2643 2742 
Q 2381 3103 1925 3103 
Q 1469 3103 1208 2742 
Q 947 2381 947 1747 
z
" transform="scale(0.015625)"/>
      </defs>
      <use xlink:href="#DejaVuSans-4e"/>
      <use xlink:href="#DejaVuSans-75" x="74.804688"/>
      <use xlink:href="#DejaVuSans-6d" x="138.183594"/>
      <use xlink:href="#DejaVuSans-62" x="235.595703"/>
      <use xlink:href="#DejaVuSans-65" x="299.072266"/>
      <use xlink:href="#DejaVuSans-72" x="360.595703"/>
      <use xlink:href="#DejaVuSans-20" x="401.708984"/>
      <use xlink:href="#DejaVuSans-6f" x="433.496094"/>
      <use xlink:href="#DejaVuSans-66" x="494.677734"/>
      <use xlink:href="#DejaVuSans-20" x="529.882812"/>
      <use xlink:href="#DejaVuSans-42" x="561.669922"/>
      <use xlink:href="#DejaVuSans-6f" x="630.273438"/>
      <use xlink:href="#DejaVuSans-6e" x="691.455078"/>
      <use xlink:href="#DejaVuSans-64" x="754.833984"/>
      <use xlink:href="#DejaVuSans-73" x="818.310547"/>
     </g>
    </g>
   </g>
   <g id="patch_201">
    <path d="M 44.57 174.04 
L 44.57 10.8 
" style="fill: none; stroke: #000000; stroke-width: 0.8; stroke-linejoin: miter; stroke-linecap: square"/>
   </g>
   <g id="patch_202">
    <path d="M 519.75 174.04 
L 519.75 10.8 
" style="fill: none; stroke: #000000; stroke-width: 0.8; stroke-linejoin: miter; stroke-linecap: square"/>
   </g>
   <g id="patch_203">
    <path d="M 44.57 174.04 
L 519.75 174.04 
" style="fill: none; stroke: #000000; stroke-width: 0.8; stroke-linejoin: miter; stroke-linecap: square"/>
   </g>
   <g id="patch_204">
    <path d="M 44.57 10.8 
L 519.75 10.8 
" style="fill: none; stroke: #000000; stroke-width: 0.8; stroke-linejoin: miter; stroke-linecap: square"/>
   </g>
   <g id="legend_1">
    <g id="patch_205">
     <path d="M 411.203125 48.15625 
L 512.75 48.15625 
Q 514.75 48.15625 514.75 46.15625 
L 514.75 17.8 
Q 514.75 15.8 512.75 15.8 
L 411.203125 15.8 
Q 409.203125 15.8 409.203125 17.8 
L 409.203125 46.15625 
Q 409.203125 48.15625 411.203125 48.15625 
z
" style="fill: #ffffff; opacity: 0.8; stroke: #cccccc; stroke-linejoin: miter"/>
    </g>
    <g id="patch_206">
     <path d="M 413.203125 27.398438 
L 433.203125 27.398438 
L 433.203125 20.398438 
L 413.203125 20.398438 
z
" style="fill: #8e7fb8"/>
    </g>
    <g id="text_20">
     <!-- Bonds Gained -->
     <g transform="translate(441.203125 27.398438) scale(0.1 -0.1)">
      <defs>
       <path id="DejaVuSans-47" d="M 3809 666 
L 3809 1919 
L 2778 1919 
L 2778 2438 
L 4434 2438 
L 4434 434 
Q 4069 175 3628 42 
Q 3188 -91 2688 -91 
Q 1594 -91 976 548 
Q 359 1188 359 2328 
Q 359 3472 976 4111 
Q 1594 4750 2688 4750 
Q 3144 4750 3555 4637 
Q 3966 4525 4313 4306 
L 4313 3634 
Q 3963 3931 3569 4081 
Q 3175 4231 2741 4231 
Q 1884 4231 1454 3753 
Q 1025 3275 1025 2328 
Q 1025 1384 1454 906 
Q 1884 428 2741 428 
Q 3075 428 3337 486 
Q 3600 544 3809 666 
z
" transform="scale(0.015625)"/>
       <path id="DejaVuSans-61" d="M 2194 1759 
Q 1497 1759 1228 1600 
Q 959 1441 959 1056 
Q 959 750 1161 570 
Q 1363 391 1709 391 
Q 2188 391 2477 730 
Q 2766 1069 2766 1631 
L 2766 1759 
L 2194 1759 
z
M 3341 1997 
L 3341 0 
L 2766 0 
L 2766 531 
Q 2569 213 2275 61 
Q 1981 -91 1556 -91 
Q 1019 -91 701 211 
Q 384 513 384 1019 
Q 384 1609 779 1909 
Q 1175 2209 1959 2209 
L 2766 2209 
L 2766 2266 
Q 2766 2663 2505 2880 
Q 2244 3097 1772 3097 
Q 1472 3097 1187 3025 
Q 903 2953 641 2809 
L 641 3341 
Q 956 3463 1253 3523 
Q 1550 3584 1831 3584 
Q 2591 3584 2966 3190 
Q 3341 2797 3341 1997 
z
" transform="scale(0.015625)"/>
      </defs>
      <use xlink:href="#DejaVuSans-42"/>
      <use xlink:href="#DejaVuSans-6f" x="68.603516"/>
      <use xlink:href="#DejaVuSans-6e" x="129.785156"/>
      <use xlink:href="#DejaVuSans-64" x="193.164062"/>
      <use xlink:href="#DejaVuSans-73" x="256.640625"/>
      <use xlink:href="#DejaVuSans-20" x="308.740234"/>
      <use xlink:href="#DejaVuSans-47" x="340.527344"/>
      <use xlink:href="#DejaVuSans-61" x="418.017578"/>
      <use xlink:href="#DejaVuSans-69" x="479.296875"/>
      <use xlink:href="#DejaVuSans-6e" x="507.080078"/>
      <use xlink:href="#DejaVuSans-65" x="570.458984"/>
      <use xlink:href="#DejaVuSans-64" x="631.982422"/>
     </g>
    </g>
    <g id="patch_207">
     <path d="M 413.203125 42.076562 
L 433.203125 42.076562 
L 433.203125 35.076562 
L 413.203125 35.076562 
z
" style="fill: #a2c9ae"/>
    </g>
    <g id="text_21">
     <!-- Bonds Lost -->
     <g transform="translate(441.203125 42.076562) scale(0.1 -0.1)">
      <defs>
       <path id="DejaVuSans-4c" d="M 628 4666 
L 1259 4666 
L 1259 531 
L 3531 531 
L 3531 0 
L 628 0 
L 628 4666 
z
" transform="scale(0.015625)"/>
      </defs>
      <use xlink:href="#DejaVuSans-42"/>
      <use xlink:href="#DejaVuSans-6f" x="68.603516"/>
      <use xlink:href="#DejaVuSans-6e" x="129.785156"/>
      <use xlink:href="#DejaVuSans-64" x="193.164062"/>
      <use xlink:href="#DejaVuSans-73" x="256.640625"/>
      <use xlink:href="#DejaVuSans-20" x="308.740234"/>
      <use xlink:href="#DejaVuSans-4c" x="340.527344"/>
      <use xlink:href="#DejaVuSans-6f" x="394.490234"/>
      <use xlink:href="#DejaVuSans-73" x="455.671875"/>
      <use xlink:href="#DejaVuSans-74" x="507.771484"/>
     </g>
    </g>
   </g>
  </g>
 </g>
 <defs>
  <clipPath id="pafe25ac2da">
   <rect x="44.57" y="10.8" width="475.18" height="163.24"/>
  </clipPath>
 </defs>
</svg>
