<?xml version="1.0" encoding="utf-8" standalone="no"?>
<!DOCTYPE svg PUBLIC "-//W3C//DTD SVG 1.1//EN"
  "http://www.w3.org/Graphics/SVG/1.1/DTD/svg11.dtd">
<svg xmlns:xlink="http://www.w3.org/1999/xlink" width="288pt" height="216pt" viewBox="0 0 288 216" xmlns="http://www.w3.org/2000/svg" version="1.1">
 <metadata>
  <rdf:RDF xmlns:dc="http://purl.org/dc/elements/1.1/" xmlns:cc="http://creativecommons.org/ns#" xmlns:rdf="http://www.w3.org/1999/02/22-rdf-syntax-ns#">
   <cc:Work>
    <dc:type rdf:resource="http://purl.org/dc/dcmitype/StillImage"/>
    <dc:date>2025-05-12T16:54:57.801150</dc:date>
    <dc:format>image/svg+xml</dc:format>
    <dc:creator>
     <cc:Agent>
      <dc:title>Matplotlib v3.9.4, https://matplotlib.org/</dc:title>
     </cc:Agent>
    </dc:creator>
   </cc:Work>
  </rdf:RDF>
 </metadata>
 <defs>
  <style type="text/css">*{stroke-linejoin: round; stroke-linecap: butt}</style>
 </defs>
 <g id="figure_1">
  <g id="patch_1">
   <path d="M 0 216 
L 288 216 
L 288 0 
L 0 0 
z
" style="fill: #ffffff"/>
  </g>
  <g id="axes_1">
   <g id="patch_2">
    <path d="M 57.65625 159.079107 
L 275.04 159.079107 
L 275.04 44.016 
L 57.65625 44.016 
z
" style="fill: #ffffff"/>
   </g>
   <g id="matplotlib.axis_1">
    <g id="xtick_1">
     <g id="line2d_1">
      <path d="M 67.53733 159.079107 
L 67.53733 44.016 
" clip-path="url(#p1d63e0e057)" style="fill: none; stroke: #cccccc; stroke-linecap: round"/>
     </g>
     <g id="text_1">
      <!-- 1 -->
      <g style="fill: #262626" transform="translate(60.970849 179.438168) rotate(-45) scale(0.11 -0.11)">
       <defs>
        <path id="DejaVuSans-31" d="M 794 531 
L 1825 531 
L 1825 4091 
L 703 3866 
L 703 4441 
L 1819 4666 
L 2450 4666 
L 2450 531 
L 3481 531 
L 3481 0 
L 794 0 
L 794 531 
z
" transform="scale(0.015625)"/>
       </defs>
       <use xlink:href="#DejaVuSans-31"/>
      </g>
     </g>
    </g>
    <g id="xtick_2">
     <g id="line2d_2">
      <path d="M 87.499106 159.079107 
L 87.499106 44.016 
" clip-path="url(#p1d63e0e057)" style="fill: none; stroke: #cccccc; stroke-linecap: round"/>
     </g>
     <g id="text_2">
      <!-- 11 -->
      <g style="fill: #262626" transform="translate(75.983762 184.387032) rotate(-45) scale(0.11 -0.11)">
       <use xlink:href="#DejaVuSans-31"/>
       <use xlink:href="#DejaVuSans-31" x="63.623047"/>
      </g>
     </g>
    </g>
    <g id="xtick_3">
     <g id="line2d_3">
      <path d="M 107.460883 159.079107 
L 107.460883 44.016 
" clip-path="url(#p1d63e0e057)" style="fill: none; stroke: #cccccc; stroke-linecap: round"/>
     </g>
     <g id="text_3">
      <!-- 21 -->
      <g style="fill: #262626" transform="translate(95.945539 184.387032) rotate(-45) scale(0.11 -0.11)">
       <defs>
        <path id="DejaVuSans-32" d="M 1228 531 
L 3431 531 
L 3431 0 
L 469 0 
L 469 531 
Q 828 903 1448 1529 
Q 2069 2156 2228 2338 
Q 2531 2678 2651 2914 
Q 2772 3150 2772 3378 
Q 2772 3750 2511 3984 
Q 2250 4219 1831 4219 
Q 1534 4219 1204 4116 
Q 875 4013 500 3803 
L 500 4441 
Q 881 4594 1212 4672 
Q 1544 4750 1819 4750 
Q 2544 4750 2975 4387 
Q 3406 4025 3406 3419 
Q 3406 3131 3298 2873 
Q 3191 2616 2906 2266 
Q 2828 2175 2409 1742 
Q 1991 1309 1228 531 
z
" transform="scale(0.015625)"/>
       </defs>
       <use xlink:href="#DejaVuSans-32"/>
       <use xlink:href="#DejaVuSans-31" x="63.623047"/>
      </g>
     </g>
    </g>
    <g id="xtick_4">
     <g id="line2d_4">
      <path d="M 127.42266 159.079107 
L 127.42266 44.016 
" clip-path="url(#p1d63e0e057)" style="fill: none; stroke: #cccccc; stroke-linecap: round"/>
     </g>
     <g id="text_4">
      <!-- 31 -->
      <g style="fill: #262626" transform="translate(115.907316 184.387032) rotate(-45) scale(0.11 -0.11)">
       <defs>
        <path id="DejaVuSans-33" d="M 2597 2516 
Q 3050 2419 3304 2112 
Q 3559 1806 3559 1356 
Q 3559 666 3084 287 
Q 2609 -91 1734 -91 
Q 1441 -91 1130 -33 
Q 819 25 488 141 
L 488 750 
Q 750 597 1062 519 
Q 1375 441 1716 441 
Q 2309 441 2620 675 
Q 2931 909 2931 1356 
Q 2931 1769 2642 2001 
Q 2353 2234 1838 2234 
L 1294 2234 
L 1294 2753 
L 1863 2753 
Q 2328 2753 2575 2939 
Q 2822 3125 2822 3475 
Q 2822 3834 2567 4026 
Q 2313 4219 1838 4219 
Q 1578 4219 1281 4162 
Q 984 4106 628 3988 
L 628 4550 
Q 988 4650 1302 4700 
Q 1616 4750 1894 4750 
Q 2613 4750 3031 4423 
Q 3450 4097 3450 3541 
Q 3450 3153 3228 2886 
Q 3006 2619 2597 2516 
z
" transform="scale(0.015625)"/>
       </defs>
       <use xlink:href="#DejaVuSans-33"/>
       <use xlink:href="#DejaVuSans-31" x="63.623047"/>
      </g>
     </g>
    </g>
    <g id="xtick_5">
     <g id="line2d_5">
      <path d="M 147.384437 159.079107 
L 147.384437 44.016 
" clip-path="url(#p1d63e0e057)" style="fill: none; stroke: #cccccc; stroke-linecap: round"/>
     </g>
     <g id="text_5">
      <!-- 41 -->
      <g style="fill: #262626" transform="translate(135.869093 184.387032) rotate(-45) scale(0.11 -0.11)">
       <defs>
        <path id="DejaVuSans-34" d="M 2419 4116 
L 825 1625 
L 2419 1625 
L 2419 4116 
z
M 2253 4666 
L 3047 4666 
L 3047 1625 
L 3713 1625 
L 3713 1100 
L 3047 1100 
L 3047 0 
L 2419 0 
L 2419 1100 
L 313 1100 
L 313 1709 
L 2253 4666 
z
" transform="scale(0.015625)"/>
       </defs>
       <use xlink:href="#DejaVuSans-34"/>
       <use xlink:href="#DejaVuSans-31" x="63.623047"/>
      </g>
     </g>
    </g>
    <g id="xtick_6">
     <g id="line2d_6">
      <path d="M 167.346214 159.079107 
L 167.346214 44.016 
" clip-path="url(#p1d63e0e057)" style="fill: none; stroke: #cccccc; stroke-linecap: round"/>
     </g>
     <g id="text_6">
      <!-- 51 -->
      <g style="fill: #262626" transform="translate(155.830869 184.387032) rotate(-45) scale(0.11 -0.11)">
       <defs>
        <path id="DejaVuSans-35" d="M 691 4666 
L 3169 4666 
L 3169 4134 
L 1269 4134 
L 1269 2991 
Q 1406 3038 1543 3061 
Q 1681 3084 1819 3084 
Q 2600 3084 3056 2656 
Q 3513 2228 3513 1497 
Q 3513 744 3044 326 
Q 2575 -91 1722 -91 
Q 1428 -91 1123 -41 
Q 819 9 494 109 
L 494 744 
Q 775 591 1075 516 
Q 1375 441 1709 441 
Q 2250 441 2565 725 
Q 2881 1009 2881 1497 
Q 2881 1984 2565 2268 
Q 2250 2553 1709 2553 
Q 1456 2553 1204 2497 
Q 953 2441 691 2322 
L 691 4666 
z
" transform="scale(0.015625)"/>
       </defs>
       <use xlink:href="#DejaVuSans-35"/>
       <use xlink:href="#DejaVuSans-31" x="63.623047"/>
      </g>
     </g>
    </g>
    <g id="xtick_7">
     <g id="line2d_7">
      <path d="M 187.307991 159.079107 
L 187.307991 44.016 
" clip-path="url(#p1d63e0e057)" style="fill: none; stroke: #cccccc; stroke-linecap: round"/>
     </g>
     <g id="text_7">
      <!-- 61 -->
      <g style="fill: #262626" transform="translate(175.792646 184.387032) rotate(-45) scale(0.11 -0.11)">
       <defs>
        <path id="DejaVuSans-36" d="M 2113 2584 
Q 1688 2584 1439 2293 
Q 1191 2003 1191 1497 
Q 1191 994 1439 701 
Q 1688 409 2113 409 
Q 2538 409 2786 701 
Q 3034 994 3034 1497 
Q 3034 2003 2786 2293 
Q 2538 2584 2113 2584 
z
M 3366 4563 
L 3366 3988 
Q 3128 4100 2886 4159 
Q 2644 4219 2406 4219 
Q 1781 4219 1451 3797 
Q 1122 3375 1075 2522 
Q 1259 2794 1537 2939 
Q 1816 3084 2150 3084 
Q 2853 3084 3261 2657 
Q 3669 2231 3669 1497 
Q 3669 778 3244 343 
Q 2819 -91 2113 -91 
Q 1303 -91 875 529 
Q 447 1150 447 2328 
Q 447 3434 972 4092 
Q 1497 4750 2381 4750 
Q 2619 4750 2861 4703 
Q 3103 4656 3366 4563 
z
" transform="scale(0.015625)"/>
       </defs>
       <use xlink:href="#DejaVuSans-36"/>
       <use xlink:href="#DejaVuSans-31" x="63.623047"/>
      </g>
     </g>
    </g>
    <g id="xtick_8">
     <g id="line2d_8">
      <path d="M 207.269768 159.079107 
L 207.269768 44.016 
" clip-path="url(#p1d63e0e057)" style="fill: none; stroke: #cccccc; stroke-linecap: round"/>
     </g>
     <g id="text_8">
      <!-- 71 -->
      <g style="fill: #262626" transform="translate(195.754423 184.387032) rotate(-45) scale(0.11 -0.11)">
       <defs>
        <path id="DejaVuSans-37" d="M 525 4666 
L 3525 4666 
L 3525 4397 
L 1831 0 
L 1172 0 
L 2766 4134 
L 525 4134 
L 525 4666 
z
" transform="scale(0.015625)"/>
       </defs>
       <use xlink:href="#DejaVuSans-37"/>
       <use xlink:href="#DejaVuSans-31" x="63.623047"/>
      </g>
     </g>
    </g>
    <g id="xtick_9">
     <g id="line2d_9">
      <path d="M 227.231544 159.079107 
L 227.231544 44.016 
" clip-path="url(#p1d63e0e057)" style="fill: none; stroke: #cccccc; stroke-linecap: round"/>
     </g>
     <g id="text_9">
      <!-- 81 -->
      <g style="fill: #262626" transform="translate(215.7162 184.387032) rotate(-45) scale(0.11 -0.11)">
       <defs>
        <path id="DejaVuSans-38" d="M 2034 2216 
Q 1584 2216 1326 1975 
Q 1069 1734 1069 1313 
Q 1069 891 1326 650 
Q 1584 409 2034 409 
Q 2484 409 2743 651 
Q 3003 894 3003 1313 
Q 3003 1734 2745 1975 
Q 2488 2216 2034 2216 
z
M 1403 2484 
Q 997 2584 770 2862 
Q 544 3141 544 3541 
Q 544 4100 942 4425 
Q 1341 4750 2034 4750 
Q 2731 4750 3128 4425 
Q 3525 4100 3525 3541 
Q 3525 3141 3298 2862 
Q 3072 2584 2669 2484 
Q 3125 2378 3379 2068 
Q 3634 1759 3634 1313 
Q 3634 634 3220 271 
Q 2806 -91 2034 -91 
Q 1263 -91 848 271 
Q 434 634 434 1313 
Q 434 1759 690 2068 
Q 947 2378 1403 2484 
z
M 1172 3481 
Q 1172 3119 1398 2916 
Q 1625 2713 2034 2713 
Q 2441 2713 2670 2916 
Q 2900 3119 2900 3481 
Q 2900 3844 2670 4047 
Q 2441 4250 2034 4250 
Q 1625 4250 1398 4047 
Q 1172 3844 1172 3481 
z
" transform="scale(0.015625)"/>
       </defs>
       <use xlink:href="#DejaVuSans-38"/>
       <use xlink:href="#DejaVuSans-31" x="63.623047"/>
      </g>
     </g>
    </g>
    <g id="xtick_10">
     <g id="line2d_10">
      <path d="M 247.193321 159.079107 
L 247.193321 44.016 
" clip-path="url(#p1d63e0e057)" style="fill: none; stroke: #cccccc; stroke-linecap: round"/>
     </g>
     <g id="text_10">
      <!-- 91 -->
      <g style="fill: #262626" transform="translate(235.677977 184.387032) rotate(-45) scale(0.11 -0.11)">
       <defs>
        <path id="DejaVuSans-39" d="M 703 97 
L 703 672 
Q 941 559 1184 500 
Q 1428 441 1663 441 
Q 2288 441 2617 861 
Q 2947 1281 2994 2138 
Q 2813 1869 2534 1725 
Q 2256 1581 1919 1581 
Q 1219 1581 811 2004 
Q 403 2428 403 3163 
Q 403 3881 828 4315 
Q 1253 4750 1959 4750 
Q 2769 4750 3195 4129 
Q 3622 3509 3622 2328 
Q 3622 1225 3098 567 
Q 2575 -91 1691 -91 
Q 1453 -91 1209 -44 
Q 966 3 703 97 
z
M 1959 2075 
Q 2384 2075 2632 2365 
Q 2881 2656 2881 3163 
Q 2881 3666 2632 3958 
Q 2384 4250 1959 4250 
Q 1534 4250 1286 3958 
Q 1038 3666 1038 3163 
Q 1038 2656 1286 2365 
Q 1534 2075 1959 2075 
z
" transform="scale(0.015625)"/>
       </defs>
       <use xlink:href="#DejaVuSans-39"/>
       <use xlink:href="#DejaVuSans-31" x="63.623047"/>
      </g>
     </g>
    </g>
    <g id="text_11">
     <!-- Model ID -->
     <g style="fill: #262626" transform="translate(140.035312 199.122774) scale(0.12 -0.12)">
      <defs>
       <path id="DejaVuSans-4d" d="M 628 4666 
L 1569 4666 
L 2759 1491 
L 3956 4666 
L 4897 4666 
L 4897 0 
L 4281 0 
L 4281 4097 
L 3078 897 
L 2444 897 
L 1241 4097 
L 1241 0 
L 628 0 
L 628 4666 
z
" transform="scale(0.015625)"/>
       <path id="DejaVuSans-6f" d="M 1959 3097 
Q 1497 3097 1228 2736 
Q 959 2375 959 1747 
Q 959 1119 1226 758 
Q 1494 397 1959 397 
Q 2419 397 2687 759 
Q 2956 1122 2956 1747 
Q 2956 2369 2687 2733 
Q 2419 3097 1959 3097 
z
M 1959 3584 
Q 2709 3584 3137 3096 
Q 3566 2609 3566 1747 
Q 3566 888 3137 398 
Q 2709 -91 1959 -91 
Q 1206 -91 779 398 
Q 353 888 353 1747 
Q 353 2609 779 3096 
Q 1206 3584 1959 3584 
z
" transform="scale(0.015625)"/>
       <path id="DejaVuSans-64" d="M 2906 2969 
L 2906 4863 
L 3481 4863 
L 3481 0 
L 2906 0 
L 2906 525 
Q 2725 213 2448 61 
Q 2172 -91 1784 -91 
Q 1150 -91 751 415 
Q 353 922 353 1747 
Q 353 2572 751 3078 
Q 1150 3584 1784 3584 
Q 2172 3584 2448 3432 
Q 2725 3281 2906 2969 
z
M 947 1747 
Q 947 1113 1208 752 
Q 1469 391 1925 391 
Q 2381 391 2643 752 
Q 2906 1113 2906 1747 
Q 2906 2381 2643 2742 
Q 2381 3103 1925 3103 
Q 1469 3103 1208 2742 
Q 947 2381 947 1747 
z
" transform="scale(0.015625)"/>
       <path id="DejaVuSans-65" d="M 3597 1894 
L 3597 1613 
L 953 1613 
Q 991 1019 1311 708 
Q 1631 397 2203 397 
Q 2534 397 2845 478 
Q 3156 559 3463 722 
L 3463 178 
Q 3153 47 2828 -22 
Q 2503 -91 2169 -91 
Q 1331 -91 842 396 
Q 353 884 353 1716 
Q 353 2575 817 3079 
Q 1281 3584 2069 3584 
Q 2775 3584 3186 3129 
Q 3597 2675 3597 1894 
z
M 3022 2063 
Q 3016 2534 2758 2815 
Q 2500 3097 2075 3097 
Q 1594 3097 1305 2825 
Q 1016 2553 972 2059 
L 3022 2063 
z
" transform="scale(0.015625)"/>
       <path id="DejaVuSans-6c" d="M 603 4863 
L 1178 4863 
L 1178 0 
L 603 0 
L 603 4863 
z
" transform="scale(0.015625)"/>
       <path id="DejaVuSans-20" transform="scale(0.015625)"/>
       <path id="DejaVuSans-49" d="M 628 4666 
L 1259 4666 
L 1259 0 
L 628 0 
L 628 4666 
z
" transform="scale(0.015625)"/>
       <path id="DejaVuSans-44" d="M 1259 4147 
L 1259 519 
L 2022 519 
Q 2988 519 3436 956 
Q 3884 1394 3884 2338 
Q 3884 3275 3436 3711 
Q 2988 4147 2022 4147 
L 1259 4147 
z
M 628 4666 
L 1925 4666 
Q 3281 4666 3915 4102 
Q 4550 3538 4550 2338 
Q 4550 1131 3912 565 
Q 3275 0 1925 0 
L 628 0 
L 628 4666 
z
" transform="scale(0.015625)"/>
      </defs>
      <use xlink:href="#DejaVuSans-4d"/>
      <use xlink:href="#DejaVuSans-6f" x="86.279297"/>
      <use xlink:href="#DejaVuSans-64" x="147.460938"/>
      <use xlink:href="#DejaVuSans-65" x="210.9375"/>
      <use xlink:href="#DejaVuSans-6c" x="272.460938"/>
      <use xlink:href="#DejaVuSans-20" x="300.244141"/>
      <use xlink:href="#DejaVuSans-49" x="332.03125"/>
      <use xlink:href="#DejaVuSans-44" x="361.523438"/>
     </g>
    </g>
   </g>
   <g id="matplotlib.axis_2">
    <g id="ytick_1">
     <g id="line2d_11">
      <path d="M 57.65625 158.955942 
L 275.04 158.955942 
" clip-path="url(#p1d63e0e057)" style="fill: none; stroke: #cccccc; stroke-linecap: round"/>
     </g>
     <g id="text_12">
      <!-- 1 -->
      <g style="fill: #262626" transform="translate(41.1575 163.135082) scale(0.11 -0.11)">
       <use xlink:href="#DejaVuSans-31"/>
      </g>
     </g>
    </g>
    <g id="ytick_2">
     <g id="line2d_12">
      <path d="M 57.65625 119.166394 
L 275.04 119.166394 
" clip-path="url(#p1d63e0e057)" style="fill: none; stroke: #cccccc; stroke-linecap: round"/>
     </g>
     <g id="text_13">
      <!-- 2 -->
      <g style="fill: #262626" transform="translate(41.1575 123.345535) scale(0.11 -0.11)">
       <use xlink:href="#DejaVuSans-32"/>
      </g>
     </g>
    </g>
    <g id="ytick_3">
     <g id="line2d_13">
      <path d="M 57.65625 79.376847 
L 275.04 79.376847 
" clip-path="url(#p1d63e0e057)" style="fill: none; stroke: #cccccc; stroke-linecap: round"/>
     </g>
     <g id="text_14">
      <!-- 3 -->
      <g style="fill: #262626" transform="translate(41.1575 83.555988) scale(0.11 -0.11)">
       <use xlink:href="#DejaVuSans-33"/>
      </g>
     </g>
    </g>
    <g id="text_15">
     <!-- Distance (Å) -->
     <g style="fill: #262626" transform="translate(34.661875 138.475679) rotate(-90) scale(0.12 -0.12)">
      <defs>
       <path id="DejaVuSans-69" d="M 603 3500 
L 1178 3500 
L 1178 0 
L 603 0 
L 603 3500 
z
M 603 4863 
L 1178 4863 
L 1178 4134 
L 603 4134 
L 603 4863 
z
" transform="scale(0.015625)"/>
       <path id="DejaVuSans-73" d="M 2834 3397 
L 2834 2853 
Q 2591 2978 2328 3040 
Q 2066 3103 1784 3103 
Q 1356 3103 1142 2972 
Q 928 2841 928 2578 
Q 928 2378 1081 2264 
Q 1234 2150 1697 2047 
L 1894 2003 
Q 2506 1872 2764 1633 
Q 3022 1394 3022 966 
Q 3022 478 2636 193 
Q 2250 -91 1575 -91 
Q 1294 -91 989 -36 
Q 684 19 347 128 
L 347 722 
Q 666 556 975 473 
Q 1284 391 1588 391 
Q 1994 391 2212 530 
Q 2431 669 2431 922 
Q 2431 1156 2273 1281 
Q 2116 1406 1581 1522 
L 1381 1569 
Q 847 1681 609 1914 
Q 372 2147 372 2553 
Q 372 3047 722 3315 
Q 1072 3584 1716 3584 
Q 2034 3584 2315 3537 
Q 2597 3491 2834 3397 
z
" transform="scale(0.015625)"/>
       <path id="DejaVuSans-74" d="M 1172 4494 
L 1172 3500 
L 2356 3500 
L 2356 3053 
L 1172 3053 
L 1172 1153 
Q 1172 725 1289 603 
Q 1406 481 1766 481 
L 2356 481 
L 2356 0 
L 1766 0 
Q 1100 0 847 248 
Q 594 497 594 1153 
L 594 3053 
L 172 3053 
L 172 3500 
L 594 3500 
L 594 4494 
L 1172 4494 
z
" transform="scale(0.015625)"/>
       <path id="DejaVuSans-61" d="M 2194 1759 
Q 1497 1759 1228 1600 
Q 959 1441 959 1056 
Q 959 750 1161 570 
Q 1363 391 1709 391 
Q 2188 391 2477 730 
Q 2766 1069 2766 1631 
L 2766 1759 
L 2194 1759 
z
M 3341 1997 
L 3341 0 
L 2766 0 
L 2766 531 
Q 2569 213 2275 61 
Q 1981 -91 1556 -91 
Q 1019 -91 701 211 
Q 384 513 384 1019 
Q 384 1609 779 1909 
Q 1175 2209 1959 2209 
L 2766 2209 
L 2766 2266 
Q 2766 2663 2505 2880 
Q 2244 3097 1772 3097 
Q 1472 3097 1187 3025 
Q 903 2953 641 2809 
L 641 3341 
Q 956 3463 1253 3523 
Q 1550 3584 1831 3584 
Q 2591 3584 2966 3190 
Q 3341 2797 3341 1997 
z
" transform="scale(0.015625)"/>
       <path id="DejaVuSans-6e" d="M 3513 2113 
L 3513 0 
L 2938 0 
L 2938 2094 
Q 2938 2591 2744 2837 
Q 2550 3084 2163 3084 
Q 1697 3084 1428 2787 
Q 1159 2491 1159 1978 
L 1159 0 
L 581 0 
L 581 3500 
L 1159 3500 
L 1159 2956 
Q 1366 3272 1645 3428 
Q 1925 3584 2291 3584 
Q 2894 3584 3203 3211 
Q 3513 2838 3513 2113 
z
" transform="scale(0.015625)"/>
       <path id="DejaVuSans-63" d="M 3122 3366 
L 3122 2828 
Q 2878 2963 2633 3030 
Q 2388 3097 2138 3097 
Q 1578 3097 1268 2742 
Q 959 2388 959 1747 
Q 959 1106 1268 751 
Q 1578 397 2138 397 
Q 2388 397 2633 464 
Q 2878 531 3122 666 
L 3122 134 
Q 2881 22 2623 -34 
Q 2366 -91 2075 -91 
Q 1284 -91 818 406 
Q 353 903 353 1747 
Q 353 2603 823 3093 
Q 1294 3584 2113 3584 
Q 2378 3584 2631 3529 
Q 2884 3475 3122 3366 
z
" transform="scale(0.015625)"/>
       <path id="DejaVuSans-28" d="M 1984 4856 
Q 1566 4138 1362 3434 
Q 1159 2731 1159 2009 
Q 1159 1288 1364 580 
Q 1569 -128 1984 -844 
L 1484 -844 
Q 1016 -109 783 600 
Q 550 1309 550 2009 
Q 550 2706 781 3412 
Q 1013 4119 1484 4856 
L 1984 4856 
z
" transform="scale(0.015625)"/>
       <path id="DejaVuSans-c5" d="M 2663 5081 
Q 2663 5278 2523 5417 
Q 2384 5556 2188 5556 
Q 1988 5556 1852 5420 
Q 1716 5284 1716 5081 
Q 1716 4884 1853 4746 
Q 1991 4609 2188 4609 
Q 2384 4609 2523 4746 
Q 2663 4884 2663 5081 
z
M 2188 4044 
L 1338 1722 
L 3041 1722 
L 2188 4044 
z
M 1716 4366 
Q 1525 4494 1428 4673 
Q 1331 4853 1331 5081 
Q 1331 5441 1579 5691 
Q 1828 5941 2188 5941 
Q 2544 5941 2795 5689 
Q 3047 5438 3047 5081 
Q 3047 4863 2948 4678 
Q 2850 4494 2663 4366 
L 4325 0 
L 3669 0 
L 3244 1197 
L 1141 1197 
L 716 0 
L 50 0 
L 1716 4366 
z
" transform="scale(0.015625)"/>
       <path id="DejaVuSans-29" d="M 513 4856 
L 1013 4856 
Q 1481 4119 1714 3412 
Q 1947 2706 1947 2009 
Q 1947 1309 1714 600 
Q 1481 -109 1013 -844 
L 513 -844 
Q 928 -128 1133 580 
Q 1338 1288 1338 2009 
Q 1338 2731 1133 3434 
Q 928 4138 513 4856 
z
" transform="scale(0.015625)"/>
      </defs>
      <use xlink:href="#DejaVuSans-44"/>
      <use xlink:href="#DejaVuSans-69" x="77.001953"/>
      <use xlink:href="#DejaVuSans-73" x="104.785156"/>
      <use xlink:href="#DejaVuSans-74" x="156.884766"/>
      <use xlink:href="#DejaVuSans-61" x="196.09375"/>
      <use xlink:href="#DejaVuSans-6e" x="257.373047"/>
      <use xlink:href="#DejaVuSans-63" x="320.751953"/>
      <use xlink:href="#DejaVuSans-65" x="375.732422"/>
      <use xlink:href="#DejaVuSans-20" x="437.255859"/>
      <use xlink:href="#DejaVuSans-28" x="469.042969"/>
      <use xlink:href="#DejaVuSans-c5" x="508.056641"/>
      <use xlink:href="#DejaVuSans-29" x="576.464844"/>
     </g>
    </g>
   </g>
   <g id="line2d_14">
    <path d="M 67.53733 97.468553 
L 69.533507 70.493593 
L 71.529685 118.454511 
L 73.525863 74.760608 
L 75.52204 96.286748 
L 77.518218 87.605042 
L 79.514396 114.565457 
L 81.510573 130.502193 
L 83.506751 133.04109 
L 85.502929 114.67462 
L 87.499106 119.933805 
L 89.495284 87.263613 
L 91.491462 83.247262 
L 93.487639 65.15794 
L 95.483817 74.714449 
L 97.479995 49.246141 
L 99.476173 62.309684 
L 101.47235 99.794189 
L 103.468528 117.716355 
L 105.464706 145.503298 
L 107.460883 143.30287 
L 109.457061 104.948756 
L 111.453239 97.210703 
L 113.449416 117.266415 
L 115.445594 115.61982 
L 117.441772 121.523633 
L 119.437949 139.370191 
L 121.434127 148.413646 
L 123.430305 144.590176 
L 125.426482 141.911779 
L 127.42266 120.127083 
L 129.418838 106.681694 
L 131.415015 101.340441 
L 133.411193 112.652033 
L 135.407371 124.385925 
L 137.403549 119.08603 
L 139.399726 126.563598 
L 141.395904 126.797119 
L 143.392082 119.184162 
L 145.388259 100.637641 
L 147.384437 95.271518 
L 149.380615 87.008888 
L 151.376792 77.192876 
L 153.37297 84.922254 
L 155.369148 92.857639 
L 157.365325 105.047188 
L 159.361503 110.108478 
L 161.357681 118.768529 
L 163.353858 115.514106 
L 165.350036 121.306882 
L 167.346214 116.210563 
L 169.342392 132.185223 
L 171.338569 139.822597 
L 173.334747 139.90486 
L 175.330925 132.773184 
L 177.327102 123.168252 
L 179.32328 118.433178 
L 181.319458 123.392511 
L 183.315635 119.908909 
L 185.311813 108.870739 
L 187.307991 107.968822 
L 189.304168 110.241076 
L 191.300346 114.901104 
L 193.296524 114.249333 
L 195.292701 111.743644 
L 197.288879 108.846592 
L 199.285057 115.042088 
L 201.281235 127.517209 
L 203.277412 132.437787 
L 205.27359 135.91225 
L 207.269768 136.376582 
L 209.265945 133.958782 
L 211.262123 139.628906 
L 213.258301 141.468729 
L 215.254478 143.128625 
L 217.250656 143.492792 
L 219.246834 146.975052 
L 221.243011 145.566584 
L 223.239189 151.269205 
L 225.235367 148.388126 
L 227.231544 151.286349 
L 229.227722 151.227206 
L 231.2239 143.442684 
L 233.220077 144.927512 
L 235.216255 145.180733 
L 237.212433 142.775271 
L 239.208611 150.235829 
L 241.204788 150.516914 
L 243.200966 153.538364 
L 245.197144 153.848966 
L 247.193321 149.190551 
L 249.189499 145.331404 
L 251.185677 149.93745 
L 253.181854 146.839876 
L 255.178032 145.082074 
L 257.17421 145.024767 
L 259.170387 144.480744 
L 261.166565 142.7435 
L 263.162743 143.152699 
L 265.15892 143.463372 
" clip-path="url(#p1d63e0e057)" style="fill: none; stroke: #be7fb8; stroke-width: 1.5; stroke-linecap: round"/>
    <defs>
     <path id="m2f0616fb90" d="M 0 3 
C 0.795609 3 1.55874 2.683901 2.12132 2.12132 
C 2.683901 1.55874 3 0.795609 3 0 
C 3 -0.795609 2.683901 -1.55874 2.12132 -2.12132 
C 1.55874 -2.683901 0.795609 -3 0 -3 
C -0.795609 -3 -1.55874 -2.683901 -2.12132 -2.12132 
C -2.683901 -1.55874 -3 -0.795609 -3 0 
C -3 0.795609 -2.683901 1.55874 -2.12132 2.12132 
C -1.55874 2.683901 -0.795609 3 0 3 
z
" style="stroke: #be7fb8"/>
    </defs>
    <g clip-path="url(#p1d63e0e057)">
     <use xlink:href="#m2f0616fb90" x="67.53733" y="97.468553" style="fill: #be7fb8; stroke: #be7fb8"/>
     <use xlink:href="#m2f0616fb90" x="69.533507" y="70.493593" style="fill: #be7fb8; stroke: #be7fb8"/>
     <use xlink:href="#m2f0616fb90" x="71.529685" y="118.454511" style="fill: #be7fb8; stroke: #be7fb8"/>
     <use xlink:href="#m2f0616fb90" x="73.525863" y="74.760608" style="fill: #be7fb8; stroke: #be7fb8"/>
     <use xlink:href="#m2f0616fb90" x="75.52204" y="96.286748" style="fill: #be7fb8; stroke: #be7fb8"/>
     <use xlink:href="#m2f0616fb90" x="77.518218" y="87.605042" style="fill: #be7fb8; stroke: #be7fb8"/>
     <use xlink:href="#m2f0616fb90" x="79.514396" y="114.565457" style="fill: #be7fb8; stroke: #be7fb8"/>
     <use xlink:href="#m2f0616fb90" x="81.510573" y="130.502193" style="fill: #be7fb8; stroke: #be7fb8"/>
     <use xlink:href="#m2f0616fb90" x="83.506751" y="133.04109" style="fill: #be7fb8; stroke: #be7fb8"/>
     <use xlink:href="#m2f0616fb90" x="85.502929" y="114.67462" style="fill: #be7fb8; stroke: #be7fb8"/>
     <use xlink:href="#m2f0616fb90" x="87.499106" y="119.933805" style="fill: #be7fb8; stroke: #be7fb8"/>
     <use xlink:href="#m2f0616fb90" x="89.495284" y="87.263613" style="fill: #be7fb8; stroke: #be7fb8"/>
     <use xlink:href="#m2f0616fb90" x="91.491462" y="83.247262" style="fill: #be7fb8; stroke: #be7fb8"/>
     <use xlink:href="#m2f0616fb90" x="93.487639" y="65.15794" style="fill: #be7fb8; stroke: #be7fb8"/>
     <use xlink:href="#m2f0616fb90" x="95.483817" y="74.714449" style="fill: #be7fb8; stroke: #be7fb8"/>
     <use xlink:href="#m2f0616fb90" x="97.479995" y="49.246141" style="fill: #be7fb8; stroke: #be7fb8"/>
     <use xlink:href="#m2f0616fb90" x="99.476173" y="62.309684" style="fill: #be7fb8; stroke: #be7fb8"/>
     <use xlink:href="#m2f0616fb90" x="101.47235" y="99.794189" style="fill: #be7fb8; stroke: #be7fb8"/>
     <use xlink:href="#m2f0616fb90" x="103.468528" y="117.716355" style="fill: #be7fb8; stroke: #be7fb8"/>
     <use xlink:href="#m2f0616fb90" x="105.464706" y="145.503298" style="fill: #be7fb8; stroke: #be7fb8"/>
     <use xlink:href="#m2f0616fb90" x="107.460883" y="143.30287" style="fill: #be7fb8; stroke: #be7fb8"/>
     <use xlink:href="#m2f0616fb90" x="109.457061" y="104.948756" style="fill: #be7fb8; stroke: #be7fb8"/>
     <use xlink:href="#m2f0616fb90" x="111.453239" y="97.210703" style="fill: #be7fb8; stroke: #be7fb8"/>
     <use xlink:href="#m2f0616fb90" x="113.449416" y="117.266415" style="fill: #be7fb8; stroke: #be7fb8"/>
     <use xlink:href="#m2f0616fb90" x="115.445594" y="115.61982" style="fill: #be7fb8; stroke: #be7fb8"/>
     <use xlink:href="#m2f0616fb90" x="117.441772" y="121.523633" style="fill: #be7fb8; stroke: #be7fb8"/>
     <use xlink:href="#m2f0616fb90" x="119.437949" y="139.370191" style="fill: #be7fb8; stroke: #be7fb8"/>
     <use xlink:href="#m2f0616fb90" x="121.434127" y="148.413646" style="fill: #be7fb8; stroke: #be7fb8"/>
     <use xlink:href="#m2f0616fb90" x="123.430305" y="144.590176" style="fill: #be7fb8; stroke: #be7fb8"/>
     <use xlink:href="#m2f0616fb90" x="125.426482" y="141.911779" style="fill: #be7fb8; stroke: #be7fb8"/>
     <use xlink:href="#m2f0616fb90" x="127.42266" y="120.127083" style="fill: #be7fb8; stroke: #be7fb8"/>
     <use xlink:href="#m2f0616fb90" x="129.418838" y="106.681694" style="fill: #be7fb8; stroke: #be7fb8"/>
     <use xlink:href="#m2f0616fb90" x="131.415015" y="101.340441" style="fill: #be7fb8; stroke: #be7fb8"/>
     <use xlink:href="#m2f0616fb90" x="133.411193" y="112.652033" style="fill: #be7fb8; stroke: #be7fb8"/>
     <use xlink:href="#m2f0616fb90" x="135.407371" y="124.385925" style="fill: #be7fb8; stroke: #be7fb8"/>
     <use xlink:href="#m2f0616fb90" x="137.403549" y="119.08603" style="fill: #be7fb8; stroke: #be7fb8"/>
     <use xlink:href="#m2f0616fb90" x="139.399726" y="126.563598" style="fill: #be7fb8; stroke: #be7fb8"/>
     <use xlink:href="#m2f0616fb90" x="141.395904" y="126.797119" style="fill: #be7fb8; stroke: #be7fb8"/>
     <use xlink:href="#m2f0616fb90" x="143.392082" y="119.184162" style="fill: #be7fb8; stroke: #be7fb8"/>
     <use xlink:href="#m2f0616fb90" x="145.388259" y="100.637641" style="fill: #be7fb8; stroke: #be7fb8"/>
     <use xlink:href="#m2f0616fb90" x="147.384437" y="95.271518" style="fill: #be7fb8; stroke: #be7fb8"/>
     <use xlink:href="#m2f0616fb90" x="149.380615" y="87.008888" style="fill: #be7fb8; stroke: #be7fb8"/>
     <use xlink:href="#m2f0616fb90" x="151.376792" y="77.192876" style="fill: #be7fb8; stroke: #be7fb8"/>
     <use xlink:href="#m2f0616fb90" x="153.37297" y="84.922254" style="fill: #be7fb8; stroke: #be7fb8"/>
     <use xlink:href="#m2f0616fb90" x="155.369148" y="92.857639" style="fill: #be7fb8; stroke: #be7fb8"/>
     <use xlink:href="#m2f0616fb90" x="157.365325" y="105.047188" style="fill: #be7fb8; stroke: #be7fb8"/>
     <use xlink:href="#m2f0616fb90" x="159.361503" y="110.108478" style="fill: #be7fb8; stroke: #be7fb8"/>
     <use xlink:href="#m2f0616fb90" x="161.357681" y="118.768529" style="fill: #be7fb8; stroke: #be7fb8"/>
     <use xlink:href="#m2f0616fb90" x="163.353858" y="115.514106" style="fill: #be7fb8; stroke: #be7fb8"/>
     <use xlink:href="#m2f0616fb90" x="165.350036" y="121.306882" style="fill: #be7fb8; stroke: #be7fb8"/>
     <use xlink:href="#m2f0616fb90" x="167.346214" y="116.210563" style="fill: #be7fb8; stroke: #be7fb8"/>
     <use xlink:href="#m2f0616fb90" x="169.342392" y="132.185223" style="fill: #be7fb8; stroke: #be7fb8"/>
     <use xlink:href="#m2f0616fb90" x="171.338569" y="139.822597" style="fill: #be7fb8; stroke: #be7fb8"/>
     <use xlink:href="#m2f0616fb90" x="173.334747" y="139.90486" style="fill: #be7fb8; stroke: #be7fb8"/>
     <use xlink:href="#m2f0616fb90" x="175.330925" y="132.773184" style="fill: #be7fb8; stroke: #be7fb8"/>
     <use xlink:href="#m2f0616fb90" x="177.327102" y="123.168252" style="fill: #be7fb8; stroke: #be7fb8"/>
     <use xlink:href="#m2f0616fb90" x="179.32328" y="118.433178" style="fill: #be7fb8; stroke: #be7fb8"/>
     <use xlink:href="#m2f0616fb90" x="181.319458" y="123.392511" style="fill: #be7fb8; stroke: #be7fb8"/>
     <use xlink:href="#m2f0616fb90" x="183.315635" y="119.908909" style="fill: #be7fb8; stroke: #be7fb8"/>
     <use xlink:href="#m2f0616fb90" x="185.311813" y="108.870739" style="fill: #be7fb8; stroke: #be7fb8"/>
     <use xlink:href="#m2f0616fb90" x="187.307991" y="107.968822" style="fill: #be7fb8; stroke: #be7fb8"/>
     <use xlink:href="#m2f0616fb90" x="189.304168" y="110.241076" style="fill: #be7fb8; stroke: #be7fb8"/>
     <use xlink:href="#m2f0616fb90" x="191.300346" y="114.901104" style="fill: #be7fb8; stroke: #be7fb8"/>
     <use xlink:href="#m2f0616fb90" x="193.296524" y="114.249333" style="fill: #be7fb8; stroke: #be7fb8"/>
     <use xlink:href="#m2f0616fb90" x="195.292701" y="111.743644" style="fill: #be7fb8; stroke: #be7fb8"/>
     <use xlink:href="#m2f0616fb90" x="197.288879" y="108.846592" style="fill: #be7fb8; stroke: #be7fb8"/>
     <use xlink:href="#m2f0616fb90" x="199.285057" y="115.042088" style="fill: #be7fb8; stroke: #be7fb8"/>
     <use xlink:href="#m2f0616fb90" x="201.281235" y="127.517209" style="fill: #be7fb8; stroke: #be7fb8"/>
     <use xlink:href="#m2f0616fb90" x="203.277412" y="132.437787" style="fill: #be7fb8; stroke: #be7fb8"/>
     <use xlink:href="#m2f0616fb90" x="205.27359" y="135.91225" style="fill: #be7fb8; stroke: #be7fb8"/>
     <use xlink:href="#m2f0616fb90" x="207.269768" y="136.376582" style="fill: #be7fb8; stroke: #be7fb8"/>
     <use xlink:href="#m2f0616fb90" x="209.265945" y="133.958782" style="fill: #be7fb8; stroke: #be7fb8"/>
     <use xlink:href="#m2f0616fb90" x="211.262123" y="139.628906" style="fill: #be7fb8; stroke: #be7fb8"/>
     <use xlink:href="#m2f0616fb90" x="213.258301" y="141.468729" style="fill: #be7fb8; stroke: #be7fb8"/>
     <use xlink:href="#m2f0616fb90" x="215.254478" y="143.128625" style="fill: #be7fb8; stroke: #be7fb8"/>
     <use xlink:href="#m2f0616fb90" x="217.250656" y="143.492792" style="fill: #be7fb8; stroke: #be7fb8"/>
     <use xlink:href="#m2f0616fb90" x="219.246834" y="146.975052" style="fill: #be7fb8; stroke: #be7fb8"/>
     <use xlink:href="#m2f0616fb90" x="221.243011" y="145.566584" style="fill: #be7fb8; stroke: #be7fb8"/>
     <use xlink:href="#m2f0616fb90" x="223.239189" y="151.269205" style="fill: #be7fb8; stroke: #be7fb8"/>
     <use xlink:href="#m2f0616fb90" x="225.235367" y="148.388126" style="fill: #be7fb8; stroke: #be7fb8"/>
     <use xlink:href="#m2f0616fb90" x="227.231544" y="151.286349" style="fill: #be7fb8; stroke: #be7fb8"/>
     <use xlink:href="#m2f0616fb90" x="229.227722" y="151.227206" style="fill: #be7fb8; stroke: #be7fb8"/>
     <use xlink:href="#m2f0616fb90" x="231.2239" y="143.442684" style="fill: #be7fb8; stroke: #be7fb8"/>
     <use xlink:href="#m2f0616fb90" x="233.220077" y="144.927512" style="fill: #be7fb8; stroke: #be7fb8"/>
     <use xlink:href="#m2f0616fb90" x="235.216255" y="145.180733" style="fill: #be7fb8; stroke: #be7fb8"/>
     <use xlink:href="#m2f0616fb90" x="237.212433" y="142.775271" style="fill: #be7fb8; stroke: #be7fb8"/>
     <use xlink:href="#m2f0616fb90" x="239.208611" y="150.235829" style="fill: #be7fb8; stroke: #be7fb8"/>
     <use xlink:href="#m2f0616fb90" x="241.204788" y="150.516914" style="fill: #be7fb8; stroke: #be7fb8"/>
     <use xlink:href="#m2f0616fb90" x="243.200966" y="153.538364" style="fill: #be7fb8; stroke: #be7fb8"/>
     <use xlink:href="#m2f0616fb90" x="245.197144" y="153.848966" style="fill: #be7fb8; stroke: #be7fb8"/>
     <use xlink:href="#m2f0616fb90" x="247.193321" y="149.190551" style="fill: #be7fb8; stroke: #be7fb8"/>
     <use xlink:href="#m2f0616fb90" x="249.189499" y="145.331404" style="fill: #be7fb8; stroke: #be7fb8"/>
     <use xlink:href="#m2f0616fb90" x="251.185677" y="149.93745" style="fill: #be7fb8; stroke: #be7fb8"/>
     <use xlink:href="#m2f0616fb90" x="253.181854" y="146.839876" style="fill: #be7fb8; stroke: #be7fb8"/>
     <use xlink:href="#m2f0616fb90" x="255.178032" y="145.082074" style="fill: #be7fb8; stroke: #be7fb8"/>
     <use xlink:href="#m2f0616fb90" x="257.17421" y="145.024767" style="fill: #be7fb8; stroke: #be7fb8"/>
     <use xlink:href="#m2f0616fb90" x="259.170387" y="144.480744" style="fill: #be7fb8; stroke: #be7fb8"/>
     <use xlink:href="#m2f0616fb90" x="261.166565" y="142.7435" style="fill: #be7fb8; stroke: #be7fb8"/>
     <use xlink:href="#m2f0616fb90" x="263.162743" y="143.152699" style="fill: #be7fb8; stroke: #be7fb8"/>
     <use xlink:href="#m2f0616fb90" x="265.15892" y="143.463372" style="fill: #be7fb8; stroke: #be7fb8"/>
    </g>
   </g>
   <g id="patch_3">
    <path d="M 57.65625 159.079107 
L 57.65625 44.016 
" style="fill: none; stroke: #cccccc; stroke-width: 1.25; stroke-linejoin: miter; stroke-linecap: square"/>
   </g>
   <g id="patch_4">
    <path d="M 275.04 159.079107 
L 275.04 44.016 
" style="fill: none; stroke: #cccccc; stroke-width: 1.25; stroke-linejoin: miter; stroke-linecap: square"/>
   </g>
   <g id="patch_5">
    <path d="M 57.65625 159.079107 
L 275.04 159.079107 
" style="fill: none; stroke: #cccccc; stroke-width: 1.25; stroke-linejoin: miter; stroke-linecap: square"/>
   </g>
   <g id="patch_6">
    <path d="M 57.65625 44.016 
L 275.04 44.016 
" style="fill: none; stroke: #cccccc; stroke-width: 1.25; stroke-linejoin: miter; stroke-linecap: square"/>
   </g>
   <g id="text_16">
    <!-- Bond Distance Evolution -->
    <g style="fill: #262626" transform="translate(92.924062 24.578625) scale(0.12 -0.12)">
     <defs>
      <path id="DejaVuSans-42" d="M 1259 2228 
L 1259 519 
L 2272 519 
Q 2781 519 3026 730 
Q 3272 941 3272 1375 
Q 3272 1813 3026 2020 
Q 2781 2228 2272 2228 
L 1259 2228 
z
M 1259 4147 
L 1259 2741 
L 2194 2741 
Q 2656 2741 2882 2914 
Q 3109 3088 3109 3444 
Q 3109 3797 2882 3972 
Q 2656 4147 2194 4147 
L 1259 4147 
z
M 628 4666 
L 2241 4666 
Q 2963 4666 3353 4366 
Q 3744 4066 3744 3513 
Q 3744 3084 3544 2831 
Q 3344 2578 2956 2516 
Q 3422 2416 3680 2098 
Q 3938 1781 3938 1306 
Q 3938 681 3513 340 
Q 3088 0 2303 0 
L 628 0 
L 628 4666 
z
" transform="scale(0.015625)"/>
      <path id="DejaVuSans-45" d="M 628 4666 
L 3578 4666 
L 3578 4134 
L 1259 4134 
L 1259 2753 
L 3481 2753 
L 3481 2222 
L 1259 2222 
L 1259 531 
L 3634 531 
L 3634 0 
L 628 0 
L 628 4666 
z
" transform="scale(0.015625)"/>
      <path id="DejaVuSans-76" d="M 191 3500 
L 800 3500 
L 1894 563 
L 2988 3500 
L 3597 3500 
L 2284 0 
L 1503 0 
L 191 3500 
z
" transform="scale(0.015625)"/>
      <path id="DejaVuSans-75" d="M 544 1381 
L 544 3500 
L 1119 3500 
L 1119 1403 
Q 1119 906 1312 657 
Q 1506 409 1894 409 
Q 2359 409 2629 706 
Q 2900 1003 2900 1516 
L 2900 3500 
L 3475 3500 
L 3475 0 
L 2900 0 
L 2900 538 
Q 2691 219 2414 64 
Q 2138 -91 1772 -91 
Q 1169 -91 856 284 
Q 544 659 544 1381 
z
M 1991 3584 
L 1991 3584 
z
" transform="scale(0.015625)"/>
     </defs>
     <use xlink:href="#DejaVuSans-42"/>
     <use xlink:href="#DejaVuSans-6f" x="68.603516"/>
     <use xlink:href="#DejaVuSans-6e" x="129.785156"/>
     <use xlink:href="#DejaVuSans-64" x="193.164062"/>
     <use xlink:href="#DejaVuSans-20" x="256.640625"/>
     <use xlink:href="#DejaVuSans-44" x="288.427734"/>
     <use xlink:href="#DejaVuSans-69" x="365.429688"/>
     <use xlink:href="#DejaVuSans-73" x="393.212891"/>
     <use xlink:href="#DejaVuSans-74" x="445.3125"/>
     <use xlink:href="#DejaVuSans-61" x="484.521484"/>
     <use xlink:href="#DejaVuSans-6e" x="545.800781"/>
     <use xlink:href="#DejaVuSans-63" x="609.179688"/>
     <use xlink:href="#DejaVuSans-65" x="664.160156"/>
     <use xlink:href="#DejaVuSans-20" x="725.683594"/>
     <use xlink:href="#DejaVuSans-45" x="757.470703"/>
     <use xlink:href="#DejaVuSans-76" x="820.654297"/>
     <use xlink:href="#DejaVuSans-6f" x="879.833984"/>
     <use xlink:href="#DejaVuSans-6c" x="941.015625"/>
     <use xlink:href="#DejaVuSans-75" x="968.798828"/>
     <use xlink:href="#DejaVuSans-74" x="1032.177734"/>
     <use xlink:href="#DejaVuSans-69" x="1071.386719"/>
     <use xlink:href="#DejaVuSans-6f" x="1099.169922"/>
     <use xlink:href="#DejaVuSans-6e" x="1160.351562"/>
    </g>
    <!--  :UNK1:N(8) &lt;-&gt;  :UNK1:C(9) -->
    <g style="fill: #262626" transform="translate(79.47375 38.016) scale(0.12 -0.12)">
     <defs>
      <path id="DejaVuSans-3a" d="M 750 794 
L 1409 794 
L 1409 0 
L 750 0 
L 750 794 
z
M 750 3309 
L 1409 3309 
L 1409 2516 
L 750 2516 
L 750 3309 
z
" transform="scale(0.015625)"/>
      <path id="DejaVuSans-55" d="M 556 4666 
L 1191 4666 
L 1191 1831 
Q 1191 1081 1462 751 
Q 1734 422 2344 422 
Q 2950 422 3222 751 
Q 3494 1081 3494 1831 
L 3494 4666 
L 4128 4666 
L 4128 1753 
Q 4128 841 3676 375 
Q 3225 -91 2344 -91 
Q 1459 -91 1007 375 
Q 556 841 556 1753 
L 556 4666 
z
" transform="scale(0.015625)"/>
      <path id="DejaVuSans-4e" d="M 628 4666 
L 1478 4666 
L 3547 763 
L 3547 4666 
L 4159 4666 
L 4159 0 
L 3309 0 
L 1241 3903 
L 1241 0 
L 628 0 
L 628 4666 
z
" transform="scale(0.015625)"/>
      <path id="DejaVuSans-4b" d="M 628 4666 
L 1259 4666 
L 1259 2694 
L 3353 4666 
L 4166 4666 
L 1850 2491 
L 4331 0 
L 3500 0 
L 1259 2247 
L 1259 0 
L 628 0 
L 628 4666 
z
" transform="scale(0.015625)"/>
      <path id="DejaVuSans-3c" d="M 4684 3150 
L 1459 2003 
L 4684 863 
L 4684 294 
L 678 1747 
L 678 2266 
L 4684 3719 
L 4684 3150 
z
" transform="scale(0.015625)"/>
      <path id="DejaVuSans-2d" d="M 313 2009 
L 1997 2009 
L 1997 1497 
L 313 1497 
L 313 2009 
z
" transform="scale(0.015625)"/>
      <path id="DejaVuSans-3e" d="M 678 3150 
L 678 3719 
L 4684 2266 
L 4684 1747 
L 678 294 
L 678 863 
L 3897 2003 
L 678 3150 
z
" transform="scale(0.015625)"/>
      <path id="DejaVuSans-43" d="M 4122 4306 
L 4122 3641 
Q 3803 3938 3442 4084 
Q 3081 4231 2675 4231 
Q 1875 4231 1450 3742 
Q 1025 3253 1025 2328 
Q 1025 1406 1450 917 
Q 1875 428 2675 428 
Q 3081 428 3442 575 
Q 3803 722 4122 1019 
L 4122 359 
Q 3791 134 3420 21 
Q 3050 -91 2638 -91 
Q 1578 -91 968 557 
Q 359 1206 359 2328 
Q 359 3453 968 4101 
Q 1578 4750 2638 4750 
Q 3056 4750 3426 4639 
Q 3797 4528 4122 4306 
z
" transform="scale(0.015625)"/>
     </defs>
     <use xlink:href="#DejaVuSans-20"/>
     <use xlink:href="#DejaVuSans-3a" x="31.787109"/>
     <use xlink:href="#DejaVuSans-55" x="65.478516"/>
     <use xlink:href="#DejaVuSans-4e" x="138.671875"/>
     <use xlink:href="#DejaVuSans-4b" x="213.476562"/>
     <use xlink:href="#DejaVuSans-31" x="279.052734"/>
     <use xlink:href="#DejaVuSans-3a" x="342.675781"/>
     <use xlink:href="#DejaVuSans-4e" x="376.367188"/>
     <use xlink:href="#DejaVuSans-28" x="451.171875"/>
     <use xlink:href="#DejaVuSans-38" x="490.185547"/>
     <use xlink:href="#DejaVuSans-29" x="553.808594"/>
     <use xlink:href="#DejaVuSans-20" x="592.822266"/>
     <use xlink:href="#DejaVuSans-3c" x="624.609375"/>
     <use xlink:href="#DejaVuSans-2d" x="708.398438"/>
     <use xlink:href="#DejaVuSans-3e" x="744.482422"/>
     <use xlink:href="#DejaVuSans-20" x="828.271484"/>
     <use xlink:href="#DejaVuSans-20" x="860.058594"/>
     <use xlink:href="#DejaVuSans-3a" x="891.845703"/>
     <use xlink:href="#DejaVuSans-55" x="925.537109"/>
     <use xlink:href="#DejaVuSans-4e" x="998.730469"/>
     <use xlink:href="#DejaVuSans-4b" x="1073.535156"/>
     <use xlink:href="#DejaVuSans-31" x="1139.111328"/>
     <use xlink:href="#DejaVuSans-3a" x="1202.734375"/>
     <use xlink:href="#DejaVuSans-43" x="1236.425781"/>
     <use xlink:href="#DejaVuSans-28" x="1306.25"/>
     <use xlink:href="#DejaVuSans-39" x="1345.263672"/>
     <use xlink:href="#DejaVuSans-29" x="1408.886719"/>
    </g>
   </g>
  </g>
 </g>
 <defs>
  <clipPath id="p1d63e0e057">
   <rect x="57.65625" y="44.016" width="217.38375" height="115.063107"/>
  </clipPath>
 </defs>
</svg>
