<?xml version="1.0" encoding="utf-8" standalone="no"?>
<!DOCTYPE svg PUBLIC "-//W3C//DTD SVG 1.1//EN"
  "http://www.w3.org/Graphics/SVG/1.1/DTD/svg11.dtd">
<svg xmlns:xlink="http://www.w3.org/1999/xlink" width="208.58625pt" height="171.99625pt" viewBox="0 0 208.58625 171.99625" xmlns="http://www.w3.org/2000/svg" version="1.1">
 <metadata>
  <rdf:RDF xmlns:dc="http://purl.org/dc/elements/1.1/" xmlns:cc="http://creativecommons.org/ns#" xmlns:rdf="http://www.w3.org/1999/02/22-rdf-syntax-ns#">
   <cc:Work>
    <dc:type rdf:resource="http://purl.org/dc/dcmitype/StillImage"/>
    <dc:date>2025-05-11T16:17:59.604019</dc:date>
    <dc:format>image/svg+xml</dc:format>
    <dc:creator>
     <cc:Agent>
      <dc:title>Matplotlib v3.9.4, https://matplotlib.org/</dc:title>
     </cc:Agent>
    </dc:creator>
   </cc:Work>
  </rdf:RDF>
 </metadata>
 <defs>
  <style type="text/css">*{stroke-linejoin: round; stroke-linecap: butt}</style>
 </defs>
 <g id="figure_1">
  <g id="patch_1">
   <path d="M 0 171.99625 
L 208.58625 171.99625 
L 208.58625 -0 
L 0 -0 
z
" style="fill: #ffffff"/>
  </g>
  <g id="axes_1">
   <g id="patch_2">
    <path d="M 50.14375 134.44 
L 195.02375 134.44 
L 195.02375 7.2 
L 50.14375 7.2 
z
" style="fill: #ffffff"/>
   </g>
   <g id="PolyCollection_1">
    <path d="M 47.347532 134.439685 
L 47.347532 134.44 
L 52.078953 134.44 
L 56.810373 134.44 
L 61.541794 134.44 
L 66.273215 134.44 
L 71.004635 134.44 
L 75.736056 134.44 
L 80.467477 134.44 
L 85.198897 134.44 
L 89.930318 134.44 
L 94.661739 134.44 
L 99.39316 134.44 
L 104.12458 134.44 
L 108.856001 134.44 
L 113.587422 134.44 
L 118.318842 134.44 
L 123.050263 134.44 
L 127.781684 134.44 
L 132.513104 134.44 
L 137.244525 134.44 
L 141.975946 134.44 
L 146.707366 134.44 
L 151.438787 134.44 
L 156.170208 134.44 
L 160.901629 134.44 
L 165.633049 134.44 
L 170.36447 134.44 
L 175.095891 134.44 
L 179.827311 134.44 
L 184.558732 134.44 
L 189.290153 134.44 
L 194.021573 134.44 
L 198.752994 134.44 
L 203.484415 134.44 
L 208.215835 134.44 
L 212.947256 134.44 
L 217.678677 134.44 
L 222.410098 134.44 
L 227.141518 134.44 
L 231.872939 134.44 
L 236.60436 134.44 
L 241.33578 134.44 
L 246.067201 134.44 
L 250.798622 134.44 
L 255.530042 134.44 
L 260.261463 134.44 
L 264.992884 134.44 
L 269.724304 134.44 
L 274.455725 134.44 
L 279.187146 134.44 
L 283.918567 134.44 
L 288.649987 134.44 
L 293.381408 134.44 
L 298.112829 134.44 
L 302.844249 134.44 
L 307.57567 134.44 
L 312.307091 134.44 
L 317.038511 134.44 
L 321.769932 134.44 
L 326.501353 134.44 
L 331.232773 134.44 
L 335.964194 134.44 
L 340.695615 134.44 
L 345.427036 134.44 
L 350.158456 134.44 
L 354.889877 134.44 
L 359.621298 134.44 
L 364.352718 134.44 
L 369.084139 134.44 
L 373.81556 134.44 
L 378.54698 134.44 
L 383.278401 134.44 
L 388.009822 134.44 
L 392.741242 134.44 
L 397.472663 134.44 
L 402.204084 134.44 
L 406.935504 134.44 
L 411.666925 134.44 
L 416.398346 134.44 
L 421.129767 134.44 
L 425.861187 134.44 
L 430.592608 134.44 
L 435.324029 134.44 
L 440.055449 134.44 
L 444.78687 134.44 
L 449.518291 134.44 
L 454.249711 134.44 
L 458.981132 134.44 
L 463.712553 134.44 
L 468.443973 134.44 
L 473.175394 134.44 
L 477.906815 134.44 
L 482.638236 134.44 
L 487.369656 134.44 
L 492.101077 134.44 
L 496.832498 134.44 
L 501.563918 134.44 
L 506.295339 134.44 
L 511.02676 134.44 
L 515.75818 134.44 
L 520.489601 134.44 
L 525.221022 134.44 
L 529.952442 134.44 
L 534.683863 134.44 
L 539.415284 134.44 
L 544.146705 134.44 
L 548.878125 134.44 
L 553.609546 134.44 
L 558.340967 134.44 
L 563.072387 134.44 
L 567.803808 134.44 
L 572.535229 134.44 
L 577.266649 134.44 
L 581.99807 134.44 
L 586.729491 134.44 
L 591.460911 134.44 
L 596.192332 134.44 
L 600.923753 134.44 
L 605.655174 134.44 
L 610.386594 134.44 
L 615.118015 134.44 
L 619.849436 134.44 
L 624.580856 134.44 
L 629.312277 134.44 
L 634.043698 134.44 
L 638.775118 134.44 
L 643.506539 134.44 
L 648.23796 134.44 
L 652.96938 134.44 
L 657.700801 134.44 
L 662.432222 134.44 
L 667.163643 134.44 
L 671.895063 134.44 
L 676.626484 134.44 
L 681.357905 134.44 
L 686.089325 134.44 
L 690.820746 134.44 
L 695.552167 134.44 
L 700.283587 134.44 
L 705.015008 134.44 
L 709.746429 134.44 
L 714.477849 134.44 
L 719.20927 134.44 
L 723.940691 134.44 
L 728.672112 134.44 
L 733.403532 134.44 
L 738.134953 134.44 
L 742.866374 134.44 
L 747.597794 134.44 
L 752.329215 134.44 
L 757.060636 134.44 
L 761.792056 134.44 
L 766.523477 134.44 
L 771.254898 134.44 
L 775.986318 134.44 
L 780.717739 134.44 
L 785.44916 134.44 
L 790.180581 134.44 
L 794.912001 134.44 
L 799.643422 134.44 
L 804.374843 134.44 
L 809.106263 134.44 
L 813.837684 134.44 
L 818.569105 134.44 
L 823.300525 134.44 
L 828.031946 134.44 
L 832.763367 134.44 
L 837.494787 134.44 
L 842.226208 134.44 
L 846.957629 134.44 
L 851.68905 134.44 
L 856.42047 134.44 
L 861.151891 134.44 
L 865.883312 134.44 
L 870.614732 134.44 
L 875.346153 134.44 
L 880.077574 134.44 
L 884.808994 134.44 
L 889.540415 134.44 
L 894.271836 134.44 
L 899.003256 134.44 
L 903.734677 134.44 
L 908.466098 134.44 
L 913.197519 134.44 
L 917.928939 134.44 
L 922.66036 134.44 
L 927.391781 134.44 
L 932.123201 134.44 
L 936.854622 134.44 
L 941.586043 134.44 
L 946.317463 134.44 
L 951.048884 134.44 
L 955.780305 134.44 
L 960.511725 134.44 
L 965.243146 134.44 
L 969.974567 134.44 
L 974.705988 134.44 
L 979.437408 134.44 
L 984.168829 134.44 
L 988.90025 134.44 
L 988.90025 134.439928 
L 988.90025 134.439928 
L 984.168829 134.433813 
L 979.437408 134.439588 
L 974.705988 134.44 
L 969.974567 134.44 
L 965.243146 134.44 
L 960.511725 134.44 
L 955.780305 134.44 
L 951.048884 134.44 
L 946.317463 134.44 
L 941.586043 134.44 
L 936.854622 134.44 
L 932.123201 134.44 
L 927.391781 134.44 
L 922.66036 134.44 
L 917.928939 134.44 
L 913.197519 134.44 
L 908.466098 134.44 
L 903.734677 134.44 
L 899.003256 134.44 
L 894.271836 134.44 
L 889.540415 134.44 
L 884.808994 134.44 
L 880.077574 134.44 
L 875.346153 134.44 
L 870.614732 134.44 
L 865.883312 134.44 
L 861.151891 134.44 
L 856.42047 134.44 
L 851.68905 134.44 
L 846.957629 134.44 
L 842.226208 134.44 
L 837.494787 134.44 
L 832.763367 134.44 
L 828.031946 134.44 
L 823.300525 134.44 
L 818.569105 134.44 
L 813.837684 134.44 
L 809.106263 134.44 
L 804.374843 134.44 
L 799.643422 134.44 
L 794.912001 134.44 
L 790.180581 134.44 
L 785.44916 134.44 
L 780.717739 134.44 
L 775.986318 134.44 
L 771.254898 134.44 
L 766.523477 134.44 
L 761.792056 134.44 
L 757.060636 134.44 
L 752.329215 134.44 
L 747.597794 134.44 
L 742.866374 134.44 
L 738.134953 134.44 
L 733.403532 134.44 
L 728.672112 134.44 
L 723.940691 134.44 
L 719.20927 134.44 
L 714.477849 134.44 
L 709.746429 134.44 
L 705.015008 134.44 
L 700.283587 134.44 
L 695.552167 134.44 
L 690.820746 134.44 
L 686.089325 134.44 
L 681.357905 134.44 
L 676.626484 134.44 
L 671.895063 134.44 
L 667.163643 134.44 
L 662.432222 134.44 
L 657.700801 134.44 
L 652.96938 134.44 
L 648.23796 134.44 
L 643.506539 134.44 
L 638.775118 134.44 
L 634.043698 134.44 
L 629.312277 134.44 
L 624.580856 134.44 
L 619.849436 134.44 
L 615.118015 134.44 
L 610.386594 134.439955 
L 605.655174 134.434193 
L 600.923753 134.439411 
L 596.192332 134.44 
L 591.460911 134.44 
L 586.729491 134.44 
L 581.99807 134.44 
L 577.266649 134.44 
L 572.535229 134.44 
L 567.803808 134.44 
L 563.072387 134.439662 
L 558.340967 134.43366 
L 553.609546 134.436043 
L 548.878125 134.438329 
L 544.146705 134.434546 
L 539.415284 134.433746 
L 534.683863 134.435106 
L 529.952442 134.439982 
L 525.221022 134.44 
L 520.489601 134.44 
L 515.75818 134.44 
L 511.02676 134.44 
L 506.295339 134.439199 
L 501.563918 134.434641 
L 496.832498 134.439972 
L 492.101077 134.439865 
L 487.369656 134.433482 
L 482.638236 134.434095 
L 477.906815 134.433042 
L 473.175394 134.439625 
L 468.443973 134.439994 
L 463.712553 134.436368 
L 458.981132 134.438164 
L 454.249711 134.437401 
L 449.518291 134.437265 
L 444.78687 134.439939 
L 440.055449 134.433807 
L 435.324029 134.433005 
L 430.592608 134.434981 
L 425.861187 134.423309 
L 421.129767 134.429556 
L 416.398346 134.435538 
L 411.666925 134.425113 
L 406.935504 134.425772 
L 402.204084 134.437123 
L 397.472663 134.42811 
L 392.741242 134.430671 
L 388.009822 134.439095 
L 383.278401 134.434531 
L 378.54698 134.432482 
L 373.81556 134.424898 
L 369.084139 134.433734 
L 364.352718 134.436142 
L 359.621298 134.428458 
L 354.889877 134.417525 
L 350.158456 134.431891 
L 345.427036 134.426953 
L 340.695615 134.424198 
L 335.964194 134.415938 
L 331.232773 134.404719 
L 326.501353 134.416627 
L 321.769932 134.397175 
L 317.038511 134.391217 
L 312.307091 134.394242 
L 307.57567 134.402315 
L 302.844249 134.429196 
L 298.112829 134.408873 
L 293.381408 134.42146 
L 288.649987 134.405429 
L 283.918567 134.371204 
L 279.187146 134.386367 
L 274.455725 134.370271 
L 269.724304 134.383338 
L 264.992884 134.355973 
L 260.261463 134.390684 
L 255.530042 134.369278 
L 250.798622 134.348873 
L 246.067201 134.33946 
L 241.33578 134.378096 
L 236.60436 134.349836 
L 231.872939 134.29169 
L 227.141518 134.275129 
L 222.410098 134.280203 
L 217.678677 134.282544 
L 212.947256 134.211221 
L 208.215835 134.192106 
L 203.484415 134.221643 
L 198.752994 134.133125 
L 194.021573 133.961678 
L 189.290153 133.790055 
L 184.558732 133.865742 
L 179.827311 133.803265 
L 175.095891 133.596735 
L 170.36447 133.459992 
L 165.633049 133.329698 
L 160.901629 133.011402 
L 156.170208 132.725739 
L 151.438787 132.529596 
L 146.707366 132.170269 
L 141.975946 131.470908 
L 137.244525 130.432465 
L 132.513104 128.175001 
L 127.781684 123.227199 
L 123.050263 115.498282 
L 118.318842 101.928074 
L 113.587422 82.551109 
L 108.856001 56.019294 
L 104.12458 34.565101 
L 99.39316 18.986625 
L 94.661739 13.259048 
L 89.930318 17.668452 
L 85.198897 29.723549 
L 80.467477 46.295857 
L 75.736056 64.727912 
L 71.004635 80.221441 
L 66.273215 98.752403 
L 61.541794 118.91925 
L 56.810373 130.863446 
L 52.078953 134.258185 
L 47.347532 134.439685 
z
" clip-path="url(#pa66db51c6d)" style="fill: #8e7fb8; fill-opacity: 0.7; stroke: #000000"/>
   </g>
   <g id="matplotlib.axis_1">
    <g id="xtick_1">
     <g id="line2d_1">
      <path d="M 50.14375 134.44 
L 50.14375 7.2 
" clip-path="url(#pa66db51c6d)" style="fill: none; stroke: #b0b0b0; stroke-opacity: 0.3; stroke-width: 0.8; stroke-linecap: square"/>
     </g>
     <g id="line2d_2">
      <defs>
       <path id="m7684daf74a" d="M 0 0 
L 0 3.5 
" style="stroke: #000000; stroke-width: 0.8"/>
      </defs>
      <g>
       <use xlink:href="#m7684daf74a" x="50.14375" y="134.44" style="stroke: #000000; stroke-width: 0.8"/>
      </g>
     </g>
     <g id="text_1">
      <!-- 0 -->
      <g transform="translate(46.9625 149.038437) scale(0.1 -0.1)">
       <defs>
        <path id="DejaVuSans-30" d="M 2034 4250 
Q 1547 4250 1301 3770 
Q 1056 3291 1056 2328 
Q 1056 1369 1301 889 
Q 1547 409 2034 409 
Q 2525 409 2770 889 
Q 3016 1369 3016 2328 
Q 3016 3291 2770 3770 
Q 2525 4250 2034 4250 
z
M 2034 4750 
Q 2819 4750 3233 4129 
Q 3647 3509 3647 2328 
Q 3647 1150 3233 529 
Q 2819 -91 2034 -91 
Q 1250 -91 836 529 
Q 422 1150 422 2328 
Q 422 3509 836 4129 
Q 1250 4750 2034 4750 
z
" transform="scale(0.015625)"/>
       </defs>
       <use xlink:href="#DejaVuSans-30"/>
      </g>
     </g>
    </g>
    <g id="xtick_2">
     <g id="line2d_3">
      <path d="M 86.36375 134.44 
L 86.36375 7.2 
" clip-path="url(#pa66db51c6d)" style="fill: none; stroke: #b0b0b0; stroke-opacity: 0.3; stroke-width: 0.8; stroke-linecap: square"/>
     </g>
     <g id="line2d_4">
      <g>
       <use xlink:href="#m7684daf74a" x="86.36375" y="134.44" style="stroke: #000000; stroke-width: 0.8"/>
      </g>
     </g>
     <g id="text_2">
      <!-- 5 -->
      <g transform="translate(83.1825 149.038437) scale(0.1 -0.1)">
       <defs>
        <path id="DejaVuSans-35" d="M 691 4666 
L 3169 4666 
L 3169 4134 
L 1269 4134 
L 1269 2991 
Q 1406 3038 1543 3061 
Q 1681 3084 1819 3084 
Q 2600 3084 3056 2656 
Q 3513 2228 3513 1497 
Q 3513 744 3044 326 
Q 2575 -91 1722 -91 
Q 1428 -91 1123 -41 
Q 819 9 494 109 
L 494 744 
Q 775 591 1075 516 
Q 1375 441 1709 441 
Q 2250 441 2565 725 
Q 2881 1009 2881 1497 
Q 2881 1984 2565 2268 
Q 2250 2553 1709 2553 
Q 1456 2553 1204 2497 
Q 953 2441 691 2322 
L 691 4666 
z
" transform="scale(0.015625)"/>
       </defs>
       <use xlink:href="#DejaVuSans-35"/>
      </g>
     </g>
    </g>
    <g id="xtick_3">
     <g id="line2d_5">
      <path d="M 122.58375 134.44 
L 122.58375 7.2 
" clip-path="url(#pa66db51c6d)" style="fill: none; stroke: #b0b0b0; stroke-opacity: 0.3; stroke-width: 0.8; stroke-linecap: square"/>
     </g>
     <g id="line2d_6">
      <g>
       <use xlink:href="#m7684daf74a" x="122.58375" y="134.44" style="stroke: #000000; stroke-width: 0.8"/>
      </g>
     </g>
     <g id="text_3">
      <!-- 10 -->
      <g transform="translate(116.22125 149.038437) scale(0.1 -0.1)">
       <defs>
        <path id="DejaVuSans-31" d="M 794 531 
L 1825 531 
L 1825 4091 
L 703 3866 
L 703 4441 
L 1819 4666 
L 2450 4666 
L 2450 531 
L 3481 531 
L 3481 0 
L 794 0 
L 794 531 
z
" transform="scale(0.015625)"/>
       </defs>
       <use xlink:href="#DejaVuSans-31"/>
       <use xlink:href="#DejaVuSans-30" x="63.623047"/>
      </g>
     </g>
    </g>
    <g id="xtick_4">
     <g id="line2d_7">
      <path d="M 158.80375 134.44 
L 158.80375 7.2 
" clip-path="url(#pa66db51c6d)" style="fill: none; stroke: #b0b0b0; stroke-opacity: 0.3; stroke-width: 0.8; stroke-linecap: square"/>
     </g>
     <g id="line2d_8">
      <g>
       <use xlink:href="#m7684daf74a" x="158.80375" y="134.44" style="stroke: #000000; stroke-width: 0.8"/>
      </g>
     </g>
     <g id="text_4">
      <!-- 15 -->
      <g transform="translate(152.44125 149.038437) scale(0.1 -0.1)">
       <use xlink:href="#DejaVuSans-31"/>
       <use xlink:href="#DejaVuSans-35" x="63.623047"/>
      </g>
     </g>
    </g>
    <g id="xtick_5">
     <g id="line2d_9">
      <path d="M 195.02375 134.44 
L 195.02375 7.2 
" clip-path="url(#pa66db51c6d)" style="fill: none; stroke: #b0b0b0; stroke-opacity: 0.3; stroke-width: 0.8; stroke-linecap: square"/>
     </g>
     <g id="line2d_10">
      <g>
       <use xlink:href="#m7684daf74a" x="195.02375" y="134.44" style="stroke: #000000; stroke-width: 0.8"/>
      </g>
     </g>
     <g id="text_5">
      <!-- 20 -->
      <g transform="translate(188.66125 149.038437) scale(0.1 -0.1)">
       <defs>
        <path id="DejaVuSans-32" d="M 1228 531 
L 3431 531 
L 3431 0 
L 469 0 
L 469 531 
Q 828 903 1448 1529 
Q 2069 2156 2228 2338 
Q 2531 2678 2651 2914 
Q 2772 3150 2772 3378 
Q 2772 3750 2511 3984 
Q 2250 4219 1831 4219 
Q 1534 4219 1204 4116 
Q 875 4013 500 3803 
L 500 4441 
Q 881 4594 1212 4672 
Q 1544 4750 1819 4750 
Q 2544 4750 2975 4387 
Q 3406 4025 3406 3419 
Q 3406 3131 3298 2873 
Q 3191 2616 2906 2266 
Q 2828 2175 2409 1742 
Q 1991 1309 1228 531 
z
" transform="scale(0.015625)"/>
       </defs>
       <use xlink:href="#DejaVuSans-32"/>
       <use xlink:href="#DejaVuSans-30" x="63.623047"/>
      </g>
     </g>
    </g>
    <g id="text_6">
     <!-- RMSD -->
     <g transform="translate(107.77125 162.716563) scale(0.1 -0.1)">
      <defs>
       <path id="DejaVuSans-52" d="M 2841 2188 
Q 3044 2119 3236 1894 
Q 3428 1669 3622 1275 
L 4263 0 
L 3584 0 
L 2988 1197 
Q 2756 1666 2539 1819 
Q 2322 1972 1947 1972 
L 1259 1972 
L 1259 0 
L 628 0 
L 628 4666 
L 2053 4666 
Q 2853 4666 3247 4331 
Q 3641 3997 3641 3322 
Q 3641 2881 3436 2590 
Q 3231 2300 2841 2188 
z
M 1259 4147 
L 1259 2491 
L 2053 2491 
Q 2509 2491 2742 2702 
Q 2975 2913 2975 3322 
Q 2975 3731 2742 3939 
Q 2509 4147 2053 4147 
L 1259 4147 
z
" transform="scale(0.015625)"/>
       <path id="DejaVuSans-4d" d="M 628 4666 
L 1569 4666 
L 2759 1491 
L 3956 4666 
L 4897 4666 
L 4897 0 
L 4281 0 
L 4281 4097 
L 3078 897 
L 2444 897 
L 1241 4097 
L 1241 0 
L 628 0 
L 628 4666 
z
" transform="scale(0.015625)"/>
       <path id="DejaVuSans-53" d="M 3425 4513 
L 3425 3897 
Q 3066 4069 2747 4153 
Q 2428 4238 2131 4238 
Q 1616 4238 1336 4038 
Q 1056 3838 1056 3469 
Q 1056 3159 1242 3001 
Q 1428 2844 1947 2747 
L 2328 2669 
Q 3034 2534 3370 2195 
Q 3706 1856 3706 1288 
Q 3706 609 3251 259 
Q 2797 -91 1919 -91 
Q 1588 -91 1214 -16 
Q 841 59 441 206 
L 441 856 
Q 825 641 1194 531 
Q 1563 422 1919 422 
Q 2459 422 2753 634 
Q 3047 847 3047 1241 
Q 3047 1584 2836 1778 
Q 2625 1972 2144 2069 
L 1759 2144 
Q 1053 2284 737 2584 
Q 422 2884 422 3419 
Q 422 4038 858 4394 
Q 1294 4750 2059 4750 
Q 2388 4750 2728 4690 
Q 3069 4631 3425 4513 
z
" transform="scale(0.015625)"/>
       <path id="DejaVuSans-44" d="M 1259 4147 
L 1259 519 
L 2022 519 
Q 2988 519 3436 956 
Q 3884 1394 3884 2338 
Q 3884 3275 3436 3711 
Q 2988 4147 2022 4147 
L 1259 4147 
z
M 628 4666 
L 1925 4666 
Q 3281 4666 3915 4102 
Q 4550 3538 4550 2338 
Q 4550 1131 3912 565 
Q 3275 0 1925 0 
L 628 0 
L 628 4666 
z
" transform="scale(0.015625)"/>
      </defs>
      <use xlink:href="#DejaVuSans-52"/>
      <use xlink:href="#DejaVuSans-4d" x="69.482422"/>
      <use xlink:href="#DejaVuSans-53" x="155.761719"/>
      <use xlink:href="#DejaVuSans-44" x="219.238281"/>
     </g>
    </g>
   </g>
   <g id="matplotlib.axis_2">
    <g id="ytick_1">
     <g id="line2d_11">
      <path d="M 50.14375 134.44 
L 195.02375 134.44 
" clip-path="url(#pa66db51c6d)" style="fill: none; stroke: #b0b0b0; stroke-opacity: 0.3; stroke-width: 0.8; stroke-linecap: square"/>
     </g>
     <g id="line2d_12">
      <defs>
       <path id="m173e49cb1a" d="M 0 0 
L -3.5 0 
" style="stroke: #000000; stroke-width: 0.8"/>
      </defs>
      <g>
       <use xlink:href="#m173e49cb1a" x="50.14375" y="134.44" style="stroke: #000000; stroke-width: 0.8"/>
      </g>
     </g>
     <g id="text_7">
      <!-- 0.00 -->
      <g transform="translate(20.878125 138.239219) scale(0.1 -0.1)">
       <defs>
        <path id="DejaVuSans-2e" d="M 684 794 
L 1344 794 
L 1344 0 
L 684 0 
L 684 794 
z
" transform="scale(0.015625)"/>
       </defs>
       <use xlink:href="#DejaVuSans-30"/>
       <use xlink:href="#DejaVuSans-2e" x="63.623047"/>
       <use xlink:href="#DejaVuSans-30" x="95.410156"/>
       <use xlink:href="#DejaVuSans-30" x="159.033203"/>
      </g>
     </g>
    </g>
    <g id="ytick_2">
     <g id="line2d_13">
      <path d="M 50.14375 100.248668 
L 195.02375 100.248668 
" clip-path="url(#pa66db51c6d)" style="fill: none; stroke: #b0b0b0; stroke-opacity: 0.3; stroke-width: 0.8; stroke-linecap: square"/>
     </g>
     <g id="line2d_14">
      <g>
       <use xlink:href="#m173e49cb1a" x="50.14375" y="100.248668" style="stroke: #000000; stroke-width: 0.8"/>
      </g>
     </g>
     <g id="text_8">
      <!-- 0.05 -->
      <g transform="translate(20.878125 104.047886) scale(0.1 -0.1)">
       <use xlink:href="#DejaVuSans-30"/>
       <use xlink:href="#DejaVuSans-2e" x="63.623047"/>
       <use xlink:href="#DejaVuSans-30" x="95.410156"/>
       <use xlink:href="#DejaVuSans-35" x="159.033203"/>
      </g>
     </g>
    </g>
    <g id="ytick_3">
     <g id="line2d_15">
      <path d="M 50.14375 66.057335 
L 195.02375 66.057335 
" clip-path="url(#pa66db51c6d)" style="fill: none; stroke: #b0b0b0; stroke-opacity: 0.3; stroke-width: 0.8; stroke-linecap: square"/>
     </g>
     <g id="line2d_16">
      <g>
       <use xlink:href="#m173e49cb1a" x="50.14375" y="66.057335" style="stroke: #000000; stroke-width: 0.8"/>
      </g>
     </g>
     <g id="text_9">
      <!-- 0.10 -->
      <g transform="translate(20.878125 69.856554) scale(0.1 -0.1)">
       <use xlink:href="#DejaVuSans-30"/>
       <use xlink:href="#DejaVuSans-2e" x="63.623047"/>
       <use xlink:href="#DejaVuSans-31" x="95.410156"/>
       <use xlink:href="#DejaVuSans-30" x="159.033203"/>
      </g>
     </g>
    </g>
    <g id="ytick_4">
     <g id="line2d_17">
      <path d="M 50.14375 31.866003 
L 195.02375 31.866003 
" clip-path="url(#pa66db51c6d)" style="fill: none; stroke: #b0b0b0; stroke-opacity: 0.3; stroke-width: 0.8; stroke-linecap: square"/>
     </g>
     <g id="line2d_18">
      <g>
       <use xlink:href="#m173e49cb1a" x="50.14375" y="31.866003" style="stroke: #000000; stroke-width: 0.8"/>
      </g>
     </g>
     <g id="text_10">
      <!-- 0.15 -->
      <g transform="translate(20.878125 35.665222) scale(0.1 -0.1)">
       <use xlink:href="#DejaVuSans-30"/>
       <use xlink:href="#DejaVuSans-2e" x="63.623047"/>
       <use xlink:href="#DejaVuSans-31" x="95.410156"/>
       <use xlink:href="#DejaVuSans-35" x="159.033203"/>
      </g>
     </g>
    </g>
    <g id="text_11">
     <!-- Density -->
     <g transform="translate(14.798438 89.828594) rotate(-90) scale(0.1 -0.1)">
      <defs>
       <path id="DejaVuSans-65" d="M 3597 1894 
L 3597 1613 
L 953 1613 
Q 991 1019 1311 708 
Q 1631 397 2203 397 
Q 2534 397 2845 478 
Q 3156 559 3463 722 
L 3463 178 
Q 3153 47 2828 -22 
Q 2503 -91 2169 -91 
Q 1331 -91 842 396 
Q 353 884 353 1716 
Q 353 2575 817 3079 
Q 1281 3584 2069 3584 
Q 2775 3584 3186 3129 
Q 3597 2675 3597 1894 
z
M 3022 2063 
Q 3016 2534 2758 2815 
Q 2500 3097 2075 3097 
Q 1594 3097 1305 2825 
Q 1016 2553 972 2059 
L 3022 2063 
z
" transform="scale(0.015625)"/>
       <path id="DejaVuSans-6e" d="M 3513 2113 
L 3513 0 
L 2938 0 
L 2938 2094 
Q 2938 2591 2744 2837 
Q 2550 3084 2163 3084 
Q 1697 3084 1428 2787 
Q 1159 2491 1159 1978 
L 1159 0 
L 581 0 
L 581 3500 
L 1159 3500 
L 1159 2956 
Q 1366 3272 1645 3428 
Q 1925 3584 2291 3584 
Q 2894 3584 3203 3211 
Q 3513 2838 3513 2113 
z
" transform="scale(0.015625)"/>
       <path id="DejaVuSans-73" d="M 2834 3397 
L 2834 2853 
Q 2591 2978 2328 3040 
Q 2066 3103 1784 3103 
Q 1356 3103 1142 2972 
Q 928 2841 928 2578 
Q 928 2378 1081 2264 
Q 1234 2150 1697 2047 
L 1894 2003 
Q 2506 1872 2764 1633 
Q 3022 1394 3022 966 
Q 3022 478 2636 193 
Q 2250 -91 1575 -91 
Q 1294 -91 989 -36 
Q 684 19 347 128 
L 347 722 
Q 666 556 975 473 
Q 1284 391 1588 391 
Q 1994 391 2212 530 
Q 2431 669 2431 922 
Q 2431 1156 2273 1281 
Q 2116 1406 1581 1522 
L 1381 1569 
Q 847 1681 609 1914 
Q 372 2147 372 2553 
Q 372 3047 722 3315 
Q 1072 3584 1716 3584 
Q 2034 3584 2315 3537 
Q 2597 3491 2834 3397 
z
" transform="scale(0.015625)"/>
       <path id="DejaVuSans-69" d="M 603 3500 
L 1178 3500 
L 1178 0 
L 603 0 
L 603 3500 
z
M 603 4863 
L 1178 4863 
L 1178 4134 
L 603 4134 
L 603 4863 
z
" transform="scale(0.015625)"/>
       <path id="DejaVuSans-74" d="M 1172 4494 
L 1172 3500 
L 2356 3500 
L 2356 3053 
L 1172 3053 
L 1172 1153 
Q 1172 725 1289 603 
Q 1406 481 1766 481 
L 2356 481 
L 2356 0 
L 1766 0 
Q 1100 0 847 248 
Q 594 497 594 1153 
L 594 3053 
L 172 3053 
L 172 3500 
L 594 3500 
L 594 4494 
L 1172 4494 
z
" transform="scale(0.015625)"/>
       <path id="DejaVuSans-79" d="M 2059 -325 
Q 1816 -950 1584 -1140 
Q 1353 -1331 966 -1331 
L 506 -1331 
L 506 -850 
L 844 -850 
Q 1081 -850 1212 -737 
Q 1344 -625 1503 -206 
L 1606 56 
L 191 3500 
L 800 3500 
L 1894 763 
L 2988 3500 
L 3597 3500 
L 2059 -325 
z
" transform="scale(0.015625)"/>
      </defs>
      <use xlink:href="#DejaVuSans-44"/>
      <use xlink:href="#DejaVuSans-65" x="77.001953"/>
      <use xlink:href="#DejaVuSans-6e" x="138.525391"/>
      <use xlink:href="#DejaVuSans-73" x="201.904297"/>
      <use xlink:href="#DejaVuSans-69" x="254.003906"/>
      <use xlink:href="#DejaVuSans-74" x="281.787109"/>
      <use xlink:href="#DejaVuSans-79" x="320.996094"/>
     </g>
    </g>
   </g>
   <g id="patch_3">
    <path d="M 50.14375 134.44 
L 50.14375 7.2 
" style="fill: none; stroke: #000000; stroke-width: 0.8; stroke-linejoin: miter; stroke-linecap: square"/>
   </g>
   <g id="patch_4">
    <path d="M 195.02375 134.44 
L 195.02375 7.2 
" style="fill: none; stroke: #000000; stroke-width: 0.8; stroke-linejoin: miter; stroke-linecap: square"/>
   </g>
   <g id="patch_5">
    <path d="M 50.14375 134.44 
L 195.02375 134.44 
" style="fill: none; stroke: #000000; stroke-width: 0.8; stroke-linejoin: miter; stroke-linecap: square"/>
   </g>
   <g id="patch_6">
    <path d="M 50.14375 7.2 
L 195.02375 7.2 
" style="fill: none; stroke: #000000; stroke-width: 0.8; stroke-linejoin: miter; stroke-linecap: square"/>
   </g>
  </g>
 </g>
 <defs>
  <clipPath id="pa66db51c6d">
   <rect x="50.14375" y="7.2" width="144.88" height="127.24"/>
  </clipPath>
 </defs>
</svg>
