<?xml version="1.0" encoding="utf-8" standalone="no"?>
<!DOCTYPE svg PUBLIC "-//W3C//DTD SVG 1.1//EN"
  "http://www.w3.org/Graphics/SVG/1.1/DTD/svg11.dtd">
<svg xmlns:xlink="http://www.w3.org/1999/xlink" width="208.52375pt" height="171.99625pt" viewBox="0 0 208.52375 171.99625" xmlns="http://www.w3.org/2000/svg" version="1.1">
 <metadata>
  <rdf:RDF xmlns:dc="http://purl.org/dc/elements/1.1/" xmlns:cc="http://creativecommons.org/ns#" xmlns:rdf="http://www.w3.org/1999/02/22-rdf-syntax-ns#">
   <cc:Work>
    <dc:type rdf:resource="http://purl.org/dc/dcmitype/StillImage"/>
    <dc:date>2025-05-11T12:24:09.702732</dc:date>
    <dc:format>image/svg+xml</dc:format>
    <dc:creator>
     <cc:Agent>
      <dc:title>Matplotlib v3.9.4, https://matplotlib.org/</dc:title>
     </cc:Agent>
    </dc:creator>
   </cc:Work>
  </rdf:RDF>
 </metadata>
 <defs>
  <style type="text/css">*{stroke-linejoin: round; stroke-linecap: butt}</style>
 </defs>
 <g id="figure_1">
  <g id="patch_1">
   <path d="M 0 171.99625 
L 208.52375 171.99625 
L 208.52375 0 
L 0 0 
z
" style="fill: #ffffff"/>
  </g>
  <g id="axes_1">
   <g id="patch_2">
    <path d="M 50.14375 134.44 
L 201.32375 134.44 
L 201.32375 7.2 
L 50.14375 7.2 
z
" style="fill: #ffffff"/>
   </g>
   <g id="PolyCollection_1">
    <defs>
     <path id="m8867bfa085" d="M 58.688068 -37.557332 
L 58.688068 -37.55625 
L 59.338304 -37.55625 
L 59.988539 -37.55625 
L 60.638775 -37.55625 
L 61.28901 -37.55625 
L 61.939246 -37.55625 
L 62.589481 -37.55625 
L 63.239717 -37.55625 
L 63.889952 -37.55625 
L 64.540188 -37.55625 
L 65.190424 -37.55625 
L 65.840659 -37.55625 
L 66.490895 -37.55625 
L 67.14113 -37.55625 
L 67.791366 -37.55625 
L 68.441601 -37.55625 
L 69.091837 -37.55625 
L 69.742072 -37.55625 
L 70.392308 -37.55625 
L 71.042544 -37.55625 
L 71.692779 -37.55625 
L 72.343015 -37.55625 
L 72.99325 -37.55625 
L 73.643486 -37.55625 
L 74.293721 -37.55625 
L 74.943957 -37.55625 
L 75.594192 -37.55625 
L 76.244428 -37.55625 
L 76.894664 -37.55625 
L 77.544899 -37.55625 
L 78.195135 -37.55625 
L 78.84537 -37.55625 
L 79.495606 -37.55625 
L 80.145841 -37.55625 
L 80.796077 -37.55625 
L 81.446312 -37.55625 
L 82.096548 -37.55625 
L 82.746784 -37.55625 
L 83.397019 -37.55625 
L 84.047255 -37.55625 
L 84.69749 -37.55625 
L 85.347726 -37.55625 
L 85.997961 -37.55625 
L 86.648197 -37.55625 
L 87.298432 -37.55625 
L 87.948668 -37.55625 
L 88.598904 -37.55625 
L 89.249139 -37.55625 
L 89.899375 -37.55625 
L 90.54961 -37.55625 
L 91.199846 -37.55625 
L 91.850081 -37.55625 
L 92.500317 -37.55625 
L 93.150552 -37.55625 
L 93.800788 -37.55625 
L 94.451024 -37.55625 
L 95.101259 -37.55625 
L 95.751495 -37.55625 
L 96.40173 -37.55625 
L 97.051966 -37.55625 
L 97.702201 -37.55625 
L 98.352437 -37.55625 
L 99.002672 -37.55625 
L 99.652908 -37.55625 
L 100.303144 -37.55625 
L 100.953379 -37.55625 
L 101.603615 -37.55625 
L 102.25385 -37.55625 
L 102.904086 -37.55625 
L 103.554321 -37.55625 
L 104.204557 -37.55625 
L 104.854792 -37.55625 
L 105.505028 -37.55625 
L 106.155264 -37.55625 
L 106.805499 -37.55625 
L 107.455735 -37.55625 
L 108.10597 -37.55625 
L 108.756206 -37.55625 
L 109.406441 -37.55625 
L 110.056677 -37.55625 
L 110.706912 -37.55625 
L 111.357148 -37.55625 
L 112.007384 -37.55625 
L 112.657619 -37.55625 
L 113.307855 -37.55625 
L 113.95809 -37.55625 
L 114.608326 -37.55625 
L 115.258561 -37.55625 
L 115.908797 -37.55625 
L 116.559032 -37.55625 
L 117.209268 -37.55625 
L 117.859504 -37.55625 
L 118.509739 -37.55625 
L 119.159975 -37.55625 
L 119.81021 -37.55625 
L 120.460446 -37.55625 
L 121.110681 -37.55625 
L 121.760917 -37.55625 
L 122.411152 -37.55625 
L 123.061388 -37.55625 
L 123.711624 -37.55625 
L 124.361859 -37.55625 
L 125.012095 -37.55625 
L 125.66233 -37.55625 
L 126.312566 -37.55625 
L 126.962801 -37.55625 
L 127.613037 -37.55625 
L 128.263272 -37.55625 
L 128.913508 -37.55625 
L 129.563744 -37.55625 
L 130.213979 -37.55625 
L 130.864215 -37.55625 
L 131.51445 -37.55625 
L 132.164686 -37.55625 
L 132.814921 -37.55625 
L 133.465157 -37.55625 
L 134.115392 -37.55625 
L 134.765628 -37.55625 
L 135.415864 -37.55625 
L 136.066099 -37.55625 
L 136.716335 -37.55625 
L 137.36657 -37.55625 
L 138.016806 -37.55625 
L 138.667041 -37.55625 
L 139.317277 -37.55625 
L 139.967512 -37.55625 
L 140.617748 -37.55625 
L 141.267984 -37.55625 
L 141.918219 -37.55625 
L 142.568455 -37.55625 
L 143.21869 -37.55625 
L 143.868926 -37.55625 
L 144.519161 -37.55625 
L 145.169397 -37.55625 
L 145.819632 -37.55625 
L 146.469868 -37.55625 
L 147.120104 -37.55625 
L 147.770339 -37.55625 
L 148.420575 -37.55625 
L 149.07081 -37.55625 
L 149.721046 -37.55625 
L 150.371281 -37.55625 
L 151.021517 -37.55625 
L 151.671752 -37.55625 
L 152.321988 -37.55625 
L 152.972224 -37.55625 
L 153.622459 -37.55625 
L 154.272695 -37.55625 
L 154.92293 -37.55625 
L 155.573166 -37.55625 
L 156.223401 -37.55625 
L 156.873637 -37.55625 
L 157.523872 -37.55625 
L 158.174108 -37.55625 
L 158.824344 -37.55625 
L 159.474579 -37.55625 
L 160.124815 -37.55625 
L 160.77505 -37.55625 
L 161.425286 -37.55625 
L 162.075521 -37.55625 
L 162.725757 -37.55625 
L 163.375992 -37.55625 
L 164.026228 -37.55625 
L 164.676464 -37.55625 
L 165.326699 -37.55625 
L 165.976935 -37.55625 
L 166.62717 -37.55625 
L 167.277406 -37.55625 
L 167.927641 -37.55625 
L 168.577877 -37.55625 
L 169.228112 -37.55625 
L 169.878348 -37.55625 
L 170.528584 -37.55625 
L 171.178819 -37.55625 
L 171.829055 -37.55625 
L 172.47929 -37.55625 
L 173.129526 -37.55625 
L 173.779761 -37.55625 
L 174.429997 -37.55625 
L 175.080232 -37.55625 
L 175.730468 -37.55625 
L 176.380704 -37.55625 
L 177.030939 -37.55625 
L 177.681175 -37.55625 
L 178.33141 -37.55625 
L 178.981646 -37.55625 
L 179.631881 -37.55625 
L 180.282117 -37.55625 
L 180.932352 -37.55625 
L 181.582588 -37.55625 
L 182.232824 -37.55625 
L 182.883059 -37.55625 
L 183.533295 -37.55625 
L 184.18353 -37.55625 
L 184.833766 -37.55625 
L 185.484001 -37.55625 
L 186.134237 -37.55625 
L 186.784472 -37.55625 
L 187.434708 -37.55625 
L 188.084944 -37.55625 
L 188.084944 -37.559903 
L 188.084944 -37.559903 
L 187.434708 -37.56722 
L 186.784472 -37.585555 
L 186.134237 -37.626421 
L 185.484001 -37.708344 
L 184.833766 -37.858221 
L 184.18353 -38.112621 
L 183.533295 -38.519484 
L 182.883059 -39.138956 
L 182.232824 -40.039824 
L 181.582588 -41.288489 
L 180.932352 -42.932878 
L 180.282117 -44.990967 
L 179.631881 -47.455187 
L 178.981646 -50.31511 
L 178.33141 -53.585497 
L 177.681175 -57.317433 
L 177.030939 -61.577525 
L 176.380704 -66.402052 
L 175.730468 -71.754029 
L 175.080232 -77.514195 
L 174.429997 -83.515895 
L 173.779761 -89.602591 
L 173.129526 -95.670905 
L 172.47929 -101.675164 
L 171.829055 -107.597227 
L 171.178819 -113.404328 
L 170.528584 -119.020838 
L 169.878348 -124.333223 
L 169.228112 -129.231579 
L 168.577877 -133.667133 
L 167.927641 -137.688343 
L 167.277406 -141.425932 
L 166.62717 -145.026126 
L 165.976935 -148.561637 
L 165.326699 -151.96386 
L 164.676464 -155.010314 
L 164.026228 -157.373005 
L 163.375992 -158.705402 
L 162.725757 -158.737202 
L 162.075521 -157.353126 
L 161.425286 -154.634495 
L 160.77505 -150.839613 
L 160.124815 -146.316277 
L 159.474579 -141.384979 
L 158.824344 -136.264441 
L 158.174108 -131.082124 
L 157.523872 -125.933969 
L 156.873637 -120.911158 
L 156.223401 -116.057881 
L 155.573166 -111.317966 
L 154.92293 -106.558591 
L 154.272695 -101.68071 
L 153.622459 -96.723331 
L 152.972224 -91.862194 
L 152.321988 -87.30298 
L 151.671752 -83.163222 
L 151.021517 -79.430369 
L 150.371281 -76.003667 
L 149.721046 -72.769711 
L 149.07081 -69.663544 
L 148.420575 -66.692066 
L 147.770339 -63.913627 
L 147.120104 -61.387705 
L 146.469868 -59.132422 
L 145.819632 -57.124373 
L 145.169397 -55.334709 
L 144.519161 -53.759033 
L 143.868926 -52.40889 
L 143.21869 -51.275852 
L 142.568455 -50.306625 
L 141.918219 -49.415106 
L 141.267984 -48.524255 
L 140.617748 -47.607728 
L 139.967512 -46.701511 
L 139.317277 -45.875258 
L 138.667041 -45.18057 
L 138.016806 -44.612004 
L 137.36657 -44.109368 
L 136.716335 -43.598492 
L 136.066099 -43.038243 
L 135.415864 -42.440399 
L 134.765628 -41.854062 
L 134.115392 -41.332285 
L 133.465157 -40.905619 
L 132.814921 -40.575709 
L 132.164686 -40.325274 
L 131.51445 -40.131817 
L 130.864215 -39.975739 
L 130.213979 -39.842885 
L 129.563744 -39.726119 
L 128.913508 -39.627157 
L 128.263272 -39.555283 
L 127.613037 -39.520476 
L 126.962801 -39.523869 
L 126.312566 -39.552054 
L 125.66233 -39.579833 
L 125.012095 -39.580266 
L 124.361859 -39.536012 
L 123.711624 -39.445443 
L 123.061388 -39.320648 
L 122.411152 -39.179501 
L 121.760917 -39.036996 
L 121.110681 -38.900752 
L 120.460446 -38.7725 
L 119.81021 -38.653259 
L 119.159975 -38.547165 
L 118.509739 -38.459928 
L 117.859504 -38.392924 
L 117.209268 -38.338875 
L 116.559032 -38.284693 
L 115.908797 -38.22061 
L 115.258561 -38.148218 
L 114.608326 -38.08011 
L 113.95809 -38.030724 
L 113.307855 -38.005356 
L 112.657619 -37.995858 
L 112.007384 -37.986249 
L 111.357148 -37.9638 
L 110.706912 -37.927017 
L 110.056677 -37.884683 
L 109.406441 -37.847494 
L 108.756206 -37.819678 
L 108.10597 -37.797424 
L 107.455735 -37.77462 
L 106.805499 -37.750145 
L 106.155264 -37.7302 
L 105.505028 -37.723865 
L 104.854792 -37.735787 
L 104.204557 -37.761889 
L 103.554321 -37.791312 
L 102.904086 -37.812778 
L 102.25385 -37.820397 
L 101.603615 -37.814945 
L 100.953379 -37.800858 
L 100.303144 -37.782522 
L 99.652908 -37.763077 
L 99.002672 -37.745773 
L 98.352437 -37.735166 
L 97.702201 -37.735676 
L 97.051966 -37.74796 
L 96.40173 -37.766604 
L 95.751495 -37.782307 
L 95.101259 -37.787656 
L 94.451024 -37.781782 
L 93.800788 -37.769939 
L 93.150552 -37.758892 
L 92.500317 -37.752507 
L 91.850081 -37.750665 
L 91.199846 -37.750891 
L 90.54961 -37.750227 
L 89.899375 -37.745984 
L 89.249139 -37.735808 
L 88.598904 -37.718031 
L 87.948668 -37.692621 
L 87.298432 -37.661977 
L 86.648197 -37.63053 
L 85.997961 -37.602986 
L 85.347726 -37.582354 
L 84.69749 -37.569114 
L 84.047255 -37.561819 
L 83.397019 -37.558362 
L 82.746784 -37.556951 
L 82.096548 -37.556453 
L 81.446312 -37.556301 
L 80.796077 -37.556261 
L 80.145841 -37.556252 
L 79.495606 -37.55625 
L 78.84537 -37.55625 
L 78.195135 -37.55625 
L 77.544899 -37.55625 
L 76.894664 -37.55625 
L 76.244428 -37.55625 
L 75.594192 -37.55625 
L 74.943957 -37.55625 
L 74.293721 -37.55625 
L 73.643486 -37.55625 
L 72.99325 -37.55625 
L 72.343015 -37.556251 
L 71.692779 -37.556256 
L 71.042544 -37.556277 
L 70.392308 -37.556363 
L 69.742072 -37.556664 
L 69.091837 -37.557566 
L 68.441601 -37.559897 
L 67.791366 -37.565059 
L 67.14113 -37.574791 
L 66.490895 -37.590261 
L 65.840659 -37.610621 
L 65.190424 -37.632001 
L 64.540188 -37.648225 
L 63.889952 -37.653573 
L 63.239717 -37.645999 
L 62.589481 -37.628378 
L 61.939246 -37.606768 
L 61.28901 -37.587086 
L 60.638775 -37.572653 
L 59.988539 -37.563854 
L 59.338304 -37.559322 
L 58.688068 -37.557332 
z
" style="stroke: #000000"/>
    </defs>
    <g clip-path="url(#pabd6a07410)">
     <use xlink:href="#m8867bfa085" x="0" y="171.99625" style="fill: #8e7fb8; fill-opacity: 0.7; stroke: #000000"/>
    </g>
   </g>
   <g id="PolyCollection_2">
    <defs>
     <path id="m9151081fca" d="M 57.015568 -37.559471 
L 57.015568 -37.55625 
L 57.706203 -37.55625 
L 58.396838 -37.55625 
L 59.087473 -37.55625 
L 59.778108 -37.55625 
L 60.468743 -37.55625 
L 61.159378 -37.55625 
L 61.850013 -37.55625 
L 62.540648 -37.55625 
L 63.231283 -37.55625 
L 63.921918 -37.55625 
L 64.612553 -37.55625 
L 65.303188 -37.55625 
L 65.993823 -37.55625 
L 66.684458 -37.55625 
L 67.375093 -37.55625 
L 68.065728 -37.55625 
L 68.756363 -37.55625 
L 69.446998 -37.55625 
L 70.137633 -37.55625 
L 70.828268 -37.55625 
L 71.518903 -37.55625 
L 72.209538 -37.55625 
L 72.900173 -37.55625 
L 73.590808 -37.55625 
L 74.281443 -37.55625 
L 74.972078 -37.55625 
L 75.662713 -37.55625 
L 76.353348 -37.55625 
L 77.043983 -37.55625 
L 77.734618 -37.55625 
L 78.425253 -37.55625 
L 79.115888 -37.55625 
L 79.806523 -37.55625 
L 80.497158 -37.55625 
L 81.187793 -37.55625 
L 81.878428 -37.55625 
L 82.569063 -37.55625 
L 83.259698 -37.55625 
L 83.950333 -37.55625 
L 84.640968 -37.55625 
L 85.331603 -37.55625 
L 86.022238 -37.55625 
L 86.712873 -37.55625 
L 87.403508 -37.55625 
L 88.094143 -37.55625 
L 88.784778 -37.55625 
L 89.475413 -37.55625 
L 90.166048 -37.55625 
L 90.856683 -37.55625 
L 91.547318 -37.55625 
L 92.237953 -37.55625 
L 92.928588 -37.55625 
L 93.619223 -37.55625 
L 94.309858 -37.55625 
L 95.000493 -37.55625 
L 95.691128 -37.55625 
L 96.381763 -37.55625 
L 97.072398 -37.55625 
L 97.763033 -37.55625 
L 98.453668 -37.55625 
L 99.144303 -37.55625 
L 99.834938 -37.55625 
L 100.525573 -37.55625 
L 101.216208 -37.55625 
L 101.906843 -37.55625 
L 102.597478 -37.55625 
L 103.288113 -37.55625 
L 103.978748 -37.55625 
L 104.669383 -37.55625 
L 105.360018 -37.55625 
L 106.050653 -37.55625 
L 106.741288 -37.55625 
L 107.431923 -37.55625 
L 108.122558 -37.55625 
L 108.813193 -37.55625 
L 109.503828 -37.55625 
L 110.194463 -37.55625 
L 110.885098 -37.55625 
L 111.575733 -37.55625 
L 112.266368 -37.55625 
L 112.957003 -37.55625 
L 113.647638 -37.55625 
L 114.338273 -37.55625 
L 115.028908 -37.55625 
L 115.719543 -37.55625 
L 116.410178 -37.55625 
L 117.100813 -37.55625 
L 117.791448 -37.55625 
L 118.482083 -37.55625 
L 119.172718 -37.55625 
L 119.863353 -37.55625 
L 120.553988 -37.55625 
L 121.244623 -37.55625 
L 121.935258 -37.55625 
L 122.625893 -37.55625 
L 123.316528 -37.55625 
L 124.007163 -37.55625 
L 124.697798 -37.55625 
L 125.388433 -37.55625 
L 126.079067 -37.55625 
L 126.769702 -37.55625 
L 127.460337 -37.55625 
L 128.150972 -37.55625 
L 128.841607 -37.55625 
L 129.532242 -37.55625 
L 130.222877 -37.55625 
L 130.913512 -37.55625 
L 131.604147 -37.55625 
L 132.294782 -37.55625 
L 132.985417 -37.55625 
L 133.676052 -37.55625 
L 134.366687 -37.55625 
L 135.057322 -37.55625 
L 135.747957 -37.55625 
L 136.438592 -37.55625 
L 137.129227 -37.55625 
L 137.819862 -37.55625 
L 138.510497 -37.55625 
L 139.201132 -37.55625 
L 139.891767 -37.55625 
L 140.582402 -37.55625 
L 141.273037 -37.55625 
L 141.963672 -37.55625 
L 142.654307 -37.55625 
L 143.344942 -37.55625 
L 144.035577 -37.55625 
L 144.726212 -37.55625 
L 145.416847 -37.55625 
L 146.107482 -37.55625 
L 146.798117 -37.55625 
L 147.488752 -37.55625 
L 148.179387 -37.55625 
L 148.870022 -37.55625 
L 149.560657 -37.55625 
L 150.251292 -37.55625 
L 150.941927 -37.55625 
L 151.632562 -37.55625 
L 152.323197 -37.55625 
L 153.013832 -37.55625 
L 153.704467 -37.55625 
L 154.395102 -37.55625 
L 155.085737 -37.55625 
L 155.776372 -37.55625 
L 156.467007 -37.55625 
L 157.157642 -37.55625 
L 157.848277 -37.55625 
L 158.538912 -37.55625 
L 159.229547 -37.55625 
L 159.920182 -37.55625 
L 160.610817 -37.55625 
L 161.301452 -37.55625 
L 161.992087 -37.55625 
L 162.682722 -37.55625 
L 163.373357 -37.55625 
L 164.063992 -37.55625 
L 164.754627 -37.55625 
L 165.445262 -37.55625 
L 166.135897 -37.55625 
L 166.826532 -37.55625 
L 167.517167 -37.55625 
L 168.207802 -37.55625 
L 168.898437 -37.55625 
L 169.589072 -37.55625 
L 170.279707 -37.55625 
L 170.970342 -37.55625 
L 171.660977 -37.55625 
L 172.351612 -37.55625 
L 173.042247 -37.55625 
L 173.732882 -37.55625 
L 174.423517 -37.55625 
L 175.114152 -37.55625 
L 175.804787 -37.55625 
L 176.495422 -37.55625 
L 177.186057 -37.55625 
L 177.876692 -37.55625 
L 178.567327 -37.55625 
L 179.257962 -37.55625 
L 179.948597 -37.55625 
L 180.639232 -37.55625 
L 181.329867 -37.55625 
L 182.020502 -37.55625 
L 182.711137 -37.55625 
L 183.401772 -37.55625 
L 184.092407 -37.55625 
L 184.783042 -37.55625 
L 185.473677 -37.55625 
L 186.164312 -37.55625 
L 186.854947 -37.55625 
L 187.545582 -37.55625 
L 188.236217 -37.55625 
L 188.926852 -37.55625 
L 189.617487 -37.55625 
L 190.308122 -37.55625 
L 190.998757 -37.55625 
L 191.689392 -37.55625 
L 192.380027 -37.55625 
L 193.070662 -37.55625 
L 193.761297 -37.55625 
L 194.451932 -37.55625 
L 194.451932 -37.566986 
L 194.451932 -37.566986 
L 193.761297 -37.57461 
L 193.070662 -37.586996 
L 192.380027 -37.606679 
L 191.689392 -37.637271 
L 190.998757 -37.683779 
L 190.308122 -37.752943 
L 189.617487 -37.853569 
L 188.926852 -37.996812 
L 188.236217 -38.19635 
L 187.545582 -38.468403 
L 186.854947 -38.831527 
L 186.164312 -39.306156 
L 185.473677 -39.913879 
L 184.783042 -40.676471 
L 184.092407 -41.614759 
L 183.401772 -42.747419 
L 182.711137 -44.089827 
L 182.020502 -45.653113 
L 181.329867 -47.443498 
L 180.639232 -49.461991 
L 179.948597 -51.704431 
L 179.257962 -54.161802 
L 178.567327 -56.820692 
L 177.876692 -59.663764 
L 177.186057 -62.670088 
L 176.495422 -65.815265 
L 175.804787 -69.07133 
L 175.114152 -72.406523 
L 174.423517 -75.785088 
L 173.732882 -79.167295 
L 173.042247 -82.509896 
L 172.351612 -85.767162 
L 171.660977 -88.892544 
L 170.970342 -91.840914 
L 170.279707 -94.57116 
L 169.589072 -97.048873 
L 168.898437 -99.248753 
L 168.207802 -101.15638 
L 167.517167 -102.769086 
L 166.826532 -104.095735 
L 166.135897 -105.1554 
L 165.445262 -105.975079 
L 164.754627 -106.586711 
L 164.063992 -107.023862 
L 163.373357 -107.31845 
L 162.682722 -107.497892 
L 161.992087 -107.582929 
L 161.301452 -107.58631 
L 160.610817 -107.512379 
L 159.920182 -107.357523 
L 159.229547 -107.111334 
L 158.538912 -106.758326 
L 157.848277 -106.280005 
L 157.157642 -105.657114 
L 156.467007 -104.871878 
L 155.776372 -103.910097 
L 155.085737 -102.762956 
L 154.395102 -101.428411 
L 153.704467 -99.912039 
L 153.013832 -98.227257 
L 152.323197 -96.394848 
L 151.632562 -94.441799 
L 150.941927 -92.399535 
L 150.251292 -90.301709 
L 149.560657 -88.181787 
L 148.870022 -86.070707 
L 148.179387 -83.99491 
L 147.488752 -81.974967 
L 146.798117 -80.024975 
L 146.107482 -78.152745 
L 145.416847 -76.360687 
L 144.726212 -74.647197 
L 144.035577 -73.008271 
L 143.344942 -71.439057 
L 142.654307 -69.9351 
L 141.963672 -68.493114 
L 141.273037 -67.111237 
L 140.582402 -65.788803 
L 139.891767 -64.525807 
L 139.201132 -63.322225 
L 138.510497 -62.177403 
L 137.819862 -61.08966 
L 137.129227 -60.056166 
L 136.438592 -59.073121 
L 135.747957 -58.136131 
L 135.057322 -57.240674 
L 134.366687 -56.382542 
L 133.676052 -55.558164 
L 132.985417 -54.764759 
L 132.294782 -54.000362 
L 131.604147 -53.263761 
L 130.913512 -52.554418 
L 130.222877 -51.872443 
L 129.532242 -51.21861 
L 128.841607 -50.594398 
L 128.150972 -50.00197 
L 127.460337 -49.444031 
L 126.769702 -48.923499 
L 126.079067 -48.443007 
L 125.388433 -48.004286 
L 124.697798 -47.607573 
L 124.007163 -47.251153 
L 123.316528 -46.931181 
L 122.625893 -46.641839 
L 121.935258 -46.375812 
L 121.244623 -46.125012 
L 120.553988 -45.881405 
L 119.863353 -45.637792 
L 119.172718 -45.388408 
L 118.482083 -45.129274 
L 117.791448 -44.858289 
L 117.100813 -44.575098 
L 116.410178 -44.280832 
L 115.719543 -43.977798 
L 115.028908 -43.669181 
L 114.338273 -43.35879 
L 113.647638 -43.050844 
L 112.957003 -42.749756 
L 112.266368 -42.459895 
L 111.575733 -42.185302 
L 110.885098 -41.929373 
L 110.194463 -41.694543 
L 109.503828 -41.482025 
L 108.813193 -41.291662 
L 108.122558 -41.121927 
L 107.431923 -40.970083 
L 106.741288 -40.832489 
L 106.050653 -40.705007 
L 105.360018 -40.583452 
L 104.669383 -40.464027 
L 103.978748 -40.34368 
L 103.288113 -40.220358 
L 102.597478 -40.093133 
L 101.906843 -39.962196 
L 101.216208 -39.828734 
L 100.525573 -39.694718 
L 99.834938 -39.562626 
L 99.144303 -39.435144 
L 98.453668 -39.314875 
L 97.763033 -39.204089 
L 97.072398 -39.104538 
L 96.381763 -39.017352 
L 95.691128 -38.943015 
L 95.000493 -38.881419 
L 94.309858 -38.83196 
L 93.619223 -38.793668 
L 92.928588 -38.76532 
L 92.237953 -38.74554 
L 91.547318 -38.732842 
L 90.856683 -38.72564 
L 90.166048 -38.722221 
L 89.475413 -38.720713 
L 88.784778 -38.719071 
L 88.094143 -38.715099 
L 87.403508 -38.706536 
L 86.712873 -38.691201 
L 86.022238 -38.667182 
L 85.331603 -38.633041 
L 84.640968 -38.588014 
L 83.950333 -38.532152 
L 83.259698 -38.466387 
L 82.569063 -38.392496 
L 81.878428 -38.312984 
L 81.187793 -38.230866 
L 80.497158 -38.149414 
L 79.806523 -38.071874 
L 79.115888 -38.001194 
L 78.425253 -37.939795 
L 77.734618 -37.889401 
L 77.043983 -37.850934 
L 76.353348 -37.824481 
L 75.662713 -37.809329 
L 74.972078 -37.80405 
L 74.281443 -37.806646 
L 73.590808 -37.814721 
L 72.900173 -37.82569 
L 72.209538 -37.836989 
L 71.518903 -37.846283 
L 70.828268 -37.851653 
L 70.137633 -37.851733 
L 69.446998 -37.845793 
L 68.756363 -37.833751 
L 68.065728 -37.816114 
L 67.375093 -37.793873 
L 66.684458 -37.76834 
L 65.993823 -37.740979 
L 65.303188 -37.713239 
L 64.612553 -37.68641 
L 63.921918 -37.661528 
L 63.231283 -37.639318 
L 62.540648 -37.620188 
L 61.850013 -37.604257 
L 61.159378 -37.591411 
L 60.468743 -37.581371 
L 59.778108 -37.573757 
L 59.087473 -37.568152 
L 58.396838 -37.564142 
L 57.706203 -37.561355 
L 57.015568 -37.559471 
z
" style="stroke: #000000"/>
    </defs>
    <g clip-path="url(#pabd6a07410)">
     <use xlink:href="#m9151081fca" x="0" y="171.99625" style="fill: #a2c9ae; fill-opacity: 0.7; stroke: #000000"/>
    </g>
   </g>
   <g id="matplotlib.axis_1">
    <g id="xtick_1">
     <g id="line2d_1">
      <path d="M 52.229611 134.44 
L 52.229611 7.2 
" clip-path="url(#pabd6a07410)" style="fill: none; stroke: #b0b0b0; stroke-opacity: 0.3; stroke-width: 0.8; stroke-linecap: square"/>
     </g>
     <g id="line2d_2">
      <defs>
       <path id="m90648c375f" d="M 0 0 
L 0 3.5 
" style="stroke: #000000; stroke-width: 0.8"/>
      </defs>
      <g>
       <use xlink:href="#m90648c375f" x="52.229611" y="134.44" style="stroke: #000000; stroke-width: 0.8"/>
      </g>
     </g>
     <g id="text_1">
      <!-- −150 -->
      <g transform="translate(38.496017 149.038437) scale(0.1 -0.1)">
       <defs>
        <path id="DejaVuSans-2212" d="M 678 2272 
L 4684 2272 
L 4684 1741 
L 678 1741 
L 678 2272 
z
" transform="scale(0.015625)"/>
        <path id="DejaVuSans-31" d="M 794 531 
L 1825 531 
L 1825 4091 
L 703 3866 
L 703 4441 
L 1819 4666 
L 2450 4666 
L 2450 531 
L 3481 531 
L 3481 0 
L 794 0 
L 794 531 
z
" transform="scale(0.015625)"/>
        <path id="DejaVuSans-35" d="M 691 4666 
L 3169 4666 
L 3169 4134 
L 1269 4134 
L 1269 2991 
Q 1406 3038 1543 3061 
Q 1681 3084 1819 3084 
Q 2600 3084 3056 2656 
Q 3513 2228 3513 1497 
Q 3513 744 3044 326 
Q 2575 -91 1722 -91 
Q 1428 -91 1123 -41 
Q 819 9 494 109 
L 494 744 
Q 775 591 1075 516 
Q 1375 441 1709 441 
Q 2250 441 2565 725 
Q 2881 1009 2881 1497 
Q 2881 1984 2565 2268 
Q 2250 2553 1709 2553 
Q 1456 2553 1204 2497 
Q 953 2441 691 2322 
L 691 4666 
z
" transform="scale(0.015625)"/>
        <path id="DejaVuSans-30" d="M 2034 4250 
Q 1547 4250 1301 3770 
Q 1056 3291 1056 2328 
Q 1056 1369 1301 889 
Q 1547 409 2034 409 
Q 2525 409 2770 889 
Q 3016 1369 3016 2328 
Q 3016 3291 2770 3770 
Q 2525 4250 2034 4250 
z
M 2034 4750 
Q 2819 4750 3233 4129 
Q 3647 3509 3647 2328 
Q 3647 1150 3233 529 
Q 2819 -91 2034 -91 
Q 1250 -91 836 529 
Q 422 1150 422 2328 
Q 422 3509 836 4129 
Q 1250 4750 2034 4750 
z
" transform="scale(0.015625)"/>
       </defs>
       <use xlink:href="#DejaVuSans-2212"/>
       <use xlink:href="#DejaVuSans-31" x="83.789062"/>
       <use xlink:href="#DejaVuSans-35" x="147.412109"/>
       <use xlink:href="#DejaVuSans-30" x="211.035156"/>
      </g>
     </g>
    </g>
    <g id="xtick_2">
     <g id="line2d_3">
      <path d="M 98.642236 134.44 
L 98.642236 7.2 
" clip-path="url(#pabd6a07410)" style="fill: none; stroke: #b0b0b0; stroke-opacity: 0.3; stroke-width: 0.8; stroke-linecap: square"/>
     </g>
     <g id="line2d_4">
      <g>
       <use xlink:href="#m90648c375f" x="98.642236" y="134.44" style="stroke: #000000; stroke-width: 0.8"/>
      </g>
     </g>
     <g id="text_2">
      <!-- −100 -->
      <g transform="translate(84.908643 149.038437) scale(0.1 -0.1)">
       <use xlink:href="#DejaVuSans-2212"/>
       <use xlink:href="#DejaVuSans-31" x="83.789062"/>
       <use xlink:href="#DejaVuSans-30" x="147.412109"/>
       <use xlink:href="#DejaVuSans-30" x="211.035156"/>
      </g>
     </g>
    </g>
    <g id="xtick_3">
     <g id="line2d_5">
      <path d="M 145.054862 134.44 
L 145.054862 7.2 
" clip-path="url(#pabd6a07410)" style="fill: none; stroke: #b0b0b0; stroke-opacity: 0.3; stroke-width: 0.8; stroke-linecap: square"/>
     </g>
     <g id="line2d_6">
      <g>
       <use xlink:href="#m90648c375f" x="145.054862" y="134.44" style="stroke: #000000; stroke-width: 0.8"/>
      </g>
     </g>
     <g id="text_3">
      <!-- −50 -->
      <g transform="translate(134.502518 149.038437) scale(0.1 -0.1)">
       <use xlink:href="#DejaVuSans-2212"/>
       <use xlink:href="#DejaVuSans-35" x="83.789062"/>
       <use xlink:href="#DejaVuSans-30" x="147.412109"/>
      </g>
     </g>
    </g>
    <g id="xtick_4">
     <g id="line2d_7">
      <path d="M 191.467487 134.44 
L 191.467487 7.2 
" clip-path="url(#pabd6a07410)" style="fill: none; stroke: #b0b0b0; stroke-opacity: 0.3; stroke-width: 0.8; stroke-linecap: square"/>
     </g>
     <g id="line2d_8">
      <g>
       <use xlink:href="#m90648c375f" x="191.467487" y="134.44" style="stroke: #000000; stroke-width: 0.8"/>
      </g>
     </g>
     <g id="text_4">
      <!-- 0 -->
      <g transform="translate(188.286237 149.038437) scale(0.1 -0.1)">
       <use xlink:href="#DejaVuSans-30"/>
      </g>
     </g>
    </g>
    <g id="text_5">
     <!-- MedusaScore -->
     <g transform="translate(92.329062 162.716562) scale(0.1 -0.1)">
      <defs>
       <path id="DejaVuSans-4d" d="M 628 4666 
L 1569 4666 
L 2759 1491 
L 3956 4666 
L 4897 4666 
L 4897 0 
L 4281 0 
L 4281 4097 
L 3078 897 
L 2444 897 
L 1241 4097 
L 1241 0 
L 628 0 
L 628 4666 
z
" transform="scale(0.015625)"/>
       <path id="DejaVuSans-65" d="M 3597 1894 
L 3597 1613 
L 953 1613 
Q 991 1019 1311 708 
Q 1631 397 2203 397 
Q 2534 397 2845 478 
Q 3156 559 3463 722 
L 3463 178 
Q 3153 47 2828 -22 
Q 2503 -91 2169 -91 
Q 1331 -91 842 396 
Q 353 884 353 1716 
Q 353 2575 817 3079 
Q 1281 3584 2069 3584 
Q 2775 3584 3186 3129 
Q 3597 2675 3597 1894 
z
M 3022 2063 
Q 3016 2534 2758 2815 
Q 2500 3097 2075 3097 
Q 1594 3097 1305 2825 
Q 1016 2553 972 2059 
L 3022 2063 
z
" transform="scale(0.015625)"/>
       <path id="DejaVuSans-64" d="M 2906 2969 
L 2906 4863 
L 3481 4863 
L 3481 0 
L 2906 0 
L 2906 525 
Q 2725 213 2448 61 
Q 2172 -91 1784 -91 
Q 1150 -91 751 415 
Q 353 922 353 1747 
Q 353 2572 751 3078 
Q 1150 3584 1784 3584 
Q 2172 3584 2448 3432 
Q 2725 3281 2906 2969 
z
M 947 1747 
Q 947 1113 1208 752 
Q 1469 391 1925 391 
Q 2381 391 2643 752 
Q 2906 1113 2906 1747 
Q 2906 2381 2643 2742 
Q 2381 3103 1925 3103 
Q 1469 3103 1208 2742 
Q 947 2381 947 1747 
z
" transform="scale(0.015625)"/>
       <path id="DejaVuSans-75" d="M 544 1381 
L 544 3500 
L 1119 3500 
L 1119 1403 
Q 1119 906 1312 657 
Q 1506 409 1894 409 
Q 2359 409 2629 706 
Q 2900 1003 2900 1516 
L 2900 3500 
L 3475 3500 
L 3475 0 
L 2900 0 
L 2900 538 
Q 2691 219 2414 64 
Q 2138 -91 1772 -91 
Q 1169 -91 856 284 
Q 544 659 544 1381 
z
M 1991 3584 
L 1991 3584 
z
" transform="scale(0.015625)"/>
       <path id="DejaVuSans-73" d="M 2834 3397 
L 2834 2853 
Q 2591 2978 2328 3040 
Q 2066 3103 1784 3103 
Q 1356 3103 1142 2972 
Q 928 2841 928 2578 
Q 928 2378 1081 2264 
Q 1234 2150 1697 2047 
L 1894 2003 
Q 2506 1872 2764 1633 
Q 3022 1394 3022 966 
Q 3022 478 2636 193 
Q 2250 -91 1575 -91 
Q 1294 -91 989 -36 
Q 684 19 347 128 
L 347 722 
Q 666 556 975 473 
Q 1284 391 1588 391 
Q 1994 391 2212 530 
Q 2431 669 2431 922 
Q 2431 1156 2273 1281 
Q 2116 1406 1581 1522 
L 1381 1569 
Q 847 1681 609 1914 
Q 372 2147 372 2553 
Q 372 3047 722 3315 
Q 1072 3584 1716 3584 
Q 2034 3584 2315 3537 
Q 2597 3491 2834 3397 
z
" transform="scale(0.015625)"/>
       <path id="DejaVuSans-61" d="M 2194 1759 
Q 1497 1759 1228 1600 
Q 959 1441 959 1056 
Q 959 750 1161 570 
Q 1363 391 1709 391 
Q 2188 391 2477 730 
Q 2766 1069 2766 1631 
L 2766 1759 
L 2194 1759 
z
M 3341 1997 
L 3341 0 
L 2766 0 
L 2766 531 
Q 2569 213 2275 61 
Q 1981 -91 1556 -91 
Q 1019 -91 701 211 
Q 384 513 384 1019 
Q 384 1609 779 1909 
Q 1175 2209 1959 2209 
L 2766 2209 
L 2766 2266 
Q 2766 2663 2505 2880 
Q 2244 3097 1772 3097 
Q 1472 3097 1187 3025 
Q 903 2953 641 2809 
L 641 3341 
Q 956 3463 1253 3523 
Q 1550 3584 1831 3584 
Q 2591 3584 2966 3190 
Q 3341 2797 3341 1997 
z
" transform="scale(0.015625)"/>
       <path id="DejaVuSans-53" d="M 3425 4513 
L 3425 3897 
Q 3066 4069 2747 4153 
Q 2428 4238 2131 4238 
Q 1616 4238 1336 4038 
Q 1056 3838 1056 3469 
Q 1056 3159 1242 3001 
Q 1428 2844 1947 2747 
L 2328 2669 
Q 3034 2534 3370 2195 
Q 3706 1856 3706 1288 
Q 3706 609 3251 259 
Q 2797 -91 1919 -91 
Q 1588 -91 1214 -16 
Q 841 59 441 206 
L 441 856 
Q 825 641 1194 531 
Q 1563 422 1919 422 
Q 2459 422 2753 634 
Q 3047 847 3047 1241 
Q 3047 1584 2836 1778 
Q 2625 1972 2144 2069 
L 1759 2144 
Q 1053 2284 737 2584 
Q 422 2884 422 3419 
Q 422 4038 858 4394 
Q 1294 4750 2059 4750 
Q 2388 4750 2728 4690 
Q 3069 4631 3425 4513 
z
" transform="scale(0.015625)"/>
       <path id="DejaVuSans-63" d="M 3122 3366 
L 3122 2828 
Q 2878 2963 2633 3030 
Q 2388 3097 2138 3097 
Q 1578 3097 1268 2742 
Q 959 2388 959 1747 
Q 959 1106 1268 751 
Q 1578 397 2138 397 
Q 2388 397 2633 464 
Q 2878 531 3122 666 
L 3122 134 
Q 2881 22 2623 -34 
Q 2366 -91 2075 -91 
Q 1284 -91 818 406 
Q 353 903 353 1747 
Q 353 2603 823 3093 
Q 1294 3584 2113 3584 
Q 2378 3584 2631 3529 
Q 2884 3475 3122 3366 
z
" transform="scale(0.015625)"/>
       <path id="DejaVuSans-6f" d="M 1959 3097 
Q 1497 3097 1228 2736 
Q 959 2375 959 1747 
Q 959 1119 1226 758 
Q 1494 397 1959 397 
Q 2419 397 2687 759 
Q 2956 1122 2956 1747 
Q 2956 2369 2687 2733 
Q 2419 3097 1959 3097 
z
M 1959 3584 
Q 2709 3584 3137 3096 
Q 3566 2609 3566 1747 
Q 3566 888 3137 398 
Q 2709 -91 1959 -91 
Q 1206 -91 779 398 
Q 353 888 353 1747 
Q 353 2609 779 3096 
Q 1206 3584 1959 3584 
z
" transform="scale(0.015625)"/>
       <path id="DejaVuSans-72" d="M 2631 2963 
Q 2534 3019 2420 3045 
Q 2306 3072 2169 3072 
Q 1681 3072 1420 2755 
Q 1159 2438 1159 1844 
L 1159 0 
L 581 0 
L 581 3500 
L 1159 3500 
L 1159 2956 
Q 1341 3275 1631 3429 
Q 1922 3584 2338 3584 
Q 2397 3584 2469 3576 
Q 2541 3569 2628 3553 
L 2631 2963 
z
" transform="scale(0.015625)"/>
      </defs>
      <use xlink:href="#DejaVuSans-4d"/>
      <use xlink:href="#DejaVuSans-65" x="86.279297"/>
      <use xlink:href="#DejaVuSans-64" x="147.802734"/>
      <use xlink:href="#DejaVuSans-75" x="211.279297"/>
      <use xlink:href="#DejaVuSans-73" x="274.658203"/>
      <use xlink:href="#DejaVuSans-61" x="326.757812"/>
      <use xlink:href="#DejaVuSans-53" x="388.037109"/>
      <use xlink:href="#DejaVuSans-63" x="451.513672"/>
      <use xlink:href="#DejaVuSans-6f" x="506.494141"/>
      <use xlink:href="#DejaVuSans-72" x="567.675781"/>
      <use xlink:href="#DejaVuSans-65" x="606.539062"/>
     </g>
    </g>
   </g>
   <g id="matplotlib.axis_2">
    <g id="ytick_1">
     <g id="line2d_9">
      <path d="M 50.14375 134.44 
L 201.32375 134.44 
" clip-path="url(#pabd6a07410)" style="fill: none; stroke: #b0b0b0; stroke-opacity: 0.3; stroke-width: 0.8; stroke-linecap: square"/>
     </g>
     <g id="line2d_10">
      <defs>
       <path id="m8833713bd0" d="M 0 0 
L -3.5 0 
" style="stroke: #000000; stroke-width: 0.8"/>
      </defs>
      <g>
       <use xlink:href="#m8833713bd0" x="50.14375" y="134.44" style="stroke: #000000; stroke-width: 0.8"/>
      </g>
     </g>
     <g id="text_6">
      <!-- 0.00 -->
      <g transform="translate(20.878125 138.239219) scale(0.1 -0.1)">
       <defs>
        <path id="DejaVuSans-2e" d="M 684 794 
L 1344 794 
L 1344 0 
L 684 0 
L 684 794 
z
" transform="scale(0.015625)"/>
       </defs>
       <use xlink:href="#DejaVuSans-30"/>
       <use xlink:href="#DejaVuSans-2e" x="63.623047"/>
       <use xlink:href="#DejaVuSans-30" x="95.410156"/>
       <use xlink:href="#DejaVuSans-30" x="159.033203"/>
      </g>
     </g>
    </g>
    <g id="ytick_2">
     <g id="line2d_11">
      <path d="M 50.14375 107.33631 
L 201.32375 107.33631 
" clip-path="url(#pabd6a07410)" style="fill: none; stroke: #b0b0b0; stroke-opacity: 0.3; stroke-width: 0.8; stroke-linecap: square"/>
     </g>
     <g id="line2d_12">
      <g>
       <use xlink:href="#m8833713bd0" x="50.14375" y="107.33631" style="stroke: #000000; stroke-width: 0.8"/>
      </g>
     </g>
     <g id="text_7">
      <!-- 0.01 -->
      <g transform="translate(20.878125 111.135529) scale(0.1 -0.1)">
       <use xlink:href="#DejaVuSans-30"/>
       <use xlink:href="#DejaVuSans-2e" x="63.623047"/>
       <use xlink:href="#DejaVuSans-30" x="95.410156"/>
       <use xlink:href="#DejaVuSans-31" x="159.033203"/>
      </g>
     </g>
    </g>
    <g id="ytick_3">
     <g id="line2d_13">
      <path d="M 50.14375 80.232621 
L 201.32375 80.232621 
" clip-path="url(#pabd6a07410)" style="fill: none; stroke: #b0b0b0; stroke-opacity: 0.3; stroke-width: 0.8; stroke-linecap: square"/>
     </g>
     <g id="line2d_14">
      <g>
       <use xlink:href="#m8833713bd0" x="50.14375" y="80.232621" style="stroke: #000000; stroke-width: 0.8"/>
      </g>
     </g>
     <g id="text_8">
      <!-- 0.02 -->
      <g transform="translate(20.878125 84.03184) scale(0.1 -0.1)">
       <defs>
        <path id="DejaVuSans-32" d="M 1228 531 
L 3431 531 
L 3431 0 
L 469 0 
L 469 531 
Q 828 903 1448 1529 
Q 2069 2156 2228 2338 
Q 2531 2678 2651 2914 
Q 2772 3150 2772 3378 
Q 2772 3750 2511 3984 
Q 2250 4219 1831 4219 
Q 1534 4219 1204 4116 
Q 875 4013 500 3803 
L 500 4441 
Q 881 4594 1212 4672 
Q 1544 4750 1819 4750 
Q 2544 4750 2975 4387 
Q 3406 4025 3406 3419 
Q 3406 3131 3298 2873 
Q 3191 2616 2906 2266 
Q 2828 2175 2409 1742 
Q 1991 1309 1228 531 
z
" transform="scale(0.015625)"/>
       </defs>
       <use xlink:href="#DejaVuSans-30"/>
       <use xlink:href="#DejaVuSans-2e" x="63.623047"/>
       <use xlink:href="#DejaVuSans-30" x="95.410156"/>
       <use xlink:href="#DejaVuSans-32" x="159.033203"/>
      </g>
     </g>
    </g>
    <g id="ytick_4">
     <g id="line2d_15">
      <path d="M 50.14375 53.128931 
L 201.32375 53.128931 
" clip-path="url(#pabd6a07410)" style="fill: none; stroke: #b0b0b0; stroke-opacity: 0.3; stroke-width: 0.8; stroke-linecap: square"/>
     </g>
     <g id="line2d_16">
      <g>
       <use xlink:href="#m8833713bd0" x="50.14375" y="53.128931" style="stroke: #000000; stroke-width: 0.8"/>
      </g>
     </g>
     <g id="text_9">
      <!-- 0.03 -->
      <g transform="translate(20.878125 56.92815) scale(0.1 -0.1)">
       <defs>
        <path id="DejaVuSans-33" d="M 2597 2516 
Q 3050 2419 3304 2112 
Q 3559 1806 3559 1356 
Q 3559 666 3084 287 
Q 2609 -91 1734 -91 
Q 1441 -91 1130 -33 
Q 819 25 488 141 
L 488 750 
Q 750 597 1062 519 
Q 1375 441 1716 441 
Q 2309 441 2620 675 
Q 2931 909 2931 1356 
Q 2931 1769 2642 2001 
Q 2353 2234 1838 2234 
L 1294 2234 
L 1294 2753 
L 1863 2753 
Q 2328 2753 2575 2939 
Q 2822 3125 2822 3475 
Q 2822 3834 2567 4026 
Q 2313 4219 1838 4219 
Q 1578 4219 1281 4162 
Q 984 4106 628 3988 
L 628 4550 
Q 988 4650 1302 4700 
Q 1616 4750 1894 4750 
Q 2613 4750 3031 4423 
Q 3450 4097 3450 3541 
Q 3450 3153 3228 2886 
Q 3006 2619 2597 2516 
z
" transform="scale(0.015625)"/>
       </defs>
       <use xlink:href="#DejaVuSans-30"/>
       <use xlink:href="#DejaVuSans-2e" x="63.623047"/>
       <use xlink:href="#DejaVuSans-30" x="95.410156"/>
       <use xlink:href="#DejaVuSans-33" x="159.033203"/>
      </g>
     </g>
    </g>
    <g id="ytick_5">
     <g id="line2d_17">
      <path d="M 50.14375 26.025242 
L 201.32375 26.025242 
" clip-path="url(#pabd6a07410)" style="fill: none; stroke: #b0b0b0; stroke-opacity: 0.3; stroke-width: 0.8; stroke-linecap: square"/>
     </g>
     <g id="line2d_18">
      <g>
       <use xlink:href="#m8833713bd0" x="50.14375" y="26.025242" style="stroke: #000000; stroke-width: 0.8"/>
      </g>
     </g>
     <g id="text_10">
      <!-- 0.04 -->
      <g transform="translate(20.878125 29.82446) scale(0.1 -0.1)">
       <defs>
        <path id="DejaVuSans-34" d="M 2419 4116 
L 825 1625 
L 2419 1625 
L 2419 4116 
z
M 2253 4666 
L 3047 4666 
L 3047 1625 
L 3713 1625 
L 3713 1100 
L 3047 1100 
L 3047 0 
L 2419 0 
L 2419 1100 
L 313 1100 
L 313 1709 
L 2253 4666 
z
" transform="scale(0.015625)"/>
       </defs>
       <use xlink:href="#DejaVuSans-30"/>
       <use xlink:href="#DejaVuSans-2e" x="63.623047"/>
       <use xlink:href="#DejaVuSans-30" x="95.410156"/>
       <use xlink:href="#DejaVuSans-34" x="159.033203"/>
      </g>
     </g>
    </g>
    <g id="text_11">
     <!-- Density -->
     <g transform="translate(14.798438 89.828594) rotate(-90) scale(0.1 -0.1)">
      <defs>
       <path id="DejaVuSans-44" d="M 1259 4147 
L 1259 519 
L 2022 519 
Q 2988 519 3436 956 
Q 3884 1394 3884 2338 
Q 3884 3275 3436 3711 
Q 2988 4147 2022 4147 
L 1259 4147 
z
M 628 4666 
L 1925 4666 
Q 3281 4666 3915 4102 
Q 4550 3538 4550 2338 
Q 4550 1131 3912 565 
Q 3275 0 1925 0 
L 628 0 
L 628 4666 
z
" transform="scale(0.015625)"/>
       <path id="DejaVuSans-6e" d="M 3513 2113 
L 3513 0 
L 2938 0 
L 2938 2094 
Q 2938 2591 2744 2837 
Q 2550 3084 2163 3084 
Q 1697 3084 1428 2787 
Q 1159 2491 1159 1978 
L 1159 0 
L 581 0 
L 581 3500 
L 1159 3500 
L 1159 2956 
Q 1366 3272 1645 3428 
Q 1925 3584 2291 3584 
Q 2894 3584 3203 3211 
Q 3513 2838 3513 2113 
z
" transform="scale(0.015625)"/>
       <path id="DejaVuSans-69" d="M 603 3500 
L 1178 3500 
L 1178 0 
L 603 0 
L 603 3500 
z
M 603 4863 
L 1178 4863 
L 1178 4134 
L 603 4134 
L 603 4863 
z
" transform="scale(0.015625)"/>
       <path id="DejaVuSans-74" d="M 1172 4494 
L 1172 3500 
L 2356 3500 
L 2356 3053 
L 1172 3053 
L 1172 1153 
Q 1172 725 1289 603 
Q 1406 481 1766 481 
L 2356 481 
L 2356 0 
L 1766 0 
Q 1100 0 847 248 
Q 594 497 594 1153 
L 594 3053 
L 172 3053 
L 172 3500 
L 594 3500 
L 594 4494 
L 1172 4494 
z
" transform="scale(0.015625)"/>
       <path id="DejaVuSans-79" d="M 2059 -325 
Q 1816 -950 1584 -1140 
Q 1353 -1331 966 -1331 
L 506 -1331 
L 506 -850 
L 844 -850 
Q 1081 -850 1212 -737 
Q 1344 -625 1503 -206 
L 1606 56 
L 191 3500 
L 800 3500 
L 1894 763 
L 2988 3500 
L 3597 3500 
L 2059 -325 
z
" transform="scale(0.015625)"/>
      </defs>
      <use xlink:href="#DejaVuSans-44"/>
      <use xlink:href="#DejaVuSans-65" x="77.001953"/>
      <use xlink:href="#DejaVuSans-6e" x="138.525391"/>
      <use xlink:href="#DejaVuSans-73" x="201.904297"/>
      <use xlink:href="#DejaVuSans-69" x="254.003906"/>
      <use xlink:href="#DejaVuSans-74" x="281.787109"/>
      <use xlink:href="#DejaVuSans-79" x="320.996094"/>
     </g>
    </g>
   </g>
   <g id="patch_3">
    <path d="M 50.14375 134.44 
L 50.14375 7.2 
" style="fill: none; stroke: #000000; stroke-width: 0.8; stroke-linejoin: miter; stroke-linecap: square"/>
   </g>
   <g id="patch_4">
    <path d="M 201.32375 134.44 
L 201.32375 7.2 
" style="fill: none; stroke: #000000; stroke-width: 0.8; stroke-linejoin: miter; stroke-linecap: square"/>
   </g>
   <g id="patch_5">
    <path d="M 50.14375 134.44 
L 201.32375 134.44 
" style="fill: none; stroke: #000000; stroke-width: 0.8; stroke-linejoin: miter; stroke-linecap: square"/>
   </g>
   <g id="patch_6">
    <path d="M 50.14375 7.2 
L 201.32375 7.2 
" style="fill: none; stroke: #000000; stroke-width: 0.8; stroke-linejoin: miter; stroke-linecap: square"/>
   </g>
   <g id="legend_1">
    <g id="patch_7">
     <path d="M 55.74375 37.085 
L 125.14625 37.085 
Q 126.74625 37.085 126.74625 35.485 
L 126.74625 12.8 
Q 126.74625 11.2 125.14625 11.2 
L 55.74375 11.2 
Q 54.14375 11.2 54.14375 12.8 
L 54.14375 35.485 
Q 54.14375 37.085 55.74375 37.085 
z
" style="fill: #ffffff; opacity: 0.8; stroke: #cccccc; stroke-linejoin: miter"/>
    </g>
    <g id="patch_8">
     <path d="M 57.34375 20.47875 
L 73.34375 20.47875 
L 73.34375 14.87875 
L 57.34375 14.87875 
z
" style="fill: #8e7fb8; fill-opacity: 0.7; stroke: #000000; stroke-linejoin: miter"/>
    </g>
    <g id="text_12">
     <!-- YuelDesign -->
     <g transform="translate(79.74375 20.47875) scale(0.08 -0.08)">
      <defs>
       <path id="DejaVuSans-59" d="M -13 4666 
L 666 4666 
L 1959 2747 
L 3244 4666 
L 3922 4666 
L 2272 2222 
L 2272 0 
L 1638 0 
L 1638 2222 
L -13 4666 
z
" transform="scale(0.015625)"/>
       <path id="DejaVuSans-6c" d="M 603 4863 
L 1178 4863 
L 1178 0 
L 603 0 
L 603 4863 
z
" transform="scale(0.015625)"/>
       <path id="DejaVuSans-67" d="M 2906 1791 
Q 2906 2416 2648 2759 
Q 2391 3103 1925 3103 
Q 1463 3103 1205 2759 
Q 947 2416 947 1791 
Q 947 1169 1205 825 
Q 1463 481 1925 481 
Q 2391 481 2648 825 
Q 2906 1169 2906 1791 
z
M 3481 434 
Q 3481 -459 3084 -895 
Q 2688 -1331 1869 -1331 
Q 1566 -1331 1297 -1286 
Q 1028 -1241 775 -1147 
L 775 -588 
Q 1028 -725 1275 -790 
Q 1522 -856 1778 -856 
Q 2344 -856 2625 -561 
Q 2906 -266 2906 331 
L 2906 616 
Q 2728 306 2450 153 
Q 2172 0 1784 0 
Q 1141 0 747 490 
Q 353 981 353 1791 
Q 353 2603 747 3093 
Q 1141 3584 1784 3584 
Q 2172 3584 2450 3431 
Q 2728 3278 2906 2969 
L 2906 3500 
L 3481 3500 
L 3481 434 
z
" transform="scale(0.015625)"/>
      </defs>
      <use xlink:href="#DejaVuSans-59"/>
      <use xlink:href="#DejaVuSans-75" x="49.583984"/>
      <use xlink:href="#DejaVuSans-65" x="112.962891"/>
      <use xlink:href="#DejaVuSans-6c" x="174.486328"/>
      <use xlink:href="#DejaVuSans-44" x="202.269531"/>
      <use xlink:href="#DejaVuSans-65" x="279.271484"/>
      <use xlink:href="#DejaVuSans-73" x="340.794922"/>
      <use xlink:href="#DejaVuSans-69" x="392.894531"/>
      <use xlink:href="#DejaVuSans-67" x="420.677734"/>
      <use xlink:href="#DejaVuSans-6e" x="484.154297"/>
     </g>
    </g>
    <g id="patch_9">
     <path d="M 57.34375 32.22125 
L 73.34375 32.22125 
L 73.34375 26.62125 
L 57.34375 26.62125 
z
" style="fill: #a2c9ae; fill-opacity: 0.7; stroke: #000000; stroke-linejoin: miter"/>
    </g>
    <g id="text_13">
     <!-- Native -->
     <g transform="translate(79.74375 32.22125) scale(0.08 -0.08)">
      <defs>
       <path id="DejaVuSans-4e" d="M 628 4666 
L 1478 4666 
L 3547 763 
L 3547 4666 
L 4159 4666 
L 4159 0 
L 3309 0 
L 1241 3903 
L 1241 0 
L 628 0 
L 628 4666 
z
" transform="scale(0.015625)"/>
       <path id="DejaVuSans-76" d="M 191 3500 
L 800 3500 
L 1894 563 
L 2988 3500 
L 3597 3500 
L 2284 0 
L 1503 0 
L 191 3500 
z
" transform="scale(0.015625)"/>
      </defs>
      <use xlink:href="#DejaVuSans-4e"/>
      <use xlink:href="#DejaVuSans-61" x="74.804688"/>
      <use xlink:href="#DejaVuSans-74" x="136.083984"/>
      <use xlink:href="#DejaVuSans-69" x="175.292969"/>
      <use xlink:href="#DejaVuSans-76" x="203.076172"/>
      <use xlink:href="#DejaVuSans-65" x="262.255859"/>
     </g>
    </g>
   </g>
  </g>
 </g>
 <defs>
  <clipPath id="pabd6a07410">
   <rect x="50.14375" y="7.2" width="151.18" height="127.24"/>
  </clipPath>
 </defs>
</svg>
