<?xml version="1.0" encoding="utf-8" standalone="no"?>
<!DOCTYPE svg PUBLIC "-//W3C//DTD SVG 1.1//EN"
  "http://www.w3.org/Graphics/SVG/1.1/DTD/svg11.dtd">
<svg xmlns:xlink="http://www.w3.org/1999/xlink" width="208.370625pt" height="172.156104pt" viewBox="0 0 208.370625 172.156104" xmlns="http://www.w3.org/2000/svg" version="1.1">
 <metadata>
  <rdf:RDF xmlns:dc="http://purl.org/dc/elements/1.1/" xmlns:cc="http://creativecommons.org/ns#" xmlns:rdf="http://www.w3.org/1999/02/22-rdf-syntax-ns#">
   <cc:Work>
    <dc:type rdf:resource="http://purl.org/dc/dcmitype/StillImage"/>
    <dc:date>2025-05-11T16:32:42.106812</dc:date>
    <dc:format>image/svg+xml</dc:format>
    <dc:creator>
     <cc:Agent>
      <dc:title>Matplotlib v3.9.4, https://matplotlib.org/</dc:title>
     </cc:Agent>
    </dc:creator>
   </cc:Work>
  </rdf:RDF>
 </metadata>
 <defs>
  <style type="text/css">*{stroke-linejoin: round; stroke-linecap: butt}</style>
 </defs>
 <g id="figure_1">
  <g id="patch_1">
   <path d="M 0 172.156104 
L 208.370625 172.156104 
L 208.370625 0 
L 0 0 
z
" style="fill: #ffffff"/>
  </g>
  <g id="axes_1">
   <g id="patch_2">
    <path d="M 34.240625 134.599854 
L 201.170625 134.599854 
L 201.170625 7.432852 
L 34.240625 7.432852 
z
" style="fill: #ffffff"/>
   </g>
   <g id="PolyCollection_1">
    <defs>
     <path id="m0369e1ef76" d="M 41.828352 -37.556496 
L 41.828352 -37.55625 
L 42.590938 -37.55625 
L 43.353524 -37.55625 
L 44.116109 -37.55625 
L 44.878695 -37.55625 
L 45.641281 -37.55625 
L 46.403866 -37.55625 
L 47.166452 -37.55625 
L 47.929038 -37.55625 
L 48.691623 -37.55625 
L 49.454209 -37.55625 
L 50.216794 -37.55625 
L 50.97938 -37.55625 
L 51.741966 -37.55625 
L 52.504551 -37.55625 
L 53.267137 -37.55625 
L 54.029723 -37.55625 
L 54.792308 -37.55625 
L 55.554894 -37.55625 
L 56.31748 -37.55625 
L 57.080065 -37.55625 
L 57.842651 -37.55625 
L 58.605237 -37.55625 
L 59.367822 -37.55625 
L 60.130408 -37.55625 
L 60.892994 -37.55625 
L 61.655579 -37.55625 
L 62.418165 -37.55625 
L 63.180751 -37.55625 
L 63.943336 -37.55625 
L 64.705922 -37.55625 
L 65.468508 -37.55625 
L 66.231093 -37.55625 
L 66.993679 -37.55625 
L 67.756265 -37.55625 
L 68.51885 -37.55625 
L 69.281436 -37.55625 
L 70.044022 -37.55625 
L 70.806607 -37.55625 
L 71.569193 -37.55625 
L 72.331778 -37.55625 
L 73.094364 -37.55625 
L 73.85695 -37.55625 
L 74.619535 -37.55625 
L 75.382121 -37.55625 
L 76.144707 -37.55625 
L 76.907292 -37.55625 
L 77.669878 -37.55625 
L 78.432464 -37.55625 
L 79.195049 -37.55625 
L 79.957635 -37.55625 
L 80.720221 -37.55625 
L 81.482806 -37.55625 
L 82.245392 -37.55625 
L 83.007978 -37.55625 
L 83.770563 -37.55625 
L 84.533149 -37.55625 
L 85.295735 -37.55625 
L 86.05832 -37.55625 
L 86.820906 -37.55625 
L 87.583492 -37.55625 
L 88.346077 -37.55625 
L 89.108663 -37.55625 
L 89.871249 -37.55625 
L 90.633834 -37.55625 
L 91.39642 -37.55625 
L 92.159006 -37.55625 
L 92.921591 -37.55625 
L 93.684177 -37.55625 
L 94.446763 -37.55625 
L 95.209348 -37.55625 
L 95.971934 -37.55625 
L 96.734519 -37.55625 
L 97.497105 -37.55625 
L 98.259691 -37.55625 
L 99.022276 -37.55625 
L 99.784862 -37.55625 
L 100.547448 -37.55625 
L 101.310033 -37.55625 
L 102.072619 -37.55625 
L 102.835205 -37.55625 
L 103.59779 -37.55625 
L 104.360376 -37.55625 
L 105.122962 -37.55625 
L 105.885547 -37.55625 
L 106.648133 -37.55625 
L 107.410719 -37.55625 
L 108.173304 -37.55625 
L 108.93589 -37.55625 
L 109.698476 -37.55625 
L 110.461061 -37.55625 
L 111.223647 -37.55625 
L 111.986233 -37.55625 
L 112.748818 -37.55625 
L 113.511404 -37.55625 
L 114.27399 -37.55625 
L 115.036575 -37.55625 
L 115.799161 -37.55625 
L 116.561747 -37.55625 
L 117.324332 -37.55625 
L 118.086918 -37.55625 
L 118.849503 -37.55625 
L 119.612089 -37.55625 
L 120.374675 -37.55625 
L 121.13726 -37.55625 
L 121.899846 -37.55625 
L 122.662432 -37.55625 
L 123.425017 -37.55625 
L 124.187603 -37.55625 
L 124.950189 -37.55625 
L 125.712774 -37.55625 
L 126.47536 -37.55625 
L 127.237946 -37.55625 
L 128.000531 -37.55625 
L 128.763117 -37.55625 
L 129.525703 -37.55625 
L 130.288288 -37.55625 
L 131.050874 -37.55625 
L 131.81346 -37.55625 
L 132.576045 -37.55625 
L 133.338631 -37.55625 
L 134.101217 -37.55625 
L 134.863802 -37.55625 
L 135.626388 -37.55625 
L 136.388974 -37.55625 
L 137.151559 -37.55625 
L 137.914145 -37.55625 
L 138.676731 -37.55625 
L 139.439316 -37.55625 
L 140.201902 -37.55625 
L 140.964487 -37.55625 
L 141.727073 -37.55625 
L 142.489659 -37.55625 
L 143.252244 -37.55625 
L 144.01483 -37.55625 
L 144.777416 -37.55625 
L 145.540001 -37.55625 
L 146.302587 -37.55625 
L 147.065173 -37.55625 
L 147.827758 -37.55625 
L 148.590344 -37.55625 
L 149.35293 -37.55625 
L 150.115515 -37.55625 
L 150.878101 -37.55625 
L 151.640687 -37.55625 
L 152.403272 -37.55625 
L 153.165858 -37.55625 
L 153.928444 -37.55625 
L 154.691029 -37.55625 
L 155.453615 -37.55625 
L 156.216201 -37.55625 
L 156.978786 -37.55625 
L 157.741372 -37.55625 
L 158.503958 -37.55625 
L 159.266543 -37.55625 
L 160.029129 -37.55625 
L 160.791715 -37.55625 
L 161.5543 -37.55625 
L 162.316886 -37.55625 
L 163.079472 -37.55625 
L 163.842057 -37.55625 
L 164.604643 -37.55625 
L 165.367228 -37.55625 
L 166.129814 -37.55625 
L 166.8924 -37.55625 
L 167.654985 -37.55625 
L 168.417571 -37.55625 
L 169.180157 -37.55625 
L 169.942742 -37.55625 
L 170.705328 -37.55625 
L 171.467914 -37.55625 
L 172.230499 -37.55625 
L 172.993085 -37.55625 
L 173.755671 -37.55625 
L 174.518256 -37.55625 
L 175.280842 -37.55625 
L 176.043428 -37.55625 
L 176.806013 -37.55625 
L 177.568599 -37.55625 
L 178.331185 -37.55625 
L 179.09377 -37.55625 
L 179.856356 -37.55625 
L 180.618942 -37.55625 
L 181.381527 -37.55625 
L 182.144113 -37.55625 
L 182.906699 -37.55625 
L 183.669284 -37.55625 
L 184.43187 -37.55625 
L 185.194456 -37.55625 
L 185.957041 -37.55625 
L 186.719627 -37.55625 
L 187.482212 -37.55625 
L 188.244798 -37.55625 
L 189.007384 -37.55625 
L 189.769969 -37.55625 
L 190.532555 -37.55625 
L 191.295141 -37.55625 
L 192.057726 -37.55625 
L 192.820312 -37.55625 
L 193.582898 -37.55625 
L 193.582898 -37.556332 
L 193.582898 -37.556332 
L 192.820312 -37.556535 
L 192.057726 -37.557079 
L 191.295141 -37.558275 
L 190.532555 -37.560449 
L 189.769969 -37.56373 
L 189.007384 -37.567857 
L 188.244798 -37.572173 
L 187.482212 -37.57593 
L 186.719627 -37.578827 
L 185.957041 -37.581473 
L 185.194456 -37.585151 
L 184.43187 -37.59071 
L 183.669284 -37.59757 
L 182.906699 -37.604177 
L 182.144113 -37.609879 
L 181.381527 -37.616354 
L 180.618942 -37.626893 
L 179.856356 -37.643937 
L 179.09377 -37.667208 
L 178.331185 -37.69423 
L 177.568599 -37.722548 
L 176.806013 -37.751554 
L 176.043428 -37.783048 
L 175.280842 -37.821144 
L 174.518256 -37.871596 
L 173.755671 -37.939782 
L 172.993085 -38.027731 
L 172.230499 -38.132279 
L 171.467914 -38.246397 
L 170.705328 -38.364098 
L 169.942742 -38.486414 
L 169.180157 -38.623617 
L 168.417571 -38.790975 
L 167.654985 -39.00114 
L 166.8924 -39.259188 
L 166.129814 -39.563515 
L 165.367228 -39.910798 
L 164.604643 -40.300153 
L 163.842057 -40.732517 
L 163.079472 -41.20598 
L 162.316886 -41.712792 
L 161.5543 -42.244554 
L 160.791715 -42.804579 
L 160.029129 -43.413652 
L 159.266543 -44.095215 
L 158.503958 -44.850062 
L 157.741372 -45.651964 
L 156.978786 -46.477428 
L 156.216201 -47.341293 
L 155.453615 -48.298014 
L 154.691029 -49.401663 
L 153.928444 -50.659219 
L 153.165858 -52.021336 
L 152.403272 -53.423977 
L 151.640687 -54.849274 
L 150.878101 -56.354205 
L 150.115515 -58.038147 
L 149.35293 -59.966873 
L 148.590344 -62.108887 
L 147.827758 -64.340018 
L 147.065173 -66.521398 
L 146.302587 -68.590433 
L 145.540001 -70.59247 
L 144.777416 -72.637201 
L 144.01483 -74.824789 
L 143.252244 -77.196911 
L 142.489659 -79.735661 
L 141.727073 -82.392969 
L 140.964487 -85.114848 
L 140.201902 -87.844948 
L 139.439316 -90.527826 
L 138.676731 -93.132662 
L 137.914145 -95.677591 
L 137.151559 -98.217109 
L 136.388974 -100.79802 
L 135.626388 -103.434401 
L 134.863802 -106.128514 
L 134.101217 -108.898856 
L 133.338631 -111.757404 
L 132.576045 -114.644157 
L 131.81346 -117.407937 
L 131.050874 -119.899097 
L 130.288288 -122.106713 
L 129.525703 -124.194927 
L 128.763117 -126.388894 
L 128.000531 -128.811722 
L 127.237946 -131.400376 
L 126.47536 -133.944998 
L 125.712774 -136.218578 
L 124.950189 -138.116875 
L 124.187603 -139.711895 
L 123.425017 -141.183243 
L 122.662432 -142.695056 
L 121.899846 -144.31548 
L 121.13726 -146.015611 
L 120.374675 -147.719964 
L 119.612089 -149.355025 
L 118.849503 -150.86071 
L 118.086918 -152.18399 
L 117.324332 -153.301717 
L 116.561747 -154.265224 
L 115.799161 -155.193447 
L 115.036575 -156.178509 
L 114.27399 -157.179948 
L 113.511404 -158.024923 
L 112.748818 -158.535266 
L 111.986233 -158.667681 
L 111.223647 -158.534542 
L 110.461061 -158.295965 
L 109.698476 -158.037677 
L 108.93589 -157.741086 
L 108.173304 -157.344032 
L 107.410719 -156.811422 
L 106.648133 -156.153146 
L 105.885547 -155.398956 
L 105.122962 -154.574792 
L 104.360376 -153.694828 
L 103.59779 -152.755122 
L 102.835205 -151.731733 
L 102.072619 -150.595691 
L 101.310033 -149.330103 
L 100.547448 -147.928878 
L 99.784862 -146.385074 
L 99.022276 -144.681755 
L 98.259691 -142.78585 
L 97.497105 -140.657501 
L 96.734519 -138.287564 
L 95.971934 -135.734792 
L 95.209348 -133.113508 
L 94.446763 -130.52714 
L 93.684177 -128.002973 
L 92.921591 -125.487316 
L 92.159006 -122.901886 
L 91.39642 -120.208038 
L 90.633834 -117.431922 
L 89.871249 -114.645837 
L 89.108663 -111.928812 
L 88.346077 -109.334838 
L 87.583492 -106.88233 
L 86.820906 -104.550587 
L 86.05832 -102.270644 
L 85.295735 -99.935292 
L 84.533149 -97.452701 
L 83.770563 -94.808249 
L 83.007978 -92.071859 
L 82.245392 -89.344455 
L 81.482806 -86.697862 
L 80.720221 -84.150946 
L 79.957635 -81.677014 
L 79.195049 -79.224347 
L 78.432464 -76.74781 
L 77.669878 -74.244846 
L 76.907292 -71.767366 
L 76.144707 -69.390907 
L 75.382121 -67.165999 
L 74.619535 -65.097212 
L 73.85695 -63.16253 
L 73.094364 -61.340808 
L 72.331778 -59.615804 
L 71.569193 -57.966511 
L 70.806607 -56.372844 
L 70.044022 -54.835785 
L 69.281436 -53.381554 
L 68.51885 -52.036921 
L 67.756265 -50.80134 
L 66.993679 -49.647173 
L 66.231093 -48.54671 
L 65.468508 -47.496458 
L 64.705922 -46.515843 
L 63.943336 -45.62563 
L 63.180751 -44.828006 
L 62.418165 -44.103835 
L 61.655579 -43.42668 
L 60.892994 -42.781666 
L 60.130408 -42.174188 
L 59.367822 -41.62094 
L 58.605237 -41.13107 
L 57.842651 -40.695387 
L 57.080065 -40.293588 
L 56.31748 -39.910475 
L 55.554894 -39.544674 
L 54.792308 -39.204698 
L 54.029723 -38.900026 
L 53.267137 -38.635278 
L 52.504551 -38.409518 
L 51.741966 -38.218833 
L 50.97938 -38.059065 
L 50.216794 -37.926862 
L 49.454209 -37.819736 
L 48.691623 -37.73594 
L 47.929038 -37.673694 
L 47.166452 -37.63004 
L 46.403866 -37.600763 
L 45.641281 -37.581644 
L 44.878695 -37.56956 
L 44.116109 -37.562454 
L 43.353524 -37.558752 
L 42.590938 -37.557106 
L 41.828352 -37.556496 
z
" style="stroke: #000000"/>
    </defs>
    <g clip-path="url(#p811c1a42a6)">
     <use xlink:href="#m0369e1ef76" x="0" y="172.156104" style="fill: #8e7fb8; fill-opacity: 0.7; stroke: #000000"/>
    </g>
   </g>
   <g id="matplotlib.axis_1">
    <g id="xtick_1">
     <g id="line2d_1">
      <path d="M 47.026927 134.599854 
L 47.026927 7.432852 
" clip-path="url(#p811c1a42a6)" style="fill: none; stroke: #b0b0b0; stroke-opacity: 0.3; stroke-width: 0.8; stroke-linecap: square"/>
     </g>
     <g id="line2d_2">
      <defs>
       <path id="mf899bff10a" d="M 0 0 
L 0 3.5 
" style="stroke: #000000; stroke-width: 0.8"/>
      </defs>
      <g>
       <use xlink:href="#mf899bff10a" x="47.026927" y="134.599854" style="stroke: #000000; stroke-width: 0.8"/>
      </g>
     </g>
     <g id="text_1">
      <!-- 0.00 -->
      <g transform="translate(35.894115 149.198292) scale(0.1 -0.1)">
       <defs>
        <path id="DejaVuSans-30" d="M 2034 4250 
Q 1547 4250 1301 3770 
Q 1056 3291 1056 2328 
Q 1056 1369 1301 889 
Q 1547 409 2034 409 
Q 2525 409 2770 889 
Q 3016 1369 3016 2328 
Q 3016 3291 2770 3770 
Q 2525 4250 2034 4250 
z
M 2034 4750 
Q 2819 4750 3233 4129 
Q 3647 3509 3647 2328 
Q 3647 1150 3233 529 
Q 2819 -91 2034 -91 
Q 1250 -91 836 529 
Q 422 1150 422 2328 
Q 422 3509 836 4129 
Q 1250 4750 2034 4750 
z
" transform="scale(0.015625)"/>
        <path id="DejaVuSans-2e" d="M 684 794 
L 1344 794 
L 1344 0 
L 684 0 
L 684 794 
z
" transform="scale(0.015625)"/>
       </defs>
       <use xlink:href="#DejaVuSans-30"/>
       <use xlink:href="#DejaVuSans-2e" x="63.623047"/>
       <use xlink:href="#DejaVuSans-30" x="95.410156"/>
       <use xlink:href="#DejaVuSans-30" x="159.033203"/>
      </g>
     </g>
    </g>
    <g id="xtick_2">
     <g id="line2d_3">
      <path d="M 86.405059 134.599854 
L 86.405059 7.432852 
" clip-path="url(#p811c1a42a6)" style="fill: none; stroke: #b0b0b0; stroke-opacity: 0.3; stroke-width: 0.8; stroke-linecap: square"/>
     </g>
     <g id="line2d_4">
      <g>
       <use xlink:href="#mf899bff10a" x="86.405059" y="134.599854" style="stroke: #000000; stroke-width: 0.8"/>
      </g>
     </g>
     <g id="text_2">
      <!-- 0.25 -->
      <g transform="translate(75.272246 149.198292) scale(0.1 -0.1)">
       <defs>
        <path id="DejaVuSans-32" d="M 1228 531 
L 3431 531 
L 3431 0 
L 469 0 
L 469 531 
Q 828 903 1448 1529 
Q 2069 2156 2228 2338 
Q 2531 2678 2651 2914 
Q 2772 3150 2772 3378 
Q 2772 3750 2511 3984 
Q 2250 4219 1831 4219 
Q 1534 4219 1204 4116 
Q 875 4013 500 3803 
L 500 4441 
Q 881 4594 1212 4672 
Q 1544 4750 1819 4750 
Q 2544 4750 2975 4387 
Q 3406 4025 3406 3419 
Q 3406 3131 3298 2873 
Q 3191 2616 2906 2266 
Q 2828 2175 2409 1742 
Q 1991 1309 1228 531 
z
" transform="scale(0.015625)"/>
        <path id="DejaVuSans-35" d="M 691 4666 
L 3169 4666 
L 3169 4134 
L 1269 4134 
L 1269 2991 
Q 1406 3038 1543 3061 
Q 1681 3084 1819 3084 
Q 2600 3084 3056 2656 
Q 3513 2228 3513 1497 
Q 3513 744 3044 326 
Q 2575 -91 1722 -91 
Q 1428 -91 1123 -41 
Q 819 9 494 109 
L 494 744 
Q 775 591 1075 516 
Q 1375 441 1709 441 
Q 2250 441 2565 725 
Q 2881 1009 2881 1497 
Q 2881 1984 2565 2268 
Q 2250 2553 1709 2553 
Q 1456 2553 1204 2497 
Q 953 2441 691 2322 
L 691 4666 
z
" transform="scale(0.015625)"/>
       </defs>
       <use xlink:href="#DejaVuSans-30"/>
       <use xlink:href="#DejaVuSans-2e" x="63.623047"/>
       <use xlink:href="#DejaVuSans-32" x="95.410156"/>
       <use xlink:href="#DejaVuSans-35" x="159.033203"/>
      </g>
     </g>
    </g>
    <g id="xtick_3">
     <g id="line2d_5">
      <path d="M 125.78319 134.599854 
L 125.78319 7.432852 
" clip-path="url(#p811c1a42a6)" style="fill: none; stroke: #b0b0b0; stroke-opacity: 0.3; stroke-width: 0.8; stroke-linecap: square"/>
     </g>
     <g id="line2d_6">
      <g>
       <use xlink:href="#mf899bff10a" x="125.78319" y="134.599854" style="stroke: #000000; stroke-width: 0.8"/>
      </g>
     </g>
     <g id="text_3">
      <!-- 0.50 -->
      <g transform="translate(114.650378 149.198292) scale(0.1 -0.1)">
       <use xlink:href="#DejaVuSans-30"/>
       <use xlink:href="#DejaVuSans-2e" x="63.623047"/>
       <use xlink:href="#DejaVuSans-35" x="95.410156"/>
       <use xlink:href="#DejaVuSans-30" x="159.033203"/>
      </g>
     </g>
    </g>
    <g id="xtick_4">
     <g id="line2d_7">
      <path d="M 165.161322 134.599854 
L 165.161322 7.432852 
" clip-path="url(#p811c1a42a6)" style="fill: none; stroke: #b0b0b0; stroke-opacity: 0.3; stroke-width: 0.8; stroke-linecap: square"/>
     </g>
     <g id="line2d_8">
      <g>
       <use xlink:href="#mf899bff10a" x="165.161322" y="134.599854" style="stroke: #000000; stroke-width: 0.8"/>
      </g>
     </g>
     <g id="text_4">
      <!-- 0.75 -->
      <g transform="translate(154.028509 149.198292) scale(0.1 -0.1)">
       <defs>
        <path id="DejaVuSans-37" d="M 525 4666 
L 3525 4666 
L 3525 4397 
L 1831 0 
L 1172 0 
L 2766 4134 
L 525 4134 
L 525 4666 
z
" transform="scale(0.015625)"/>
       </defs>
       <use xlink:href="#DejaVuSans-30"/>
       <use xlink:href="#DejaVuSans-2e" x="63.623047"/>
       <use xlink:href="#DejaVuSans-37" x="95.410156"/>
       <use xlink:href="#DejaVuSans-35" x="159.033203"/>
      </g>
     </g>
    </g>
    <g id="text_5">
     <!-- Similarity -->
     <g transform="translate(94.065781 162.876417) scale(0.1 -0.1)">
      <defs>
       <path id="DejaVuSans-53" d="M 3425 4513 
L 3425 3897 
Q 3066 4069 2747 4153 
Q 2428 4238 2131 4238 
Q 1616 4238 1336 4038 
Q 1056 3838 1056 3469 
Q 1056 3159 1242 3001 
Q 1428 2844 1947 2747 
L 2328 2669 
Q 3034 2534 3370 2195 
Q 3706 1856 3706 1288 
Q 3706 609 3251 259 
Q 2797 -91 1919 -91 
Q 1588 -91 1214 -16 
Q 841 59 441 206 
L 441 856 
Q 825 641 1194 531 
Q 1563 422 1919 422 
Q 2459 422 2753 634 
Q 3047 847 3047 1241 
Q 3047 1584 2836 1778 
Q 2625 1972 2144 2069 
L 1759 2144 
Q 1053 2284 737 2584 
Q 422 2884 422 3419 
Q 422 4038 858 4394 
Q 1294 4750 2059 4750 
Q 2388 4750 2728 4690 
Q 3069 4631 3425 4513 
z
" transform="scale(0.015625)"/>
       <path id="DejaVuSans-69" d="M 603 3500 
L 1178 3500 
L 1178 0 
L 603 0 
L 603 3500 
z
M 603 4863 
L 1178 4863 
L 1178 4134 
L 603 4134 
L 603 4863 
z
" transform="scale(0.015625)"/>
       <path id="DejaVuSans-6d" d="M 3328 2828 
Q 3544 3216 3844 3400 
Q 4144 3584 4550 3584 
Q 5097 3584 5394 3201 
Q 5691 2819 5691 2113 
L 5691 0 
L 5113 0 
L 5113 2094 
Q 5113 2597 4934 2840 
Q 4756 3084 4391 3084 
Q 3944 3084 3684 2787 
Q 3425 2491 3425 1978 
L 3425 0 
L 2847 0 
L 2847 2094 
Q 2847 2600 2669 2842 
Q 2491 3084 2119 3084 
Q 1678 3084 1418 2786 
Q 1159 2488 1159 1978 
L 1159 0 
L 581 0 
L 581 3500 
L 1159 3500 
L 1159 2956 
Q 1356 3278 1631 3431 
Q 1906 3584 2284 3584 
Q 2666 3584 2933 3390 
Q 3200 3197 3328 2828 
z
" transform="scale(0.015625)"/>
       <path id="DejaVuSans-6c" d="M 603 4863 
L 1178 4863 
L 1178 0 
L 603 0 
L 603 4863 
z
" transform="scale(0.015625)"/>
       <path id="DejaVuSans-61" d="M 2194 1759 
Q 1497 1759 1228 1600 
Q 959 1441 959 1056 
Q 959 750 1161 570 
Q 1363 391 1709 391 
Q 2188 391 2477 730 
Q 2766 1069 2766 1631 
L 2766 1759 
L 2194 1759 
z
M 3341 1997 
L 3341 0 
L 2766 0 
L 2766 531 
Q 2569 213 2275 61 
Q 1981 -91 1556 -91 
Q 1019 -91 701 211 
Q 384 513 384 1019 
Q 384 1609 779 1909 
Q 1175 2209 1959 2209 
L 2766 2209 
L 2766 2266 
Q 2766 2663 2505 2880 
Q 2244 3097 1772 3097 
Q 1472 3097 1187 3025 
Q 903 2953 641 2809 
L 641 3341 
Q 956 3463 1253 3523 
Q 1550 3584 1831 3584 
Q 2591 3584 2966 3190 
Q 3341 2797 3341 1997 
z
" transform="scale(0.015625)"/>
       <path id="DejaVuSans-72" d="M 2631 2963 
Q 2534 3019 2420 3045 
Q 2306 3072 2169 3072 
Q 1681 3072 1420 2755 
Q 1159 2438 1159 1844 
L 1159 0 
L 581 0 
L 581 3500 
L 1159 3500 
L 1159 2956 
Q 1341 3275 1631 3429 
Q 1922 3584 2338 3584 
Q 2397 3584 2469 3576 
Q 2541 3569 2628 3553 
L 2631 2963 
z
" transform="scale(0.015625)"/>
       <path id="DejaVuSans-74" d="M 1172 4494 
L 1172 3500 
L 2356 3500 
L 2356 3053 
L 1172 3053 
L 1172 1153 
Q 1172 725 1289 603 
Q 1406 481 1766 481 
L 2356 481 
L 2356 0 
L 1766 0 
Q 1100 0 847 248 
Q 594 497 594 1153 
L 594 3053 
L 172 3053 
L 172 3500 
L 594 3500 
L 594 4494 
L 1172 4494 
z
" transform="scale(0.015625)"/>
       <path id="DejaVuSans-79" d="M 2059 -325 
Q 1816 -950 1584 -1140 
Q 1353 -1331 966 -1331 
L 506 -1331 
L 506 -850 
L 844 -850 
Q 1081 -850 1212 -737 
Q 1344 -625 1503 -206 
L 1606 56 
L 191 3500 
L 800 3500 
L 1894 763 
L 2988 3500 
L 3597 3500 
L 2059 -325 
z
" transform="scale(0.015625)"/>
      </defs>
      <use xlink:href="#DejaVuSans-53"/>
      <use xlink:href="#DejaVuSans-69" x="63.476562"/>
      <use xlink:href="#DejaVuSans-6d" x="91.259766"/>
      <use xlink:href="#DejaVuSans-69" x="188.671875"/>
      <use xlink:href="#DejaVuSans-6c" x="216.455078"/>
      <use xlink:href="#DejaVuSans-61" x="244.238281"/>
      <use xlink:href="#DejaVuSans-72" x="305.517578"/>
      <use xlink:href="#DejaVuSans-69" x="346.630859"/>
      <use xlink:href="#DejaVuSans-74" x="374.414062"/>
      <use xlink:href="#DejaVuSans-79" x="413.623047"/>
     </g>
    </g>
   </g>
   <g id="matplotlib.axis_2">
    <g id="ytick_1">
     <g id="line2d_9">
      <path d="M 34.240625 134.599854 
L 201.170625 134.599854 
" clip-path="url(#p811c1a42a6)" style="fill: none; stroke: #b0b0b0; stroke-opacity: 0.3; stroke-width: 0.8; stroke-linecap: square"/>
     </g>
     <g id="line2d_10">
      <defs>
       <path id="m7f4d1a8ef8" d="M 0 0 
L -3.5 0 
" style="stroke: #000000; stroke-width: 0.8"/>
      </defs>
      <g>
       <use xlink:href="#m7f4d1a8ef8" x="34.240625" y="134.599854" style="stroke: #000000; stroke-width: 0.8"/>
      </g>
     </g>
     <g id="text_6">
      <!-- 0 -->
      <g transform="translate(20.878125 138.399073) scale(0.1 -0.1)">
       <use xlink:href="#DejaVuSans-30"/>
      </g>
     </g>
    </g>
    <g id="ytick_2">
     <g id="line2d_11">
      <path d="M 34.240625 93.399642 
L 201.170625 93.399642 
" clip-path="url(#p811c1a42a6)" style="fill: none; stroke: #b0b0b0; stroke-opacity: 0.3; stroke-width: 0.8; stroke-linecap: square"/>
     </g>
     <g id="line2d_12">
      <g>
       <use xlink:href="#m7f4d1a8ef8" x="34.240625" y="93.399642" style="stroke: #000000; stroke-width: 0.8"/>
      </g>
     </g>
     <g id="text_7">
      <!-- 1 -->
      <g transform="translate(20.878125 97.198861) scale(0.1 -0.1)">
       <defs>
        <path id="DejaVuSans-31" d="M 794 531 
L 1825 531 
L 1825 4091 
L 703 3866 
L 703 4441 
L 1819 4666 
L 2450 4666 
L 2450 531 
L 3481 531 
L 3481 0 
L 794 0 
L 794 531 
z
" transform="scale(0.015625)"/>
       </defs>
       <use xlink:href="#DejaVuSans-31"/>
      </g>
     </g>
    </g>
    <g id="ytick_3">
     <g id="line2d_13">
      <path d="M 34.240625 52.199431 
L 201.170625 52.199431 
" clip-path="url(#p811c1a42a6)" style="fill: none; stroke: #b0b0b0; stroke-opacity: 0.3; stroke-width: 0.8; stroke-linecap: square"/>
     </g>
     <g id="line2d_14">
      <g>
       <use xlink:href="#m7f4d1a8ef8" x="34.240625" y="52.199431" style="stroke: #000000; stroke-width: 0.8"/>
      </g>
     </g>
     <g id="text_8">
      <!-- 2 -->
      <g transform="translate(20.878125 55.998649) scale(0.1 -0.1)">
       <use xlink:href="#DejaVuSans-32"/>
      </g>
     </g>
    </g>
    <g id="ytick_4">
     <g id="line2d_15">
      <path d="M 34.240625 10.999219 
L 201.170625 10.999219 
" clip-path="url(#p811c1a42a6)" style="fill: none; stroke: #b0b0b0; stroke-opacity: 0.3; stroke-width: 0.8; stroke-linecap: square"/>
     </g>
     <g id="line2d_16">
      <g>
       <use xlink:href="#m7f4d1a8ef8" x="34.240625" y="10.999219" style="stroke: #000000; stroke-width: 0.8"/>
      </g>
     </g>
     <g id="text_9">
      <!-- 3 -->
      <g transform="translate(20.878125 14.798437) scale(0.1 -0.1)">
       <defs>
        <path id="DejaVuSans-33" d="M 2597 2516 
Q 3050 2419 3304 2112 
Q 3559 1806 3559 1356 
Q 3559 666 3084 287 
Q 2609 -91 1734 -91 
Q 1441 -91 1130 -33 
Q 819 25 488 141 
L 488 750 
Q 750 597 1062 519 
Q 1375 441 1716 441 
Q 2309 441 2620 675 
Q 2931 909 2931 1356 
Q 2931 1769 2642 2001 
Q 2353 2234 1838 2234 
L 1294 2234 
L 1294 2753 
L 1863 2753 
Q 2328 2753 2575 2939 
Q 2822 3125 2822 3475 
Q 2822 3834 2567 4026 
Q 2313 4219 1838 4219 
Q 1578 4219 1281 4162 
Q 984 4106 628 3988 
L 628 4550 
Q 988 4650 1302 4700 
Q 1616 4750 1894 4750 
Q 2613 4750 3031 4423 
Q 3450 4097 3450 3541 
Q 3450 3153 3228 2886 
Q 3006 2619 2597 2516 
z
" transform="scale(0.015625)"/>
       </defs>
       <use xlink:href="#DejaVuSans-33"/>
      </g>
     </g>
    </g>
    <g id="text_10">
     <!-- Density -->
     <g transform="translate(14.798438 90.024947) rotate(-90) scale(0.1 -0.1)">
      <defs>
       <path id="DejaVuSans-44" d="M 1259 4147 
L 1259 519 
L 2022 519 
Q 2988 519 3436 956 
Q 3884 1394 3884 2338 
Q 3884 3275 3436 3711 
Q 2988 4147 2022 4147 
L 1259 4147 
z
M 628 4666 
L 1925 4666 
Q 3281 4666 3915 4102 
Q 4550 3538 4550 2338 
Q 4550 1131 3912 565 
Q 3275 0 1925 0 
L 628 0 
L 628 4666 
z
" transform="scale(0.015625)"/>
       <path id="DejaVuSans-65" d="M 3597 1894 
L 3597 1613 
L 953 1613 
Q 991 1019 1311 708 
Q 1631 397 2203 397 
Q 2534 397 2845 478 
Q 3156 559 3463 722 
L 3463 178 
Q 3153 47 2828 -22 
Q 2503 -91 2169 -91 
Q 1331 -91 842 396 
Q 353 884 353 1716 
Q 353 2575 817 3079 
Q 1281 3584 2069 3584 
Q 2775 3584 3186 3129 
Q 3597 2675 3597 1894 
z
M 3022 2063 
Q 3016 2534 2758 2815 
Q 2500 3097 2075 3097 
Q 1594 3097 1305 2825 
Q 1016 2553 972 2059 
L 3022 2063 
z
" transform="scale(0.015625)"/>
       <path id="DejaVuSans-6e" d="M 3513 2113 
L 3513 0 
L 2938 0 
L 2938 2094 
Q 2938 2591 2744 2837 
Q 2550 3084 2163 3084 
Q 1697 3084 1428 2787 
Q 1159 2491 1159 1978 
L 1159 0 
L 581 0 
L 581 3500 
L 1159 3500 
L 1159 2956 
Q 1366 3272 1645 3428 
Q 1925 3584 2291 3584 
Q 2894 3584 3203 3211 
Q 3513 2838 3513 2113 
z
" transform="scale(0.015625)"/>
       <path id="DejaVuSans-73" d="M 2834 3397 
L 2834 2853 
Q 2591 2978 2328 3040 
Q 2066 3103 1784 3103 
Q 1356 3103 1142 2972 
Q 928 2841 928 2578 
Q 928 2378 1081 2264 
Q 1234 2150 1697 2047 
L 1894 2003 
Q 2506 1872 2764 1633 
Q 3022 1394 3022 966 
Q 3022 478 2636 193 
Q 2250 -91 1575 -91 
Q 1294 -91 989 -36 
Q 684 19 347 128 
L 347 722 
Q 666 556 975 473 
Q 1284 391 1588 391 
Q 1994 391 2212 530 
Q 2431 669 2431 922 
Q 2431 1156 2273 1281 
Q 2116 1406 1581 1522 
L 1381 1569 
Q 847 1681 609 1914 
Q 372 2147 372 2553 
Q 372 3047 722 3315 
Q 1072 3584 1716 3584 
Q 2034 3584 2315 3537 
Q 2597 3491 2834 3397 
z
" transform="scale(0.015625)"/>
      </defs>
      <use xlink:href="#DejaVuSans-44"/>
      <use xlink:href="#DejaVuSans-65" x="77.001953"/>
      <use xlink:href="#DejaVuSans-6e" x="138.525391"/>
      <use xlink:href="#DejaVuSans-73" x="201.904297"/>
      <use xlink:href="#DejaVuSans-69" x="254.003906"/>
      <use xlink:href="#DejaVuSans-74" x="281.787109"/>
      <use xlink:href="#DejaVuSans-79" x="320.996094"/>
     </g>
    </g>
   </g>
   <g id="patch_3">
    <path d="M 34.240625 134.599854 
L 34.240625 7.432852 
" style="fill: none; stroke: #000000; stroke-width: 0.8; stroke-linejoin: miter; stroke-linecap: square"/>
   </g>
   <g id="patch_4">
    <path d="M 201.170625 134.599854 
L 201.170625 7.432852 
" style="fill: none; stroke: #000000; stroke-width: 0.8; stroke-linejoin: miter; stroke-linecap: square"/>
   </g>
   <g id="patch_5">
    <path d="M 34.240625 134.599854 
L 201.170625 134.599854 
" style="fill: none; stroke: #000000; stroke-width: 0.8; stroke-linejoin: miter; stroke-linecap: square"/>
   </g>
   <g id="patch_6">
    <path d="M 34.240625 7.432852 
L 201.170625 7.432852 
" style="fill: none; stroke: #000000; stroke-width: 0.8; stroke-linejoin: miter; stroke-linecap: square"/>
   </g>
  </g>
 </g>
 <defs>
  <clipPath id="p811c1a42a6">
   <rect x="34.240625" y="7.432852" width="166.93" height="127.167002"/>
  </clipPath>
 </defs>
</svg>
