<?xml version="1.0" encoding="utf-8" standalone="no"?>
<!DOCTYPE svg PUBLIC "-//W3C//DTD SVG 1.1//EN"
  "http://www.w3.org/Graphics/SVG/1.1/DTD/svg11.dtd">
<svg xmlns:xlink="http://www.w3.org/1999/xlink" width="280.46125pt" height="207.99625pt" viewBox="0 0 280.46125 207.99625" xmlns="http://www.w3.org/2000/svg" version="1.1">
 <metadata>
  <rdf:RDF xmlns:dc="http://purl.org/dc/elements/1.1/" xmlns:cc="http://creativecommons.org/ns#" xmlns:rdf="http://www.w3.org/1999/02/22-rdf-syntax-ns#">
   <cc:Work>
    <dc:type rdf:resource="http://purl.org/dc/dcmitype/StillImage"/>
    <dc:date>2025-05-27T17:04:14.041915</dc:date>
    <dc:format>image/svg+xml</dc:format>
    <dc:creator>
     <cc:Agent>
      <dc:title>Matplotlib v3.9.4, https://matplotlib.org/</dc:title>
     </cc:Agent>
    </dc:creator>
   </cc:Work>
  </rdf:RDF>
 </metadata>
 <defs>
  <style type="text/css">*{stroke-linejoin: round; stroke-linecap: butt}</style>
 </defs>
 <g id="figure_1">
  <g id="patch_1">
   <path d="M 0 207.99625 
L 280.46125 207.99625 
L 280.46125 0 
L 0 0 
z
" style="fill: #ffffff"/>
  </g>
  <g id="axes_1">
   <g id="patch_2">
    <path d="M 43.78125 170.44 
L 273.26125 170.44 
L 273.26125 7.2 
L 43.78125 7.2 
z
" style="fill: #ffffff"/>
   </g>
   <g id="matplotlib.axis_1">
    <g id="xtick_1">
     <g id="line2d_1">
      <defs>
       <path id="mb4bead3d83" d="M 0 0 
L 0 3.5 
" style="stroke: #000000; stroke-width: 0.8"/>
      </defs>
      <g>
       <use xlink:href="#mb4bead3d83" x="62.808883" y="170.44" style="stroke: #000000; stroke-width: 0.8"/>
      </g>
     </g>
     <g id="text_1">
      <!-- 0.0 -->
      <g transform="translate(54.857321 185.038437) scale(0.1 -0.1)">
       <defs>
        <path id="DejaVuSans-30" d="M 2034 4250 
Q 1547 4250 1301 3770 
Q 1056 3291 1056 2328 
Q 1056 1369 1301 889 
Q 1547 409 2034 409 
Q 2525 409 2770 889 
Q 3016 1369 3016 2328 
Q 3016 3291 2770 3770 
Q 2525 4250 2034 4250 
z
M 2034 4750 
Q 2819 4750 3233 4129 
Q 3647 3509 3647 2328 
Q 3647 1150 3233 529 
Q 2819 -91 2034 -91 
Q 1250 -91 836 529 
Q 422 1150 422 2328 
Q 422 3509 836 4129 
Q 1250 4750 2034 4750 
z
" transform="scale(0.015625)"/>
        <path id="DejaVuSans-2e" d="M 684 794 
L 1344 794 
L 1344 0 
L 684 0 
L 684 794 
z
" transform="scale(0.015625)"/>
       </defs>
       <use xlink:href="#DejaVuSans-30"/>
       <use xlink:href="#DejaVuSans-2e" x="63.623047"/>
       <use xlink:href="#DejaVuSans-30" x="95.410156"/>
      </g>
     </g>
    </g>
    <g id="xtick_2">
     <g id="line2d_2">
      <g>
       <use xlink:href="#mb4bead3d83" x="102.675769" y="170.44" style="stroke: #000000; stroke-width: 0.8"/>
      </g>
     </g>
     <g id="text_2">
      <!-- 0.2 -->
      <g transform="translate(94.724206 185.038437) scale(0.1 -0.1)">
       <defs>
        <path id="DejaVuSans-32" d="M 1228 531 
L 3431 531 
L 3431 0 
L 469 0 
L 469 531 
Q 828 903 1448 1529 
Q 2069 2156 2228 2338 
Q 2531 2678 2651 2914 
Q 2772 3150 2772 3378 
Q 2772 3750 2511 3984 
Q 2250 4219 1831 4219 
Q 1534 4219 1204 4116 
Q 875 4013 500 3803 
L 500 4441 
Q 881 4594 1212 4672 
Q 1544 4750 1819 4750 
Q 2544 4750 2975 4387 
Q 3406 4025 3406 3419 
Q 3406 3131 3298 2873 
Q 3191 2616 2906 2266 
Q 2828 2175 2409 1742 
Q 1991 1309 1228 531 
z
" transform="scale(0.015625)"/>
       </defs>
       <use xlink:href="#DejaVuSans-30"/>
       <use xlink:href="#DejaVuSans-2e" x="63.623047"/>
       <use xlink:href="#DejaVuSans-32" x="95.410156"/>
      </g>
     </g>
    </g>
    <g id="xtick_3">
     <g id="line2d_3">
      <g>
       <use xlink:href="#mb4bead3d83" x="142.542654" y="170.44" style="stroke: #000000; stroke-width: 0.8"/>
      </g>
     </g>
     <g id="text_3">
      <!-- 0.4 -->
      <g transform="translate(134.591092 185.038437) scale(0.1 -0.1)">
       <defs>
        <path id="DejaVuSans-34" d="M 2419 4116 
L 825 1625 
L 2419 1625 
L 2419 4116 
z
M 2253 4666 
L 3047 4666 
L 3047 1625 
L 3713 1625 
L 3713 1100 
L 3047 1100 
L 3047 0 
L 2419 0 
L 2419 1100 
L 313 1100 
L 313 1709 
L 2253 4666 
z
" transform="scale(0.015625)"/>
       </defs>
       <use xlink:href="#DejaVuSans-30"/>
       <use xlink:href="#DejaVuSans-2e" x="63.623047"/>
       <use xlink:href="#DejaVuSans-34" x="95.410156"/>
      </g>
     </g>
    </g>
    <g id="xtick_4">
     <g id="line2d_4">
      <g>
       <use xlink:href="#mb4bead3d83" x="182.40954" y="170.44" style="stroke: #000000; stroke-width: 0.8"/>
      </g>
     </g>
     <g id="text_4">
      <!-- 0.6 -->
      <g transform="translate(174.457977 185.038437) scale(0.1 -0.1)">
       <defs>
        <path id="DejaVuSans-36" d="M 2113 2584 
Q 1688 2584 1439 2293 
Q 1191 2003 1191 1497 
Q 1191 994 1439 701 
Q 1688 409 2113 409 
Q 2538 409 2786 701 
Q 3034 994 3034 1497 
Q 3034 2003 2786 2293 
Q 2538 2584 2113 2584 
z
M 3366 4563 
L 3366 3988 
Q 3128 4100 2886 4159 
Q 2644 4219 2406 4219 
Q 1781 4219 1451 3797 
Q 1122 3375 1075 2522 
Q 1259 2794 1537 2939 
Q 1816 3084 2150 3084 
Q 2853 3084 3261 2657 
Q 3669 2231 3669 1497 
Q 3669 778 3244 343 
Q 2819 -91 2113 -91 
Q 1303 -91 875 529 
Q 447 1150 447 2328 
Q 447 3434 972 4092 
Q 1497 4750 2381 4750 
Q 2619 4750 2861 4703 
Q 3103 4656 3366 4563 
z
" transform="scale(0.015625)"/>
       </defs>
       <use xlink:href="#DejaVuSans-30"/>
       <use xlink:href="#DejaVuSans-2e" x="63.623047"/>
       <use xlink:href="#DejaVuSans-36" x="95.410156"/>
      </g>
     </g>
    </g>
    <g id="xtick_5">
     <g id="line2d_5">
      <g>
       <use xlink:href="#mb4bead3d83" x="222.276425" y="170.44" style="stroke: #000000; stroke-width: 0.8"/>
      </g>
     </g>
     <g id="text_5">
      <!-- 0.8 -->
      <g transform="translate(214.324863 185.038437) scale(0.1 -0.1)">
       <defs>
        <path id="DejaVuSans-38" d="M 2034 2216 
Q 1584 2216 1326 1975 
Q 1069 1734 1069 1313 
Q 1069 891 1326 650 
Q 1584 409 2034 409 
Q 2484 409 2743 651 
Q 3003 894 3003 1313 
Q 3003 1734 2745 1975 
Q 2488 2216 2034 2216 
z
M 1403 2484 
Q 997 2584 770 2862 
Q 544 3141 544 3541 
Q 544 4100 942 4425 
Q 1341 4750 2034 4750 
Q 2731 4750 3128 4425 
Q 3525 4100 3525 3541 
Q 3525 3141 3298 2862 
Q 3072 2584 2669 2484 
Q 3125 2378 3379 2068 
Q 3634 1759 3634 1313 
Q 3634 634 3220 271 
Q 2806 -91 2034 -91 
Q 1263 -91 848 271 
Q 434 634 434 1313 
Q 434 1759 690 2068 
Q 947 2378 1403 2484 
z
M 1172 3481 
Q 1172 3119 1398 2916 
Q 1625 2713 2034 2713 
Q 2441 2713 2670 2916 
Q 2900 3119 2900 3481 
Q 2900 3844 2670 4047 
Q 2441 4250 2034 4250 
Q 1625 4250 1398 4047 
Q 1172 3844 1172 3481 
z
" transform="scale(0.015625)"/>
       </defs>
       <use xlink:href="#DejaVuSans-30"/>
       <use xlink:href="#DejaVuSans-2e" x="63.623047"/>
       <use xlink:href="#DejaVuSans-38" x="95.410156"/>
      </g>
     </g>
    </g>
    <g id="xtick_6">
     <g id="line2d_6">
      <g>
       <use xlink:href="#mb4bead3d83" x="262.143311" y="170.44" style="stroke: #000000; stroke-width: 0.8"/>
      </g>
     </g>
     <g id="text_6">
      <!-- 1.0 -->
      <g transform="translate(254.191748 185.038437) scale(0.1 -0.1)">
       <defs>
        <path id="DejaVuSans-31" d="M 794 531 
L 1825 531 
L 1825 4091 
L 703 3866 
L 703 4441 
L 1819 4666 
L 2450 4666 
L 2450 531 
L 3481 531 
L 3481 0 
L 794 0 
L 794 531 
z
" transform="scale(0.015625)"/>
       </defs>
       <use xlink:href="#DejaVuSans-31"/>
       <use xlink:href="#DejaVuSans-2e" x="63.623047"/>
       <use xlink:href="#DejaVuSans-30" x="95.410156"/>
      </g>
     </g>
    </g>
    <g id="text_7">
     <!-- QED Score -->
     <g transform="translate(131.984531 198.716563) scale(0.1 -0.1)">
      <defs>
       <path id="DejaVuSans-51" d="M 2522 4238 
Q 1834 4238 1429 3725 
Q 1025 3213 1025 2328 
Q 1025 1447 1429 934 
Q 1834 422 2522 422 
Q 3209 422 3611 934 
Q 4013 1447 4013 2328 
Q 4013 3213 3611 3725 
Q 3209 4238 2522 4238 
z
M 3406 84 
L 4238 -825 
L 3475 -825 
L 2784 -78 
Q 2681 -84 2626 -87 
Q 2572 -91 2522 -91 
Q 1538 -91 948 567 
Q 359 1225 359 2328 
Q 359 3434 948 4092 
Q 1538 4750 2522 4750 
Q 3503 4750 4090 4092 
Q 4678 3434 4678 2328 
Q 4678 1516 4351 937 
Q 4025 359 3406 84 
z
" transform="scale(0.015625)"/>
       <path id="DejaVuSans-45" d="M 628 4666 
L 3578 4666 
L 3578 4134 
L 1259 4134 
L 1259 2753 
L 3481 2753 
L 3481 2222 
L 1259 2222 
L 1259 531 
L 3634 531 
L 3634 0 
L 628 0 
L 628 4666 
z
" transform="scale(0.015625)"/>
       <path id="DejaVuSans-44" d="M 1259 4147 
L 1259 519 
L 2022 519 
Q 2988 519 3436 956 
Q 3884 1394 3884 2338 
Q 3884 3275 3436 3711 
Q 2988 4147 2022 4147 
L 1259 4147 
z
M 628 4666 
L 1925 4666 
Q 3281 4666 3915 4102 
Q 4550 3538 4550 2338 
Q 4550 1131 3912 565 
Q 3275 0 1925 0 
L 628 0 
L 628 4666 
z
" transform="scale(0.015625)"/>
       <path id="DejaVuSans-20" transform="scale(0.015625)"/>
       <path id="DejaVuSans-53" d="M 3425 4513 
L 3425 3897 
Q 3066 4069 2747 4153 
Q 2428 4238 2131 4238 
Q 1616 4238 1336 4038 
Q 1056 3838 1056 3469 
Q 1056 3159 1242 3001 
Q 1428 2844 1947 2747 
L 2328 2669 
Q 3034 2534 3370 2195 
Q 3706 1856 3706 1288 
Q 3706 609 3251 259 
Q 2797 -91 1919 -91 
Q 1588 -91 1214 -16 
Q 841 59 441 206 
L 441 856 
Q 825 641 1194 531 
Q 1563 422 1919 422 
Q 2459 422 2753 634 
Q 3047 847 3047 1241 
Q 3047 1584 2836 1778 
Q 2625 1972 2144 2069 
L 1759 2144 
Q 1053 2284 737 2584 
Q 422 2884 422 3419 
Q 422 4038 858 4394 
Q 1294 4750 2059 4750 
Q 2388 4750 2728 4690 
Q 3069 4631 3425 4513 
z
" transform="scale(0.015625)"/>
       <path id="DejaVuSans-63" d="M 3122 3366 
L 3122 2828 
Q 2878 2963 2633 3030 
Q 2388 3097 2138 3097 
Q 1578 3097 1268 2742 
Q 959 2388 959 1747 
Q 959 1106 1268 751 
Q 1578 397 2138 397 
Q 2388 397 2633 464 
Q 2878 531 3122 666 
L 3122 134 
Q 2881 22 2623 -34 
Q 2366 -91 2075 -91 
Q 1284 -91 818 406 
Q 353 903 353 1747 
Q 353 2603 823 3093 
Q 1294 3584 2113 3584 
Q 2378 3584 2631 3529 
Q 2884 3475 3122 3366 
z
" transform="scale(0.015625)"/>
       <path id="DejaVuSans-6f" d="M 1959 3097 
Q 1497 3097 1228 2736 
Q 959 2375 959 1747 
Q 959 1119 1226 758 
Q 1494 397 1959 397 
Q 2419 397 2687 759 
Q 2956 1122 2956 1747 
Q 2956 2369 2687 2733 
Q 2419 3097 1959 3097 
z
M 1959 3584 
Q 2709 3584 3137 3096 
Q 3566 2609 3566 1747 
Q 3566 888 3137 398 
Q 2709 -91 1959 -91 
Q 1206 -91 779 398 
Q 353 888 353 1747 
Q 353 2609 779 3096 
Q 1206 3584 1959 3584 
z
" transform="scale(0.015625)"/>
       <path id="DejaVuSans-72" d="M 2631 2963 
Q 2534 3019 2420 3045 
Q 2306 3072 2169 3072 
Q 1681 3072 1420 2755 
Q 1159 2438 1159 1844 
L 1159 0 
L 581 0 
L 581 3500 
L 1159 3500 
L 1159 2956 
Q 1341 3275 1631 3429 
Q 1922 3584 2338 3584 
Q 2397 3584 2469 3576 
Q 2541 3569 2628 3553 
L 2631 2963 
z
" transform="scale(0.015625)"/>
       <path id="DejaVuSans-65" d="M 3597 1894 
L 3597 1613 
L 953 1613 
Q 991 1019 1311 708 
Q 1631 397 2203 397 
Q 2534 397 2845 478 
Q 3156 559 3463 722 
L 3463 178 
Q 3153 47 2828 -22 
Q 2503 -91 2169 -91 
Q 1331 -91 842 396 
Q 353 884 353 1716 
Q 353 2575 817 3079 
Q 1281 3584 2069 3584 
Q 2775 3584 3186 3129 
Q 3597 2675 3597 1894 
z
M 3022 2063 
Q 3016 2534 2758 2815 
Q 2500 3097 2075 3097 
Q 1594 3097 1305 2825 
Q 1016 2553 972 2059 
L 3022 2063 
z
" transform="scale(0.015625)"/>
      </defs>
      <use xlink:href="#DejaVuSans-51"/>
      <use xlink:href="#DejaVuSans-45" x="78.710938"/>
      <use xlink:href="#DejaVuSans-44" x="141.894531"/>
      <use xlink:href="#DejaVuSans-20" x="218.896484"/>
      <use xlink:href="#DejaVuSans-53" x="250.683594"/>
      <use xlink:href="#DejaVuSans-63" x="314.160156"/>
      <use xlink:href="#DejaVuSans-6f" x="369.140625"/>
      <use xlink:href="#DejaVuSans-72" x="430.322266"/>
      <use xlink:href="#DejaVuSans-65" x="469.185547"/>
     </g>
    </g>
   </g>
   <g id="matplotlib.axis_2">
    <g id="ytick_1">
     <g id="line2d_7">
      <defs>
       <path id="me27f4c1fee" d="M 0 0 
L -3.5 0 
" style="stroke: #000000; stroke-width: 0.8"/>
      </defs>
      <g>
       <use xlink:href="#me27f4c1fee" x="43.78125" y="170.44" style="stroke: #000000; stroke-width: 0.8"/>
      </g>
     </g>
     <g id="text_8">
      <!-- 0.0 -->
      <g transform="translate(20.878125 174.239219) scale(0.1 -0.1)">
       <use xlink:href="#DejaVuSans-30"/>
       <use xlink:href="#DejaVuSans-2e" x="63.623047"/>
       <use xlink:href="#DejaVuSans-30" x="95.410156"/>
      </g>
     </g>
    </g>
    <g id="ytick_2">
     <g id="line2d_8">
      <g>
       <use xlink:href="#me27f4c1fee" x="43.78125" y="136.302526" style="stroke: #000000; stroke-width: 0.8"/>
      </g>
     </g>
     <g id="text_9">
      <!-- 0.2 -->
      <g transform="translate(20.878125 140.101745) scale(0.1 -0.1)">
       <use xlink:href="#DejaVuSans-30"/>
       <use xlink:href="#DejaVuSans-2e" x="63.623047"/>
       <use xlink:href="#DejaVuSans-32" x="95.410156"/>
      </g>
     </g>
    </g>
    <g id="ytick_3">
     <g id="line2d_9">
      <g>
       <use xlink:href="#me27f4c1fee" x="43.78125" y="102.165052" style="stroke: #000000; stroke-width: 0.8"/>
      </g>
     </g>
     <g id="text_10">
      <!-- 0.4 -->
      <g transform="translate(20.878125 105.96427) scale(0.1 -0.1)">
       <use xlink:href="#DejaVuSans-30"/>
       <use xlink:href="#DejaVuSans-2e" x="63.623047"/>
       <use xlink:href="#DejaVuSans-34" x="95.410156"/>
      </g>
     </g>
    </g>
    <g id="ytick_4">
     <g id="line2d_10">
      <g>
       <use xlink:href="#me27f4c1fee" x="43.78125" y="68.027577" style="stroke: #000000; stroke-width: 0.8"/>
      </g>
     </g>
     <g id="text_11">
      <!-- 0.6 -->
      <g transform="translate(20.878125 71.826796) scale(0.1 -0.1)">
       <use xlink:href="#DejaVuSans-30"/>
       <use xlink:href="#DejaVuSans-2e" x="63.623047"/>
       <use xlink:href="#DejaVuSans-36" x="95.410156"/>
      </g>
     </g>
    </g>
    <g id="ytick_5">
     <g id="line2d_11">
      <g>
       <use xlink:href="#me27f4c1fee" x="43.78125" y="33.890103" style="stroke: #000000; stroke-width: 0.8"/>
      </g>
     </g>
     <g id="text_12">
      <!-- 0.8 -->
      <g transform="translate(20.878125 37.689322) scale(0.1 -0.1)">
       <use xlink:href="#DejaVuSans-30"/>
       <use xlink:href="#DejaVuSans-2e" x="63.623047"/>
       <use xlink:href="#DejaVuSans-38" x="95.410156"/>
      </g>
     </g>
    </g>
    <g id="text_13">
     <!-- Density -->
     <g transform="translate(14.798438 107.828594) rotate(-90) scale(0.1 -0.1)">
      <defs>
       <path id="DejaVuSans-6e" d="M 3513 2113 
L 3513 0 
L 2938 0 
L 2938 2094 
Q 2938 2591 2744 2837 
Q 2550 3084 2163 3084 
Q 1697 3084 1428 2787 
Q 1159 2491 1159 1978 
L 1159 0 
L 581 0 
L 581 3500 
L 1159 3500 
L 1159 2956 
Q 1366 3272 1645 3428 
Q 1925 3584 2291 3584 
Q 2894 3584 3203 3211 
Q 3513 2838 3513 2113 
z
" transform="scale(0.015625)"/>
       <path id="DejaVuSans-73" d="M 2834 3397 
L 2834 2853 
Q 2591 2978 2328 3040 
Q 2066 3103 1784 3103 
Q 1356 3103 1142 2972 
Q 928 2841 928 2578 
Q 928 2378 1081 2264 
Q 1234 2150 1697 2047 
L 1894 2003 
Q 2506 1872 2764 1633 
Q 3022 1394 3022 966 
Q 3022 478 2636 193 
Q 2250 -91 1575 -91 
Q 1294 -91 989 -36 
Q 684 19 347 128 
L 347 722 
Q 666 556 975 473 
Q 1284 391 1588 391 
Q 1994 391 2212 530 
Q 2431 669 2431 922 
Q 2431 1156 2273 1281 
Q 2116 1406 1581 1522 
L 1381 1569 
Q 847 1681 609 1914 
Q 372 2147 372 2553 
Q 372 3047 722 3315 
Q 1072 3584 1716 3584 
Q 2034 3584 2315 3537 
Q 2597 3491 2834 3397 
z
" transform="scale(0.015625)"/>
       <path id="DejaVuSans-69" d="M 603 3500 
L 1178 3500 
L 1178 0 
L 603 0 
L 603 3500 
z
M 603 4863 
L 1178 4863 
L 1178 4134 
L 603 4134 
L 603 4863 
z
" transform="scale(0.015625)"/>
       <path id="DejaVuSans-74" d="M 1172 4494 
L 1172 3500 
L 2356 3500 
L 2356 3053 
L 1172 3053 
L 1172 1153 
Q 1172 725 1289 603 
Q 1406 481 1766 481 
L 2356 481 
L 2356 0 
L 1766 0 
Q 1100 0 847 248 
Q 594 497 594 1153 
L 594 3053 
L 172 3053 
L 172 3500 
L 594 3500 
L 594 4494 
L 1172 4494 
z
" transform="scale(0.015625)"/>
       <path id="DejaVuSans-79" d="M 2059 -325 
Q 1816 -950 1584 -1140 
Q 1353 -1331 966 -1331 
L 506 -1331 
L 506 -850 
L 844 -850 
Q 1081 -850 1212 -737 
Q 1344 -625 1503 -206 
L 1606 56 
L 191 3500 
L 800 3500 
L 1894 763 
L 2988 3500 
L 3597 3500 
L 2059 -325 
z
" transform="scale(0.015625)"/>
      </defs>
      <use xlink:href="#DejaVuSans-44"/>
      <use xlink:href="#DejaVuSans-65" x="77.001953"/>
      <use xlink:href="#DejaVuSans-6e" x="138.525391"/>
      <use xlink:href="#DejaVuSans-73" x="201.904297"/>
      <use xlink:href="#DejaVuSans-69" x="254.003906"/>
      <use xlink:href="#DejaVuSans-74" x="281.787109"/>
      <use xlink:href="#DejaVuSans-79" x="320.996094"/>
     </g>
    </g>
   </g>
   <g id="line2d_12">
    <path d="M 54.212159 170.439179 
L 60.502155 170.326491 
L 62.59882 170.059786 
L 63.647152 169.793271 
L 64.695485 169.389417 
L 65.743817 168.80638 
L 66.79215 168.002494 
L 67.840483 166.941179 
L 68.888815 165.595961 
L 69.937148 163.954763 
L 70.98548 162.022727 
L 73.082145 157.395057 
L 76.227143 149.286562 
L 79.372141 141.077996 
L 81.468806 136.064042 
L 83.565471 131.595827 
L 85.662136 127.707003 
L 87.758801 124.343081 
L 89.855467 121.42314 
L 91.952132 118.902904 
L 94.048797 116.776981 
L 96.145462 115.053468 
L 98.242127 113.73871 
L 100.338792 112.802993 
L 103.48379 111.830012 
L 106.628788 110.820446 
L 110.822118 109.367971 
L 112.918783 108.974732 
L 115.015448 108.860201 
L 121.305444 108.81615 
L 122.353776 108.990796 
L 123.402109 109.320354 
L 124.450441 109.809171 
L 129.692104 112.792896 
L 130.740437 113.065612 
L 131.788769 113.182934 
L 133.885435 113.12246 
L 135.9821 113.073964 
L 137.030432 113.19358 
L 138.078765 113.450337 
L 140.17543 114.353223 
L 144.36876 116.611076 
L 146.465425 117.329103 
L 148.562091 117.710696 
L 151.707088 118.180632 
L 153.803753 118.841439 
L 155.900419 119.902095 
L 159.045416 121.609517 
L 160.093749 121.996789 
L 161.142081 122.239317 
L 162.190414 122.339211 
L 164.287079 122.219159 
L 167.432077 121.861598 
L 169.528742 121.860938 
L 171.625407 122.073659 
L 173.722072 122.445945 
L 175.818737 123.047022 
L 177.915403 123.978656 
L 180.012068 125.191426 
L 183.157065 127.289276 
L 185.253731 128.908879 
L 188.398728 131.700638 
L 191.543726 134.465114 
L 195.737056 137.769237 
L 205.172049 145.118995 
L 208.317047 148.182226 
L 212.510377 152.428282 
L 214.607043 154.322003 
L 217.75204 156.805876 
L 221.945371 159.763864 
L 225.090368 161.706948 
L 228.235366 163.355073 
L 232.428696 165.334913 
L 236.622027 167.041568 
L 240.815357 168.477761 
L 243.960355 169.287089 
L 247.105352 169.808163 
L 251.298683 170.205801 
L 255.492013 170.389912 
L 262.830341 170.439606 
L 262.830341 170.439606 
" clip-path="url(#p73f0fa199d)" style="fill: none; stroke: #a2c9ae; stroke-width: 1.5; stroke-linecap: square"/>
   </g>
   <g id="line2d_13">
    <path d="M 55.454696 170.438891 
L 60.648281 170.373859 
L 62.725714 170.215853 
L 64.803148 169.8203 
L 65.841865 169.476748 
L 66.880582 169.00132 
L 67.919299 168.367901 
L 68.958015 167.552791 
L 69.996732 166.537356 
L 71.035449 165.310954 
L 72.074166 163.873525 
L 74.1516 160.423998 
L 76.229033 156.400085 
L 82.461335 143.672714 
L 84.538768 139.968126 
L 86.616202 136.726454 
L 88.693636 133.939975 
L 90.771069 131.587514 
L 92.848503 129.654741 
L 94.925937 128.082464 
L 98.042087 126.154264 
L 102.196955 123.979744 
L 110.506689 119.836678 
L 118.816424 116.732426 
L 120.893858 116.342983 
L 122.971292 116.273711 
L 126.087442 116.173349 
L 128.164876 115.855441 
L 133.35846 114.860801 
L 135.435894 114.899985 
L 137.513328 115.370265 
L 141.668195 116.661956 
L 143.745629 116.845643 
L 145.823062 116.681342 
L 149.97793 116.255426 
L 155.171514 116.096203 
L 157.248948 116.157653 
L 159.326381 116.426512 
L 164.519966 117.41209 
L 166.597399 117.33612 
L 169.71355 116.773547 
L 172.8297 116.289921 
L 174.907134 116.178069 
L 176.984568 116.383736 
L 178.023285 116.667428 
L 179.062001 117.094986 
L 180.100718 117.667749 
L 182.178152 119.187447 
L 184.255586 121.041567 
L 187.371736 124.177313 
L 190.487887 127.765348 
L 194.642754 132.72221 
L 197.758905 135.947451 
L 201.913772 140.150191 
L 216.455808 155.674975 
L 219.571959 158.384266 
L 222.688109 160.757347 
L 226.842976 163.676973 
L 229.959127 165.617643 
L 232.036561 166.699591 
L 234.113994 167.589458 
L 237.230145 168.615813 
L 240.346296 169.318018 
L 243.462446 169.749269 
L 248.65603 170.187714 
L 253.849615 170.390937 
L 262.159349 170.439698 
L 262.159349 170.439698 
" clip-path="url(#p73f0fa199d)" style="fill: none; stroke: #8e7fb8; stroke-width: 1.5; stroke-linecap: square"/>
   </g>
   <g id="line2d_14">
    <path d="M 57.279236 170.43935 
L 61.994603 170.351699 
L 63.88075 170.053826 
L 64.823824 169.706042 
L 65.766897 169.12585 
L 66.709971 168.215636 
L 67.653044 166.867482 
L 68.596118 164.974121 
L 69.539191 162.44129 
L 70.482265 159.198839 
L 71.425338 155.208565 
L 72.368412 150.467889 
L 73.311485 145.009364 
L 75.197632 132.215955 
L 77.083779 117.565457 
L 82.74222 71.771145 
L 84.628367 59.196474 
L 86.514514 48.759024 
L 88.400661 40.138291 
L 90.286808 33.042255 
L 92.172955 27.25104 
L 94.059102 22.462345 
L 95.94525 18.609565 
L 96.888323 17.146376 
L 97.831397 16.069847 
L 98.77447 15.40183 
L 99.717544 15.110531 
L 100.660617 15.108093 
L 103.489838 15.522518 
L 104.432911 15.450871 
L 107.262132 14.97333 
L 108.205205 15.221049 
L 109.148279 15.906748 
L 110.091352 17.070551 
L 111.034426 18.663184 
L 112.920573 22.649967 
L 115.749793 28.890565 
L 119.522087 36.455752 
L 122.351308 42.296796 
L 124.237455 46.630022 
L 128.952822 58.214845 
L 129.895896 60.167323 
L 130.838969 61.852684 
L 131.782043 63.241848 
L 132.725116 64.33938 
L 133.66819 65.193364 
L 136.49741 67.369712 
L 137.440484 68.377404 
L 138.383557 69.65417 
L 140.269704 72.927655 
L 144.985072 82.028575 
L 146.871219 85.080396 
L 148.757366 87.563766 
L 150.643513 89.528264 
L 155.35888 93.997718 
L 161.017321 99.860975 
L 162.903468 101.340993 
L 164.789615 102.50564 
L 166.675762 103.34187 
L 169.504983 104.332054 
L 171.39113 105.303376 
L 173.277277 106.65717 
L 175.163424 108.286407 
L 177.049571 110.206686 
L 179.878791 113.268887 
L 181.764938 114.880394 
L 184.594159 117.106921 
L 186.480306 119.109164 
L 188.366453 121.606983 
L 191.195674 125.996406 
L 194.024894 130.310825 
L 196.854115 133.971482 
L 203.455629 142.517732 
L 212.886364 154.849009 
L 214.772511 156.772346 
L 216.658658 158.329651 
L 221.374026 161.794794 
L 224.203246 163.622877 
L 227.97554 166.027878 
L 230.804761 167.875345 
L 232.690908 168.89641 
L 234.577055 169.622594 
L 236.463202 170.061995 
L 238.349349 170.29162 
L 241.178569 170.416048 
L 244.950863 170.43925 
L 244.950863 170.43925 
" clip-path="url(#p73f0fa199d)" style="fill: none; stroke: #000000; stroke-width: 1.5; stroke-linecap: square"/>
   </g>
   <g id="line2d_15">
    <path d="M 58.821332 170.437565 
L 62.272127 170.349291 
L 63.997525 170.066818 
L 64.860224 169.751552 
L 65.722923 169.245294 
L 66.585621 168.485977 
L 67.44832 167.420926 
L 68.311019 166.021595 
L 69.173718 164.295828 
L 70.899115 160.097132 
L 73.487212 153.416623 
L 75.212609 149.726042 
L 76.938007 146.918451 
L 78.663404 144.803612 
L 80.388802 143.098883 
L 82.1142 141.642404 
L 83.839597 140.385836 
L 85.564995 139.348507 
L 87.290392 138.676258 
L 88.153091 138.536763 
L 89.01579 138.536249 
L 90.741188 138.852284 
L 96.780079 140.585713 
L 99.368175 141.71514 
L 102.818971 143.538284 
L 104.544368 144.612083 
L 106.269766 145.912976 
L 110.58326 149.568591 
L 112.308657 150.662827 
L 117.48485 153.402478 
L 124.38644 157.861315 
L 126.111838 158.768287 
L 127.837236 159.457401 
L 133.876127 161.335472 
L 139.05232 163.489687 
L 140.777717 163.969553 
L 143.365814 164.42932 
L 146.816609 165.033084 
L 151.992802 166.141975 
L 163.207886 167.792867 
L 178.736464 169.448934 
L 188.226151 169.915025 
L 199.441235 170.148299 
L 227.910295 170.439252 
L 230.498392 170.439913 
L 230.498392 170.439913 
" clip-path="url(#p73f0fa199d)" style="fill: none; stroke: #e6b8a2; stroke-width: 1.5; stroke-linecap: square"/>
   </g>
   <g id="line2d_16">
    <path d="M 55.836015 170.439532 
L 61.747455 170.362727 
L 63.717935 170.169412 
L 65.688415 169.661332 
L 66.673655 169.205939 
L 67.658895 168.565427 
L 68.644135 167.704771 
L 69.629375 166.597935 
L 70.614615 165.232807 
L 71.599855 163.614069 
L 73.570335 159.712472 
L 75.540815 155.170201 
L 78.496535 147.730998 
L 82.437494 137.710701 
L 84.407974 133.119724 
L 86.378454 128.908587 
L 88.348934 125.090041 
L 90.319414 121.74613 
L 92.289894 118.907562 
L 94.260374 116.489015 
L 96.230854 114.434337 
L 98.201334 112.777531 
L 100.171814 111.489436 
L 105.098014 108.568063 
L 108.053733 106.698043 
L 110.024213 105.84213 
L 111.994693 105.436284 
L 117.906133 104.972687 
L 119.876613 105.001528 
L 121.847093 105.392465 
L 123.817573 106.126422 
L 129.729013 108.805238 
L 131.699492 109.252099 
L 135.640452 109.770041 
L 137.610932 110.467154 
L 139.581412 111.572489 
L 145.492852 115.377463 
L 147.463332 116.184319 
L 149.433812 116.729457 
L 153.374772 117.739343 
L 155.345252 118.578632 
L 157.315732 119.735711 
L 161.256691 122.220451 
L 163.227171 123.154968 
L 166.182891 124.211194 
L 169.138611 125.267363 
L 173.079571 126.964821 
L 178.005771 129.271539 
L 180.961491 130.873429 
L 182.931971 132.139001 
L 184.90245 133.684194 
L 186.87293 135.58508 
L 189.82865 138.978298 
L 192.78437 142.423414 
L 194.75485 144.455104 
L 207.56297 156.522709 
L 210.518689 158.923709 
L 214.459649 161.852757 
L 217.415369 163.806984 
L 220.371089 165.467537 
L 223.326809 166.844833 
L 226.282529 167.971836 
L 229.238249 168.894221 
L 232.193969 169.613864 
L 235.149689 170.08411 
L 238.105408 170.318196 
L 243.031608 170.425454 
L 251.898768 170.439921 
L 251.898768 170.439921 
" clip-path="url(#p73f0fa199d)" style="fill: none; stroke: #808080; stroke-width: 1.5; stroke-linecap: square"/>
   </g>
   <g id="patch_3">
    <path d="M 43.78125 170.44 
L 43.78125 7.2 
" style="fill: none; stroke: #000000; stroke-width: 0.8; stroke-linejoin: miter; stroke-linecap: square"/>
   </g>
   <g id="patch_4">
    <path d="M 273.26125 170.44 
L 273.26125 7.2 
" style="fill: none; stroke: #000000; stroke-width: 0.8; stroke-linejoin: miter; stroke-linecap: square"/>
   </g>
   <g id="patch_5">
    <path d="M 43.78125 170.44 
L 273.26125 170.44 
" style="fill: none; stroke: #000000; stroke-width: 0.8; stroke-linejoin: miter; stroke-linecap: square"/>
   </g>
   <g id="patch_6">
    <path d="M 43.78125 7.2 
L 273.26125 7.2 
" style="fill: none; stroke: #000000; stroke-width: 0.8; stroke-linejoin: miter; stroke-linecap: square"/>
   </g>
  </g>
 </g>
 <defs>
  <clipPath id="p73f0fa199d">
   <rect x="43.78125" y="7.2" width="229.48" height="163.24"/>
  </clipPath>
 </defs>
</svg>
