<?xml version="1.0" encoding="utf-8" standalone="no"?>
<!DOCTYPE svg PUBLIC "-//W3C//DTD SVG 1.1//EN"
  "http://www.w3.org/Graphics/SVG/1.1/DTD/svg11.dtd">
<svg xmlns:xlink="http://www.w3.org/1999/xlink" width="280.58625pt" height="207.99625pt" viewBox="0 0 280.58625 207.99625" xmlns="http://www.w3.org/2000/svg" version="1.1">
 <metadata>
  <rdf:RDF xmlns:dc="http://purl.org/dc/elements/1.1/" xmlns:cc="http://creativecommons.org/ns#" xmlns:rdf="http://www.w3.org/1999/02/22-rdf-syntax-ns#">
   <cc:Work>
    <dc:type rdf:resource="http://purl.org/dc/dcmitype/StillImage"/>
    <dc:date>2025-05-27T17:04:22.715881</dc:date>
    <dc:format>image/svg+xml</dc:format>
    <dc:creator>
     <cc:Agent>
      <dc:title>Matplotlib v3.9.4, https://matplotlib.org/</dc:title>
     </cc:Agent>
    </dc:creator>
   </cc:Work>
  </rdf:RDF>
 </metadata>
 <defs>
  <style type="text/css">*{stroke-linejoin: round; stroke-linecap: butt}</style>
 </defs>
 <g id="figure_1">
  <g id="patch_1">
   <path d="M 0 207.99625 
L 280.58625 207.99625 
L 280.58625 0 
L 0 0 
z
" style="fill: #ffffff"/>
  </g>
  <g id="axes_1">
   <g id="patch_2">
    <path d="M 56.50625 170.44 
L 273.38625 170.44 
L 273.38625 7.2 
L 56.50625 7.2 
z
" style="fill: #ffffff"/>
   </g>
   <g id="matplotlib.axis_1">
    <g id="xtick_1">
     <g id="line2d_1">
      <defs>
       <path id="m86ec7df4f1" d="M 0 0 
L 0 3.5 
" style="stroke: #000000; stroke-width: 0.8"/>
      </defs>
      <g>
       <use xlink:href="#m86ec7df4f1" x="96.419324" y="170.44" style="stroke: #000000; stroke-width: 0.8"/>
      </g>
     </g>
     <g id="text_1">
      <!-- 2 -->
      <g transform="translate(93.238074 185.038437) scale(0.1 -0.1)">
       <defs>
        <path id="DejaVuSans-32" d="M 1228 531 
L 3431 531 
L 3431 0 
L 469 0 
L 469 531 
Q 828 903 1448 1529 
Q 2069 2156 2228 2338 
Q 2531 2678 2651 2914 
Q 2772 3150 2772 3378 
Q 2772 3750 2511 3984 
Q 2250 4219 1831 4219 
Q 1534 4219 1204 4116 
Q 875 4013 500 3803 
L 500 4441 
Q 881 4594 1212 4672 
Q 1544 4750 1819 4750 
Q 2544 4750 2975 4387 
Q 3406 4025 3406 3419 
Q 3406 3131 3298 2873 
Q 3191 2616 2906 2266 
Q 2828 2175 2409 1742 
Q 1991 1309 1228 531 
z
" transform="scale(0.015625)"/>
       </defs>
       <use xlink:href="#DejaVuSans-32"/>
      </g>
     </g>
    </g>
    <g id="xtick_2">
     <g id="line2d_2">
      <g>
       <use xlink:href="#m86ec7df4f1" x="141.841766" y="170.44" style="stroke: #000000; stroke-width: 0.8"/>
      </g>
     </g>
     <g id="text_2">
      <!-- 4 -->
      <g transform="translate(138.660516 185.038437) scale(0.1 -0.1)">
       <defs>
        <path id="DejaVuSans-34" d="M 2419 4116 
L 825 1625 
L 2419 1625 
L 2419 4116 
z
M 2253 4666 
L 3047 4666 
L 3047 1625 
L 3713 1625 
L 3713 1100 
L 3047 1100 
L 3047 0 
L 2419 0 
L 2419 1100 
L 313 1100 
L 313 1709 
L 2253 4666 
z
" transform="scale(0.015625)"/>
       </defs>
       <use xlink:href="#DejaVuSans-34"/>
      </g>
     </g>
    </g>
    <g id="xtick_3">
     <g id="line2d_3">
      <g>
       <use xlink:href="#m86ec7df4f1" x="187.264208" y="170.44" style="stroke: #000000; stroke-width: 0.8"/>
      </g>
     </g>
     <g id="text_3">
      <!-- 6 -->
      <g transform="translate(184.082958 185.038437) scale(0.1 -0.1)">
       <defs>
        <path id="DejaVuSans-36" d="M 2113 2584 
Q 1688 2584 1439 2293 
Q 1191 2003 1191 1497 
Q 1191 994 1439 701 
Q 1688 409 2113 409 
Q 2538 409 2786 701 
Q 3034 994 3034 1497 
Q 3034 2003 2786 2293 
Q 2538 2584 2113 2584 
z
M 3366 4563 
L 3366 3988 
Q 3128 4100 2886 4159 
Q 2644 4219 2406 4219 
Q 1781 4219 1451 3797 
Q 1122 3375 1075 2522 
Q 1259 2794 1537 2939 
Q 1816 3084 2150 3084 
Q 2853 3084 3261 2657 
Q 3669 2231 3669 1497 
Q 3669 778 3244 343 
Q 2819 -91 2113 -91 
Q 1303 -91 875 529 
Q 447 1150 447 2328 
Q 447 3434 972 4092 
Q 1497 4750 2381 4750 
Q 2619 4750 2861 4703 
Q 3103 4656 3366 4563 
z
" transform="scale(0.015625)"/>
       </defs>
       <use xlink:href="#DejaVuSans-36"/>
      </g>
     </g>
    </g>
    <g id="xtick_4">
     <g id="line2d_4">
      <g>
       <use xlink:href="#m86ec7df4f1" x="232.68665" y="170.44" style="stroke: #000000; stroke-width: 0.8"/>
      </g>
     </g>
     <g id="text_4">
      <!-- 8 -->
      <g transform="translate(229.5054 185.038437) scale(0.1 -0.1)">
       <defs>
        <path id="DejaVuSans-38" d="M 2034 2216 
Q 1584 2216 1326 1975 
Q 1069 1734 1069 1313 
Q 1069 891 1326 650 
Q 1584 409 2034 409 
Q 2484 409 2743 651 
Q 3003 894 3003 1313 
Q 3003 1734 2745 1975 
Q 2488 2216 2034 2216 
z
M 1403 2484 
Q 997 2584 770 2862 
Q 544 3141 544 3541 
Q 544 4100 942 4425 
Q 1341 4750 2034 4750 
Q 2731 4750 3128 4425 
Q 3525 4100 3525 3541 
Q 3525 3141 3298 2862 
Q 3072 2584 2669 2484 
Q 3125 2378 3379 2068 
Q 3634 1759 3634 1313 
Q 3634 634 3220 271 
Q 2806 -91 2034 -91 
Q 1263 -91 848 271 
Q 434 634 434 1313 
Q 434 1759 690 2068 
Q 947 2378 1403 2484 
z
M 1172 3481 
Q 1172 3119 1398 2916 
Q 1625 2713 2034 2713 
Q 2441 2713 2670 2916 
Q 2900 3119 2900 3481 
Q 2900 3844 2670 4047 
Q 2441 4250 2034 4250 
Q 1625 4250 1398 4047 
Q 1172 3844 1172 3481 
z
" transform="scale(0.015625)"/>
       </defs>
       <use xlink:href="#DejaVuSans-38"/>
      </g>
     </g>
    </g>
    <g id="text_5">
     <!-- SAS Score -->
     <g transform="translate(139.492344 198.716563) scale(0.1 -0.1)">
      <defs>
       <path id="DejaVuSans-53" d="M 3425 4513 
L 3425 3897 
Q 3066 4069 2747 4153 
Q 2428 4238 2131 4238 
Q 1616 4238 1336 4038 
Q 1056 3838 1056 3469 
Q 1056 3159 1242 3001 
Q 1428 2844 1947 2747 
L 2328 2669 
Q 3034 2534 3370 2195 
Q 3706 1856 3706 1288 
Q 3706 609 3251 259 
Q 2797 -91 1919 -91 
Q 1588 -91 1214 -16 
Q 841 59 441 206 
L 441 856 
Q 825 641 1194 531 
Q 1563 422 1919 422 
Q 2459 422 2753 634 
Q 3047 847 3047 1241 
Q 3047 1584 2836 1778 
Q 2625 1972 2144 2069 
L 1759 2144 
Q 1053 2284 737 2584 
Q 422 2884 422 3419 
Q 422 4038 858 4394 
Q 1294 4750 2059 4750 
Q 2388 4750 2728 4690 
Q 3069 4631 3425 4513 
z
" transform="scale(0.015625)"/>
       <path id="DejaVuSans-41" d="M 2188 4044 
L 1331 1722 
L 3047 1722 
L 2188 4044 
z
M 1831 4666 
L 2547 4666 
L 4325 0 
L 3669 0 
L 3244 1197 
L 1141 1197 
L 716 0 
L 50 0 
L 1831 4666 
z
" transform="scale(0.015625)"/>
       <path id="DejaVuSans-20" transform="scale(0.015625)"/>
       <path id="DejaVuSans-63" d="M 3122 3366 
L 3122 2828 
Q 2878 2963 2633 3030 
Q 2388 3097 2138 3097 
Q 1578 3097 1268 2742 
Q 959 2388 959 1747 
Q 959 1106 1268 751 
Q 1578 397 2138 397 
Q 2388 397 2633 464 
Q 2878 531 3122 666 
L 3122 134 
Q 2881 22 2623 -34 
Q 2366 -91 2075 -91 
Q 1284 -91 818 406 
Q 353 903 353 1747 
Q 353 2603 823 3093 
Q 1294 3584 2113 3584 
Q 2378 3584 2631 3529 
Q 2884 3475 3122 3366 
z
" transform="scale(0.015625)"/>
       <path id="DejaVuSans-6f" d="M 1959 3097 
Q 1497 3097 1228 2736 
Q 959 2375 959 1747 
Q 959 1119 1226 758 
Q 1494 397 1959 397 
Q 2419 397 2687 759 
Q 2956 1122 2956 1747 
Q 2956 2369 2687 2733 
Q 2419 3097 1959 3097 
z
M 1959 3584 
Q 2709 3584 3137 3096 
Q 3566 2609 3566 1747 
Q 3566 888 3137 398 
Q 2709 -91 1959 -91 
Q 1206 -91 779 398 
Q 353 888 353 1747 
Q 353 2609 779 3096 
Q 1206 3584 1959 3584 
z
" transform="scale(0.015625)"/>
       <path id="DejaVuSans-72" d="M 2631 2963 
Q 2534 3019 2420 3045 
Q 2306 3072 2169 3072 
Q 1681 3072 1420 2755 
Q 1159 2438 1159 1844 
L 1159 0 
L 581 0 
L 581 3500 
L 1159 3500 
L 1159 2956 
Q 1341 3275 1631 3429 
Q 1922 3584 2338 3584 
Q 2397 3584 2469 3576 
Q 2541 3569 2628 3553 
L 2631 2963 
z
" transform="scale(0.015625)"/>
       <path id="DejaVuSans-65" d="M 3597 1894 
L 3597 1613 
L 953 1613 
Q 991 1019 1311 708 
Q 1631 397 2203 397 
Q 2534 397 2845 478 
Q 3156 559 3463 722 
L 3463 178 
Q 3153 47 2828 -22 
Q 2503 -91 2169 -91 
Q 1331 -91 842 396 
Q 353 884 353 1716 
Q 353 2575 817 3079 
Q 1281 3584 2069 3584 
Q 2775 3584 3186 3129 
Q 3597 2675 3597 1894 
z
M 3022 2063 
Q 3016 2534 2758 2815 
Q 2500 3097 2075 3097 
Q 1594 3097 1305 2825 
Q 1016 2553 972 2059 
L 3022 2063 
z
" transform="scale(0.015625)"/>
      </defs>
      <use xlink:href="#DejaVuSans-53"/>
      <use xlink:href="#DejaVuSans-41" x="65.351562"/>
      <use xlink:href="#DejaVuSans-53" x="133.759766"/>
      <use xlink:href="#DejaVuSans-20" x="197.236328"/>
      <use xlink:href="#DejaVuSans-53" x="229.023438"/>
      <use xlink:href="#DejaVuSans-63" x="292.5"/>
      <use xlink:href="#DejaVuSans-6f" x="347.480469"/>
      <use xlink:href="#DejaVuSans-72" x="408.662109"/>
      <use xlink:href="#DejaVuSans-65" x="447.525391"/>
     </g>
    </g>
   </g>
   <g id="matplotlib.axis_2">
    <g id="ytick_1">
     <g id="line2d_5">
      <defs>
       <path id="m80bbf5ccef" d="M 0 0 
L -3.5 0 
" style="stroke: #000000; stroke-width: 0.8"/>
      </defs>
      <g>
       <use xlink:href="#m80bbf5ccef" x="56.50625" y="170.44" style="stroke: #000000; stroke-width: 0.8"/>
      </g>
     </g>
     <g id="text_6">
      <!-- 0.000 -->
      <g transform="translate(20.878125 174.239219) scale(0.1 -0.1)">
       <defs>
        <path id="DejaVuSans-30" d="M 2034 4250 
Q 1547 4250 1301 3770 
Q 1056 3291 1056 2328 
Q 1056 1369 1301 889 
Q 1547 409 2034 409 
Q 2525 409 2770 889 
Q 3016 1369 3016 2328 
Q 3016 3291 2770 3770 
Q 2525 4250 2034 4250 
z
M 2034 4750 
Q 2819 4750 3233 4129 
Q 3647 3509 3647 2328 
Q 3647 1150 3233 529 
Q 2819 -91 2034 -91 
Q 1250 -91 836 529 
Q 422 1150 422 2328 
Q 422 3509 836 4129 
Q 1250 4750 2034 4750 
z
" transform="scale(0.015625)"/>
        <path id="DejaVuSans-2e" d="M 684 794 
L 1344 794 
L 1344 0 
L 684 0 
L 684 794 
z
" transform="scale(0.015625)"/>
       </defs>
       <use xlink:href="#DejaVuSans-30"/>
       <use xlink:href="#DejaVuSans-2e" x="63.623047"/>
       <use xlink:href="#DejaVuSans-30" x="95.410156"/>
       <use xlink:href="#DejaVuSans-30" x="159.033203"/>
       <use xlink:href="#DejaVuSans-30" x="222.65625"/>
      </g>
     </g>
    </g>
    <g id="ytick_2">
     <g id="line2d_6">
      <g>
       <use xlink:href="#m80bbf5ccef" x="56.50625" y="149.246947" style="stroke: #000000; stroke-width: 0.8"/>
      </g>
     </g>
     <g id="text_7">
      <!-- 0.025 -->
      <g transform="translate(20.878125 153.046166) scale(0.1 -0.1)">
       <defs>
        <path id="DejaVuSans-35" d="M 691 4666 
L 3169 4666 
L 3169 4134 
L 1269 4134 
L 1269 2991 
Q 1406 3038 1543 3061 
Q 1681 3084 1819 3084 
Q 2600 3084 3056 2656 
Q 3513 2228 3513 1497 
Q 3513 744 3044 326 
Q 2575 -91 1722 -91 
Q 1428 -91 1123 -41 
Q 819 9 494 109 
L 494 744 
Q 775 591 1075 516 
Q 1375 441 1709 441 
Q 2250 441 2565 725 
Q 2881 1009 2881 1497 
Q 2881 1984 2565 2268 
Q 2250 2553 1709 2553 
Q 1456 2553 1204 2497 
Q 953 2441 691 2322 
L 691 4666 
z
" transform="scale(0.015625)"/>
       </defs>
       <use xlink:href="#DejaVuSans-30"/>
       <use xlink:href="#DejaVuSans-2e" x="63.623047"/>
       <use xlink:href="#DejaVuSans-30" x="95.410156"/>
       <use xlink:href="#DejaVuSans-32" x="159.033203"/>
       <use xlink:href="#DejaVuSans-35" x="222.65625"/>
      </g>
     </g>
    </g>
    <g id="ytick_3">
     <g id="line2d_7">
      <g>
       <use xlink:href="#m80bbf5ccef" x="56.50625" y="128.053894" style="stroke: #000000; stroke-width: 0.8"/>
      </g>
     </g>
     <g id="text_8">
      <!-- 0.050 -->
      <g transform="translate(20.878125 131.853113) scale(0.1 -0.1)">
       <use xlink:href="#DejaVuSans-30"/>
       <use xlink:href="#DejaVuSans-2e" x="63.623047"/>
       <use xlink:href="#DejaVuSans-30" x="95.410156"/>
       <use xlink:href="#DejaVuSans-35" x="159.033203"/>
       <use xlink:href="#DejaVuSans-30" x="222.65625"/>
      </g>
     </g>
    </g>
    <g id="ytick_4">
     <g id="line2d_8">
      <g>
       <use xlink:href="#m80bbf5ccef" x="56.50625" y="106.860841" style="stroke: #000000; stroke-width: 0.8"/>
      </g>
     </g>
     <g id="text_9">
      <!-- 0.075 -->
      <g transform="translate(20.878125 110.66006) scale(0.1 -0.1)">
       <defs>
        <path id="DejaVuSans-37" d="M 525 4666 
L 3525 4666 
L 3525 4397 
L 1831 0 
L 1172 0 
L 2766 4134 
L 525 4134 
L 525 4666 
z
" transform="scale(0.015625)"/>
       </defs>
       <use xlink:href="#DejaVuSans-30"/>
       <use xlink:href="#DejaVuSans-2e" x="63.623047"/>
       <use xlink:href="#DejaVuSans-30" x="95.410156"/>
       <use xlink:href="#DejaVuSans-37" x="159.033203"/>
       <use xlink:href="#DejaVuSans-35" x="222.65625"/>
      </g>
     </g>
    </g>
    <g id="ytick_5">
     <g id="line2d_9">
      <g>
       <use xlink:href="#m80bbf5ccef" x="56.50625" y="85.667788" style="stroke: #000000; stroke-width: 0.8"/>
      </g>
     </g>
     <g id="text_10">
      <!-- 0.100 -->
      <g transform="translate(20.878125 89.467007) scale(0.1 -0.1)">
       <defs>
        <path id="DejaVuSans-31" d="M 794 531 
L 1825 531 
L 1825 4091 
L 703 3866 
L 703 4441 
L 1819 4666 
L 2450 4666 
L 2450 531 
L 3481 531 
L 3481 0 
L 794 0 
L 794 531 
z
" transform="scale(0.015625)"/>
       </defs>
       <use xlink:href="#DejaVuSans-30"/>
       <use xlink:href="#DejaVuSans-2e" x="63.623047"/>
       <use xlink:href="#DejaVuSans-31" x="95.410156"/>
       <use xlink:href="#DejaVuSans-30" x="159.033203"/>
       <use xlink:href="#DejaVuSans-30" x="222.65625"/>
      </g>
     </g>
    </g>
    <g id="ytick_6">
     <g id="line2d_10">
      <g>
       <use xlink:href="#m80bbf5ccef" x="56.50625" y="64.474735" style="stroke: #000000; stroke-width: 0.8"/>
      </g>
     </g>
     <g id="text_11">
      <!-- 0.125 -->
      <g transform="translate(20.878125 68.273954) scale(0.1 -0.1)">
       <use xlink:href="#DejaVuSans-30"/>
       <use xlink:href="#DejaVuSans-2e" x="63.623047"/>
       <use xlink:href="#DejaVuSans-31" x="95.410156"/>
       <use xlink:href="#DejaVuSans-32" x="159.033203"/>
       <use xlink:href="#DejaVuSans-35" x="222.65625"/>
      </g>
     </g>
    </g>
    <g id="ytick_7">
     <g id="line2d_11">
      <g>
       <use xlink:href="#m80bbf5ccef" x="56.50625" y="43.281682" style="stroke: #000000; stroke-width: 0.8"/>
      </g>
     </g>
     <g id="text_12">
      <!-- 0.150 -->
      <g transform="translate(20.878125 47.080901) scale(0.1 -0.1)">
       <use xlink:href="#DejaVuSans-30"/>
       <use xlink:href="#DejaVuSans-2e" x="63.623047"/>
       <use xlink:href="#DejaVuSans-31" x="95.410156"/>
       <use xlink:href="#DejaVuSans-35" x="159.033203"/>
       <use xlink:href="#DejaVuSans-30" x="222.65625"/>
      </g>
     </g>
    </g>
    <g id="ytick_8">
     <g id="line2d_12">
      <g>
       <use xlink:href="#m80bbf5ccef" x="56.50625" y="22.08863" style="stroke: #000000; stroke-width: 0.8"/>
      </g>
     </g>
     <g id="text_13">
      <!-- 0.175 -->
      <g transform="translate(20.878125 25.887848) scale(0.1 -0.1)">
       <use xlink:href="#DejaVuSans-30"/>
       <use xlink:href="#DejaVuSans-2e" x="63.623047"/>
       <use xlink:href="#DejaVuSans-31" x="95.410156"/>
       <use xlink:href="#DejaVuSans-37" x="159.033203"/>
       <use xlink:href="#DejaVuSans-35" x="222.65625"/>
      </g>
     </g>
    </g>
    <g id="text_14">
     <!-- Density -->
     <g transform="translate(14.798438 107.828594) rotate(-90) scale(0.1 -0.1)">
      <defs>
       <path id="DejaVuSans-44" d="M 1259 4147 
L 1259 519 
L 2022 519 
Q 2988 519 3436 956 
Q 3884 1394 3884 2338 
Q 3884 3275 3436 3711 
Q 2988 4147 2022 4147 
L 1259 4147 
z
M 628 4666 
L 1925 4666 
Q 3281 4666 3915 4102 
Q 4550 3538 4550 2338 
Q 4550 1131 3912 565 
Q 3275 0 1925 0 
L 628 0 
L 628 4666 
z
" transform="scale(0.015625)"/>
       <path id="DejaVuSans-6e" d="M 3513 2113 
L 3513 0 
L 2938 0 
L 2938 2094 
Q 2938 2591 2744 2837 
Q 2550 3084 2163 3084 
Q 1697 3084 1428 2787 
Q 1159 2491 1159 1978 
L 1159 0 
L 581 0 
L 581 3500 
L 1159 3500 
L 1159 2956 
Q 1366 3272 1645 3428 
Q 1925 3584 2291 3584 
Q 2894 3584 3203 3211 
Q 3513 2838 3513 2113 
z
" transform="scale(0.015625)"/>
       <path id="DejaVuSans-73" d="M 2834 3397 
L 2834 2853 
Q 2591 2978 2328 3040 
Q 2066 3103 1784 3103 
Q 1356 3103 1142 2972 
Q 928 2841 928 2578 
Q 928 2378 1081 2264 
Q 1234 2150 1697 2047 
L 1894 2003 
Q 2506 1872 2764 1633 
Q 3022 1394 3022 966 
Q 3022 478 2636 193 
Q 2250 -91 1575 -91 
Q 1294 -91 989 -36 
Q 684 19 347 128 
L 347 722 
Q 666 556 975 473 
Q 1284 391 1588 391 
Q 1994 391 2212 530 
Q 2431 669 2431 922 
Q 2431 1156 2273 1281 
Q 2116 1406 1581 1522 
L 1381 1569 
Q 847 1681 609 1914 
Q 372 2147 372 2553 
Q 372 3047 722 3315 
Q 1072 3584 1716 3584 
Q 2034 3584 2315 3537 
Q 2597 3491 2834 3397 
z
" transform="scale(0.015625)"/>
       <path id="DejaVuSans-69" d="M 603 3500 
L 1178 3500 
L 1178 0 
L 603 0 
L 603 3500 
z
M 603 4863 
L 1178 4863 
L 1178 4134 
L 603 4134 
L 603 4863 
z
" transform="scale(0.015625)"/>
       <path id="DejaVuSans-74" d="M 1172 4494 
L 1172 3500 
L 2356 3500 
L 2356 3053 
L 1172 3053 
L 1172 1153 
Q 1172 725 1289 603 
Q 1406 481 1766 481 
L 2356 481 
L 2356 0 
L 1766 0 
Q 1100 0 847 248 
Q 594 497 594 1153 
L 594 3053 
L 172 3053 
L 172 3500 
L 594 3500 
L 594 4494 
L 1172 4494 
z
" transform="scale(0.015625)"/>
       <path id="DejaVuSans-79" d="M 2059 -325 
Q 1816 -950 1584 -1140 
Q 1353 -1331 966 -1331 
L 506 -1331 
L 506 -850 
L 844 -850 
Q 1081 -850 1212 -737 
Q 1344 -625 1503 -206 
L 1606 56 
L 191 3500 
L 800 3500 
L 1894 763 
L 2988 3500 
L 3597 3500 
L 2059 -325 
z
" transform="scale(0.015625)"/>
      </defs>
      <use xlink:href="#DejaVuSans-44"/>
      <use xlink:href="#DejaVuSans-65" x="77.001953"/>
      <use xlink:href="#DejaVuSans-6e" x="138.525391"/>
      <use xlink:href="#DejaVuSans-73" x="201.904297"/>
      <use xlink:href="#DejaVuSans-69" x="254.003906"/>
      <use xlink:href="#DejaVuSans-74" x="281.787109"/>
      <use xlink:href="#DejaVuSans-79" x="320.996094"/>
     </g>
    </g>
   </g>
   <g id="line2d_13">
    <path d="M 66.364432 170.439449 
L 72.459269 170.331247 
L 75.071342 170.069256 
L 77.683415 169.568854 
L 80.295488 168.876266 
L 82.03687 168.261333 
L 83.778252 167.381987 
L 85.519634 166.201829 
L 89.873088 162.834781 
L 92.485161 160.407862 
L 95.967925 157.201383 
L 98.579998 154.745928 
L 102.062762 150.876414 
L 109.02829 143.131204 
L 111.640363 140.702417 
L 116.864509 136.085348 
L 119.476582 133.419539 
L 123.830037 128.759017 
L 125.571419 127.457278 
L 128.183492 125.79662 
L 129.924874 124.408988 
L 132.536947 122.265621 
L 136.019711 119.797122 
L 140.373166 116.209211 
L 142.985239 114.554189 
L 144.726621 113.642705 
L 146.468003 112.947714 
L 148.209385 112.466672 
L 149.950767 112.20754 
L 150.821458 112.219153 
L 151.692149 112.355258 
L 153.433531 112.947471 
L 156.045604 113.983963 
L 157.786986 114.601221 
L 158.657677 115.018386 
L 159.528367 115.577533 
L 160.399058 116.297088 
L 162.14044 118.17033 
L 163.881822 120.478531 
L 167.364586 125.658989 
L 169.976659 129.7694 
L 174.330114 136.968969 
L 183.907715 151.538327 
L 187.390479 156.1507 
L 190.002552 159.211856 
L 191.743934 160.870794 
L 193.485316 162.210689 
L 196.96808 164.512769 
L 199.580153 166.031005 
L 202.192226 167.320519 
L 203.933608 167.979179 
L 205.67499 168.44429 
L 209.157754 169.070477 
L 214.3819 169.834514 
L 218.735355 170.146778 
L 224.830192 170.347136 
L 239.631938 170.439819 
L 239.631938 170.439819 
" clip-path="url(#p46900ee800)" style="fill: none; stroke: #a2c9ae; stroke-width: 1.5; stroke-linecap: square"/>
   </g>
   <g id="line2d_14">
    <path d="M 67.072425 170.439784 
L 73.931695 170.364576 
L 77.36133 170.105732 
L 82.505783 169.444204 
L 84.2206 169.086631 
L 86.792827 168.252337 
L 89.365053 167.15835 
L 92.794688 165.504323 
L 95.366914 164.636612 
L 97.93914 163.851117 
L 99.653958 163.108576 
L 105.655819 159.896192 
L 109.085454 157.726911 
L 111.65768 155.979993 
L 113.372498 154.452575 
L 115.087315 152.903551 
L 116.802133 151.732388 
L 119.374359 150.166743 
L 121.089176 148.799425 
L 122.803994 147.204918 
L 124.518811 145.322487 
L 127.091038 141.979105 
L 131.378081 136.366054 
L 133.950308 133.122179 
L 135.665125 130.608542 
L 138.237351 126.724502 
L 141.666986 122.05269 
L 144.239213 117.901652 
L 147.668848 112.262585 
L 150.241074 108.555308 
L 151.955891 106.481939 
L 157.100344 101.217257 
L 157.957753 100.51002 
L 158.815161 100.030558 
L 159.67257 99.818607 
L 160.529979 99.867482 
L 161.387388 100.134041 
L 163.102205 101.090602 
L 164.817023 102.392489 
L 166.53184 104.135718 
L 167.389249 105.253949 
L 169.104066 108.03356 
L 170.818884 111.420743 
L 172.533701 115.329748 
L 174.248519 119.754781 
L 176.820745 127.143332 
L 180.25038 137.088118 
L 182.822606 143.644953 
L 184.537424 147.570779 
L 186.252241 151.059239 
L 188.824468 155.596911 
L 190.539285 158.185349 
L 192.254103 160.276626 
L 194.826329 162.821401 
L 197.398555 165.045503 
L 199.113373 166.23884 
L 200.82819 167.148706 
L 202.543008 167.81774 
L 205.115234 168.540308 
L 208.544869 169.23994 
L 211.974504 169.788265 
L 215.404139 170.062758 
L 223.978226 170.367647 
L 237.696766 170.439887 
L 237.696766 170.439887 
" clip-path="url(#p46900ee800)" style="fill: none; stroke: #8e7fb8; stroke-width: 1.5; stroke-linecap: square"/>
   </g>
   <g id="line2d_15">
    <path d="M 70.783053 170.43975 
L 75.825679 170.327421 
L 78.346992 170.194409 
L 82.54918 170.310429 
L 84.230056 169.996053 
L 85.910931 169.255758 
L 87.591806 168.495697 
L 89.272682 168.227947 
L 90.953557 167.957443 
L 92.634433 167.435297 
L 93.47487 167.297976 
L 95.155746 167.345895 
L 96.836621 167.382848 
L 98.517496 167.111066 
L 99.357934 166.777844 
L 105.240998 163.494514 
L 107.762311 161.753487 
L 109.443186 161.016726 
L 111.124062 160.462989 
L 111.9645 160.084863 
L 112.804937 159.584559 
L 113.645375 158.941374 
L 114.485813 158.140114 
L 116.166688 156.084901 
L 117.847563 153.908147 
L 118.688001 153.061276 
L 120.368877 151.890585 
L 121.209314 151.327884 
L 122.049752 150.624511 
L 123.730627 148.744777 
L 125.411503 146.338412 
L 127.092378 143.182134 
L 128.773253 139.792664 
L 135.496755 127.59733 
L 137.17763 123.745394 
L 139.698944 116.808512 
L 143.060694 107.483675 
L 145.582007 99.523792 
L 148.10332 91.009698 
L 150.624634 81.833259 
L 153.145947 71.725002 
L 157.348135 53.923248 
L 159.869448 41.931203 
L 161.550324 35.181376 
L 164.071637 26.309498 
L 165.752512 21.55949 
L 167.433387 18.014267 
L 168.273825 16.617461 
L 169.114263 15.576237 
L 169.954701 15.002134 
L 170.795138 14.973329 
L 171.635576 15.537866 
L 172.476014 16.689965 
L 173.316451 18.315025 
L 174.997327 22.25524 
L 175.837764 24.531189 
L 176.678202 27.286909 
L 177.51864 30.695657 
L 179.199515 39.123592 
L 182.561266 58.187043 
L 184.242141 68.750207 
L 189.284768 102.462236 
L 190.965643 111.954957 
L 192.646518 119.927302 
L 195.167831 130.652179 
L 196.848707 137.198205 
L 198.529582 142.972851 
L 200.210458 147.945211 
L 201.891333 152.289143 
L 203.572208 155.907654 
L 205.253084 158.744621 
L 206.933959 161.028354 
L 208.614834 163.046232 
L 210.29571 164.747224 
L 211.976585 166.051145 
L 213.657461 167.103693 
L 215.338336 167.952838 
L 217.019211 168.544889 
L 220.380962 169.372483 
L 222.902275 169.775529 
L 226.264026 170.040567 
L 234.668403 170.414985 
L 238.030154 170.439697 
L 238.030154 170.439697 
" clip-path="url(#p46900ee800)" style="fill: none; stroke: #000000; stroke-width: 1.5; stroke-linecap: square"/>
   </g>
   <g id="line2d_16">
    <path d="M 67.125123 170.439788 
L 133.250738 170.296179 
L 146.081081 170.129335 
L 160.885323 169.45369 
L 162.859222 169.174165 
L 165.820071 168.474207 
L 168.780919 167.742809 
L 173.715666 166.730198 
L 175.689565 166.062463 
L 177.663464 165.07492 
L 179.637363 164.111639 
L 183.585161 162.754745 
L 185.55906 161.47854 
L 188.519908 159.077014 
L 195.428555 153.359551 
L 199.376353 150.507644 
L 201.350252 149.337747 
L 203.32415 148.537559 
L 206.284999 147.81617 
L 208.258898 147.515072 
L 209.245847 147.541856 
L 211.219746 147.995114 
L 214.180595 149.098598 
L 216.154494 150.205405 
L 218.128393 151.690863 
L 220.102291 153.49004 
L 223.06314 156.337154 
L 229.971786 162.524594 
L 231.945685 165.227364 
L 233.919584 167.915532 
L 234.906534 168.838916 
L 235.893483 169.424102 
L 236.880432 169.748124 
L 238.854331 169.993952 
L 248.723826 170.304333 
L 255.632472 170.412021 
L 263.528068 170.439904 
L 263.528068 170.439904 
" clip-path="url(#p46900ee800)" style="fill: none; stroke: #e6b8a2; stroke-width: 1.5; stroke-linecap: square"/>
   </g>
   <g id="line2d_17">
    <path d="M 70.504002 170.439901 
L 82.604803 170.359445 
L 84.218243 170.198799 
L 93.898884 168.620245 
L 97.932484 168.276197 
L 99.545924 167.973578 
L 101.966084 167.232335 
L 104.386244 166.315556 
L 107.613124 164.892841 
L 109.226564 164.455007 
L 110.840005 164.083588 
L 112.453445 163.449784 
L 114.066885 162.498475 
L 120.520645 158.167349 
L 122.940805 156.014219 
L 128.587846 150.729378 
L 131.008006 148.040722 
L 132.621446 145.886283 
L 138.268486 137.355786 
L 139.881926 134.587648 
L 141.495366 131.454512 
L 143.915527 126.090942 
L 148.755847 115.221728 
L 155.209607 101.003273 
L 158.436487 92.68891 
L 159.243207 91.090336 
L 160.049927 89.835389 
L 160.856648 88.905986 
L 161.663368 88.265199 
L 163.276808 87.530656 
L 164.890248 86.729292 
L 166.503688 85.738589 
L 167.310408 85.559352 
L 168.117128 85.810076 
L 168.923848 86.534115 
L 169.730568 87.663111 
L 171.344008 90.643478 
L 172.957448 94.286835 
L 173.764168 96.517556 
L 175.377608 102.083122 
L 177.797769 112.14671 
L 183.444809 135.953497 
L 185.058249 141.896169 
L 187.478409 149.759035 
L 189.091849 154.066641 
L 190.705289 157.461698 
L 192.318729 160.244906 
L 193.932169 162.587841 
L 195.54561 164.578672 
L 197.15905 166.196233 
L 198.77249 167.327026 
L 200.38593 168.085423 
L 202.80609 168.896851 
L 206.03297 169.685874 
L 208.45313 170.061203 
L 211.680011 170.234447 
L 222.974091 170.432809 
L 231.041292 170.439919 
L 231.041292 170.439919 
" clip-path="url(#p46900ee800)" style="fill: none; stroke: #808080; stroke-width: 1.5; stroke-linecap: square"/>
   </g>
   <g id="patch_3">
    <path d="M 56.50625 170.44 
L 56.50625 7.2 
" style="fill: none; stroke: #000000; stroke-width: 0.8; stroke-linejoin: miter; stroke-linecap: square"/>
   </g>
   <g id="patch_4">
    <path d="M 273.38625 170.44 
L 273.38625 7.2 
" style="fill: none; stroke: #000000; stroke-width: 0.8; stroke-linejoin: miter; stroke-linecap: square"/>
   </g>
   <g id="patch_5">
    <path d="M 56.50625 170.44 
L 273.38625 170.44 
" style="fill: none; stroke: #000000; stroke-width: 0.8; stroke-linejoin: miter; stroke-linecap: square"/>
   </g>
   <g id="patch_6">
    <path d="M 56.50625 7.2 
L 273.38625 7.2 
" style="fill: none; stroke: #000000; stroke-width: 0.8; stroke-linejoin: miter; stroke-linecap: square"/>
   </g>
  </g>
 </g>
 <defs>
  <clipPath id="p46900ee800">
   <rect x="56.50625" y="7.2" width="216.88" height="163.24"/>
  </clipPath>
 </defs>
</svg>
