<?xml version="1.0" encoding="utf-8" standalone="no"?>
<!DOCTYPE svg PUBLIC "-//W3C//DTD SVG 1.1//EN"
  "http://www.w3.org/Graphics/SVG/1.1/DTD/svg11.dtd">
<svg xmlns:xlink="http://www.w3.org/1999/xlink" width="288pt" height="216pt" viewBox="0 0 288 216" xmlns="http://www.w3.org/2000/svg" version="1.1">
 <metadata>
  <rdf:RDF xmlns:dc="http://purl.org/dc/elements/1.1/" xmlns:cc="http://creativecommons.org/ns#" xmlns:rdf="http://www.w3.org/1999/02/22-rdf-syntax-ns#">
   <cc:Work>
    <dc:type rdf:resource="http://purl.org/dc/dcmitype/StillImage"/>
    <dc:date>2025-05-12T22:41:29.903907</dc:date>
    <dc:format>image/svg+xml</dc:format>
    <dc:creator>
     <cc:Agent>
      <dc:title>Matplotlib v3.9.4, https://matplotlib.org/</dc:title>
     </cc:Agent>
    </dc:creator>
   </cc:Work>
  </rdf:RDF>
 </metadata>
 <defs>
  <style type="text/css">*{stroke-linejoin: round; stroke-linecap: butt}</style>
 </defs>
 <g id="figure_1">
  <g id="patch_1">
   <path d="M 0 216 
L 288 216 
L 288 0 
L 0 0 
z
" style="fill: #ffffff"/>
  </g>
  <g id="axes_1">
   <g id="patch_2">
    <path d="M 44.57 174.04 
L 277.2 174.04 
L 277.2 10.8 
L 44.57 10.8 
z
" style="fill: #ffffff"/>
   </g>
   <g id="patch_3">
    <path d="M 55.144091 174.04 
L 56.839336 174.04 
L 56.839336 174.04 
L 55.144091 174.04 
z
" clip-path="url(#p80c9ebd31f)" style="fill: #8e7fb8"/>
   </g>
   <g id="patch_4">
    <path d="M 57.263147 174.04 
L 58.958392 174.04 
L 58.958392 18.573333 
L 57.263147 18.573333 
z
" clip-path="url(#p80c9ebd31f)" style="fill: #8e7fb8"/>
   </g>
   <g id="patch_5">
    <path d="M 59.382203 174.04 
L 61.077449 174.04 
L 61.077449 60.973333 
L 59.382203 60.973333 
z
" clip-path="url(#p80c9ebd31f)" style="fill: #8e7fb8"/>
   </g>
   <g id="patch_6">
    <path d="M 61.50126 174.04 
L 63.196505 174.04 
L 63.196505 89.24 
L 61.50126 89.24 
z
" clip-path="url(#p80c9ebd31f)" style="fill: #8e7fb8"/>
   </g>
   <g id="patch_7">
    <path d="M 63.620316 174.04 
L 65.315561 174.04 
L 65.315561 131.64 
L 63.620316 131.64 
z
" clip-path="url(#p80c9ebd31f)" style="fill: #8e7fb8"/>
   </g>
   <g id="patch_8">
    <path d="M 65.739372 174.04 
L 67.434617 174.04 
L 67.434617 117.506667 
L 65.739372 117.506667 
z
" clip-path="url(#p80c9ebd31f)" style="fill: #8e7fb8"/>
   </g>
   <g id="patch_9">
    <path d="M 67.858429 174.04 
L 69.553674 174.04 
L 69.553674 60.973333 
L 67.858429 60.973333 
z
" clip-path="url(#p80c9ebd31f)" style="fill: #8e7fb8"/>
   </g>
   <g id="patch_10">
    <path d="M 69.977485 174.04 
L 71.67273 174.04 
L 71.67273 103.373333 
L 69.977485 103.373333 
z
" clip-path="url(#p80c9ebd31f)" style="fill: #8e7fb8"/>
   </g>
   <g id="patch_11">
    <path d="M 72.096541 174.04 
L 73.791786 174.04 
L 73.791786 117.506667 
L 72.096541 117.506667 
z
" clip-path="url(#p80c9ebd31f)" style="fill: #8e7fb8"/>
   </g>
   <g id="patch_12">
    <path d="M 74.215598 174.04 
L 75.910843 174.04 
L 75.910843 103.373333 
L 74.215598 103.373333 
z
" clip-path="url(#p80c9ebd31f)" style="fill: #8e7fb8"/>
   </g>
   <g id="patch_13">
    <path d="M 76.334654 174.04 
L 78.029899 174.04 
L 78.029899 89.24 
L 76.334654 89.24 
z
" clip-path="url(#p80c9ebd31f)" style="fill: #8e7fb8"/>
   </g>
   <g id="patch_14">
    <path d="M 78.45371 174.04 
L 80.148955 174.04 
L 80.148955 117.506667 
L 78.45371 117.506667 
z
" clip-path="url(#p80c9ebd31f)" style="fill: #8e7fb8"/>
   </g>
   <g id="patch_15">
    <path d="M 80.572766 174.04 
L 82.268011 174.04 
L 82.268011 75.106667 
L 80.572766 75.106667 
z
" clip-path="url(#p80c9ebd31f)" style="fill: #8e7fb8"/>
   </g>
   <g id="patch_16">
    <path d="M 82.691823 174.04 
L 84.387068 174.04 
L 84.387068 75.106667 
L 82.691823 75.106667 
z
" clip-path="url(#p80c9ebd31f)" style="fill: #8e7fb8"/>
   </g>
   <g id="patch_17">
    <path d="M 84.810879 174.04 
L 86.506124 174.04 
L 86.506124 117.506667 
L 84.810879 117.506667 
z
" clip-path="url(#p80c9ebd31f)" style="fill: #8e7fb8"/>
   </g>
   <g id="patch_18">
    <path d="M 86.929935 174.04 
L 88.62518 174.04 
L 88.62518 145.773333 
L 86.929935 145.773333 
z
" clip-path="url(#p80c9ebd31f)" style="fill: #8e7fb8"/>
   </g>
   <g id="patch_19">
    <path d="M 89.048992 174.04 
L 90.744237 174.04 
L 90.744237 131.64 
L 89.048992 131.64 
z
" clip-path="url(#p80c9ebd31f)" style="fill: #8e7fb8"/>
   </g>
   <g id="patch_20">
    <path d="M 91.168048 174.04 
L 92.863293 174.04 
L 92.863293 117.506667 
L 91.168048 117.506667 
z
" clip-path="url(#p80c9ebd31f)" style="fill: #8e7fb8"/>
   </g>
   <g id="patch_21">
    <path d="M 93.287104 174.04 
L 94.982349 174.04 
L 94.982349 131.64 
L 93.287104 131.64 
z
" clip-path="url(#p80c9ebd31f)" style="fill: #8e7fb8"/>
   </g>
   <g id="patch_22">
    <path d="M 95.406161 174.04 
L 97.101406 174.04 
L 97.101406 145.773333 
L 95.406161 145.773333 
z
" clip-path="url(#p80c9ebd31f)" style="fill: #8e7fb8"/>
   </g>
   <g id="patch_23">
    <path d="M 97.525217 174.04 
L 99.220462 174.04 
L 99.220462 89.24 
L 97.525217 89.24 
z
" clip-path="url(#p80c9ebd31f)" style="fill: #8e7fb8"/>
   </g>
   <g id="patch_24">
    <path d="M 99.644273 174.04 
L 101.339518 174.04 
L 101.339518 117.506667 
L 99.644273 117.506667 
z
" clip-path="url(#p80c9ebd31f)" style="fill: #8e7fb8"/>
   </g>
   <g id="patch_25">
    <path d="M 101.763329 174.04 
L 103.458574 174.04 
L 103.458574 131.64 
L 101.763329 131.64 
z
" clip-path="url(#p80c9ebd31f)" style="fill: #8e7fb8"/>
   </g>
   <g id="patch_26">
    <path d="M 103.882386 174.04 
L 105.577631 174.04 
L 105.577631 89.24 
L 103.882386 89.24 
z
" clip-path="url(#p80c9ebd31f)" style="fill: #8e7fb8"/>
   </g>
   <g id="patch_27">
    <path d="M 106.001442 174.04 
L 107.696687 174.04 
L 107.696687 103.373333 
L 106.001442 103.373333 
z
" clip-path="url(#p80c9ebd31f)" style="fill: #8e7fb8"/>
   </g>
   <g id="patch_28">
    <path d="M 108.120498 174.04 
L 109.815743 174.04 
L 109.815743 145.773333 
L 108.120498 145.773333 
z
" clip-path="url(#p80c9ebd31f)" style="fill: #8e7fb8"/>
   </g>
   <g id="patch_29">
    <path d="M 110.239555 174.04 
L 111.9348 174.04 
L 111.9348 103.373333 
L 110.239555 103.373333 
z
" clip-path="url(#p80c9ebd31f)" style="fill: #8e7fb8"/>
   </g>
   <g id="patch_30">
    <path d="M 112.358611 174.04 
L 114.053856 174.04 
L 114.053856 89.24 
L 112.358611 89.24 
z
" clip-path="url(#p80c9ebd31f)" style="fill: #8e7fb8"/>
   </g>
   <g id="patch_31">
    <path d="M 114.477667 174.04 
L 116.172912 174.04 
L 116.172912 159.906667 
L 114.477667 159.906667 
z
" clip-path="url(#p80c9ebd31f)" style="fill: #8e7fb8"/>
   </g>
   <g id="patch_32">
    <path d="M 116.596723 174.04 
L 118.291968 174.04 
L 118.291968 117.506667 
L 116.596723 117.506667 
z
" clip-path="url(#p80c9ebd31f)" style="fill: #8e7fb8"/>
   </g>
   <g id="patch_33">
    <path d="M 118.71578 174.04 
L 120.411025 174.04 
L 120.411025 131.64 
L 118.71578 131.64 
z
" clip-path="url(#p80c9ebd31f)" style="fill: #8e7fb8"/>
   </g>
   <g id="patch_34">
    <path d="M 120.834836 174.04 
L 122.530081 174.04 
L 122.530081 131.64 
L 120.834836 131.64 
z
" clip-path="url(#p80c9ebd31f)" style="fill: #8e7fb8"/>
   </g>
   <g id="patch_35">
    <path d="M 122.953892 174.04 
L 124.649137 174.04 
L 124.649137 145.773333 
L 122.953892 145.773333 
z
" clip-path="url(#p80c9ebd31f)" style="fill: #8e7fb8"/>
   </g>
   <g id="patch_36">
    <path d="M 125.072949 174.04 
L 126.768194 174.04 
L 126.768194 131.64 
L 125.072949 131.64 
z
" clip-path="url(#p80c9ebd31f)" style="fill: #8e7fb8"/>
   </g>
   <g id="patch_37">
    <path d="M 127.192005 174.04 
L 128.88725 174.04 
L 128.88725 131.64 
L 127.192005 131.64 
z
" clip-path="url(#p80c9ebd31f)" style="fill: #8e7fb8"/>
   </g>
   <g id="patch_38">
    <path d="M 129.311061 174.04 
L 131.006306 174.04 
L 131.006306 117.506667 
L 129.311061 117.506667 
z
" clip-path="url(#p80c9ebd31f)" style="fill: #8e7fb8"/>
   </g>
   <g id="patch_39">
    <path d="M 131.430118 174.04 
L 133.125363 174.04 
L 133.125363 145.773333 
L 131.430118 145.773333 
z
" clip-path="url(#p80c9ebd31f)" style="fill: #8e7fb8"/>
   </g>
   <g id="patch_40">
    <path d="M 133.549174 174.04 
L 135.244419 174.04 
L 135.244419 145.773333 
L 133.549174 145.773333 
z
" clip-path="url(#p80c9ebd31f)" style="fill: #8e7fb8"/>
   </g>
   <g id="patch_41">
    <path d="M 135.66823 174.04 
L 137.363475 174.04 
L 137.363475 103.373333 
L 135.66823 103.373333 
z
" clip-path="url(#p80c9ebd31f)" style="fill: #8e7fb8"/>
   </g>
   <g id="patch_42">
    <path d="M 137.787286 174.04 
L 139.482531 174.04 
L 139.482531 103.373333 
L 137.787286 103.373333 
z
" clip-path="url(#p80c9ebd31f)" style="fill: #8e7fb8"/>
   </g>
   <g id="patch_43">
    <path d="M 139.906343 174.04 
L 141.601588 174.04 
L 141.601588 131.64 
L 139.906343 131.64 
z
" clip-path="url(#p80c9ebd31f)" style="fill: #8e7fb8"/>
   </g>
   <g id="patch_44">
    <path d="M 142.025399 174.04 
L 143.720644 174.04 
L 143.720644 131.64 
L 142.025399 131.64 
z
" clip-path="url(#p80c9ebd31f)" style="fill: #8e7fb8"/>
   </g>
   <g id="patch_45">
    <path d="M 144.144455 174.04 
L 145.8397 174.04 
L 145.8397 131.64 
L 144.144455 131.64 
z
" clip-path="url(#p80c9ebd31f)" style="fill: #8e7fb8"/>
   </g>
   <g id="patch_46">
    <path d="M 146.263512 174.04 
L 147.958757 174.04 
L 147.958757 131.64 
L 146.263512 131.64 
z
" clip-path="url(#p80c9ebd31f)" style="fill: #8e7fb8"/>
   </g>
   <g id="patch_47">
    <path d="M 148.382568 174.04 
L 150.077813 174.04 
L 150.077813 103.373333 
L 148.382568 103.373333 
z
" clip-path="url(#p80c9ebd31f)" style="fill: #8e7fb8"/>
   </g>
   <g id="patch_48">
    <path d="M 150.501624 174.04 
L 152.196869 174.04 
L 152.196869 131.64 
L 150.501624 131.64 
z
" clip-path="url(#p80c9ebd31f)" style="fill: #8e7fb8"/>
   </g>
   <g id="patch_49">
    <path d="M 152.62068 174.04 
L 154.315925 174.04 
L 154.315925 89.24 
L 152.62068 89.24 
z
" clip-path="url(#p80c9ebd31f)" style="fill: #8e7fb8"/>
   </g>
   <g id="patch_50">
    <path d="M 154.739737 174.04 
L 156.434982 174.04 
L 156.434982 131.64 
L 154.739737 131.64 
z
" clip-path="url(#p80c9ebd31f)" style="fill: #8e7fb8"/>
   </g>
   <g id="patch_51">
    <path d="M 156.858793 174.04 
L 158.554038 174.04 
L 158.554038 159.906667 
L 156.858793 159.906667 
z
" clip-path="url(#p80c9ebd31f)" style="fill: #8e7fb8"/>
   </g>
   <g id="patch_52">
    <path d="M 158.977849 174.04 
L 160.673094 174.04 
L 160.673094 131.64 
L 158.977849 131.64 
z
" clip-path="url(#p80c9ebd31f)" style="fill: #8e7fb8"/>
   </g>
   <g id="patch_53">
    <path d="M 161.096906 174.04 
L 162.792151 174.04 
L 162.792151 131.64 
L 161.096906 131.64 
z
" clip-path="url(#p80c9ebd31f)" style="fill: #8e7fb8"/>
   </g>
   <g id="patch_54">
    <path d="M 163.215962 174.04 
L 164.911207 174.04 
L 164.911207 117.506667 
L 163.215962 117.506667 
z
" clip-path="url(#p80c9ebd31f)" style="fill: #8e7fb8"/>
   </g>
   <g id="patch_55">
    <path d="M 165.335018 174.04 
L 167.030263 174.04 
L 167.030263 145.773333 
L 165.335018 145.773333 
z
" clip-path="url(#p80c9ebd31f)" style="fill: #8e7fb8"/>
   </g>
   <g id="patch_56">
    <path d="M 167.454075 174.04 
L 169.14932 174.04 
L 169.14932 159.906667 
L 167.454075 159.906667 
z
" clip-path="url(#p80c9ebd31f)" style="fill: #8e7fb8"/>
   </g>
   <g id="patch_57">
    <path d="M 169.573131 174.04 
L 171.268376 174.04 
L 171.268376 159.906667 
L 169.573131 159.906667 
z
" clip-path="url(#p80c9ebd31f)" style="fill: #8e7fb8"/>
   </g>
   <g id="patch_58">
    <path d="M 171.692187 174.04 
L 173.387432 174.04 
L 173.387432 131.64 
L 171.692187 131.64 
z
" clip-path="url(#p80c9ebd31f)" style="fill: #8e7fb8"/>
   </g>
   <g id="patch_59">
    <path d="M 173.811243 174.04 
L 175.506488 174.04 
L 175.506488 159.906667 
L 173.811243 159.906667 
z
" clip-path="url(#p80c9ebd31f)" style="fill: #8e7fb8"/>
   </g>
   <g id="patch_60">
    <path d="M 175.9303 174.04 
L 177.625545 174.04 
L 177.625545 159.906667 
L 175.9303 159.906667 
z
" clip-path="url(#p80c9ebd31f)" style="fill: #8e7fb8"/>
   </g>
   <g id="patch_61">
    <path d="M 178.049356 174.04 
L 179.744601 174.04 
L 179.744601 145.773333 
L 178.049356 145.773333 
z
" clip-path="url(#p80c9ebd31f)" style="fill: #8e7fb8"/>
   </g>
   <g id="patch_62">
    <path d="M 180.168412 174.04 
L 181.863657 174.04 
L 181.863657 117.506667 
L 180.168412 117.506667 
z
" clip-path="url(#p80c9ebd31f)" style="fill: #8e7fb8"/>
   </g>
   <g id="patch_63">
    <path d="M 182.287469 174.04 
L 183.982714 174.04 
L 183.982714 131.64 
L 182.287469 131.64 
z
" clip-path="url(#p80c9ebd31f)" style="fill: #8e7fb8"/>
   </g>
   <g id="patch_64">
    <path d="M 184.406525 174.04 
L 186.10177 174.04 
L 186.10177 145.773333 
L 184.406525 145.773333 
z
" clip-path="url(#p80c9ebd31f)" style="fill: #8e7fb8"/>
   </g>
   <g id="patch_65">
    <path d="M 186.525581 174.04 
L 188.220826 174.04 
L 188.220826 103.373333 
L 186.525581 103.373333 
z
" clip-path="url(#p80c9ebd31f)" style="fill: #8e7fb8"/>
   </g>
   <g id="patch_66">
    <path d="M 188.644637 174.04 
L 190.339882 174.04 
L 190.339882 117.506667 
L 188.644637 117.506667 
z
" clip-path="url(#p80c9ebd31f)" style="fill: #8e7fb8"/>
   </g>
   <g id="patch_67">
    <path d="M 190.763694 174.04 
L 192.458939 174.04 
L 192.458939 145.773333 
L 190.763694 145.773333 
z
" clip-path="url(#p80c9ebd31f)" style="fill: #8e7fb8"/>
   </g>
   <g id="patch_68">
    <path d="M 192.88275 174.04 
L 194.577995 174.04 
L 194.577995 145.773333 
L 192.88275 145.773333 
z
" clip-path="url(#p80c9ebd31f)" style="fill: #8e7fb8"/>
   </g>
   <g id="patch_69">
    <path d="M 195.001806 174.04 
L 196.697051 174.04 
L 196.697051 75.106667 
L 195.001806 75.106667 
z
" clip-path="url(#p80c9ebd31f)" style="fill: #8e7fb8"/>
   </g>
   <g id="patch_70">
    <path d="M 197.120863 174.04 
L 198.816108 174.04 
L 198.816108 117.506667 
L 197.120863 117.506667 
z
" clip-path="url(#p80c9ebd31f)" style="fill: #8e7fb8"/>
   </g>
   <g id="patch_71">
    <path d="M 199.239919 174.04 
L 200.935164 174.04 
L 200.935164 159.906667 
L 199.239919 159.906667 
z
" clip-path="url(#p80c9ebd31f)" style="fill: #8e7fb8"/>
   </g>
   <g id="patch_72">
    <path d="M 201.358975 174.04 
L 203.05422 174.04 
L 203.05422 117.506667 
L 201.358975 117.506667 
z
" clip-path="url(#p80c9ebd31f)" style="fill: #8e7fb8"/>
   </g>
   <g id="patch_73">
    <path d="M 203.478032 174.04 
L 205.173277 174.04 
L 205.173277 131.64 
L 203.478032 131.64 
z
" clip-path="url(#p80c9ebd31f)" style="fill: #8e7fb8"/>
   </g>
   <g id="patch_74">
    <path d="M 205.597088 174.04 
L 207.292333 174.04 
L 207.292333 145.773333 
L 205.597088 145.773333 
z
" clip-path="url(#p80c9ebd31f)" style="fill: #8e7fb8"/>
   </g>
   <g id="patch_75">
    <path d="M 207.716144 174.04 
L 209.411389 174.04 
L 209.411389 89.24 
L 207.716144 89.24 
z
" clip-path="url(#p80c9ebd31f)" style="fill: #8e7fb8"/>
   </g>
   <g id="patch_76">
    <path d="M 209.8352 174.04 
L 211.530445 174.04 
L 211.530445 117.506667 
L 209.8352 117.506667 
z
" clip-path="url(#p80c9ebd31f)" style="fill: #8e7fb8"/>
   </g>
   <g id="patch_77">
    <path d="M 211.954257 174.04 
L 213.649502 174.04 
L 213.649502 117.506667 
L 211.954257 117.506667 
z
" clip-path="url(#p80c9ebd31f)" style="fill: #8e7fb8"/>
   </g>
   <g id="patch_78">
    <path d="M 214.073313 174.04 
L 215.768558 174.04 
L 215.768558 145.773333 
L 214.073313 145.773333 
z
" clip-path="url(#p80c9ebd31f)" style="fill: #8e7fb8"/>
   </g>
   <g id="patch_79">
    <path d="M 216.192369 174.04 
L 217.887614 174.04 
L 217.887614 103.373333 
L 216.192369 103.373333 
z
" clip-path="url(#p80c9ebd31f)" style="fill: #8e7fb8"/>
   </g>
   <g id="patch_80">
    <path d="M 218.311426 174.04 
L 220.006671 174.04 
L 220.006671 131.64 
L 218.311426 131.64 
z
" clip-path="url(#p80c9ebd31f)" style="fill: #8e7fb8"/>
   </g>
   <g id="patch_81">
    <path d="M 220.430482 174.04 
L 222.125727 174.04 
L 222.125727 159.906667 
L 220.430482 159.906667 
z
" clip-path="url(#p80c9ebd31f)" style="fill: #8e7fb8"/>
   </g>
   <g id="patch_82">
    <path d="M 222.549538 174.04 
L 224.244783 174.04 
L 224.244783 117.506667 
L 222.549538 117.506667 
z
" clip-path="url(#p80c9ebd31f)" style="fill: #8e7fb8"/>
   </g>
   <g id="patch_83">
    <path d="M 224.668594 174.04 
L 226.363839 174.04 
L 226.363839 103.373333 
L 224.668594 103.373333 
z
" clip-path="url(#p80c9ebd31f)" style="fill: #8e7fb8"/>
   </g>
   <g id="patch_84">
    <path d="M 226.787651 174.04 
L 228.482896 174.04 
L 228.482896 60.973333 
L 226.787651 60.973333 
z
" clip-path="url(#p80c9ebd31f)" style="fill: #8e7fb8"/>
   </g>
   <g id="patch_85">
    <path d="M 228.906707 174.04 
L 230.601952 174.04 
L 230.601952 131.64 
L 228.906707 131.64 
z
" clip-path="url(#p80c9ebd31f)" style="fill: #8e7fb8"/>
   </g>
   <g id="patch_86">
    <path d="M 231.025763 174.04 
L 232.721008 174.04 
L 232.721008 131.64 
L 231.025763 131.64 
z
" clip-path="url(#p80c9ebd31f)" style="fill: #8e7fb8"/>
   </g>
   <g id="patch_87">
    <path d="M 233.14482 174.04 
L 234.840065 174.04 
L 234.840065 103.373333 
L 233.14482 103.373333 
z
" clip-path="url(#p80c9ebd31f)" style="fill: #8e7fb8"/>
   </g>
   <g id="patch_88">
    <path d="M 235.263876 174.04 
L 236.959121 174.04 
L 236.959121 145.773333 
L 235.263876 145.773333 
z
" clip-path="url(#p80c9ebd31f)" style="fill: #8e7fb8"/>
   </g>
   <g id="patch_89">
    <path d="M 237.382932 174.04 
L 239.078177 174.04 
L 239.078177 103.373333 
L 237.382932 103.373333 
z
" clip-path="url(#p80c9ebd31f)" style="fill: #8e7fb8"/>
   </g>
   <g id="patch_90">
    <path d="M 239.501989 174.04 
L 241.197234 174.04 
L 241.197234 89.24 
L 239.501989 89.24 
z
" clip-path="url(#p80c9ebd31f)" style="fill: #8e7fb8"/>
   </g>
   <g id="patch_91">
    <path d="M 241.621045 174.04 
L 243.31629 174.04 
L 243.31629 117.506667 
L 241.621045 117.506667 
z
" clip-path="url(#p80c9ebd31f)" style="fill: #8e7fb8"/>
   </g>
   <g id="patch_92">
    <path d="M 243.740101 174.04 
L 245.435346 174.04 
L 245.435346 145.773333 
L 243.740101 145.773333 
z
" clip-path="url(#p80c9ebd31f)" style="fill: #8e7fb8"/>
   </g>
   <g id="patch_93">
    <path d="M 245.859157 174.04 
L 247.554402 174.04 
L 247.554402 131.64 
L 245.859157 131.64 
z
" clip-path="url(#p80c9ebd31f)" style="fill: #8e7fb8"/>
   </g>
   <g id="patch_94">
    <path d="M 247.978214 174.04 
L 249.673459 174.04 
L 249.673459 131.64 
L 247.978214 131.64 
z
" clip-path="url(#p80c9ebd31f)" style="fill: #8e7fb8"/>
   </g>
   <g id="patch_95">
    <path d="M 250.09727 174.04 
L 251.792515 174.04 
L 251.792515 145.773333 
L 250.09727 145.773333 
z
" clip-path="url(#p80c9ebd31f)" style="fill: #8e7fb8"/>
   </g>
   <g id="patch_96">
    <path d="M 252.216326 174.04 
L 253.911571 174.04 
L 253.911571 145.773333 
L 252.216326 145.773333 
z
" clip-path="url(#p80c9ebd31f)" style="fill: #8e7fb8"/>
   </g>
   <g id="patch_97">
    <path d="M 254.335383 174.04 
L 256.030628 174.04 
L 256.030628 174.04 
L 254.335383 174.04 
z
" clip-path="url(#p80c9ebd31f)" style="fill: #8e7fb8"/>
   </g>
   <g id="patch_98">
    <path d="M 256.454439 174.04 
L 258.149684 174.04 
L 258.149684 159.906667 
L 256.454439 159.906667 
z
" clip-path="url(#p80c9ebd31f)" style="fill: #8e7fb8"/>
   </g>
   <g id="patch_99">
    <path d="M 258.573495 174.04 
L 260.26874 174.04 
L 260.26874 174.04 
L 258.573495 174.04 
z
" clip-path="url(#p80c9ebd31f)" style="fill: #8e7fb8"/>
   </g>
   <g id="patch_100">
    <path d="M 260.692551 174.04 
L 262.387797 174.04 
L 262.387797 174.04 
L 260.692551 174.04 
z
" clip-path="url(#p80c9ebd31f)" style="fill: #8e7fb8"/>
   </g>
   <g id="patch_101">
    <path d="M 262.811608 174.04 
L 264.506853 174.04 
L 264.506853 174.04 
L 262.811608 174.04 
z
" clip-path="url(#p80c9ebd31f)" style="fill: #8e7fb8"/>
   </g>
   <g id="patch_102">
    <path d="M 264.930664 174.04 
L 266.625909 174.04 
L 266.625909 174.04 
L 264.930664 174.04 
z
" clip-path="url(#p80c9ebd31f)" style="fill: #8e7fb8"/>
   </g>
   <g id="matplotlib.axis_1">
    <g id="xtick_1">
     <g id="line2d_1">
      <defs>
       <path id="m4e6489e119" d="M 0 0 
L 0 3.5 
" style="stroke: #000000; stroke-width: 0.8"/>
      </defs>
      <g>
       <use xlink:href="#m4e6489e119" x="53.872657" y="174.04" style="stroke: #000000; stroke-width: 0.8"/>
      </g>
     </g>
     <g id="text_1">
      <!-- 0 -->
      <g transform="translate(50.691407 188.638438) scale(0.1 -0.1)">
       <defs>
        <path id="DejaVuSans-30" d="M 2034 4250 
Q 1547 4250 1301 3770 
Q 1056 3291 1056 2328 
Q 1056 1369 1301 889 
Q 1547 409 2034 409 
Q 2525 409 2770 889 
Q 3016 1369 3016 2328 
Q 3016 3291 2770 3770 
Q 2525 4250 2034 4250 
z
M 2034 4750 
Q 2819 4750 3233 4129 
Q 3647 3509 3647 2328 
Q 3647 1150 3233 529 
Q 2819 -91 2034 -91 
Q 1250 -91 836 529 
Q 422 1150 422 2328 
Q 422 3509 836 4129 
Q 1250 4750 2034 4750 
z
" transform="scale(0.015625)"/>
       </defs>
       <use xlink:href="#DejaVuSans-30"/>
      </g>
     </g>
    </g>
    <g id="xtick_2">
     <g id="line2d_2">
      <g>
       <use xlink:href="#m4e6489e119" x="96.253783" y="174.04" style="stroke: #000000; stroke-width: 0.8"/>
      </g>
     </g>
     <g id="text_2">
      <!-- 100 -->
      <g transform="translate(86.710033 188.638438) scale(0.1 -0.1)">
       <defs>
        <path id="DejaVuSans-31" d="M 794 531 
L 1825 531 
L 1825 4091 
L 703 3866 
L 703 4441 
L 1819 4666 
L 2450 4666 
L 2450 531 
L 3481 531 
L 3481 0 
L 794 0 
L 794 531 
z
" transform="scale(0.015625)"/>
       </defs>
       <use xlink:href="#DejaVuSans-31"/>
       <use xlink:href="#DejaVuSans-30" x="63.623047"/>
       <use xlink:href="#DejaVuSans-30" x="127.246094"/>
      </g>
     </g>
    </g>
    <g id="xtick_3">
     <g id="line2d_3">
      <g>
       <use xlink:href="#m4e6489e119" x="138.634909" y="174.04" style="stroke: #000000; stroke-width: 0.8"/>
      </g>
     </g>
     <g id="text_3">
      <!-- 200 -->
      <g transform="translate(129.091159 188.638438) scale(0.1 -0.1)">
       <defs>
        <path id="DejaVuSans-32" d="M 1228 531 
L 3431 531 
L 3431 0 
L 469 0 
L 469 531 
Q 828 903 1448 1529 
Q 2069 2156 2228 2338 
Q 2531 2678 2651 2914 
Q 2772 3150 2772 3378 
Q 2772 3750 2511 3984 
Q 2250 4219 1831 4219 
Q 1534 4219 1204 4116 
Q 875 4013 500 3803 
L 500 4441 
Q 881 4594 1212 4672 
Q 1544 4750 1819 4750 
Q 2544 4750 2975 4387 
Q 3406 4025 3406 3419 
Q 3406 3131 3298 2873 
Q 3191 2616 2906 2266 
Q 2828 2175 2409 1742 
Q 1991 1309 1228 531 
z
" transform="scale(0.015625)"/>
       </defs>
       <use xlink:href="#DejaVuSans-32"/>
       <use xlink:href="#DejaVuSans-30" x="63.623047"/>
       <use xlink:href="#DejaVuSans-30" x="127.246094"/>
      </g>
     </g>
    </g>
    <g id="xtick_4">
     <g id="line2d_4">
      <g>
       <use xlink:href="#m4e6489e119" x="181.016035" y="174.04" style="stroke: #000000; stroke-width: 0.8"/>
      </g>
     </g>
     <g id="text_4">
      <!-- 300 -->
      <g transform="translate(171.472285 188.638438) scale(0.1 -0.1)">
       <defs>
        <path id="DejaVuSans-33" d="M 2597 2516 
Q 3050 2419 3304 2112 
Q 3559 1806 3559 1356 
Q 3559 666 3084 287 
Q 2609 -91 1734 -91 
Q 1441 -91 1130 -33 
Q 819 25 488 141 
L 488 750 
Q 750 597 1062 519 
Q 1375 441 1716 441 
Q 2309 441 2620 675 
Q 2931 909 2931 1356 
Q 2931 1769 2642 2001 
Q 2353 2234 1838 2234 
L 1294 2234 
L 1294 2753 
L 1863 2753 
Q 2328 2753 2575 2939 
Q 2822 3125 2822 3475 
Q 2822 3834 2567 4026 
Q 2313 4219 1838 4219 
Q 1578 4219 1281 4162 
Q 984 4106 628 3988 
L 628 4550 
Q 988 4650 1302 4700 
Q 1616 4750 1894 4750 
Q 2613 4750 3031 4423 
Q 3450 4097 3450 3541 
Q 3450 3153 3228 2886 
Q 3006 2619 2597 2516 
z
" transform="scale(0.015625)"/>
       </defs>
       <use xlink:href="#DejaVuSans-33"/>
       <use xlink:href="#DejaVuSans-30" x="63.623047"/>
       <use xlink:href="#DejaVuSans-30" x="127.246094"/>
      </g>
     </g>
    </g>
    <g id="xtick_5">
     <g id="line2d_5">
      <g>
       <use xlink:href="#m4e6489e119" x="223.397161" y="174.04" style="stroke: #000000; stroke-width: 0.8"/>
      </g>
     </g>
     <g id="text_5">
      <!-- 400 -->
      <g transform="translate(213.853411 188.638438) scale(0.1 -0.1)">
       <defs>
        <path id="DejaVuSans-34" d="M 2419 4116 
L 825 1625 
L 2419 1625 
L 2419 4116 
z
M 2253 4666 
L 3047 4666 
L 3047 1625 
L 3713 1625 
L 3713 1100 
L 3047 1100 
L 3047 0 
L 2419 0 
L 2419 1100 
L 313 1100 
L 313 1709 
L 2253 4666 
z
" transform="scale(0.015625)"/>
       </defs>
       <use xlink:href="#DejaVuSans-34"/>
       <use xlink:href="#DejaVuSans-30" x="63.623047"/>
       <use xlink:href="#DejaVuSans-30" x="127.246094"/>
      </g>
     </g>
    </g>
    <g id="xtick_6">
     <g id="line2d_6">
      <g>
       <use xlink:href="#m4e6489e119" x="265.778287" y="174.04" style="stroke: #000000; stroke-width: 0.8"/>
      </g>
     </g>
     <g id="text_6">
      <!-- 500 -->
      <g transform="translate(256.234537 188.638438) scale(0.1 -0.1)">
       <defs>
        <path id="DejaVuSans-35" d="M 691 4666 
L 3169 4666 
L 3169 4134 
L 1269 4134 
L 1269 2991 
Q 1406 3038 1543 3061 
Q 1681 3084 1819 3084 
Q 2600 3084 3056 2656 
Q 3513 2228 3513 1497 
Q 3513 744 3044 326 
Q 2575 -91 1722 -91 
Q 1428 -91 1123 -41 
Q 819 9 494 109 
L 494 744 
Q 775 591 1075 516 
Q 1375 441 1709 441 
Q 2250 441 2565 725 
Q 2881 1009 2881 1497 
Q 2881 1984 2565 2268 
Q 2250 2553 1709 2553 
Q 1456 2553 1204 2497 
Q 953 2441 691 2322 
L 691 4666 
z
" transform="scale(0.015625)"/>
       </defs>
       <use xlink:href="#DejaVuSans-35"/>
       <use xlink:href="#DejaVuSans-30" x="63.623047"/>
       <use xlink:href="#DejaVuSans-30" x="127.246094"/>
      </g>
     </g>
    </g>
    <g id="text_7">
     <!-- Diffusion Step -->
     <g transform="translate(125.760781 202.316563) scale(0.1 -0.1)">
      <defs>
       <path id="DejaVuSans-44" d="M 1259 4147 
L 1259 519 
L 2022 519 
Q 2988 519 3436 956 
Q 3884 1394 3884 2338 
Q 3884 3275 3436 3711 
Q 2988 4147 2022 4147 
L 1259 4147 
z
M 628 4666 
L 1925 4666 
Q 3281 4666 3915 4102 
Q 4550 3538 4550 2338 
Q 4550 1131 3912 565 
Q 3275 0 1925 0 
L 628 0 
L 628 4666 
z
" transform="scale(0.015625)"/>
       <path id="DejaVuSans-69" d="M 603 3500 
L 1178 3500 
L 1178 0 
L 603 0 
L 603 3500 
z
M 603 4863 
L 1178 4863 
L 1178 4134 
L 603 4134 
L 603 4863 
z
" transform="scale(0.015625)"/>
       <path id="DejaVuSans-66" d="M 2375 4863 
L 2375 4384 
L 1825 4384 
Q 1516 4384 1395 4259 
Q 1275 4134 1275 3809 
L 1275 3500 
L 2222 3500 
L 2222 3053 
L 1275 3053 
L 1275 0 
L 697 0 
L 697 3053 
L 147 3053 
L 147 3500 
L 697 3500 
L 697 3744 
Q 697 4328 969 4595 
Q 1241 4863 1831 4863 
L 2375 4863 
z
" transform="scale(0.015625)"/>
       <path id="DejaVuSans-75" d="M 544 1381 
L 544 3500 
L 1119 3500 
L 1119 1403 
Q 1119 906 1312 657 
Q 1506 409 1894 409 
Q 2359 409 2629 706 
Q 2900 1003 2900 1516 
L 2900 3500 
L 3475 3500 
L 3475 0 
L 2900 0 
L 2900 538 
Q 2691 219 2414 64 
Q 2138 -91 1772 -91 
Q 1169 -91 856 284 
Q 544 659 544 1381 
z
M 1991 3584 
L 1991 3584 
z
" transform="scale(0.015625)"/>
       <path id="DejaVuSans-73" d="M 2834 3397 
L 2834 2853 
Q 2591 2978 2328 3040 
Q 2066 3103 1784 3103 
Q 1356 3103 1142 2972 
Q 928 2841 928 2578 
Q 928 2378 1081 2264 
Q 1234 2150 1697 2047 
L 1894 2003 
Q 2506 1872 2764 1633 
Q 3022 1394 3022 966 
Q 3022 478 2636 193 
Q 2250 -91 1575 -91 
Q 1294 -91 989 -36 
Q 684 19 347 128 
L 347 722 
Q 666 556 975 473 
Q 1284 391 1588 391 
Q 1994 391 2212 530 
Q 2431 669 2431 922 
Q 2431 1156 2273 1281 
Q 2116 1406 1581 1522 
L 1381 1569 
Q 847 1681 609 1914 
Q 372 2147 372 2553 
Q 372 3047 722 3315 
Q 1072 3584 1716 3584 
Q 2034 3584 2315 3537 
Q 2597 3491 2834 3397 
z
" transform="scale(0.015625)"/>
       <path id="DejaVuSans-6f" d="M 1959 3097 
Q 1497 3097 1228 2736 
Q 959 2375 959 1747 
Q 959 1119 1226 758 
Q 1494 397 1959 397 
Q 2419 397 2687 759 
Q 2956 1122 2956 1747 
Q 2956 2369 2687 2733 
Q 2419 3097 1959 3097 
z
M 1959 3584 
Q 2709 3584 3137 3096 
Q 3566 2609 3566 1747 
Q 3566 888 3137 398 
Q 2709 -91 1959 -91 
Q 1206 -91 779 398 
Q 353 888 353 1747 
Q 353 2609 779 3096 
Q 1206 3584 1959 3584 
z
" transform="scale(0.015625)"/>
       <path id="DejaVuSans-6e" d="M 3513 2113 
L 3513 0 
L 2938 0 
L 2938 2094 
Q 2938 2591 2744 2837 
Q 2550 3084 2163 3084 
Q 1697 3084 1428 2787 
Q 1159 2491 1159 1978 
L 1159 0 
L 581 0 
L 581 3500 
L 1159 3500 
L 1159 2956 
Q 1366 3272 1645 3428 
Q 1925 3584 2291 3584 
Q 2894 3584 3203 3211 
Q 3513 2838 3513 2113 
z
" transform="scale(0.015625)"/>
       <path id="DejaVuSans-20" transform="scale(0.015625)"/>
       <path id="DejaVuSans-53" d="M 3425 4513 
L 3425 3897 
Q 3066 4069 2747 4153 
Q 2428 4238 2131 4238 
Q 1616 4238 1336 4038 
Q 1056 3838 1056 3469 
Q 1056 3159 1242 3001 
Q 1428 2844 1947 2747 
L 2328 2669 
Q 3034 2534 3370 2195 
Q 3706 1856 3706 1288 
Q 3706 609 3251 259 
Q 2797 -91 1919 -91 
Q 1588 -91 1214 -16 
Q 841 59 441 206 
L 441 856 
Q 825 641 1194 531 
Q 1563 422 1919 422 
Q 2459 422 2753 634 
Q 3047 847 3047 1241 
Q 3047 1584 2836 1778 
Q 2625 1972 2144 2069 
L 1759 2144 
Q 1053 2284 737 2584 
Q 422 2884 422 3419 
Q 422 4038 858 4394 
Q 1294 4750 2059 4750 
Q 2388 4750 2728 4690 
Q 3069 4631 3425 4513 
z
" transform="scale(0.015625)"/>
       <path id="DejaVuSans-74" d="M 1172 4494 
L 1172 3500 
L 2356 3500 
L 2356 3053 
L 1172 3053 
L 1172 1153 
Q 1172 725 1289 603 
Q 1406 481 1766 481 
L 2356 481 
L 2356 0 
L 1766 0 
Q 1100 0 847 248 
Q 594 497 594 1153 
L 594 3053 
L 172 3053 
L 172 3500 
L 594 3500 
L 594 4494 
L 1172 4494 
z
" transform="scale(0.015625)"/>
       <path id="DejaVuSans-65" d="M 3597 1894 
L 3597 1613 
L 953 1613 
Q 991 1019 1311 708 
Q 1631 397 2203 397 
Q 2534 397 2845 478 
Q 3156 559 3463 722 
L 3463 178 
Q 3153 47 2828 -22 
Q 2503 -91 2169 -91 
Q 1331 -91 842 396 
Q 353 884 353 1716 
Q 353 2575 817 3079 
Q 1281 3584 2069 3584 
Q 2775 3584 3186 3129 
Q 3597 2675 3597 1894 
z
M 3022 2063 
Q 3016 2534 2758 2815 
Q 2500 3097 2075 3097 
Q 1594 3097 1305 2825 
Q 1016 2553 972 2059 
L 3022 2063 
z
" transform="scale(0.015625)"/>
       <path id="DejaVuSans-70" d="M 1159 525 
L 1159 -1331 
L 581 -1331 
L 581 3500 
L 1159 3500 
L 1159 2969 
Q 1341 3281 1617 3432 
Q 1894 3584 2278 3584 
Q 2916 3584 3314 3078 
Q 3713 2572 3713 1747 
Q 3713 922 3314 415 
Q 2916 -91 2278 -91 
Q 1894 -91 1617 61 
Q 1341 213 1159 525 
z
M 3116 1747 
Q 3116 2381 2855 2742 
Q 2594 3103 2138 3103 
Q 1681 3103 1420 2742 
Q 1159 2381 1159 1747 
Q 1159 1113 1420 752 
Q 1681 391 2138 391 
Q 2594 391 2855 752 
Q 3116 1113 3116 1747 
z
" transform="scale(0.015625)"/>
      </defs>
      <use xlink:href="#DejaVuSans-44"/>
      <use xlink:href="#DejaVuSans-69" x="77.001953"/>
      <use xlink:href="#DejaVuSans-66" x="104.785156"/>
      <use xlink:href="#DejaVuSans-66" x="139.990234"/>
      <use xlink:href="#DejaVuSans-75" x="175.195312"/>
      <use xlink:href="#DejaVuSans-73" x="238.574219"/>
      <use xlink:href="#DejaVuSans-69" x="290.673828"/>
      <use xlink:href="#DejaVuSans-6f" x="318.457031"/>
      <use xlink:href="#DejaVuSans-6e" x="379.638672"/>
      <use xlink:href="#DejaVuSans-20" x="443.017578"/>
      <use xlink:href="#DejaVuSans-53" x="474.804688"/>
      <use xlink:href="#DejaVuSans-74" x="538.28125"/>
      <use xlink:href="#DejaVuSans-65" x="577.490234"/>
      <use xlink:href="#DejaVuSans-70" x="639.013672"/>
     </g>
    </g>
   </g>
   <g id="matplotlib.axis_2">
    <g id="ytick_1">
     <g id="line2d_7">
      <defs>
       <path id="m5b2d07d73a" d="M 0 0 
L -3.5 0 
" style="stroke: #000000; stroke-width: 0.8"/>
      </defs>
      <g>
       <use xlink:href="#m5b2d07d73a" x="44.57" y="174.04" style="stroke: #000000; stroke-width: 0.8"/>
      </g>
     </g>
     <g id="text_8">
      <!-- 0 -->
      <g transform="translate(31.2075 177.839219) scale(0.1 -0.1)">
       <use xlink:href="#DejaVuSans-30"/>
      </g>
     </g>
    </g>
    <g id="ytick_2">
     <g id="line2d_8">
      <g>
       <use xlink:href="#m5b2d07d73a" x="44.57" y="145.773333" style="stroke: #000000; stroke-width: 0.8"/>
      </g>
     </g>
     <g id="text_9">
      <!-- 2 -->
      <g transform="translate(31.2075 149.572552) scale(0.1 -0.1)">
       <use xlink:href="#DejaVuSans-32"/>
      </g>
     </g>
    </g>
    <g id="ytick_3">
     <g id="line2d_9">
      <g>
       <use xlink:href="#m5b2d07d73a" x="44.57" y="117.506667" style="stroke: #000000; stroke-width: 0.8"/>
      </g>
     </g>
     <g id="text_10">
      <!-- 4 -->
      <g transform="translate(31.2075 121.305885) scale(0.1 -0.1)">
       <use xlink:href="#DejaVuSans-34"/>
      </g>
     </g>
    </g>
    <g id="ytick_4">
     <g id="line2d_10">
      <g>
       <use xlink:href="#m5b2d07d73a" x="44.57" y="89.24" style="stroke: #000000; stroke-width: 0.8"/>
      </g>
     </g>
     <g id="text_11">
      <!-- 6 -->
      <g transform="translate(31.2075 93.039219) scale(0.1 -0.1)">
       <defs>
        <path id="DejaVuSans-36" d="M 2113 2584 
Q 1688 2584 1439 2293 
Q 1191 2003 1191 1497 
Q 1191 994 1439 701 
Q 1688 409 2113 409 
Q 2538 409 2786 701 
Q 3034 994 3034 1497 
Q 3034 2003 2786 2293 
Q 2538 2584 2113 2584 
z
M 3366 4563 
L 3366 3988 
Q 3128 4100 2886 4159 
Q 2644 4219 2406 4219 
Q 1781 4219 1451 3797 
Q 1122 3375 1075 2522 
Q 1259 2794 1537 2939 
Q 1816 3084 2150 3084 
Q 2853 3084 3261 2657 
Q 3669 2231 3669 1497 
Q 3669 778 3244 343 
Q 2819 -91 2113 -91 
Q 1303 -91 875 529 
Q 447 1150 447 2328 
Q 447 3434 972 4092 
Q 1497 4750 2381 4750 
Q 2619 4750 2861 4703 
Q 3103 4656 3366 4563 
z
" transform="scale(0.015625)"/>
       </defs>
       <use xlink:href="#DejaVuSans-36"/>
      </g>
     </g>
    </g>
    <g id="ytick_5">
     <g id="line2d_11">
      <g>
       <use xlink:href="#m5b2d07d73a" x="44.57" y="60.973333" style="stroke: #000000; stroke-width: 0.8"/>
      </g>
     </g>
     <g id="text_12">
      <!-- 8 -->
      <g transform="translate(31.2075 64.772552) scale(0.1 -0.1)">
       <defs>
        <path id="DejaVuSans-38" d="M 2034 2216 
Q 1584 2216 1326 1975 
Q 1069 1734 1069 1313 
Q 1069 891 1326 650 
Q 1584 409 2034 409 
Q 2484 409 2743 651 
Q 3003 894 3003 1313 
Q 3003 1734 2745 1975 
Q 2488 2216 2034 2216 
z
M 1403 2484 
Q 997 2584 770 2862 
Q 544 3141 544 3541 
Q 544 4100 942 4425 
Q 1341 4750 2034 4750 
Q 2731 4750 3128 4425 
Q 3525 4100 3525 3541 
Q 3525 3141 3298 2862 
Q 3072 2584 2669 2484 
Q 3125 2378 3379 2068 
Q 3634 1759 3634 1313 
Q 3634 634 3220 271 
Q 2806 -91 2034 -91 
Q 1263 -91 848 271 
Q 434 634 434 1313 
Q 434 1759 690 2068 
Q 947 2378 1403 2484 
z
M 1172 3481 
Q 1172 3119 1398 2916 
Q 1625 2713 2034 2713 
Q 2441 2713 2670 2916 
Q 2900 3119 2900 3481 
Q 2900 3844 2670 4047 
Q 2441 4250 2034 4250 
Q 1625 4250 1398 4047 
Q 1172 3844 1172 3481 
z
" transform="scale(0.015625)"/>
       </defs>
       <use xlink:href="#DejaVuSans-38"/>
      </g>
     </g>
    </g>
    <g id="ytick_6">
     <g id="line2d_12">
      <g>
       <use xlink:href="#m5b2d07d73a" x="44.57" y="32.706667" style="stroke: #000000; stroke-width: 0.8"/>
      </g>
     </g>
     <g id="text_13">
      <!-- 10 -->
      <g transform="translate(24.845 36.505885) scale(0.1 -0.1)">
       <use xlink:href="#DejaVuSans-31"/>
       <use xlink:href="#DejaVuSans-30" x="63.623047"/>
      </g>
     </g>
    </g>
    <g id="text_14">
     <!-- # Type Changes -->
     <g transform="translate(18.765313 133.019219) rotate(-90) scale(0.1 -0.1)">
      <defs>
       <path id="DejaVuSans-23" d="M 3272 2816 
L 2363 2816 
L 2100 1772 
L 3016 1772 
L 3272 2816 
z
M 2803 4594 
L 2478 3297 
L 3391 3297 
L 3719 4594 
L 4219 4594 
L 3897 3297 
L 4872 3297 
L 4872 2816 
L 3775 2816 
L 3519 1772 
L 4513 1772 
L 4513 1294 
L 3397 1294 
L 3072 0 
L 2572 0 
L 2894 1294 
L 1978 1294 
L 1656 0 
L 1153 0 
L 1478 1294 
L 494 1294 
L 494 1772 
L 1594 1772 
L 1856 2816 
L 850 2816 
L 850 3297 
L 1978 3297 
L 2297 4594 
L 2803 4594 
z
" transform="scale(0.015625)"/>
       <path id="DejaVuSans-54" d="M -19 4666 
L 3928 4666 
L 3928 4134 
L 2272 4134 
L 2272 0 
L 1638 0 
L 1638 4134 
L -19 4134 
L -19 4666 
z
" transform="scale(0.015625)"/>
       <path id="DejaVuSans-79" d="M 2059 -325 
Q 1816 -950 1584 -1140 
Q 1353 -1331 966 -1331 
L 506 -1331 
L 506 -850 
L 844 -850 
Q 1081 -850 1212 -737 
Q 1344 -625 1503 -206 
L 1606 56 
L 191 3500 
L 800 3500 
L 1894 763 
L 2988 3500 
L 3597 3500 
L 2059 -325 
z
" transform="scale(0.015625)"/>
       <path id="DejaVuSans-43" d="M 4122 4306 
L 4122 3641 
Q 3803 3938 3442 4084 
Q 3081 4231 2675 4231 
Q 1875 4231 1450 3742 
Q 1025 3253 1025 2328 
Q 1025 1406 1450 917 
Q 1875 428 2675 428 
Q 3081 428 3442 575 
Q 3803 722 4122 1019 
L 4122 359 
Q 3791 134 3420 21 
Q 3050 -91 2638 -91 
Q 1578 -91 968 557 
Q 359 1206 359 2328 
Q 359 3453 968 4101 
Q 1578 4750 2638 4750 
Q 3056 4750 3426 4639 
Q 3797 4528 4122 4306 
z
" transform="scale(0.015625)"/>
       <path id="DejaVuSans-68" d="M 3513 2113 
L 3513 0 
L 2938 0 
L 2938 2094 
Q 2938 2591 2744 2837 
Q 2550 3084 2163 3084 
Q 1697 3084 1428 2787 
Q 1159 2491 1159 1978 
L 1159 0 
L 581 0 
L 581 4863 
L 1159 4863 
L 1159 2956 
Q 1366 3272 1645 3428 
Q 1925 3584 2291 3584 
Q 2894 3584 3203 3211 
Q 3513 2838 3513 2113 
z
" transform="scale(0.015625)"/>
       <path id="DejaVuSans-61" d="M 2194 1759 
Q 1497 1759 1228 1600 
Q 959 1441 959 1056 
Q 959 750 1161 570 
Q 1363 391 1709 391 
Q 2188 391 2477 730 
Q 2766 1069 2766 1631 
L 2766 1759 
L 2194 1759 
z
M 3341 1997 
L 3341 0 
L 2766 0 
L 2766 531 
Q 2569 213 2275 61 
Q 1981 -91 1556 -91 
Q 1019 -91 701 211 
Q 384 513 384 1019 
Q 384 1609 779 1909 
Q 1175 2209 1959 2209 
L 2766 2209 
L 2766 2266 
Q 2766 2663 2505 2880 
Q 2244 3097 1772 3097 
Q 1472 3097 1187 3025 
Q 903 2953 641 2809 
L 641 3341 
Q 956 3463 1253 3523 
Q 1550 3584 1831 3584 
Q 2591 3584 2966 3190 
Q 3341 2797 3341 1997 
z
" transform="scale(0.015625)"/>
       <path id="DejaVuSans-67" d="M 2906 1791 
Q 2906 2416 2648 2759 
Q 2391 3103 1925 3103 
Q 1463 3103 1205 2759 
Q 947 2416 947 1791 
Q 947 1169 1205 825 
Q 1463 481 1925 481 
Q 2391 481 2648 825 
Q 2906 1169 2906 1791 
z
M 3481 434 
Q 3481 -459 3084 -895 
Q 2688 -1331 1869 -1331 
Q 1566 -1331 1297 -1286 
Q 1028 -1241 775 -1147 
L 775 -588 
Q 1028 -725 1275 -790 
Q 1522 -856 1778 -856 
Q 2344 -856 2625 -561 
Q 2906 -266 2906 331 
L 2906 616 
Q 2728 306 2450 153 
Q 2172 0 1784 0 
Q 1141 0 747 490 
Q 353 981 353 1791 
Q 353 2603 747 3093 
Q 1141 3584 1784 3584 
Q 2172 3584 2450 3431 
Q 2728 3278 2906 2969 
L 2906 3500 
L 3481 3500 
L 3481 434 
z
" transform="scale(0.015625)"/>
      </defs>
      <use xlink:href="#DejaVuSans-23"/>
      <use xlink:href="#DejaVuSans-20" x="83.789062"/>
      <use xlink:href="#DejaVuSans-54" x="115.576172"/>
      <use xlink:href="#DejaVuSans-79" x="161.035156"/>
      <use xlink:href="#DejaVuSans-70" x="220.214844"/>
      <use xlink:href="#DejaVuSans-65" x="283.691406"/>
      <use xlink:href="#DejaVuSans-20" x="345.214844"/>
      <use xlink:href="#DejaVuSans-43" x="377.001953"/>
      <use xlink:href="#DejaVuSans-68" x="446.826172"/>
      <use xlink:href="#DejaVuSans-61" x="510.205078"/>
      <use xlink:href="#DejaVuSans-6e" x="571.484375"/>
      <use xlink:href="#DejaVuSans-67" x="634.863281"/>
      <use xlink:href="#DejaVuSans-65" x="698.339844"/>
      <use xlink:href="#DejaVuSans-73" x="759.863281"/>
     </g>
    </g>
   </g>
   <g id="patch_103">
    <path d="M 44.57 174.04 
L 44.57 10.8 
" style="fill: none; stroke: #000000; stroke-width: 0.8; stroke-linejoin: miter; stroke-linecap: square"/>
   </g>
   <g id="patch_104">
    <path d="M 277.2 174.04 
L 277.2 10.8 
" style="fill: none; stroke: #000000; stroke-width: 0.8; stroke-linejoin: miter; stroke-linecap: square"/>
   </g>
   <g id="patch_105">
    <path d="M 44.57 174.04 
L 277.2 174.04 
" style="fill: none; stroke: #000000; stroke-width: 0.8; stroke-linejoin: miter; stroke-linecap: square"/>
   </g>
   <g id="patch_106">
    <path d="M 44.57 10.8 
L 277.2 10.8 
" style="fill: none; stroke: #000000; stroke-width: 0.8; stroke-linejoin: miter; stroke-linecap: square"/>
   </g>
  </g>
 </g>
 <defs>
  <clipPath id="p80c9ebd31f">
   <rect x="44.57" y="10.8" width="232.63" height="163.24"/>
  </clipPath>
 </defs>
</svg>
