<?xml version="1.0" encoding="utf-8" standalone="no"?>
<!DOCTYPE svg PUBLIC "-//W3C//DTD SVG 1.1//EN"
  "http://www.w3.org/Graphics/SVG/1.1/DTD/svg11.dtd">
<svg xmlns:xlink="http://www.w3.org/1999/xlink" width="162.58125pt" height="119.782125pt" viewBox="0 0 162.58125 119.782125" xmlns="http://www.w3.org/2000/svg" version="1.1">
 <metadata>
  <rdf:RDF xmlns:dc="http://purl.org/dc/elements/1.1/" xmlns:cc="http://creativecommons.org/ns#" xmlns:rdf="http://www.w3.org/1999/02/22-rdf-syntax-ns#">
   <cc:Work>
    <dc:type rdf:resource="http://purl.org/dc/dcmitype/StillImage"/>
    <dc:date>2025-05-27T15:51:33.711886</dc:date>
    <dc:format>image/svg+xml</dc:format>
    <dc:creator>
     <cc:Agent>
      <dc:title>Matplotlib v3.9.4, https://matplotlib.org/</dc:title>
     </cc:Agent>
    </dc:creator>
   </cc:Work>
  </rdf:RDF>
 </metadata>
 <defs>
  <style type="text/css">*{stroke-linejoin: round; stroke-linecap: butt}</style>
 </defs>
 <g id="figure_1">
  <g id="patch_1">
   <path d="M 0 119.782125 
L 162.58125 119.782125 
L 162.58125 -0 
L 0 -0 
z
" style="fill: #ffffff"/>
  </g>
  <g id="axes_1">
   <g id="patch_2">
    <path d="M 43.78125 95.904 
L 155.38125 95.904 
L 155.38125 7.2 
L 43.78125 7.2 
z
" style="fill: #ffffff"/>
   </g>
   <g id="PolyCollection_1">
    <defs>
     <path id="m1f0c682ac9" d="M 99.819322 -27.910125 
L 99.343178 -27.910125 
L 99.494907 -28.72467 
L 99.577131 -29.539216 
L 99.581224 -30.353761 
L 99.58125 -31.168307 
L 99.58125 -31.982852 
L 99.58125 -32.797398 
L 99.58125 -33.611943 
L 99.58125 -34.426489 
L 99.58125 -35.241034 
L 99.58125 -36.05558 
L 99.58125 -36.870125 
L 99.58125 -37.68467 
L 99.58125 -38.499216 
L 99.58125 -39.313761 
L 99.58125 -40.128307 
L 99.58125 -40.942852 
L 99.58125 -41.757398 
L 99.58125 -42.571943 
L 99.58125 -43.386489 
L 99.58125 -44.201034 
L 99.58125 -45.01558 
L 99.58125 -45.830125 
L 99.58125 -46.64467 
L 99.58125 -47.459216 
L 99.58125 -48.273761 
L 99.58125 -49.088307 
L 99.58125 -49.902852 
L 99.58125 -50.717398 
L 99.58125 -51.531943 
L 99.58125 -52.346489 
L 99.58125 -53.161034 
L 99.58125 -53.97558 
L 99.58125 -54.790125 
L 99.58125 -55.60467 
L 99.58125 -56.419216 
L 99.58125 -57.233761 
L 99.58125 -58.048307 
L 99.58125 -58.862852 
L 99.58125 -59.677398 
L 99.58125 -60.491943 
L 99.58125 -61.306489 
L 99.58125 -62.121034 
L 99.58125 -62.93558 
L 99.58125 -63.750125 
L 99.58125 -64.56467 
L 99.58125 -65.379216 
L 99.58125 -66.193761 
L 99.58125 -67.008307 
L 99.58125 -67.822852 
L 99.58125 -68.637398 
L 99.58125 -69.451943 
L 99.58125 -70.266489 
L 99.58125 -71.081034 
L 99.58125 -71.89558 
L 99.58125 -72.710125 
L 99.58125 -73.52467 
L 99.58125 -74.339216 
L 99.58125 -75.153761 
L 99.58125 -75.968307 
L 99.58125 -76.782852 
L 99.58125 -77.597398 
L 99.58125 -78.411943 
L 99.58125 -79.226489 
L 99.58125 -80.041034 
L 99.58125 -80.85558 
L 99.58125 -81.670125 
L 99.58125 -82.48467 
L 99.58125 -83.299216 
L 99.58125 -84.113761 
L 99.58125 -84.928307 
L 99.58125 -85.742852 
L 99.58125 -86.557398 
L 99.58125 -87.371943 
L 99.58125 -88.186489 
L 99.58125 -89.001034 
L 99.58125 -89.81558 
L 99.58125 -90.630125 
L 99.58125 -91.44467 
L 99.58125 -92.259216 
L 99.58125 -93.073761 
L 99.58125 -93.888307 
L 99.58125 -94.702852 
L 99.58125 -95.517398 
L 99.58125 -96.331943 
L 99.58125 -97.146489 
L 99.58125 -97.961034 
L 99.58125 -98.77558 
L 99.58125 -99.590125 
L 99.58125 -100.40467 
L 99.58125 -101.219216 
L 99.58125 -102.033761 
L 99.58125 -102.848307 
L 99.58125 -103.662852 
L 99.58125 -104.477398 
L 99.581246 -105.291943 
L 99.576404 -106.106489 
L 98.808931 -106.921034 
L 83.391418 -107.73558 
L 54.94125 -108.550125 
L 144.22125 -108.550125 
L 144.22125 -108.550125 
L 115.771082 -107.73558 
L 100.353569 -106.921034 
L 99.586096 -106.106489 
L 99.581254 -105.291943 
L 99.58125 -104.477398 
L 99.58125 -103.662852 
L 99.58125 -102.848307 
L 99.58125 -102.033761 
L 99.58125 -101.219216 
L 99.58125 -100.40467 
L 99.58125 -99.590125 
L 99.58125 -98.77558 
L 99.58125 -97.961034 
L 99.58125 -97.146489 
L 99.58125 -96.331943 
L 99.58125 -95.517398 
L 99.58125 -94.702852 
L 99.58125 -93.888307 
L 99.58125 -93.073761 
L 99.58125 -92.259216 
L 99.58125 -91.44467 
L 99.58125 -90.630125 
L 99.58125 -89.81558 
L 99.58125 -89.001034 
L 99.58125 -88.186489 
L 99.58125 -87.371943 
L 99.58125 -86.557398 
L 99.58125 -85.742852 
L 99.58125 -84.928307 
L 99.58125 -84.113761 
L 99.58125 -83.299216 
L 99.58125 -82.48467 
L 99.58125 -81.670125 
L 99.58125 -80.85558 
L 99.58125 -80.041034 
L 99.58125 -79.226489 
L 99.58125 -78.411943 
L 99.58125 -77.597398 
L 99.58125 -76.782852 
L 99.58125 -75.968307 
L 99.58125 -75.153761 
L 99.58125 -74.339216 
L 99.58125 -73.52467 
L 99.58125 -72.710125 
L 99.58125 -71.89558 
L 99.58125 -71.081034 
L 99.58125 -70.266489 
L 99.58125 -69.451943 
L 99.58125 -68.637398 
L 99.58125 -67.822852 
L 99.58125 -67.008307 
L 99.58125 -66.193761 
L 99.58125 -65.379216 
L 99.58125 -64.56467 
L 99.58125 -63.750125 
L 99.58125 -62.93558 
L 99.58125 -62.121034 
L 99.58125 -61.306489 
L 99.58125 -60.491943 
L 99.58125 -59.677398 
L 99.58125 -58.862852 
L 99.58125 -58.048307 
L 99.58125 -57.233761 
L 99.58125 -56.419216 
L 99.58125 -55.60467 
L 99.58125 -54.790125 
L 99.58125 -53.97558 
L 99.58125 -53.161034 
L 99.58125 -52.346489 
L 99.58125 -51.531943 
L 99.58125 -50.717398 
L 99.58125 -49.902852 
L 99.58125 -49.088307 
L 99.58125 -48.273761 
L 99.58125 -47.459216 
L 99.58125 -46.64467 
L 99.58125 -45.830125 
L 99.58125 -45.01558 
L 99.58125 -44.201034 
L 99.58125 -43.386489 
L 99.58125 -42.571943 
L 99.58125 -41.757398 
L 99.58125 -40.942852 
L 99.58125 -40.128307 
L 99.58125 -39.313761 
L 99.58125 -38.499216 
L 99.58125 -37.68467 
L 99.58125 -36.870125 
L 99.58125 -36.05558 
L 99.58125 -35.241034 
L 99.58125 -34.426489 
L 99.58125 -33.611943 
L 99.58125 -32.797398 
L 99.58125 -31.982852 
L 99.58125 -31.168307 
L 99.581276 -30.353761 
L 99.585369 -29.539216 
L 99.667593 -28.72467 
L 99.819322 -27.910125 
z
" style="stroke: #000000"/>
    </defs>
    <g clip-path="url(#pa149c2eeb3)">
     <use xlink:href="#m1f0c682ac9" x="0" y="119.782125" style="fill: #9286b4; stroke: #000000"/>
    </g>
   </g>
   <g id="matplotlib.axis_1">
    <g id="xtick_1">
     <g id="line2d_1">
      <defs>
       <path id="m70125b8a51" d="M 0 0 
L 0 3.5 
" style="stroke: #000000; stroke-width: 0.8"/>
      </defs>
      <g>
       <use xlink:href="#m70125b8a51" x="99.58125" y="95.904" style="stroke: #000000; stroke-width: 0.8"/>
      </g>
     </g>
     <g id="text_1">
      <!-- YuelDesign -->
      <g transform="translate(72.204688 110.502437) scale(0.1 -0.1)">
       <defs>
        <path id="DejaVuSans-59" d="M -13 4666 
L 666 4666 
L 1959 2747 
L 3244 4666 
L 3922 4666 
L 2272 2222 
L 2272 0 
L 1638 0 
L 1638 2222 
L -13 4666 
z
" transform="scale(0.015625)"/>
        <path id="DejaVuSans-75" d="M 544 1381 
L 544 3500 
L 1119 3500 
L 1119 1403 
Q 1119 906 1312 657 
Q 1506 409 1894 409 
Q 2359 409 2629 706 
Q 2900 1003 2900 1516 
L 2900 3500 
L 3475 3500 
L 3475 0 
L 2900 0 
L 2900 538 
Q 2691 219 2414 64 
Q 2138 -91 1772 -91 
Q 1169 -91 856 284 
Q 544 659 544 1381 
z
M 1991 3584 
L 1991 3584 
z
" transform="scale(0.015625)"/>
        <path id="DejaVuSans-65" d="M 3597 1894 
L 3597 1613 
L 953 1613 
Q 991 1019 1311 708 
Q 1631 397 2203 397 
Q 2534 397 2845 478 
Q 3156 559 3463 722 
L 3463 178 
Q 3153 47 2828 -22 
Q 2503 -91 2169 -91 
Q 1331 -91 842 396 
Q 353 884 353 1716 
Q 353 2575 817 3079 
Q 1281 3584 2069 3584 
Q 2775 3584 3186 3129 
Q 3597 2675 3597 1894 
z
M 3022 2063 
Q 3016 2534 2758 2815 
Q 2500 3097 2075 3097 
Q 1594 3097 1305 2825 
Q 1016 2553 972 2059 
L 3022 2063 
z
" transform="scale(0.015625)"/>
        <path id="DejaVuSans-6c" d="M 603 4863 
L 1178 4863 
L 1178 0 
L 603 0 
L 603 4863 
z
" transform="scale(0.015625)"/>
        <path id="DejaVuSans-44" d="M 1259 4147 
L 1259 519 
L 2022 519 
Q 2988 519 3436 956 
Q 3884 1394 3884 2338 
Q 3884 3275 3436 3711 
Q 2988 4147 2022 4147 
L 1259 4147 
z
M 628 4666 
L 1925 4666 
Q 3281 4666 3915 4102 
Q 4550 3538 4550 2338 
Q 4550 1131 3912 565 
Q 3275 0 1925 0 
L 628 0 
L 628 4666 
z
" transform="scale(0.015625)"/>
        <path id="DejaVuSans-73" d="M 2834 3397 
L 2834 2853 
Q 2591 2978 2328 3040 
Q 2066 3103 1784 3103 
Q 1356 3103 1142 2972 
Q 928 2841 928 2578 
Q 928 2378 1081 2264 
Q 1234 2150 1697 2047 
L 1894 2003 
Q 2506 1872 2764 1633 
Q 3022 1394 3022 966 
Q 3022 478 2636 193 
Q 2250 -91 1575 -91 
Q 1294 -91 989 -36 
Q 684 19 347 128 
L 347 722 
Q 666 556 975 473 
Q 1284 391 1588 391 
Q 1994 391 2212 530 
Q 2431 669 2431 922 
Q 2431 1156 2273 1281 
Q 2116 1406 1581 1522 
L 1381 1569 
Q 847 1681 609 1914 
Q 372 2147 372 2553 
Q 372 3047 722 3315 
Q 1072 3584 1716 3584 
Q 2034 3584 2315 3537 
Q 2597 3491 2834 3397 
z
" transform="scale(0.015625)"/>
        <path id="DejaVuSans-69" d="M 603 3500 
L 1178 3500 
L 1178 0 
L 603 0 
L 603 3500 
z
M 603 4863 
L 1178 4863 
L 1178 4134 
L 603 4134 
L 603 4863 
z
" transform="scale(0.015625)"/>
        <path id="DejaVuSans-67" d="M 2906 1791 
Q 2906 2416 2648 2759 
Q 2391 3103 1925 3103 
Q 1463 3103 1205 2759 
Q 947 2416 947 1791 
Q 947 1169 1205 825 
Q 1463 481 1925 481 
Q 2391 481 2648 825 
Q 2906 1169 2906 1791 
z
M 3481 434 
Q 3481 -459 3084 -895 
Q 2688 -1331 1869 -1331 
Q 1566 -1331 1297 -1286 
Q 1028 -1241 775 -1147 
L 775 -588 
Q 1028 -725 1275 -790 
Q 1522 -856 1778 -856 
Q 2344 -856 2625 -561 
Q 2906 -266 2906 331 
L 2906 616 
Q 2728 306 2450 153 
Q 2172 0 1784 0 
Q 1141 0 747 490 
Q 353 981 353 1791 
Q 353 2603 747 3093 
Q 1141 3584 1784 3584 
Q 2172 3584 2450 3431 
Q 2728 3278 2906 2969 
L 2906 3500 
L 3481 3500 
L 3481 434 
z
" transform="scale(0.015625)"/>
        <path id="DejaVuSans-6e" d="M 3513 2113 
L 3513 0 
L 2938 0 
L 2938 2094 
Q 2938 2591 2744 2837 
Q 2550 3084 2163 3084 
Q 1697 3084 1428 2787 
Q 1159 2491 1159 1978 
L 1159 0 
L 581 0 
L 581 3500 
L 1159 3500 
L 1159 2956 
Q 1366 3272 1645 3428 
Q 1925 3584 2291 3584 
Q 2894 3584 3203 3211 
Q 3513 2838 3513 2113 
z
" transform="scale(0.015625)"/>
       </defs>
       <use xlink:href="#DejaVuSans-59"/>
       <use xlink:href="#DejaVuSans-75" x="49.583984"/>
       <use xlink:href="#DejaVuSans-65" x="112.962891"/>
       <use xlink:href="#DejaVuSans-6c" x="174.486328"/>
       <use xlink:href="#DejaVuSans-44" x="202.269531"/>
       <use xlink:href="#DejaVuSans-65" x="279.271484"/>
       <use xlink:href="#DejaVuSans-73" x="340.794922"/>
       <use xlink:href="#DejaVuSans-69" x="392.894531"/>
       <use xlink:href="#DejaVuSans-67" x="420.677734"/>
       <use xlink:href="#DejaVuSans-6e" x="484.154297"/>
      </g>
     </g>
    </g>
   </g>
   <g id="matplotlib.axis_2">
    <g id="ytick_1">
     <g id="line2d_2">
      <defs>
       <path id="m117140fa54" d="M 0 0 
L -3.5 0 
" style="stroke: #000000; stroke-width: 0.8"/>
      </defs>
      <g>
       <use xlink:href="#m117140fa54" x="43.78125" y="91.872" style="stroke: #000000; stroke-width: 0.8"/>
      </g>
     </g>
     <g id="text_2">
      <!-- 0.0 -->
      <g transform="translate(20.878125 95.671219) scale(0.1 -0.1)">
       <defs>
        <path id="DejaVuSans-30" d="M 2034 4250 
Q 1547 4250 1301 3770 
Q 1056 3291 1056 2328 
Q 1056 1369 1301 889 
Q 1547 409 2034 409 
Q 2525 409 2770 889 
Q 3016 1369 3016 2328 
Q 3016 3291 2770 3770 
Q 2525 4250 2034 4250 
z
M 2034 4750 
Q 2819 4750 3233 4129 
Q 3647 3509 3647 2328 
Q 3647 1150 3233 529 
Q 2819 -91 2034 -91 
Q 1250 -91 836 529 
Q 422 1150 422 2328 
Q 422 3509 836 4129 
Q 1250 4750 2034 4750 
z
" transform="scale(0.015625)"/>
        <path id="DejaVuSans-2e" d="M 684 794 
L 1344 794 
L 1344 0 
L 684 0 
L 684 794 
z
" transform="scale(0.015625)"/>
       </defs>
       <use xlink:href="#DejaVuSans-30"/>
       <use xlink:href="#DejaVuSans-2e" x="63.623047"/>
       <use xlink:href="#DejaVuSans-30" x="95.410156"/>
      </g>
     </g>
    </g>
    <g id="ytick_2">
     <g id="line2d_3">
      <g>
       <use xlink:href="#m117140fa54" x="43.78125" y="51.552" style="stroke: #000000; stroke-width: 0.8"/>
      </g>
     </g>
     <g id="text_3">
      <!-- 0.5 -->
      <g transform="translate(20.878125 55.351219) scale(0.1 -0.1)">
       <defs>
        <path id="DejaVuSans-35" d="M 691 4666 
L 3169 4666 
L 3169 4134 
L 1269 4134 
L 1269 2991 
Q 1406 3038 1543 3061 
Q 1681 3084 1819 3084 
Q 2600 3084 3056 2656 
Q 3513 2228 3513 1497 
Q 3513 744 3044 326 
Q 2575 -91 1722 -91 
Q 1428 -91 1123 -41 
Q 819 9 494 109 
L 494 744 
Q 775 591 1075 516 
Q 1375 441 1709 441 
Q 2250 441 2565 725 
Q 2881 1009 2881 1497 
Q 2881 1984 2565 2268 
Q 2250 2553 1709 2553 
Q 1456 2553 1204 2497 
Q 953 2441 691 2322 
L 691 4666 
z
" transform="scale(0.015625)"/>
       </defs>
       <use xlink:href="#DejaVuSans-30"/>
       <use xlink:href="#DejaVuSans-2e" x="63.623047"/>
       <use xlink:href="#DejaVuSans-35" x="95.410156"/>
      </g>
     </g>
    </g>
    <g id="ytick_3">
     <g id="line2d_4">
      <g>
       <use xlink:href="#m117140fa54" x="43.78125" y="11.232" style="stroke: #000000; stroke-width: 0.8"/>
      </g>
     </g>
     <g id="text_4">
      <!-- 1.0 -->
      <g transform="translate(20.878125 15.031219) scale(0.1 -0.1)">
       <defs>
        <path id="DejaVuSans-31" d="M 794 531 
L 1825 531 
L 1825 4091 
L 703 3866 
L 703 4441 
L 1819 4666 
L 2450 4666 
L 2450 531 
L 3481 531 
L 3481 0 
L 794 0 
L 794 531 
z
" transform="scale(0.015625)"/>
       </defs>
       <use xlink:href="#DejaVuSans-31"/>
       <use xlink:href="#DejaVuSans-2e" x="63.623047"/>
       <use xlink:href="#DejaVuSans-30" x="95.410156"/>
      </g>
     </g>
    </g>
    <g id="text_5">
     <!-- Connectivity -->
     <g transform="translate(14.798438 82.88325) rotate(-90) scale(0.1 -0.1)">
      <defs>
       <path id="DejaVuSans-43" d="M 4122 4306 
L 4122 3641 
Q 3803 3938 3442 4084 
Q 3081 4231 2675 4231 
Q 1875 4231 1450 3742 
Q 1025 3253 1025 2328 
Q 1025 1406 1450 917 
Q 1875 428 2675 428 
Q 3081 428 3442 575 
Q 3803 722 4122 1019 
L 4122 359 
Q 3791 134 3420 21 
Q 3050 -91 2638 -91 
Q 1578 -91 968 557 
Q 359 1206 359 2328 
Q 359 3453 968 4101 
Q 1578 4750 2638 4750 
Q 3056 4750 3426 4639 
Q 3797 4528 4122 4306 
z
" transform="scale(0.015625)"/>
       <path id="DejaVuSans-6f" d="M 1959 3097 
Q 1497 3097 1228 2736 
Q 959 2375 959 1747 
Q 959 1119 1226 758 
Q 1494 397 1959 397 
Q 2419 397 2687 759 
Q 2956 1122 2956 1747 
Q 2956 2369 2687 2733 
Q 2419 3097 1959 3097 
z
M 1959 3584 
Q 2709 3584 3137 3096 
Q 3566 2609 3566 1747 
Q 3566 888 3137 398 
Q 2709 -91 1959 -91 
Q 1206 -91 779 398 
Q 353 888 353 1747 
Q 353 2609 779 3096 
Q 1206 3584 1959 3584 
z
" transform="scale(0.015625)"/>
       <path id="DejaVuSans-63" d="M 3122 3366 
L 3122 2828 
Q 2878 2963 2633 3030 
Q 2388 3097 2138 3097 
Q 1578 3097 1268 2742 
Q 959 2388 959 1747 
Q 959 1106 1268 751 
Q 1578 397 2138 397 
Q 2388 397 2633 464 
Q 2878 531 3122 666 
L 3122 134 
Q 2881 22 2623 -34 
Q 2366 -91 2075 -91 
Q 1284 -91 818 406 
Q 353 903 353 1747 
Q 353 2603 823 3093 
Q 1294 3584 2113 3584 
Q 2378 3584 2631 3529 
Q 2884 3475 3122 3366 
z
" transform="scale(0.015625)"/>
       <path id="DejaVuSans-74" d="M 1172 4494 
L 1172 3500 
L 2356 3500 
L 2356 3053 
L 1172 3053 
L 1172 1153 
Q 1172 725 1289 603 
Q 1406 481 1766 481 
L 2356 481 
L 2356 0 
L 1766 0 
Q 1100 0 847 248 
Q 594 497 594 1153 
L 594 3053 
L 172 3053 
L 172 3500 
L 594 3500 
L 594 4494 
L 1172 4494 
z
" transform="scale(0.015625)"/>
       <path id="DejaVuSans-76" d="M 191 3500 
L 800 3500 
L 1894 563 
L 2988 3500 
L 3597 3500 
L 2284 0 
L 1503 0 
L 191 3500 
z
" transform="scale(0.015625)"/>
       <path id="DejaVuSans-79" d="M 2059 -325 
Q 1816 -950 1584 -1140 
Q 1353 -1331 966 -1331 
L 506 -1331 
L 506 -850 
L 844 -850 
Q 1081 -850 1212 -737 
Q 1344 -625 1503 -206 
L 1606 56 
L 191 3500 
L 800 3500 
L 1894 763 
L 2988 3500 
L 3597 3500 
L 2059 -325 
z
" transform="scale(0.015625)"/>
      </defs>
      <use xlink:href="#DejaVuSans-43"/>
      <use xlink:href="#DejaVuSans-6f" x="69.824219"/>
      <use xlink:href="#DejaVuSans-6e" x="131.005859"/>
      <use xlink:href="#DejaVuSans-6e" x="194.384766"/>
      <use xlink:href="#DejaVuSans-65" x="257.763672"/>
      <use xlink:href="#DejaVuSans-63" x="319.287109"/>
      <use xlink:href="#DejaVuSans-74" x="374.267578"/>
      <use xlink:href="#DejaVuSans-69" x="413.476562"/>
      <use xlink:href="#DejaVuSans-76" x="441.259766"/>
      <use xlink:href="#DejaVuSans-69" x="500.439453"/>
      <use xlink:href="#DejaVuSans-74" x="528.222656"/>
      <use xlink:href="#DejaVuSans-79" x="567.431641"/>
     </g>
    </g>
   </g>
   <g id="patch_3">
    <path d="M 43.78125 95.904 
L 43.78125 7.2 
" style="fill: none; stroke: #000000; stroke-width: 0.8; stroke-linejoin: miter; stroke-linecap: square"/>
   </g>
   <g id="patch_4">
    <path d="M 43.78125 95.904 
L 155.38125 95.904 
" style="fill: none; stroke: #000000; stroke-width: 0.8; stroke-linejoin: miter; stroke-linecap: square"/>
   </g>
  </g>
 </g>
 <defs>
  <clipPath id="pa149c2eeb3">
   <rect x="43.78125" y="7.2" width="111.6" height="88.704"/>
  </clipPath>
 </defs>
</svg>
