<?xml version="1.0" encoding="utf-8" standalone="no"?>
<!DOCTYPE svg PUBLIC "-//W3C//DTD SVG 1.1//EN"
  "http://www.w3.org/Graphics/SVG/1.1/DTD/svg11.dtd">
<svg xmlns:xlink="http://www.w3.org/1999/xlink" width="153.040625pt" height="133.46025pt" viewBox="0 0 153.040625 133.46025" xmlns="http://www.w3.org/2000/svg" version="1.1">
 <metadata>
  <rdf:RDF xmlns:dc="http://purl.org/dc/elements/1.1/" xmlns:cc="http://creativecommons.org/ns#" xmlns:rdf="http://www.w3.org/1999/02/22-rdf-syntax-ns#">
   <cc:Work>
    <dc:type rdf:resource="http://purl.org/dc/dcmitype/StillImage"/>
    <dc:date>2025-05-27T15:51:41.512089</dc:date>
    <dc:format>image/svg+xml</dc:format>
    <dc:creator>
     <cc:Agent>
      <dc:title>Matplotlib v3.9.4, https://matplotlib.org/</dc:title>
     </cc:Agent>
    </dc:creator>
   </cc:Work>
  </rdf:RDF>
 </metadata>
 <defs>
  <style type="text/css">*{stroke-linejoin: round; stroke-linecap: butt}</style>
 </defs>
 <g id="figure_1">
  <g id="patch_1">
   <path d="M 0 133.46025 
L 153.040625 133.46025 
L 153.040625 0 
L 0 0 
z
" style="fill: #ffffff"/>
  </g>
  <g id="axes_1">
   <g id="patch_2">
    <path d="M 34.240625 95.904 
L 145.840625 95.904 
L 145.840625 7.2 
L 34.240625 7.2 
z
" style="fill: #ffffff"/>
   </g>
   <g id="PolyCollection_1">
    <defs>
     <path id="m91309f7a33" d="M 43.43172 -37.556556 
L 43.43172 -37.55625 
L 43.868948 -37.55625 
L 44.306176 -37.55625 
L 44.743404 -37.55625 
L 45.180632 -37.55625 
L 45.61786 -37.55625 
L 46.055088 -37.55625 
L 46.492315 -37.55625 
L 46.929543 -37.55625 
L 47.366771 -37.55625 
L 47.803999 -37.55625 
L 48.241227 -37.55625 
L 48.678455 -37.55625 
L 49.115683 -37.55625 
L 49.552911 -37.55625 
L 49.990138 -37.55625 
L 50.427366 -37.55625 
L 50.864594 -37.55625 
L 51.301822 -37.55625 
L 51.73905 -37.55625 
L 52.176278 -37.55625 
L 52.613506 -37.55625 
L 53.050734 -37.55625 
L 53.487961 -37.55625 
L 53.925189 -37.55625 
L 54.362417 -37.55625 
L 54.799645 -37.55625 
L 55.236873 -37.55625 
L 55.674101 -37.55625 
L 56.111329 -37.55625 
L 56.548556 -37.55625 
L 56.985784 -37.55625 
L 57.423012 -37.55625 
L 57.86024 -37.55625 
L 58.297468 -37.55625 
L 58.734696 -37.55625 
L 59.171924 -37.55625 
L 59.609152 -37.55625 
L 60.046379 -37.55625 
L 60.483607 -37.55625 
L 60.920835 -37.55625 
L 61.358063 -37.55625 
L 61.795291 -37.55625 
L 62.232519 -37.55625 
L 62.669747 -37.55625 
L 63.106975 -37.55625 
L 63.544202 -37.55625 
L 63.98143 -37.55625 
L 64.418658 -37.55625 
L 64.855886 -37.55625 
L 65.293114 -37.55625 
L 65.730342 -37.55625 
L 66.16757 -37.55625 
L 66.604798 -37.55625 
L 67.042025 -37.55625 
L 67.479253 -37.55625 
L 67.916481 -37.55625 
L 68.353709 -37.55625 
L 68.790937 -37.55625 
L 69.228165 -37.55625 
L 69.665393 -37.55625 
L 70.102621 -37.55625 
L 70.539848 -37.55625 
L 70.977076 -37.55625 
L 71.414304 -37.55625 
L 71.851532 -37.55625 
L 72.28876 -37.55625 
L 72.725988 -37.55625 
L 73.163216 -37.55625 
L 73.600443 -37.55625 
L 74.037671 -37.55625 
L 74.474899 -37.55625 
L 74.912127 -37.55625 
L 75.349355 -37.55625 
L 75.786583 -37.55625 
L 76.223811 -37.55625 
L 76.661039 -37.55625 
L 77.098266 -37.55625 
L 77.535494 -37.55625 
L 77.972722 -37.55625 
L 78.40995 -37.55625 
L 78.847178 -37.55625 
L 79.284406 -37.55625 
L 79.721634 -37.55625 
L 80.158862 -37.55625 
L 80.596089 -37.55625 
L 81.033317 -37.55625 
L 81.470545 -37.55625 
L 81.907773 -37.55625 
L 82.345001 -37.55625 
L 82.782229 -37.55625 
L 83.219457 -37.55625 
L 83.656685 -37.55625 
L 84.093912 -37.55625 
L 84.53114 -37.55625 
L 84.968368 -37.55625 
L 85.405596 -37.55625 
L 85.842824 -37.55625 
L 86.280052 -37.55625 
L 86.71728 -37.55625 
L 87.154508 -37.55625 
L 87.591735 -37.55625 
L 88.028963 -37.55625 
L 88.466191 -37.55625 
L 88.903419 -37.55625 
L 89.340647 -37.55625 
L 89.777875 -37.55625 
L 90.215103 -37.55625 
L 90.65233 -37.55625 
L 91.089558 -37.55625 
L 91.526786 -37.55625 
L 91.964014 -37.55625 
L 92.401242 -37.55625 
L 92.83847 -37.55625 
L 93.275698 -37.55625 
L 93.712926 -37.55625 
L 94.150153 -37.55625 
L 94.587381 -37.55625 
L 95.024609 -37.55625 
L 95.461837 -37.55625 
L 95.899065 -37.55625 
L 96.336293 -37.55625 
L 96.773521 -37.55625 
L 97.210749 -37.55625 
L 97.647976 -37.55625 
L 98.085204 -37.55625 
L 98.522432 -37.55625 
L 98.95966 -37.55625 
L 99.396888 -37.55625 
L 99.834116 -37.55625 
L 100.271344 -37.55625 
L 100.708572 -37.55625 
L 101.145799 -37.55625 
L 101.583027 -37.55625 
L 102.020255 -37.55625 
L 102.457483 -37.55625 
L 102.894711 -37.55625 
L 103.331939 -37.55625 
L 103.769167 -37.55625 
L 104.206395 -37.55625 
L 104.643622 -37.55625 
L 105.08085 -37.55625 
L 105.518078 -37.55625 
L 105.955306 -37.55625 
L 106.392534 -37.55625 
L 106.829762 -37.55625 
L 107.26699 -37.55625 
L 107.704217 -37.55625 
L 108.141445 -37.55625 
L 108.578673 -37.55625 
L 109.015901 -37.55625 
L 109.453129 -37.55625 
L 109.890357 -37.55625 
L 110.327585 -37.55625 
L 110.764813 -37.55625 
L 111.20204 -37.55625 
L 111.639268 -37.55625 
L 112.076496 -37.55625 
L 112.513724 -37.55625 
L 112.950952 -37.55625 
L 113.38818 -37.55625 
L 113.825408 -37.55625 
L 114.262636 -37.55625 
L 114.699863 -37.55625 
L 115.137091 -37.55625 
L 115.574319 -37.55625 
L 116.011547 -37.55625 
L 116.448775 -37.55625 
L 116.886003 -37.55625 
L 117.323231 -37.55625 
L 117.760459 -37.55625 
L 118.197686 -37.55625 
L 118.634914 -37.55625 
L 119.072142 -37.55625 
L 119.50937 -37.55625 
L 119.946598 -37.55625 
L 120.383826 -37.55625 
L 120.821054 -37.55625 
L 121.258282 -37.55625 
L 121.695509 -37.55625 
L 122.132737 -37.55625 
L 122.569965 -37.55625 
L 123.007193 -37.55625 
L 123.444421 -37.55625 
L 123.881649 -37.55625 
L 124.318877 -37.55625 
L 124.756104 -37.55625 
L 125.193332 -37.55625 
L 125.63056 -37.55625 
L 126.067788 -37.55625 
L 126.505016 -37.55625 
L 126.942244 -37.55625 
L 127.379472 -37.55625 
L 127.8167 -37.55625 
L 128.253927 -37.55625 
L 128.691155 -37.55625 
L 129.128383 -37.55625 
L 129.565611 -37.55625 
L 130.002839 -37.55625 
L 130.440067 -37.55625 
L 130.440067 -37.556793 
L 130.440067 -37.556793 
L 130.002839 -37.557476 
L 129.565611 -37.55888 
L 129.128383 -37.561617 
L 128.691155 -37.566688 
L 128.253927 -37.57565 
L 127.8167 -37.590783 
L 127.379472 -37.615259 
L 126.942244 -37.653234 
L 126.505016 -37.709808 
L 126.067788 -37.790748 
L 125.63056 -37.901896 
L 125.193332 -38.048236 
L 124.756104 -38.232772 
L 124.318877 -38.455487 
L 123.881649 -38.712812 
L 123.444421 -38.997984 
L 123.007193 -39.302407 
L 122.569965 -39.617747 
L 122.132737 -39.93811 
L 121.695509 -40.261482 
L 121.258282 -40.589802 
L 120.821054 -40.92755 
L 120.383826 -41.279325 
L 119.946598 -41.647395 
L 119.50937 -42.030269 
L 119.072142 -42.422967 
L 118.634914 -42.818988 
L 118.197686 -43.213226 
L 117.760459 -43.604697 
L 117.323231 -43.997952 
L 116.886003 -44.40257 
L 116.448775 -44.830788 
L 116.011547 -45.293896 
L 115.574319 -45.798457 
L 115.137091 -46.343359 
L 114.699863 -46.918494 
L 114.262636 -47.505253 
L 113.825408 -48.078518 
L 113.38818 -48.609564 
L 112.950952 -49.069364 
L 112.513724 -49.432218 
L 112.076496 -49.679738 
L 111.639268 -49.804902 
L 111.20204 -49.815111 
L 110.764813 -49.732688 
L 110.327585 -49.591629 
L 109.890357 -49.430875 
L 109.453129 -49.28617 
L 109.015901 -49.18366 
L 108.578673 -49.137924 
L 108.141445 -49.155248 
L 107.704217 -49.240605 
L 107.26699 -49.405188 
L 106.829762 -49.671204 
L 106.392534 -50.07176 
L 105.955306 -50.64523 
L 105.518078 -51.424771 
L 105.08085 -52.424532 
L 104.643622 -53.625162 
L 104.206395 -54.96277 
L 103.769167 -56.326905 
L 103.331939 -57.572643 
L 102.894711 -58.54813 
L 102.457483 -59.132268 
L 102.020255 -59.270822 
L 101.583027 -58.9971 
L 101.145799 -58.427843 
L 100.708572 -57.734654 
L 100.271344 -57.101295 
L 99.834116 -56.682354 
L 99.396888 -56.576719 
L 98.95966 -56.821419 
L 98.522432 -57.402288 
L 98.085204 -58.271753 
L 97.647976 -59.363573 
L 97.210749 -60.59899 
L 96.773521 -61.885813 
L 96.336293 -63.117503 
L 95.899065 -64.180201 
L 95.461837 -64.970986 
L 95.024609 -65.422925 
L 94.587381 -65.526232 
L 94.150153 -65.334268 
L 93.712926 -64.949233 
L 93.275698 -64.49218 
L 92.83847 -64.069892 
L 92.401242 -63.752733 
L 91.964014 -63.571914 
L 91.526786 -63.534999 
L 91.089558 -63.649955 
L 90.65233 -63.944771 
L 90.215103 -64.472561 
L 89.777875 -65.29911 
L 89.340647 -66.477427 
L 88.903419 -68.018922 
L 88.466191 -69.871749 
L 88.028963 -71.914225 
L 87.591735 -73.966514 
L 87.154508 -75.818823 
L 86.71728 -77.270285 
L 86.280052 -78.169853 
L 85.842824 -78.44918 
L 85.405596 -78.138041 
L 84.968368 -77.356291 
L 84.53114 -76.282728 
L 84.093912 -75.109165 
L 83.656685 -73.994118 
L 83.219457 -73.031493 
L 82.782229 -72.244152 
L 82.345001 -71.602409 
L 81.907773 -71.058121 
L 81.470545 -70.580684 
L 81.033317 -70.183621 
L 80.596089 -69.937447 
L 80.158862 -69.971459 
L 79.721634 -70.469708 
L 79.284406 -71.662852 
L 78.847178 -73.810266 
L 78.40995 -77.161076 
L 77.972722 -81.885211 
L 77.535494 -87.979525 
L 77.098266 -95.175948 
L 76.661039 -102.896941 
L 76.223811 -110.303012 
L 75.786583 -116.448741 
L 75.349355 -120.514659 
L 74.912127 -122.03625 
L 74.474899 -121.037284 
L 74.037671 -118.007548 
L 73.600443 -113.732254 
L 73.163216 -109.047142 
L 72.725988 -104.622647 
L 72.28876 -100.857509 
L 71.851532 -97.902138 
L 71.414304 -95.769641 
L 70.977076 -94.459763 
L 70.539848 -94.029503 
L 70.102621 -94.582581 
L 69.665393 -96.19431 
L 69.228165 -98.817401 
L 68.790937 -102.218263 
L 68.353709 -105.975665 
L 67.916481 -109.545659 
L 67.479253 -112.371303 
L 67.042025 -114.002438 
L 66.604798 -114.19205 
L 66.16757 -112.947843 
L 65.730342 -110.532782 
L 65.293114 -107.41975 
L 64.855886 -104.210529 
L 64.418658 -101.530253 
L 63.98143 -99.909681 
L 63.544202 -99.672042 
L 63.106975 -100.847681 
L 62.669747 -103.143323 
L 62.232519 -105.986709 
L 61.795291 -108.648276 
L 61.358063 -110.413296 
L 60.920835 -110.75293 
L 60.483607 -109.436079 
L 60.046379 -106.54394 
L 59.609152 -102.389191 
L 59.171924 -97.381729 
L 58.734696 -91.901364 
L 58.297468 -86.225544 
L 57.86024 -80.525909 
L 57.423012 -74.912282 
L 56.985784 -69.485344 
L 56.548556 -64.365462 
L 56.111329 -59.686681 
L 55.674101 -55.566644 
L 55.236873 -52.07389 
L 54.799645 -49.210835 
L 54.362417 -46.919175 
L 53.925189 -45.102476 
L 53.487961 -43.654365 
L 53.050734 -42.481281 
L 52.613506 -41.513962 
L 52.176278 -40.70784 
L 51.73905 -40.036506 
L 51.301822 -39.483301 
L 50.864594 -39.034731 
L 50.427366 -38.677122 
L 49.990138 -38.39609 
L 49.552911 -38.177538 
L 49.115683 -38.008877 
L 48.678455 -37.879735 
L 48.241227 -37.781982 
L 47.803999 -37.709295 
L 47.366771 -37.656599 
L 46.929543 -37.619623 
L 46.492315 -37.594664 
L 46.055088 -37.578538 
L 45.61786 -37.568599 
L 45.180632 -37.562773 
L 44.743404 -37.559529 
L 44.306176 -37.557817 
L 43.868948 -37.556961 
L 43.43172 -37.556556 
z
" style="stroke: #aaaaaa; stroke-width: 2"/>
    </defs>
    <g clip-path="url(#p2f5eb96ae9)">
     <use xlink:href="#m91309f7a33" x="0" y="133.46025" style="fill: #aaaaaa; fill-opacity: 0.6; stroke: #aaaaaa; stroke-width: 2"/>
    </g>
   </g>
   <g id="PolyCollection_2">
    <defs>
     <path id="m37538336de" d="M 40.957144 -37.556863 
L 40.957144 -37.55625 
L 41.445568 -37.55625 
L 41.933992 -37.55625 
L 42.422416 -37.55625 
L 42.91084 -37.55625 
L 43.399265 -37.55625 
L 43.887689 -37.55625 
L 44.376113 -37.55625 
L 44.864537 -37.55625 
L 45.352961 -37.55625 
L 45.841385 -37.55625 
L 46.329809 -37.55625 
L 46.818233 -37.55625 
L 47.306657 -37.55625 
L 47.795081 -37.55625 
L 48.283505 -37.55625 
L 48.771929 -37.55625 
L 49.260353 -37.55625 
L 49.748778 -37.55625 
L 50.237202 -37.55625 
L 50.725626 -37.55625 
L 51.21405 -37.55625 
L 51.702474 -37.55625 
L 52.190898 -37.55625 
L 52.679322 -37.55625 
L 53.167746 -37.55625 
L 53.65617 -37.55625 
L 54.144594 -37.55625 
L 54.633018 -37.55625 
L 55.121442 -37.55625 
L 55.609866 -37.55625 
L 56.098291 -37.55625 
L 56.586715 -37.55625 
L 57.075139 -37.55625 
L 57.563563 -37.55625 
L 58.051987 -37.55625 
L 58.540411 -37.55625 
L 59.028835 -37.55625 
L 59.517259 -37.55625 
L 60.005683 -37.55625 
L 60.494107 -37.55625 
L 60.982531 -37.55625 
L 61.470955 -37.55625 
L 61.959379 -37.55625 
L 62.447803 -37.55625 
L 62.936228 -37.55625 
L 63.424652 -37.55625 
L 63.913076 -37.55625 
L 64.4015 -37.55625 
L 64.889924 -37.55625 
L 65.378348 -37.55625 
L 65.866772 -37.55625 
L 66.355196 -37.55625 
L 66.84362 -37.55625 
L 67.332044 -37.55625 
L 67.820468 -37.55625 
L 68.308892 -37.55625 
L 68.797316 -37.55625 
L 69.285741 -37.55625 
L 69.774165 -37.55625 
L 70.262589 -37.55625 
L 70.751013 -37.55625 
L 71.239437 -37.55625 
L 71.727861 -37.55625 
L 72.216285 -37.55625 
L 72.704709 -37.55625 
L 73.193133 -37.55625 
L 73.681557 -37.55625 
L 74.169981 -37.55625 
L 74.658405 -37.55625 
L 75.146829 -37.55625 
L 75.635253 -37.55625 
L 76.123678 -37.55625 
L 76.612102 -37.55625 
L 77.100526 -37.55625 
L 77.58895 -37.55625 
L 78.077374 -37.55625 
L 78.565798 -37.55625 
L 79.054222 -37.55625 
L 79.542646 -37.55625 
L 80.03107 -37.55625 
L 80.519494 -37.55625 
L 81.007918 -37.55625 
L 81.496342 -37.55625 
L 81.984766 -37.55625 
L 82.473191 -37.55625 
L 82.961615 -37.55625 
L 83.450039 -37.55625 
L 83.938463 -37.55625 
L 84.426887 -37.55625 
L 84.915311 -37.55625 
L 85.403735 -37.55625 
L 85.892159 -37.55625 
L 86.380583 -37.55625 
L 86.869007 -37.55625 
L 87.357431 -37.55625 
L 87.845855 -37.55625 
L 88.334279 -37.55625 
L 88.822704 -37.55625 
L 89.311128 -37.55625 
L 89.799552 -37.55625 
L 90.287976 -37.55625 
L 90.7764 -37.55625 
L 91.264824 -37.55625 
L 91.753248 -37.55625 
L 92.241672 -37.55625 
L 92.730096 -37.55625 
L 93.21852 -37.55625 
L 93.706944 -37.55625 
L 94.195368 -37.55625 
L 94.683792 -37.55625 
L 95.172216 -37.55625 
L 95.660641 -37.55625 
L 96.149065 -37.55625 
L 96.637489 -37.55625 
L 97.125913 -37.55625 
L 97.614337 -37.55625 
L 98.102761 -37.55625 
L 98.591185 -37.55625 
L 99.079609 -37.55625 
L 99.568033 -37.55625 
L 100.056457 -37.55625 
L 100.544881 -37.55625 
L 101.033305 -37.55625 
L 101.521729 -37.55625 
L 102.010154 -37.55625 
L 102.498578 -37.55625 
L 102.987002 -37.55625 
L 103.475426 -37.55625 
L 103.96385 -37.55625 
L 104.452274 -37.55625 
L 104.940698 -37.55625 
L 105.429122 -37.55625 
L 105.917546 -37.55625 
L 106.40597 -37.55625 
L 106.894394 -37.55625 
L 107.382818 -37.55625 
L 107.871242 -37.55625 
L 108.359666 -37.55625 
L 108.848091 -37.55625 
L 109.336515 -37.55625 
L 109.824939 -37.55625 
L 110.313363 -37.55625 
L 110.801787 -37.55625 
L 111.290211 -37.55625 
L 111.778635 -37.55625 
L 112.267059 -37.55625 
L 112.755483 -37.55625 
L 113.243907 -37.55625 
L 113.732331 -37.55625 
L 114.220755 -37.55625 
L 114.709179 -37.55625 
L 115.197604 -37.55625 
L 115.686028 -37.55625 
L 116.174452 -37.55625 
L 116.662876 -37.55625 
L 117.1513 -37.55625 
L 117.639724 -37.55625 
L 118.128148 -37.55625 
L 118.616572 -37.55625 
L 119.104996 -37.55625 
L 119.59342 -37.55625 
L 120.081844 -37.55625 
L 120.570268 -37.55625 
L 121.058692 -37.55625 
L 121.547117 -37.55625 
L 122.035541 -37.55625 
L 122.523965 -37.55625 
L 123.012389 -37.55625 
L 123.500813 -37.55625 
L 123.989237 -37.55625 
L 124.477661 -37.55625 
L 124.966085 -37.55625 
L 125.454509 -37.55625 
L 125.942933 -37.55625 
L 126.431357 -37.55625 
L 126.919781 -37.55625 
L 127.408205 -37.55625 
L 127.896629 -37.55625 
L 128.385054 -37.55625 
L 128.873478 -37.55625 
L 129.361902 -37.55625 
L 129.850326 -37.55625 
L 130.33875 -37.55625 
L 130.827174 -37.55625 
L 131.315598 -37.55625 
L 131.804022 -37.55625 
L 132.292446 -37.55625 
L 132.78087 -37.55625 
L 133.269294 -37.55625 
L 133.757718 -37.55625 
L 134.246142 -37.55625 
L 134.734567 -37.55625 
L 135.222991 -37.55625 
L 135.711415 -37.55625 
L 136.199839 -37.55625 
L 136.688263 -37.55625 
L 137.176687 -37.55625 
L 137.665111 -37.55625 
L 138.153535 -37.55625 
L 138.153535 -37.556544 
L 138.153535 -37.556544 
L 137.665111 -37.556963 
L 137.176687 -37.557865 
L 136.688263 -37.559675 
L 136.199839 -37.563065 
L 135.711415 -37.568998 
L 135.222991 -37.578718 
L 134.734567 -37.593662 
L 134.246142 -37.615291 
L 133.757718 -37.644875 
L 133.269294 -37.683328 
L 132.78087 -37.73118 
L 132.292446 -37.788757 
L 131.804022 -37.856554 
L 131.315598 -37.935682 
L 130.827174 -38.028189 
L 130.33875 -38.137048 
L 129.850326 -38.265722 
L 129.361902 -38.417396 
L 128.873478 -38.59412 
L 128.385054 -38.796175 
L 127.896629 -39.02191 
L 127.408205 -39.268143 
L 126.919781 -39.531037 
L 126.431357 -39.807202 
L 125.942933 -40.094649 
L 125.454509 -40.393211 
L 124.966085 -40.704192 
L 124.477661 -41.029308 
L 123.989237 -41.369405 
L 123.500813 -41.723633 
L 123.012389 -42.08964 
L 122.523965 -42.464845 
L 122.035541 -42.848212 
L 121.547117 -43.241602 
L 121.058692 -43.649841 
L 120.570268 -44.07925 
L 120.081844 -44.535179 
L 119.59342 -45.019689 
L 119.104996 -45.530602 
L 118.616572 -46.062541 
L 118.128148 -46.609601 
L 117.639724 -47.168401 
L 117.1513 -47.740019 
L 116.662876 -48.329891 
L 116.174452 -48.94584 
L 115.686028 -49.595305 
L 115.197604 -50.283014 
L 114.709179 -51.009786 
L 114.220755 -51.772279 
L 113.732331 -52.56311 
L 113.243907 -53.371005 
L 112.755483 -54.181303 
L 112.267059 -54.97746 
L 111.778635 -55.743861 
L 111.290211 -56.46933 
L 110.801787 -57.149974 
L 110.313363 -57.789986 
L 109.824939 -58.399845 
L 109.336515 -58.992612 
L 108.848091 -59.579868 
L 108.359666 -60.168961 
L 107.871242 -60.762464 
L 107.382818 -61.359661 
L 106.894394 -61.959102 
L 106.40597 -62.561 
L 105.917546 -63.168607 
L 105.429122 -63.788121 
L 104.940698 -64.427059 
L 104.452274 -65.091347 
L 103.96385 -65.781881 
L 103.475426 -66.491936 
L 102.987002 -67.207014 
L 102.498578 -67.908048 
L 102.010154 -68.577191 
L 101.521729 -69.203718 
L 101.033305 -69.786925 
L 100.544881 -70.334203 
L 100.056457 -70.855011 
L 99.568033 -71.353877 
L 99.079609 -71.826281 
L 98.591185 -72.259735 
L 98.102761 -72.639476 
L 97.614337 -72.955602 
L 97.125913 -73.207704 
L 96.637489 -73.404566 
L 96.149065 -73.559292 
L 95.660641 -73.682639 
L 95.172216 -73.778148 
L 94.683792 -73.841527 
L 94.195368 -73.86447 
L 93.706944 -73.841034 
L 93.21852 -73.773639 
L 92.730096 -73.676284 
L 92.241672 -73.57396 
L 91.753248 -73.498798 
L 91.264824 -73.484289 
L 90.7764 -73.558903 
L 90.287976 -73.740056 
L 89.799552 -74.029322 
L 89.311128 -74.410167 
L 88.822704 -74.849638 
L 88.334279 -75.30465 
L 87.845855 -75.731691 
L 87.357431 -76.096888 
L 86.869007 -76.382888 
L 86.380583 -76.590467 
L 85.892159 -76.735351 
L 85.403735 -76.84265 
L 84.915311 -76.941477 
L 84.426887 -77.060858 
L 83.938463 -77.226501 
L 83.450039 -77.457505 
L 82.961615 -77.762819 
L 82.473191 -78.138343 
L 81.984766 -78.565979 
L 81.496342 -79.015502 
L 81.007918 -79.449283 
L 80.519494 -79.829093 
L 80.03107 -80.123677 
L 79.542646 -80.315457 
L 79.054222 -80.404803 
L 78.565798 -80.410824 
L 78.077374 -80.36858 
L 77.58895 -80.323408 
L 77.100526 -80.32341 
L 76.612102 -80.411041 
L 76.123678 -80.614741 
L 75.635253 -80.941919 
L 75.146829 -81.375243 
L 74.658405 -81.874238 
L 74.169981 -82.383079 
L 73.681557 -82.843383 
L 73.193133 -83.208496 
L 72.704709 -83.454653 
L 72.216285 -83.585102 
L 71.727861 -83.625776 
L 71.239437 -83.614298 
L 70.751013 -83.586582 
L 70.262589 -83.565904 
L 69.774165 -83.557901 
L 69.285741 -83.552199 
L 68.797316 -83.52888 
L 68.308892 -83.466652 
L 67.820468 -83.349889 
L 67.332044 -83.172929 
L 66.84362 -82.941202 
L 66.355196 -82.669535 
L 65.866772 -82.378264 
L 65.378348 -82.088028 
L 64.889924 -81.814491 
L 64.4015 -81.564373 
L 63.913076 -81.333951 
L 63.424652 -81.11032 
L 62.936228 -80.874803 
L 62.447803 -80.6072 
L 61.959379 -80.289519 
L 61.470955 -79.908283 
L 60.982531 -79.455159 
L 60.494107 -78.926247 
L 60.005683 -78.320633 
L 59.517259 -77.638899 
L 59.028835 -76.882042 
L 58.540411 -76.050978 
L 58.051987 -75.146399 
L 57.563563 -74.168533 
L 57.075139 -73.116521 
L 56.586715 -71.987533 
L 56.098291 -70.776195 
L 55.609866 -69.474912 
L 55.121442 -68.075292 
L 54.633018 -66.570222 
L 54.144594 -64.955835 
L 53.65617 -63.232768 
L 53.167746 -61.406575 
L 52.679322 -59.487683 
L 52.190898 -57.491449 
L 51.702474 -55.438674 
L 51.21405 -53.356439 
L 50.725626 -51.278613 
L 50.237202 -49.245193 
L 49.748778 -47.299941 
L 49.260353 -45.486437 
L 48.771929 -43.843384 
L 48.283505 -42.400284 
L 47.795081 -41.17442 
L 47.306657 -40.169633 
L 46.818233 -39.376902 
L 46.329809 -38.776454 
L 45.841385 -38.340965 
L 45.352961 -38.039313 
L 44.864537 -37.840244 
L 44.376113 -37.715361 
L 43.887689 -37.641033 
L 43.399265 -37.599137 
L 42.91084 -37.576809 
L 42.422416 -37.565573 
L 41.933992 -37.560243 
L 41.445568 -37.557863 
L 40.957144 -37.556863 
z
" style="stroke: #a2c9ae; stroke-width: 2"/>
    </defs>
    <g clip-path="url(#p2f5eb96ae9)">
     <use xlink:href="#m37538336de" x="0" y="133.46025" style="fill: #a2c9ae; fill-opacity: 0.6; stroke: #a2c9ae; stroke-width: 2"/>
    </g>
   </g>
   <g id="PolyCollection_3">
    <defs>
     <path id="md650020e3d" d="M 39.313352 -37.557116 
L 39.313352 -37.55625 
L 39.823174 -37.55625 
L 40.332996 -37.55625 
L 40.842818 -37.55625 
L 41.35264 -37.55625 
L 41.862461 -37.55625 
L 42.372283 -37.55625 
L 42.882105 -37.55625 
L 43.391927 -37.55625 
L 43.901749 -37.55625 
L 44.411571 -37.55625 
L 44.921392 -37.55625 
L 45.431214 -37.55625 
L 45.941036 -37.55625 
L 46.450858 -37.55625 
L 46.96068 -37.55625 
L 47.470502 -37.55625 
L 47.980323 -37.55625 
L 48.490145 -37.55625 
L 48.999967 -37.55625 
L 49.509789 -37.55625 
L 50.019611 -37.55625 
L 50.529433 -37.55625 
L 51.039255 -37.55625 
L 51.549076 -37.55625 
L 52.058898 -37.55625 
L 52.56872 -37.55625 
L 53.078542 -37.55625 
L 53.588364 -37.55625 
L 54.098186 -37.55625 
L 54.608007 -37.55625 
L 55.117829 -37.55625 
L 55.627651 -37.55625 
L 56.137473 -37.55625 
L 56.647295 -37.55625 
L 57.157117 -37.55625 
L 57.666938 -37.55625 
L 58.17676 -37.55625 
L 58.686582 -37.55625 
L 59.196404 -37.55625 
L 59.706226 -37.55625 
L 60.216048 -37.55625 
L 60.725869 -37.55625 
L 61.235691 -37.55625 
L 61.745513 -37.55625 
L 62.255335 -37.55625 
L 62.765157 -37.55625 
L 63.274979 -37.55625 
L 63.7848 -37.55625 
L 64.294622 -37.55625 
L 64.804444 -37.55625 
L 65.314266 -37.55625 
L 65.824088 -37.55625 
L 66.33391 -37.55625 
L 66.843731 -37.55625 
L 67.353553 -37.55625 
L 67.863375 -37.55625 
L 68.373197 -37.55625 
L 68.883019 -37.55625 
L 69.392841 -37.55625 
L 69.902662 -37.55625 
L 70.412484 -37.55625 
L 70.922306 -37.55625 
L 71.432128 -37.55625 
L 71.94195 -37.55625 
L 72.451772 -37.55625 
L 72.961593 -37.55625 
L 73.471415 -37.55625 
L 73.981237 -37.55625 
L 74.491059 -37.55625 
L 75.000881 -37.55625 
L 75.510703 -37.55625 
L 76.020524 -37.55625 
L 76.530346 -37.55625 
L 77.040168 -37.55625 
L 77.54999 -37.55625 
L 78.059812 -37.55625 
L 78.569634 -37.55625 
L 79.079456 -37.55625 
L 79.589277 -37.55625 
L 80.099099 -37.55625 
L 80.608921 -37.55625 
L 81.118743 -37.55625 
L 81.628565 -37.55625 
L 82.138387 -37.55625 
L 82.648208 -37.55625 
L 83.15803 -37.55625 
L 83.667852 -37.55625 
L 84.177674 -37.55625 
L 84.687496 -37.55625 
L 85.197318 -37.55625 
L 85.707139 -37.55625 
L 86.216961 -37.55625 
L 86.726783 -37.55625 
L 87.236605 -37.55625 
L 87.746427 -37.55625 
L 88.256249 -37.55625 
L 88.76607 -37.55625 
L 89.275892 -37.55625 
L 89.785714 -37.55625 
L 90.295536 -37.55625 
L 90.805358 -37.55625 
L 91.31518 -37.55625 
L 91.825001 -37.55625 
L 92.334823 -37.55625 
L 92.844645 -37.55625 
L 93.354467 -37.55625 
L 93.864289 -37.55625 
L 94.374111 -37.55625 
L 94.883932 -37.55625 
L 95.393754 -37.55625 
L 95.903576 -37.55625 
L 96.413398 -37.55625 
L 96.92322 -37.55625 
L 97.433042 -37.55625 
L 97.942863 -37.55625 
L 98.452685 -37.55625 
L 98.962507 -37.55625 
L 99.472329 -37.55625 
L 99.982151 -37.55625 
L 100.491973 -37.55625 
L 101.001794 -37.55625 
L 101.511616 -37.55625 
L 102.021438 -37.55625 
L 102.53126 -37.55625 
L 103.041082 -37.55625 
L 103.550904 -37.55625 
L 104.060726 -37.55625 
L 104.570547 -37.55625 
L 105.080369 -37.55625 
L 105.590191 -37.55625 
L 106.100013 -37.55625 
L 106.609835 -37.55625 
L 107.119657 -37.55625 
L 107.629478 -37.55625 
L 108.1393 -37.55625 
L 108.649122 -37.55625 
L 109.158944 -37.55625 
L 109.668766 -37.55625 
L 110.178588 -37.55625 
L 110.688409 -37.55625 
L 111.198231 -37.55625 
L 111.708053 -37.55625 
L 112.217875 -37.55625 
L 112.727697 -37.55625 
L 113.237519 -37.55625 
L 113.74734 -37.55625 
L 114.257162 -37.55625 
L 114.766984 -37.55625 
L 115.276806 -37.55625 
L 115.786628 -37.55625 
L 116.29645 -37.55625 
L 116.806271 -37.55625 
L 117.316093 -37.55625 
L 117.825915 -37.55625 
L 118.335737 -37.55625 
L 118.845559 -37.55625 
L 119.355381 -37.55625 
L 119.865202 -37.55625 
L 120.375024 -37.55625 
L 120.884846 -37.55625 
L 121.394668 -37.55625 
L 121.90449 -37.55625 
L 122.414312 -37.55625 
L 122.924133 -37.55625 
L 123.433955 -37.55625 
L 123.943777 -37.55625 
L 124.453599 -37.55625 
L 124.963421 -37.55625 
L 125.473243 -37.55625 
L 125.983064 -37.55625 
L 126.492886 -37.55625 
L 127.002708 -37.55625 
L 127.51253 -37.55625 
L 128.022352 -37.55625 
L 128.532174 -37.55625 
L 129.041995 -37.55625 
L 129.551817 -37.55625 
L 130.061639 -37.55625 
L 130.571461 -37.55625 
L 131.081283 -37.55625 
L 131.591105 -37.55625 
L 132.100927 -37.55625 
L 132.610748 -37.55625 
L 133.12057 -37.55625 
L 133.630392 -37.55625 
L 134.140214 -37.55625 
L 134.650036 -37.55625 
L 135.159858 -37.55625 
L 135.669679 -37.55625 
L 136.179501 -37.55625 
L 136.689323 -37.55625 
L 137.199145 -37.55625 
L 137.708967 -37.55625 
L 138.218789 -37.55625 
L 138.72861 -37.55625 
L 139.238432 -37.55625 
L 139.748254 -37.55625 
L 140.258076 -37.55625 
L 140.767898 -37.55625 
L 140.767898 -37.558743 
L 140.767898 -37.558743 
L 140.258076 -37.560889 
L 139.748254 -37.564623 
L 139.238432 -37.570915 
L 138.72861 -37.58119 
L 138.218789 -37.597456 
L 137.708967 -37.622432 
L 137.199145 -37.659647 
L 136.689323 -37.713492 
L 136.179501 -37.789187 
L 135.669679 -37.892654 
L 135.159858 -38.030271 
L 134.650036 -38.208532 
L 134.140214 -38.433633 
L 133.630392 -38.711039 
L 133.12057 -39.045099 
L 132.610748 -39.438775 
L 132.100927 -39.893543 
L 131.591105 -40.409481 
L 131.081283 -40.98553 
L 130.571461 -41.619847 
L 130.061639 -42.310164 
L 129.551817 -43.054027 
L 129.041995 -43.848833 
L 128.532174 -44.691644 
L 128.022352 -45.57882 
L 127.51253 -46.505627 
L 127.002708 -47.465972 
L 126.492886 -48.452452 
L 125.983064 -49.4568 
L 125.473243 -50.47072 
L 124.963421 -51.486944 
L 124.453599 -52.50027 
L 123.943777 -53.508311 
L 123.433955 -54.511721 
L 122.924133 -55.513788 
L 122.414312 -56.519441 
L 121.90449 -57.53385 
L 121.394668 -58.560869 
L 120.884846 -59.601639 
L 120.375024 -60.653596 
L 119.865202 -61.710062 
L 119.355381 -62.760522 
L 118.845559 -63.791552 
L 118.335737 -64.788274 
L 117.825915 -65.73616 
L 117.316093 -66.622888 
L 116.806271 -67.43999 
L 116.29645 -68.183976 
L 115.786628 -68.856771 
L 115.276806 -69.465333 
L 114.766984 -70.020552 
L 114.257162 -70.535614 
L 113.74734 -71.024152 
L 113.237519 -71.498528 
L 112.727697 -71.968547 
L 112.217875 -72.440771 
L 111.708053 -72.918459 
L 111.198231 -73.401998 
L 110.688409 -73.889641 
L 110.178588 -74.37833 
L 109.668766 -74.864488 
L 109.158944 -75.344725 
L 108.649122 -75.816505 
L 108.1393 -76.278821 
L 107.629478 -76.73284 
L 107.119657 -77.182424 
L 106.609835 -77.634298 
L 106.100013 -78.097659 
L 105.590191 -78.583087 
L 105.080369 -79.10079 
L 104.570547 -79.658444 
L 104.060726 -80.259005 
L 103.550904 -80.898994 
L 103.041082 -81.567634 
L 102.53126 -82.247092 
L 102.021438 -82.913815 
L 101.511616 -83.540752 
L 101.001794 -84.100101 
L 100.491973 -84.566153 
L 99.982151 -84.917856 
L 99.472329 -85.14079 
L 98.962507 -85.228385 
L 98.452685 -85.182312 
L 97.942863 -85.012061 
L 97.433042 -84.733814 
L 96.92322 -84.368748 
L 96.413398 -83.940964 
L 95.903576 -83.475266 
L 95.393754 -82.995018 
L 94.883932 -82.520304 
L 94.374111 -82.066555 
L 93.864289 -81.643767 
L 93.354467 -81.256334 
L 92.844645 -80.903462 
L 92.334823 -80.58005 
L 91.825001 -80.277897 
L 91.31518 -79.987046 
L 90.805358 -79.697106 
L 90.295536 -79.398409 
L 89.785714 -79.082907 
L 89.275892 -78.744815 
L 88.76607 -78.381021 
L 88.256249 -77.99133 
L 87.746427 -77.578566 
L 87.236605 -77.148528 
L 86.726783 -76.70969 
L 86.216961 -76.272548 
L 85.707139 -75.848535 
L 85.197318 -75.448554 
L 84.687496 -75.081311 
L 84.177674 -74.751803 
L 83.667852 -74.460328 
L 83.15803 -74.202347 
L 82.648208 -73.969338 
L 82.138387 -73.750497 
L 81.628565 -73.534946 
L 81.118743 -73.313893 
L 80.608921 -73.082246 
L 80.099099 -72.839282 
L 79.589277 -72.588266 
L 79.079456 -72.335178 
L 78.569634 -72.086931 
L 78.059812 -71.849559 
L 77.54999 -71.62677 
L 77.040168 -71.41913 
L 76.530346 -71.223915 
L 76.020524 -71.035494 
L 75.510703 -70.846058 
L 75.000881 -70.646472 
L 74.491059 -70.427137 
L 73.981237 -70.178798 
L 73.471415 -69.893284 
L 72.961593 -69.564172 
L 72.451772 -69.187294 
L 71.94195 -68.761017 
L 71.432128 -68.286194 
L 70.922306 -67.765768 
L 70.412484 -67.204092 
L 69.902662 -66.606136 
L 69.392841 -65.976801 
L 68.883019 -65.320554 
L 68.373197 -64.641493 
L 67.863375 -63.943816 
L 67.353553 -63.232517 
L 66.843731 -62.514016 
L 66.33391 -61.796425 
L 65.824088 -61.089219 
L 65.314266 -60.402262 
L 64.804444 -59.744317 
L 64.294622 -59.12138 
L 63.7848 -58.53525 
L 63.274979 -57.982735 
L 62.765157 -57.455757 
L 62.255335 -56.942407 
L 61.745513 -56.428743 
L 61.235691 -55.900965 
L 60.725869 -55.347494 
L 60.216048 -54.760513 
L 59.706226 -54.1367 
L 59.196404 -53.477069 
L 58.686582 -52.786059 
L 58.17676 -52.070186 
L 57.666938 -51.336603 
L 57.157117 -50.591906 
L 56.647295 -49.841396 
L 56.137473 -49.088845 
L 55.627651 -48.336698 
L 55.117829 -47.586542 
L 54.608007 -46.839666 
L 54.098186 -46.097557 
L 53.588364 -45.362262 
L 53.078542 -44.636589 
L 52.56872 -43.924171 
L 52.058898 -43.229445 
L 51.549076 -42.557541 
L 51.039255 -41.914116 
L 50.529433 -41.305096 
L 50.019611 -40.736341 
L 49.509789 -40.213231 
L 48.999967 -39.740222 
L 48.490145 -39.320427 
L 47.980323 -38.9553 
L 47.470502 -38.644472 
L 46.96068 -38.385783 
L 46.450858 -38.175494 
L 45.941036 -38.008646 
L 45.431214 -37.879515 
L 44.921392 -37.78207 
L 44.411571 -37.710397 
L 43.901749 -37.659026 
L 43.391927 -37.623156 
L 42.882105 -37.598758 
L 42.372283 -37.582598 
L 41.862461 -37.572176 
L 41.35264 -37.565633 
L 40.842818 -37.561636 
L 40.332996 -37.55926 
L 39.823174 -37.557888 
L 39.313352 -37.557116 
z
" style="stroke: #8e7fbb; stroke-width: 2"/>
    </defs>
    <g clip-path="url(#p2f5eb96ae9)">
     <use xlink:href="#md650020e3d" x="0" y="133.46025" style="fill: #8e7fbb; fill-opacity: 0.6; stroke: #8e7fbb; stroke-width: 2"/>
    </g>
   </g>
   <g id="matplotlib.axis_1">
    <g id="xtick_1">
     <g id="line2d_1">
      <defs>
       <path id="m7c5f398650" d="M 0 0 
L 0 3.5 
" style="stroke: #000000; stroke-width: 0.8"/>
      </defs>
      <g>
       <use xlink:href="#m7c5f398650" x="44.962407" y="95.904" style="stroke: #000000; stroke-width: 0.8"/>
      </g>
     </g>
     <g id="text_1">
      <!-- 0.0 -->
      <g transform="translate(37.010844 110.502437) scale(0.1 -0.1)">
       <defs>
        <path id="DejaVuSans-30" d="M 2034 4250 
Q 1547 4250 1301 3770 
Q 1056 3291 1056 2328 
Q 1056 1369 1301 889 
Q 1547 409 2034 409 
Q 2525 409 2770 889 
Q 3016 1369 3016 2328 
Q 3016 3291 2770 3770 
Q 2525 4250 2034 4250 
z
M 2034 4750 
Q 2819 4750 3233 4129 
Q 3647 3509 3647 2328 
Q 3647 1150 3233 529 
Q 2819 -91 2034 -91 
Q 1250 -91 836 529 
Q 422 1150 422 2328 
Q 422 3509 836 4129 
Q 1250 4750 2034 4750 
z
" transform="scale(0.015625)"/>
        <path id="DejaVuSans-2e" d="M 684 794 
L 1344 794 
L 1344 0 
L 684 0 
L 684 794 
z
" transform="scale(0.015625)"/>
       </defs>
       <use xlink:href="#DejaVuSans-30"/>
       <use xlink:href="#DejaVuSans-2e" x="63.623047"/>
       <use xlink:href="#DejaVuSans-30" x="95.410156"/>
      </g>
     </g>
    </g>
    <g id="xtick_2">
     <g id="line2d_2">
      <g>
       <use xlink:href="#m7c5f398650" x="91.397925" y="95.904" style="stroke: #000000; stroke-width: 0.8"/>
      </g>
     </g>
     <g id="text_2">
      <!-- 0.5 -->
      <g transform="translate(83.446363 110.502437) scale(0.1 -0.1)">
       <defs>
        <path id="DejaVuSans-35" d="M 691 4666 
L 3169 4666 
L 3169 4134 
L 1269 4134 
L 1269 2991 
Q 1406 3038 1543 3061 
Q 1681 3084 1819 3084 
Q 2600 3084 3056 2656 
Q 3513 2228 3513 1497 
Q 3513 744 3044 326 
Q 2575 -91 1722 -91 
Q 1428 -91 1123 -41 
Q 819 9 494 109 
L 494 744 
Q 775 591 1075 516 
Q 1375 441 1709 441 
Q 2250 441 2565 725 
Q 2881 1009 2881 1497 
Q 2881 1984 2565 2268 
Q 2250 2553 1709 2553 
Q 1456 2553 1204 2497 
Q 953 2441 691 2322 
L 691 4666 
z
" transform="scale(0.015625)"/>
       </defs>
       <use xlink:href="#DejaVuSans-30"/>
       <use xlink:href="#DejaVuSans-2e" x="63.623047"/>
       <use xlink:href="#DejaVuSans-35" x="95.410156"/>
      </g>
     </g>
    </g>
    <g id="xtick_3">
     <g id="line2d_3">
      <g>
       <use xlink:href="#m7c5f398650" x="137.833444" y="95.904" style="stroke: #000000; stroke-width: 0.8"/>
      </g>
     </g>
     <g id="text_3">
      <!-- 1.0 -->
      <g transform="translate(129.881881 110.502437) scale(0.1 -0.1)">
       <defs>
        <path id="DejaVuSans-31" d="M 794 531 
L 1825 531 
L 1825 4091 
L 703 3866 
L 703 4441 
L 1819 4666 
L 2450 4666 
L 2450 531 
L 3481 531 
L 3481 0 
L 794 0 
L 794 531 
z
" transform="scale(0.015625)"/>
       </defs>
       <use xlink:href="#DejaVuSans-31"/>
       <use xlink:href="#DejaVuSans-2e" x="63.623047"/>
       <use xlink:href="#DejaVuSans-30" x="95.410156"/>
      </g>
     </g>
    </g>
    <g id="text_4">
     <!-- QED -->
     <g transform="translate(79.095313 124.180562) scale(0.1 -0.1)">
      <defs>
       <path id="DejaVuSans-51" d="M 2522 4238 
Q 1834 4238 1429 3725 
Q 1025 3213 1025 2328 
Q 1025 1447 1429 934 
Q 1834 422 2522 422 
Q 3209 422 3611 934 
Q 4013 1447 4013 2328 
Q 4013 3213 3611 3725 
Q 3209 4238 2522 4238 
z
M 3406 84 
L 4238 -825 
L 3475 -825 
L 2784 -78 
Q 2681 -84 2626 -87 
Q 2572 -91 2522 -91 
Q 1538 -91 948 567 
Q 359 1225 359 2328 
Q 359 3434 948 4092 
Q 1538 4750 2522 4750 
Q 3503 4750 4090 4092 
Q 4678 3434 4678 2328 
Q 4678 1516 4351 937 
Q 4025 359 3406 84 
z
" transform="scale(0.015625)"/>
       <path id="DejaVuSans-45" d="M 628 4666 
L 3578 4666 
L 3578 4134 
L 1259 4134 
L 1259 2753 
L 3481 2753 
L 3481 2222 
L 1259 2222 
L 1259 531 
L 3634 531 
L 3634 0 
L 628 0 
L 628 4666 
z
" transform="scale(0.015625)"/>
       <path id="DejaVuSans-44" d="M 1259 4147 
L 1259 519 
L 2022 519 
Q 2988 519 3436 956 
Q 3884 1394 3884 2338 
Q 3884 3275 3436 3711 
Q 2988 4147 2022 4147 
L 1259 4147 
z
M 628 4666 
L 1925 4666 
Q 3281 4666 3915 4102 
Q 4550 3538 4550 2338 
Q 4550 1131 3912 565 
Q 3275 0 1925 0 
L 628 0 
L 628 4666 
z
" transform="scale(0.015625)"/>
      </defs>
      <use xlink:href="#DejaVuSans-51"/>
      <use xlink:href="#DejaVuSans-45" x="78.710938"/>
      <use xlink:href="#DejaVuSans-44" x="141.894531"/>
     </g>
    </g>
   </g>
   <g id="matplotlib.axis_2">
    <g id="ytick_1">
     <g id="line2d_4">
      <defs>
       <path id="mc784ba5112" d="M 0 0 
L -3.5 0 
" style="stroke: #000000; stroke-width: 0.8"/>
      </defs>
      <g>
       <use xlink:href="#mc784ba5112" x="34.240625" y="95.904" style="stroke: #000000; stroke-width: 0.8"/>
      </g>
     </g>
     <g id="text_5">
      <!-- 0 -->
      <g transform="translate(20.878125 99.703219) scale(0.1 -0.1)">
       <use xlink:href="#DejaVuSans-30"/>
      </g>
     </g>
    </g>
    <g id="ytick_2">
     <g id="line2d_5">
      <g>
       <use xlink:href="#mc784ba5112" x="34.240625" y="70.282101" style="stroke: #000000; stroke-width: 0.8"/>
      </g>
     </g>
     <g id="text_6">
      <!-- 1 -->
      <g transform="translate(20.878125 74.08132) scale(0.1 -0.1)">
       <use xlink:href="#DejaVuSans-31"/>
      </g>
     </g>
    </g>
    <g id="ytick_3">
     <g id="line2d_6">
      <g>
       <use xlink:href="#mc784ba5112" x="34.240625" y="44.660202" style="stroke: #000000; stroke-width: 0.8"/>
      </g>
     </g>
     <g id="text_7">
      <!-- 2 -->
      <g transform="translate(20.878125 48.459421) scale(0.1 -0.1)">
       <defs>
        <path id="DejaVuSans-32" d="M 1228 531 
L 3431 531 
L 3431 0 
L 469 0 
L 469 531 
Q 828 903 1448 1529 
Q 2069 2156 2228 2338 
Q 2531 2678 2651 2914 
Q 2772 3150 2772 3378 
Q 2772 3750 2511 3984 
Q 2250 4219 1831 4219 
Q 1534 4219 1204 4116 
Q 875 4013 500 3803 
L 500 4441 
Q 881 4594 1212 4672 
Q 1544 4750 1819 4750 
Q 2544 4750 2975 4387 
Q 3406 4025 3406 3419 
Q 3406 3131 3298 2873 
Q 3191 2616 2906 2266 
Q 2828 2175 2409 1742 
Q 1991 1309 1228 531 
z
" transform="scale(0.015625)"/>
       </defs>
       <use xlink:href="#DejaVuSans-32"/>
      </g>
     </g>
    </g>
    <g id="ytick_4">
     <g id="line2d_7">
      <g>
       <use xlink:href="#mc784ba5112" x="34.240625" y="19.038303" style="stroke: #000000; stroke-width: 0.8"/>
      </g>
     </g>
     <g id="text_8">
      <!-- 3 -->
      <g transform="translate(20.878125 22.837522) scale(0.1 -0.1)">
       <defs>
        <path id="DejaVuSans-33" d="M 2597 2516 
Q 3050 2419 3304 2112 
Q 3559 1806 3559 1356 
Q 3559 666 3084 287 
Q 2609 -91 1734 -91 
Q 1441 -91 1130 -33 
Q 819 25 488 141 
L 488 750 
Q 750 597 1062 519 
Q 1375 441 1716 441 
Q 2309 441 2620 675 
Q 2931 909 2931 1356 
Q 2931 1769 2642 2001 
Q 2353 2234 1838 2234 
L 1294 2234 
L 1294 2753 
L 1863 2753 
Q 2328 2753 2575 2939 
Q 2822 3125 2822 3475 
Q 2822 3834 2567 4026 
Q 2313 4219 1838 4219 
Q 1578 4219 1281 4162 
Q 984 4106 628 3988 
L 628 4550 
Q 988 4650 1302 4700 
Q 1616 4750 1894 4750 
Q 2613 4750 3031 4423 
Q 3450 4097 3450 3541 
Q 3450 3153 3228 2886 
Q 3006 2619 2597 2516 
z
" transform="scale(0.015625)"/>
       </defs>
       <use xlink:href="#DejaVuSans-33"/>
      </g>
     </g>
    </g>
    <g id="text_9">
     <!-- Density -->
     <g transform="translate(14.798438 70.560594) rotate(-90) scale(0.1 -0.1)">
      <defs>
       <path id="DejaVuSans-65" d="M 3597 1894 
L 3597 1613 
L 953 1613 
Q 991 1019 1311 708 
Q 1631 397 2203 397 
Q 2534 397 2845 478 
Q 3156 559 3463 722 
L 3463 178 
Q 3153 47 2828 -22 
Q 2503 -91 2169 -91 
Q 1331 -91 842 396 
Q 353 884 353 1716 
Q 353 2575 817 3079 
Q 1281 3584 2069 3584 
Q 2775 3584 3186 3129 
Q 3597 2675 3597 1894 
z
M 3022 2063 
Q 3016 2534 2758 2815 
Q 2500 3097 2075 3097 
Q 1594 3097 1305 2825 
Q 1016 2553 972 2059 
L 3022 2063 
z
" transform="scale(0.015625)"/>
       <path id="DejaVuSans-6e" d="M 3513 2113 
L 3513 0 
L 2938 0 
L 2938 2094 
Q 2938 2591 2744 2837 
Q 2550 3084 2163 3084 
Q 1697 3084 1428 2787 
Q 1159 2491 1159 1978 
L 1159 0 
L 581 0 
L 581 3500 
L 1159 3500 
L 1159 2956 
Q 1366 3272 1645 3428 
Q 1925 3584 2291 3584 
Q 2894 3584 3203 3211 
Q 3513 2838 3513 2113 
z
" transform="scale(0.015625)"/>
       <path id="DejaVuSans-73" d="M 2834 3397 
L 2834 2853 
Q 2591 2978 2328 3040 
Q 2066 3103 1784 3103 
Q 1356 3103 1142 2972 
Q 928 2841 928 2578 
Q 928 2378 1081 2264 
Q 1234 2150 1697 2047 
L 1894 2003 
Q 2506 1872 2764 1633 
Q 3022 1394 3022 966 
Q 3022 478 2636 193 
Q 2250 -91 1575 -91 
Q 1294 -91 989 -36 
Q 684 19 347 128 
L 347 722 
Q 666 556 975 473 
Q 1284 391 1588 391 
Q 1994 391 2212 530 
Q 2431 669 2431 922 
Q 2431 1156 2273 1281 
Q 2116 1406 1581 1522 
L 1381 1569 
Q 847 1681 609 1914 
Q 372 2147 372 2553 
Q 372 3047 722 3315 
Q 1072 3584 1716 3584 
Q 2034 3584 2315 3537 
Q 2597 3491 2834 3397 
z
" transform="scale(0.015625)"/>
       <path id="DejaVuSans-69" d="M 603 3500 
L 1178 3500 
L 1178 0 
L 603 0 
L 603 3500 
z
M 603 4863 
L 1178 4863 
L 1178 4134 
L 603 4134 
L 603 4863 
z
" transform="scale(0.015625)"/>
       <path id="DejaVuSans-74" d="M 1172 4494 
L 1172 3500 
L 2356 3500 
L 2356 3053 
L 1172 3053 
L 1172 1153 
Q 1172 725 1289 603 
Q 1406 481 1766 481 
L 2356 481 
L 2356 0 
L 1766 0 
Q 1100 0 847 248 
Q 594 497 594 1153 
L 594 3053 
L 172 3053 
L 172 3500 
L 594 3500 
L 594 4494 
L 1172 4494 
z
" transform="scale(0.015625)"/>
       <path id="DejaVuSans-79" d="M 2059 -325 
Q 1816 -950 1584 -1140 
Q 1353 -1331 966 -1331 
L 506 -1331 
L 506 -850 
L 844 -850 
Q 1081 -850 1212 -737 
Q 1344 -625 1503 -206 
L 1606 56 
L 191 3500 
L 800 3500 
L 1894 763 
L 2988 3500 
L 3597 3500 
L 2059 -325 
z
" transform="scale(0.015625)"/>
      </defs>
      <use xlink:href="#DejaVuSans-44"/>
      <use xlink:href="#DejaVuSans-65" x="77.001953"/>
      <use xlink:href="#DejaVuSans-6e" x="138.525391"/>
      <use xlink:href="#DejaVuSans-73" x="201.904297"/>
      <use xlink:href="#DejaVuSans-69" x="254.003906"/>
      <use xlink:href="#DejaVuSans-74" x="281.787109"/>
      <use xlink:href="#DejaVuSans-79" x="320.996094"/>
     </g>
    </g>
   </g>
   <g id="patch_3">
    <path d="M 34.240625 95.904 
L 34.240625 7.2 
" style="fill: none; stroke: #000000; stroke-width: 0.8; stroke-linejoin: miter; stroke-linecap: square"/>
   </g>
   <g id="patch_4">
    <path d="M 145.840625 95.904 
L 145.840625 7.2 
" style="fill: none; stroke: #000000; stroke-width: 0.8; stroke-linejoin: miter; stroke-linecap: square"/>
   </g>
   <g id="patch_5">
    <path d="M 34.240625 95.904 
L 145.840625 95.904 
" style="fill: none; stroke: #000000; stroke-width: 0.8; stroke-linejoin: miter; stroke-linecap: square"/>
   </g>
   <g id="patch_6">
    <path d="M 34.240625 7.2 
L 145.840625 7.2 
" style="fill: none; stroke: #000000; stroke-width: 0.8; stroke-linejoin: miter; stroke-linecap: square"/>
   </g>
  </g>
 </g>
 <defs>
  <clipPath id="p2f5eb96ae9">
   <rect x="34.240625" y="7.2" width="111.6" height="88.704"/>
  </clipPath>
 </defs>
</svg>
