<?xml version="1.0" encoding="utf-8" standalone="no"?>
<!DOCTYPE svg PUBLIC "-//W3C//DTD SVG 1.1//EN"
  "http://www.w3.org/Graphics/SVG/1.1/DTD/svg11.dtd">
<svg xmlns:xlink="http://www.w3.org/1999/xlink" width="162.58125pt" height="133.46025pt" viewBox="0 0 162.58125 133.46025" xmlns="http://www.w3.org/2000/svg" version="1.1">
 <metadata>
  <rdf:RDF xmlns:dc="http://purl.org/dc/elements/1.1/" xmlns:cc="http://creativecommons.org/ns#" xmlns:rdf="http://www.w3.org/1999/02/22-rdf-syntax-ns#">
   <cc:Work>
    <dc:type rdf:resource="http://purl.org/dc/dcmitype/StillImage"/>
    <dc:date>2025-05-27T15:51:47.521924</dc:date>
    <dc:format>image/svg+xml</dc:format>
    <dc:creator>
     <cc:Agent>
      <dc:title>Matplotlib v3.9.4, https://matplotlib.org/</dc:title>
     </cc:Agent>
    </dc:creator>
   </cc:Work>
  </rdf:RDF>
 </metadata>
 <defs>
  <style type="text/css">*{stroke-linejoin: round; stroke-linecap: butt}</style>
 </defs>
 <g id="figure_1">
  <g id="patch_1">
   <path d="M 0 133.46025 
L 162.58125 133.46025 
L 162.58125 0 
L 0 0 
z
" style="fill: #ffffff"/>
  </g>
  <g id="axes_1">
   <g id="patch_2">
    <path d="M 43.78125 95.904 
L 155.38125 95.904 
L 155.38125 7.2 
L 43.78125 7.2 
z
" style="fill: #ffffff"/>
   </g>
   <g id="PolyCollection_1">
    <defs>
     <path id="m9451af351a" d="M 50.006809 -37.562162 
L 50.006809 -37.55625 
L 50.510837 -37.55625 
L 51.014866 -37.55625 
L 51.518895 -37.55625 
L 52.022924 -37.55625 
L 52.526952 -37.55625 
L 53.030981 -37.55625 
L 53.53501 -37.55625 
L 54.039038 -37.55625 
L 54.543067 -37.55625 
L 55.047096 -37.55625 
L 55.551125 -37.55625 
L 56.055153 -37.55625 
L 56.559182 -37.55625 
L 57.063211 -37.55625 
L 57.567239 -37.55625 
L 58.071268 -37.55625 
L 58.575297 -37.55625 
L 59.079326 -37.55625 
L 59.583354 -37.55625 
L 60.087383 -37.55625 
L 60.591412 -37.55625 
L 61.09544 -37.55625 
L 61.599469 -37.55625 
L 62.103498 -37.55625 
L 62.607527 -37.55625 
L 63.111555 -37.55625 
L 63.615584 -37.55625 
L 64.119613 -37.55625 
L 64.623641 -37.55625 
L 65.12767 -37.55625 
L 65.631699 -37.55625 
L 66.135728 -37.55625 
L 66.639756 -37.55625 
L 67.143785 -37.55625 
L 67.647814 -37.55625 
L 68.151842 -37.55625 
L 68.655871 -37.55625 
L 69.1599 -37.55625 
L 69.663929 -37.55625 
L 70.167957 -37.55625 
L 70.671986 -37.55625 
L 71.176015 -37.55625 
L 71.680043 -37.55625 
L 72.184072 -37.55625 
L 72.688101 -37.55625 
L 73.19213 -37.55625 
L 73.696158 -37.55625 
L 74.200187 -37.55625 
L 74.704216 -37.55625 
L 75.208244 -37.55625 
L 75.712273 -37.55625 
L 76.216302 -37.55625 
L 76.720331 -37.55625 
L 77.224359 -37.55625 
L 77.728388 -37.55625 
L 78.232417 -37.55625 
L 78.736445 -37.55625 
L 79.240474 -37.55625 
L 79.744503 -37.55625 
L 80.248532 -37.55625 
L 80.75256 -37.55625 
L 81.256589 -37.55625 
L 81.760618 -37.55625 
L 82.264646 -37.55625 
L 82.768675 -37.55625 
L 83.272704 -37.55625 
L 83.776733 -37.55625 
L 84.280761 -37.55625 
L 84.78479 -37.55625 
L 85.288819 -37.55625 
L 85.792847 -37.55625 
L 86.296876 -37.55625 
L 86.800905 -37.55625 
L 87.304934 -37.55625 
L 87.808962 -37.55625 
L 88.312991 -37.55625 
L 88.81702 -37.55625 
L 89.321048 -37.55625 
L 89.825077 -37.55625 
L 90.329106 -37.55625 
L 90.833135 -37.55625 
L 91.337163 -37.55625 
L 91.841192 -37.55625 
L 92.345221 -37.55625 
L 92.849249 -37.55625 
L 93.353278 -37.55625 
L 93.857307 -37.55625 
L 94.361335 -37.55625 
L 94.865364 -37.55625 
L 95.369393 -37.55625 
L 95.873422 -37.55625 
L 96.37745 -37.55625 
L 96.881479 -37.55625 
L 97.385508 -37.55625 
L 97.889536 -37.55625 
L 98.393565 -37.55625 
L 98.897594 -37.55625 
L 99.401623 -37.55625 
L 99.905651 -37.55625 
L 100.40968 -37.55625 
L 100.913709 -37.55625 
L 101.417737 -37.55625 
L 101.921766 -37.55625 
L 102.425795 -37.55625 
L 102.929824 -37.55625 
L 103.433852 -37.55625 
L 103.937881 -37.55625 
L 104.44191 -37.55625 
L 104.945938 -37.55625 
L 105.449967 -37.55625 
L 105.953996 -37.55625 
L 106.458025 -37.55625 
L 106.962053 -37.55625 
L 107.466082 -37.55625 
L 107.970111 -37.55625 
L 108.474139 -37.55625 
L 108.978168 -37.55625 
L 109.482197 -37.55625 
L 109.986226 -37.55625 
L 110.490254 -37.55625 
L 110.994283 -37.55625 
L 111.498312 -37.55625 
L 112.00234 -37.55625 
L 112.506369 -37.55625 
L 113.010398 -37.55625 
L 113.514427 -37.55625 
L 114.018455 -37.55625 
L 114.522484 -37.55625 
L 115.026513 -37.55625 
L 115.530541 -37.55625 
L 116.03457 -37.55625 
L 116.538599 -37.55625 
L 117.042628 -37.55625 
L 117.546656 -37.55625 
L 118.050685 -37.55625 
L 118.554714 -37.55625 
L 119.058742 -37.55625 
L 119.562771 -37.55625 
L 120.0668 -37.55625 
L 120.570829 -37.55625 
L 121.074857 -37.55625 
L 121.578886 -37.55625 
L 122.082915 -37.55625 
L 122.586943 -37.55625 
L 123.090972 -37.55625 
L 123.595001 -37.55625 
L 124.09903 -37.55625 
L 124.603058 -37.55625 
L 125.107087 -37.55625 
L 125.611116 -37.55625 
L 126.115144 -37.55625 
L 126.619173 -37.55625 
L 127.123202 -37.55625 
L 127.627231 -37.55625 
L 128.131259 -37.55625 
L 128.635288 -37.55625 
L 129.139317 -37.55625 
L 129.643345 -37.55625 
L 130.147374 -37.55625 
L 130.651403 -37.55625 
L 131.155432 -37.55625 
L 131.65946 -37.55625 
L 132.163489 -37.55625 
L 132.667518 -37.55625 
L 133.171546 -37.55625 
L 133.675575 -37.55625 
L 134.179604 -37.55625 
L 134.683633 -37.55625 
L 135.187661 -37.55625 
L 135.69169 -37.55625 
L 136.195719 -37.55625 
L 136.699747 -37.55625 
L 137.203776 -37.55625 
L 137.707805 -37.55625 
L 138.211834 -37.55625 
L 138.715862 -37.55625 
L 139.219891 -37.55625 
L 139.72392 -37.55625 
L 140.227948 -37.55625 
L 140.731977 -37.55625 
L 141.236006 -37.55625 
L 141.740035 -37.55625 
L 142.244063 -37.55625 
L 142.748092 -37.55625 
L 143.252121 -37.55625 
L 143.756149 -37.55625 
L 144.260178 -37.55625 
L 144.764207 -37.55625 
L 145.268236 -37.55625 
L 145.772264 -37.55625 
L 146.276293 -37.55625 
L 146.780322 -37.55625 
L 147.28435 -37.55625 
L 147.788379 -37.55625 
L 148.292408 -37.55625 
L 148.796437 -37.55625 
L 149.300465 -37.55625 
L 149.804494 -37.55625 
L 150.308523 -37.55625 
L 150.308523 -37.556475 
L 150.308523 -37.556475 
L 149.804494 -37.556861 
L 149.300465 -37.557734 
L 148.796437 -37.559486 
L 148.292408 -37.562621 
L 147.788379 -37.567696 
L 147.28435 -37.575339 
L 146.780322 -37.586611 
L 146.276293 -37.60388 
L 145.772264 -37.632034 
L 145.268236 -37.679019 
L 144.764207 -37.754102 
L 144.260178 -37.862697 
L 143.756149 -37.999074 
L 143.252121 -38.141554 
L 142.748092 -38.255813 
L 142.244063 -38.307793 
L 141.740035 -38.280152 
L 141.236006 -38.181777 
L 140.731977 -38.04378 
L 140.227948 -37.904852 
L 139.72392 -37.795554 
L 139.219891 -37.729687 
L 138.715862 -37.704437 
L 138.211834 -37.705965 
L 137.707805 -37.716585 
L 137.203776 -37.721266 
L 136.699747 -37.712109 
L 136.195719 -37.689567 
L 135.69169 -37.660058 
L 135.187661 -37.631451 
L 134.683633 -37.609094 
L 134.179604 -37.594358 
L 133.675575 -37.585712 
L 133.171546 -37.580862 
L 132.667518 -37.578357 
L 132.163489 -37.577926 
L 131.65946 -37.579851 
L 131.155432 -37.584096 
L 130.651403 -37.589851 
L 130.147374 -37.595709 
L 129.643345 -37.600329 
L 129.139317 -37.603125 
L 128.635288 -37.604555 
L 128.131259 -37.605827 
L 127.627231 -37.608261 
L 127.123202 -37.61281 
L 126.619173 -37.620066 
L 126.115144 -37.630623 
L 125.611116 -37.645353 
L 125.107087 -37.665286 
L 124.603058 -37.691286 
L 124.09903 -37.723975 
L 123.595001 -37.764065 
L 123.090972 -37.812726 
L 122.586943 -37.871482 
L 122.082915 -37.941887 
L 121.578886 -38.026196 
L 121.074857 -38.130236 
L 120.570829 -38.267886 
L 120.0668 -38.463996 
L 119.562771 -38.752065 
L 119.058742 -39.167084 
L 118.554714 -39.741218 
L 118.050685 -40.514235 
L 117.546656 -41.563895 
L 117.042628 -43.042532 
L 116.538599 -45.185067 
L 116.03457 -48.248845 
L 115.530541 -52.371508 
L 115.026513 -57.388544 
L 114.522484 -62.712159 
L 114.018455 -67.390891 
L 113.514427 -70.400604 
L 113.010398 -71.071919 
L 112.506369 -69.430073 
L 112.00234 -66.231796 
L 111.498312 -62.656344 
L 110.994283 -59.820446 
L 110.490254 -58.372255 
L 109.986226 -58.332505 
L 109.482197 -59.19721 
L 108.978168 -60.214814 
L 108.474139 -60.721058 
L 107.970111 -60.41407 
L 107.466082 -59.469786 
L 106.962053 -58.458518 
L 106.458025 -58.116102 
L 105.953996 -59.084792 
L 105.449967 -61.723384 
L 104.945938 -66.019181 
L 104.44191 -71.583924 
L 103.937881 -77.715434 
L 103.433852 -83.5284 
L 102.929824 -88.155551 
L 102.425795 -90.983553 
L 101.921766 -91.846297 
L 101.417737 -91.089447 
L 100.913709 -89.461209 
L 100.40968 -87.861752 
L 99.905651 -87.055241 
L 99.401623 -87.463932 
L 98.897594 -89.107151 
L 98.393565 -91.662601 
L 97.889536 -94.58347 
L 97.385508 -97.22899 
L 96.881479 -99.011129 
L 96.37745 -99.558533 
L 95.873422 -98.846695 
L 95.369393 -97.209525 
L 94.865364 -95.192476 
L 94.361335 -93.308479 
L 93.857307 -91.831652 
L 93.353278 -90.748636 
L 92.849249 -89.895073 
L 92.345221 -89.200052 
L 91.841192 -88.90486 
L 91.337163 -89.62693 
L 90.833135 -92.182304 
L 90.329106 -97.15622 
L 89.825077 -104.352183 
L 89.321048 -112.431549 
L 88.81702 -119.112465 
L 88.312991 -122.03625 
L 87.808962 -119.904306 
L 87.304934 -113.162551 
L 86.800905 -103.74847 
L 86.296876 -94.082011 
L 85.792847 -85.989866 
L 85.288819 -80.183535 
L 84.78479 -76.422393 
L 84.280761 -74.058414 
L 83.776733 -72.553667 
L 83.272704 -71.711534 
L 82.768675 -71.581172 
L 82.264646 -72.175504 
L 81.760618 -73.233192 
L 81.256589 -74.203499 
L 80.75256 -74.45572 
L 80.248532 -73.547451 
L 79.744503 -71.372929 
L 79.240474 -68.1451 
L 78.736445 -64.289255 
L 78.232417 -60.329481 
L 77.728388 -56.779409 
L 77.224359 -54.02063 
L 76.720331 -52.193338 
L 76.216302 -51.163943 
L 75.712273 -50.61162 
L 75.208244 -50.203422 
L 74.704216 -49.764383 
L 74.200187 -49.344824 
L 73.696158 -49.149591 
L 73.19213 -49.381933 
L 72.688101 -50.102941 
L 72.184072 -51.181601 
L 71.680043 -52.340747 
L 71.176015 -53.254112 
L 70.671986 -53.648566 
L 70.167957 -53.387816 
L 69.663929 -52.523696 
L 69.1599 -51.299344 
L 68.655871 -50.095876 
L 68.151842 -49.332161 
L 67.647814 -49.340483 
L 67.143785 -50.248205 
L 66.639756 -51.906619 
L 66.135728 -53.91072 
L 65.631699 -55.721019 
L 65.12767 -56.838496 
L 64.623641 -56.949014 
L 64.119613 -55.980534 
L 63.615584 -54.077659 
L 63.111555 -51.534571 
L 62.607527 -48.718431 
L 62.103498 -45.991749 
L 61.599469 -43.638005 
L 61.09544 -41.808088 
L 60.591412 -40.510077 
L 60.087383 -39.64806 
L 59.583354 -39.089631 
L 59.079326 -38.728206 
L 58.575297 -38.514032 
L 58.071268 -38.447612 
L 57.567239 -38.546705 
L 57.063211 -38.806202 
L 56.559182 -39.170697 
L 56.055153 -39.535004 
L 55.551125 -39.776307 
L 55.047096 -39.803983 
L 54.543067 -39.599224 
L 54.039038 -39.220108 
L 53.53501 -38.76969 
L 53.030981 -38.348466 
L 52.526952 -38.019163 
L 52.022924 -37.798286 
L 51.518895 -37.669454 
L 51.014866 -37.603596 
L 50.510837 -37.57395 
L 50.006809 -37.562162 
z
" style="stroke: #aaaaaa; stroke-width: 2"/>
    </defs>
    <g clip-path="url(#p0cc917f02a)">
     <use xlink:href="#m9451af351a" x="0" y="133.46025" style="fill: #aaaaaa; fill-opacity: 0.6; stroke: #aaaaaa; stroke-width: 2"/>
    </g>
   </g>
   <g id="PolyCollection_2">
    <defs>
     <path id="ma09817f237" d="M 48.853977 -37.557202 
L 48.853977 -37.55625 
L 49.2882 -37.55625 
L 49.722423 -37.55625 
L 50.156646 -37.55625 
L 50.590869 -37.55625 
L 51.025092 -37.55625 
L 51.459315 -37.55625 
L 51.893538 -37.55625 
L 52.327761 -37.55625 
L 52.761985 -37.55625 
L 53.196208 -37.55625 
L 53.630431 -37.55625 
L 54.064654 -37.55625 
L 54.498877 -37.55625 
L 54.9331 -37.55625 
L 55.367323 -37.55625 
L 55.801546 -37.55625 
L 56.235769 -37.55625 
L 56.669992 -37.55625 
L 57.104215 -37.55625 
L 57.538438 -37.55625 
L 57.972661 -37.55625 
L 58.406884 -37.55625 
L 58.841107 -37.55625 
L 59.27533 -37.55625 
L 59.709553 -37.55625 
L 60.143776 -37.55625 
L 60.577999 -37.55625 
L 61.012222 -37.55625 
L 61.446445 -37.55625 
L 61.880668 -37.55625 
L 62.314891 -37.55625 
L 62.749114 -37.55625 
L 63.183337 -37.55625 
L 63.61756 -37.55625 
L 64.051783 -37.55625 
L 64.486006 -37.55625 
L 64.920229 -37.55625 
L 65.354452 -37.55625 
L 65.788675 -37.55625 
L 66.222898 -37.55625 
L 66.657121 -37.55625 
L 67.091344 -37.55625 
L 67.525567 -37.55625 
L 67.95979 -37.55625 
L 68.394013 -37.55625 
L 68.828236 -37.55625 
L 69.26246 -37.55625 
L 69.696683 -37.55625 
L 70.130906 -37.55625 
L 70.565129 -37.55625 
L 70.999352 -37.55625 
L 71.433575 -37.55625 
L 71.867798 -37.55625 
L 72.302021 -37.55625 
L 72.736244 -37.55625 
L 73.170467 -37.55625 
L 73.60469 -37.55625 
L 74.038913 -37.55625 
L 74.473136 -37.55625 
L 74.907359 -37.55625 
L 75.341582 -37.55625 
L 75.775805 -37.55625 
L 76.210028 -37.55625 
L 76.644251 -37.55625 
L 77.078474 -37.55625 
L 77.512697 -37.55625 
L 77.94692 -37.55625 
L 78.381143 -37.55625 
L 78.815366 -37.55625 
L 79.249589 -37.55625 
L 79.683812 -37.55625 
L 80.118035 -37.55625 
L 80.552258 -37.55625 
L 80.986481 -37.55625 
L 81.420704 -37.55625 
L 81.854927 -37.55625 
L 82.28915 -37.55625 
L 82.723373 -37.55625 
L 83.157596 -37.55625 
L 83.591819 -37.55625 
L 84.026042 -37.55625 
L 84.460265 -37.55625 
L 84.894488 -37.55625 
L 85.328711 -37.55625 
L 85.762935 -37.55625 
L 86.197158 -37.55625 
L 86.631381 -37.55625 
L 87.065604 -37.55625 
L 87.499827 -37.55625 
L 87.93405 -37.55625 
L 88.368273 -37.55625 
L 88.802496 -37.55625 
L 89.236719 -37.55625 
L 89.670942 -37.55625 
L 90.105165 -37.55625 
L 90.539388 -37.55625 
L 90.973611 -37.55625 
L 91.407834 -37.55625 
L 91.842057 -37.55625 
L 92.27628 -37.55625 
L 92.710503 -37.55625 
L 93.144726 -37.55625 
L 93.578949 -37.55625 
L 94.013172 -37.55625 
L 94.447395 -37.55625 
L 94.881618 -37.55625 
L 95.315841 -37.55625 
L 95.750064 -37.55625 
L 96.184287 -37.55625 
L 96.61851 -37.55625 
L 97.052733 -37.55625 
L 97.486956 -37.55625 
L 97.921179 -37.55625 
L 98.355402 -37.55625 
L 98.789625 -37.55625 
L 99.223848 -37.55625 
L 99.658071 -37.55625 
L 100.092294 -37.55625 
L 100.526517 -37.55625 
L 100.96074 -37.55625 
L 101.394963 -37.55625 
L 101.829186 -37.55625 
L 102.26341 -37.55625 
L 102.697633 -37.55625 
L 103.131856 -37.55625 
L 103.566079 -37.55625 
L 104.000302 -37.55625 
L 104.434525 -37.55625 
L 104.868748 -37.55625 
L 105.302971 -37.55625 
L 105.737194 -37.55625 
L 106.171417 -37.55625 
L 106.60564 -37.55625 
L 107.039863 -37.55625 
L 107.474086 -37.55625 
L 107.908309 -37.55625 
L 108.342532 -37.55625 
L 108.776755 -37.55625 
L 109.210978 -37.55625 
L 109.645201 -37.55625 
L 110.079424 -37.55625 
L 110.513647 -37.55625 
L 110.94787 -37.55625 
L 111.382093 -37.55625 
L 111.816316 -37.55625 
L 112.250539 -37.55625 
L 112.684762 -37.55625 
L 113.118985 -37.55625 
L 113.553208 -37.55625 
L 113.987431 -37.55625 
L 114.421654 -37.55625 
L 114.855877 -37.55625 
L 115.2901 -37.55625 
L 115.724323 -37.55625 
L 116.158546 -37.55625 
L 116.592769 -37.55625 
L 117.026992 -37.55625 
L 117.461215 -37.55625 
L 117.895438 -37.55625 
L 118.329661 -37.55625 
L 118.763885 -37.55625 
L 119.198108 -37.55625 
L 119.632331 -37.55625 
L 120.066554 -37.55625 
L 120.500777 -37.55625 
L 120.935 -37.55625 
L 121.369223 -37.55625 
L 121.803446 -37.55625 
L 122.237669 -37.55625 
L 122.671892 -37.55625 
L 123.106115 -37.55625 
L 123.540338 -37.55625 
L 123.974561 -37.55625 
L 124.408784 -37.55625 
L 124.843007 -37.55625 
L 125.27723 -37.55625 
L 125.711453 -37.55625 
L 126.145676 -37.55625 
L 126.579899 -37.55625 
L 127.014122 -37.55625 
L 127.448345 -37.55625 
L 127.882568 -37.55625 
L 128.316791 -37.55625 
L 128.751014 -37.55625 
L 129.185237 -37.55625 
L 129.61946 -37.55625 
L 130.053683 -37.55625 
L 130.487906 -37.55625 
L 130.922129 -37.55625 
L 131.356352 -37.55625 
L 131.790575 -37.55625 
L 132.224798 -37.55625 
L 132.659021 -37.55625 
L 133.093244 -37.55625 
L 133.527467 -37.55625 
L 133.96169 -37.55625 
L 134.395913 -37.55625 
L 134.830136 -37.55625 
L 135.26436 -37.55625 
L 135.26436 -37.556601 
L 135.26436 -37.556601 
L 134.830136 -37.557005 
L 134.395913 -37.557769 
L 133.96169 -37.559108 
L 133.527467 -37.561282 
L 133.093244 -37.56456 
L 132.659021 -37.569153 
L 132.224798 -37.575158 
L 131.790575 -37.582537 
L 131.356352 -37.591173 
L 130.922129 -37.601016 
L 130.487906 -37.612275 
L 130.053683 -37.625581 
L 129.61946 -37.642039 
L 129.185237 -37.663087 
L 128.751014 -37.690174 
L 128.316791 -37.724323 
L 127.882568 -37.765712 
L 127.448345 -37.813449 
L 127.014122 -37.865682 
L 126.579899 -37.920117 
L 126.145676 -37.97482 
L 125.711453 -38.029057 
L 125.27723 -38.083761 
L 124.843007 -38.141307 
L 124.408784 -38.20451 
L 123.974561 -38.275154 
L 123.540338 -38.35266 
L 123.106115 -38.433574 
L 122.671892 -38.512229 
L 122.237669 -38.582457 
L 121.803446 -38.639733 
L 121.369223 -38.682929 
L 120.935 -38.715089 
L 120.500777 -38.742984 
L 120.066554 -38.775726 
L 119.632331 -38.82292 
L 119.198108 -38.892894 
L 118.763885 -38.991445 
L 118.329661 -39.121332 
L 117.895438 -39.282555 
L 117.461215 -39.473277 
L 117.026992 -39.690988 
L 116.592769 -39.933415 
L 116.158546 -40.198792 
L 115.724323 -40.485485 
L 115.2901 -40.791464 
L 114.855877 -41.114398 
L 114.421654 -41.452909 
L 113.987431 -41.808735 
L 113.553208 -42.188773 
L 113.118985 -42.605571 
L 112.684762 -43.075433 
L 112.250539 -43.614451 
L 111.816316 -44.233977 
L 111.382093 -44.937483 
L 110.94787 -45.7201 
L 110.513647 -46.570896 
L 110.079424 -47.476728 
L 109.645201 -48.426154 
L 109.210978 -49.412341 
L 108.776755 -50.434845 
L 108.342532 -51.500679 
L 107.908309 -52.624954 
L 107.474086 -53.830584 
L 107.039863 -55.14592 
L 106.60564 -56.599324 
L 106.171417 -58.210985 
L 105.737194 -59.984103 
L 105.302971 -61.898933 
L 104.868748 -63.912994 
L 104.434525 -65.968841 
L 104.000302 -68.007908 
L 103.566079 -69.98641 
L 103.131856 -71.888305 
L 102.697633 -73.731216 
L 102.26341 -75.563382 
L 101.829186 -77.452294 
L 101.394963 -79.467711 
L 100.96074 -81.663145 
L 100.526517 -84.060282 
L 100.092294 -86.640409 
L 99.658071 -89.345331 
L 99.223848 -92.087797 
L 98.789625 -94.768575 
L 98.355402 -97.295219 
L 97.921179 -99.597243 
L 97.486956 -101.634129 
L 97.052733 -103.395476 
L 96.61851 -104.895279 
L 96.184287 -106.163471 
L 95.750064 -107.237459 
L 95.315841 -108.15495 
L 94.881618 -108.948207 
L 94.447395 -109.63948 
L 94.013172 -110.237673 
L 93.578949 -110.736801 
L 93.144726 -111.11696 
L 92.710503 -111.34813 
L 92.27628 -111.396429 
L 91.842057 -111.231592 
L 91.407834 -110.833962 
L 90.973611 -110.19937 
L 90.539388 -109.340922 
L 90.105165 -108.287693 
L 89.670942 -107.080965 
L 89.236719 -105.768868 
L 88.802496 -104.400088 
L 88.368273 -103.017342 
L 87.93405 -101.651643 
L 87.499827 -100.318666 
L 87.065604 -99.018371 
L 86.631381 -97.738177 
L 86.197158 -96.458848 
L 85.762935 -95.161318 
L 85.328711 -93.832336 
L 84.894488 -92.467127 
L 84.460265 -91.068254 
L 84.026042 -89.641357 
L 83.591819 -88.190048 
L 83.157596 -86.712838 
L 82.723373 -85.20415 
L 82.28915 -83.659158 
L 81.854927 -82.07989 
L 81.420704 -80.479013 
L 80.986481 -78.878832 
L 80.552258 -77.305547 
L 80.118035 -75.781235 
L 79.683812 -74.317163 
L 79.249589 -72.911315 
L 78.815366 -71.5511 
L 78.381143 -70.220044 
L 77.94692 -68.905721 
L 77.512697 -67.605772 
L 77.078474 -66.329747 
L 76.644251 -65.096119 
L 76.210028 -63.92573 
L 75.775805 -62.834215 
L 75.341582 -61.826264 
L 74.907359 -60.893785 
L 74.473136 -60.018567 
L 74.038913 -59.178392 
L 73.60469 -58.354452 
L 73.170467 -57.537554 
L 72.736244 -56.731181 
L 72.302021 -55.950608 
L 71.867798 -55.218528 
L 71.433575 -54.558524 
L 70.999352 -53.988082 
L 70.565129 -53.512701 
L 70.130906 -53.122377 
L 69.696683 -52.791445 
L 69.26246 -52.482301 
L 68.828236 -52.152688 
L 68.394013 -51.76503 
L 67.95979 -51.295238 
L 67.525567 -50.73811 
L 67.091344 -50.107488 
L 66.657121 -49.431146 
L 66.222898 -48.742333 
L 65.788675 -48.070943 
L 65.354452 -47.4371 
L 64.920229 -46.84882 
L 64.486006 -46.303861 
L 64.051783 -45.794465 
L 63.61756 -45.31284 
L 63.183337 -44.85509 
L 62.749114 -44.422117 
L 62.314891 -44.017456 
L 61.880668 -43.643495 
L 61.446445 -43.298294 
L 61.012222 -42.974726 
L 60.577999 -42.662224 
L 60.143776 -42.349995 
L 59.709553 -42.029928 
L 59.27533 -41.697953 
L 58.841107 -41.35374 
L 58.406884 -40.999524 
L 57.972661 -40.639047 
L 57.538438 -40.277096 
L 57.104215 -39.91949 
L 56.669992 -39.57303 
L 56.235769 -39.245046 
L 55.801546 -38.942518 
L 55.367323 -38.671074 
L 54.9331 -38.434218 
L 54.498877 -38.233047 
L 54.064654 -38.06648 
L 53.630431 -37.931843 
L 53.196208 -37.825551 
L 52.761985 -37.74369 
L 52.327761 -37.682378 
L 51.893538 -37.637933 
L 51.459315 -37.60693 
L 51.025092 -37.586244 
L 50.590869 -37.573116 
L 50.156646 -37.565231 
L 49.722423 -37.560765 
L 49.2882 -37.558388 
L 48.853977 -37.557202 
z
" style="stroke: #a2c9ae; stroke-width: 2"/>
    </defs>
    <g clip-path="url(#p0cc917f02a)">
     <use xlink:href="#ma09817f237" x="0" y="133.46025" style="fill: #a2c9ae; fill-opacity: 0.6; stroke: #a2c9ae; stroke-width: 2"/>
    </g>
   </g>
   <g id="PolyCollection_3">
    <defs>
     <path id="m2956d90f2f" d="M 50.370685 -37.556837 
L 50.370685 -37.55625 
L 50.772692 -37.55625 
L 51.174699 -37.55625 
L 51.576706 -37.55625 
L 51.978713 -37.55625 
L 52.380719 -37.55625 
L 52.782726 -37.55625 
L 53.184733 -37.55625 
L 53.58674 -37.55625 
L 53.988747 -37.55625 
L 54.390754 -37.55625 
L 54.79276 -37.55625 
L 55.194767 -37.55625 
L 55.596774 -37.55625 
L 55.998781 -37.55625 
L 56.400788 -37.55625 
L 56.802795 -37.55625 
L 57.204801 -37.55625 
L 57.606808 -37.55625 
L 58.008815 -37.55625 
L 58.410822 -37.55625 
L 58.812829 -37.55625 
L 59.214836 -37.55625 
L 59.616842 -37.55625 
L 60.018849 -37.55625 
L 60.420856 -37.55625 
L 60.822863 -37.55625 
L 61.22487 -37.55625 
L 61.626876 -37.55625 
L 62.028883 -37.55625 
L 62.43089 -37.55625 
L 62.832897 -37.55625 
L 63.234904 -37.55625 
L 63.636911 -37.55625 
L 64.038917 -37.55625 
L 64.440924 -37.55625 
L 64.842931 -37.55625 
L 65.244938 -37.55625 
L 65.646945 -37.55625 
L 66.048952 -37.55625 
L 66.450958 -37.55625 
L 66.852965 -37.55625 
L 67.254972 -37.55625 
L 67.656979 -37.55625 
L 68.058986 -37.55625 
L 68.460993 -37.55625 
L 68.862999 -37.55625 
L 69.265006 -37.55625 
L 69.667013 -37.55625 
L 70.06902 -37.55625 
L 70.471027 -37.55625 
L 70.873033 -37.55625 
L 71.27504 -37.55625 
L 71.677047 -37.55625 
L 72.079054 -37.55625 
L 72.481061 -37.55625 
L 72.883068 -37.55625 
L 73.285074 -37.55625 
L 73.687081 -37.55625 
L 74.089088 -37.55625 
L 74.491095 -37.55625 
L 74.893102 -37.55625 
L 75.295109 -37.55625 
L 75.697115 -37.55625 
L 76.099122 -37.55625 
L 76.501129 -37.55625 
L 76.903136 -37.55625 
L 77.305143 -37.55625 
L 77.70715 -37.55625 
L 78.109156 -37.55625 
L 78.511163 -37.55625 
L 78.91317 -37.55625 
L 79.315177 -37.55625 
L 79.717184 -37.55625 
L 80.11919 -37.55625 
L 80.521197 -37.55625 
L 80.923204 -37.55625 
L 81.325211 -37.55625 
L 81.727218 -37.55625 
L 82.129225 -37.55625 
L 82.531231 -37.55625 
L 82.933238 -37.55625 
L 83.335245 -37.55625 
L 83.737252 -37.55625 
L 84.139259 -37.55625 
L 84.541266 -37.55625 
L 84.943272 -37.55625 
L 85.345279 -37.55625 
L 85.747286 -37.55625 
L 86.149293 -37.55625 
L 86.5513 -37.55625 
L 86.953307 -37.55625 
L 87.355313 -37.55625 
L 87.75732 -37.55625 
L 88.159327 -37.55625 
L 88.561334 -37.55625 
L 88.963341 -37.55625 
L 89.365347 -37.55625 
L 89.767354 -37.55625 
L 90.169361 -37.55625 
L 90.571368 -37.55625 
L 90.973375 -37.55625 
L 91.375382 -37.55625 
L 91.777388 -37.55625 
L 92.179395 -37.55625 
L 92.581402 -37.55625 
L 92.983409 -37.55625 
L 93.385416 -37.55625 
L 93.787423 -37.55625 
L 94.189429 -37.55625 
L 94.591436 -37.55625 
L 94.993443 -37.55625 
L 95.39545 -37.55625 
L 95.797457 -37.55625 
L 96.199464 -37.55625 
L 96.60147 -37.55625 
L 97.003477 -37.55625 
L 97.405484 -37.55625 
L 97.807491 -37.55625 
L 98.209498 -37.55625 
L 98.611504 -37.55625 
L 99.013511 -37.55625 
L 99.415518 -37.55625 
L 99.817525 -37.55625 
L 100.219532 -37.55625 
L 100.621539 -37.55625 
L 101.023545 -37.55625 
L 101.425552 -37.55625 
L 101.827559 -37.55625 
L 102.229566 -37.55625 
L 102.631573 -37.55625 
L 103.03358 -37.55625 
L 103.435586 -37.55625 
L 103.837593 -37.55625 
L 104.2396 -37.55625 
L 104.641607 -37.55625 
L 105.043614 -37.55625 
L 105.445621 -37.55625 
L 105.847627 -37.55625 
L 106.249634 -37.55625 
L 106.651641 -37.55625 
L 107.053648 -37.55625 
L 107.455655 -37.55625 
L 107.857661 -37.55625 
L 108.259668 -37.55625 
L 108.661675 -37.55625 
L 109.063682 -37.55625 
L 109.465689 -37.55625 
L 109.867696 -37.55625 
L 110.269702 -37.55625 
L 110.671709 -37.55625 
L 111.073716 -37.55625 
L 111.475723 -37.55625 
L 111.87773 -37.55625 
L 112.279737 -37.55625 
L 112.681743 -37.55625 
L 113.08375 -37.55625 
L 113.485757 -37.55625 
L 113.887764 -37.55625 
L 114.289771 -37.55625 
L 114.691778 -37.55625 
L 115.093784 -37.55625 
L 115.495791 -37.55625 
L 115.897798 -37.55625 
L 116.299805 -37.55625 
L 116.701812 -37.55625 
L 117.103818 -37.55625 
L 117.505825 -37.55625 
L 117.907832 -37.55625 
L 118.309839 -37.55625 
L 118.711846 -37.55625 
L 119.113853 -37.55625 
L 119.515859 -37.55625 
L 119.917866 -37.55625 
L 120.319873 -37.55625 
L 120.72188 -37.55625 
L 121.123887 -37.55625 
L 121.525894 -37.55625 
L 121.9279 -37.55625 
L 122.329907 -37.55625 
L 122.731914 -37.55625 
L 123.133921 -37.55625 
L 123.535928 -37.55625 
L 123.937935 -37.55625 
L 124.339941 -37.55625 
L 124.741948 -37.55625 
L 125.143955 -37.55625 
L 125.545962 -37.55625 
L 125.947969 -37.55625 
L 126.349975 -37.55625 
L 126.751982 -37.55625 
L 127.153989 -37.55625 
L 127.555996 -37.55625 
L 127.958003 -37.55625 
L 128.36001 -37.55625 
L 128.762016 -37.55625 
L 129.164023 -37.55625 
L 129.56603 -37.55625 
L 129.968037 -37.55625 
L 130.370044 -37.55625 
L 130.370044 -37.556442 
L 130.370044 -37.556442 
L 129.968037 -37.556799 
L 129.56603 -37.557637 
L 129.164023 -37.559356 
L 128.762016 -37.562429 
L 128.36001 -37.567196 
L 127.958003 -37.573598 
L 127.555996 -37.581019 
L 127.153989 -37.588446 
L 126.751982 -37.594955 
L 126.349975 -37.600234 
L 125.947969 -37.604768 
L 125.545962 -37.609526 
L 125.143955 -37.615402 
L 124.741948 -37.622816 
L 124.339941 -37.631789 
L 123.937935 -37.642373 
L 123.535928 -37.655073 
L 123.133921 -37.67088 
L 122.731914 -37.690912 
L 122.329907 -37.715977 
L 121.9279 -37.746411 
L 121.525894 -37.782159 
L 121.123887 -37.82292 
L 120.72188 -37.868287 
L 120.319873 -37.918152 
L 119.917866 -37.973424 
L 119.515859 -38.036553 
L 119.113853 -38.111137 
L 118.711846 -38.200587 
L 118.309839 -38.306684 
L 117.907832 -38.428923 
L 117.505825 -38.564762 
L 117.103818 -38.710295 
L 116.701812 -38.861127 
L 116.299805 -39.013647 
L 115.897798 -39.166723 
L 115.495791 -39.323229 
L 115.093784 -39.490598 
L 114.691778 -39.680011 
L 114.289771 -39.904308 
L 113.887764 -40.174966 
L 113.485757 -40.498835 
L 113.08375 -40.875889 
L 112.681743 -41.299499 
L 112.279737 -41.759722 
L 111.87773 -42.248143 
L 111.475723 -42.761181 
L 111.073716 -43.299468 
L 110.671709 -43.863793 
L 110.269702 -44.451262 
L 109.867696 -45.055853 
L 109.465689 -45.674325 
L 109.063682 -46.313581 
L 108.661675 -46.99318 
L 108.259668 -47.739447 
L 107.857661 -48.574078 
L 107.455655 -49.504828 
L 107.053648 -50.524269 
L 106.651641 -51.615999 
L 106.249634 -52.762403 
L 105.847627 -53.948973 
L 105.445621 -55.165294 
L 105.043614 -56.405786 
L 104.641607 -57.671089 
L 104.2396 -58.967426 
L 103.837593 -60.302028 
L 103.435586 -61.677163 
L 103.03358 -63.087683 
L 102.631573 -64.523651 
L 102.229566 -65.974516 
L 101.827559 -67.430646 
L 101.425552 -68.882564 
L 101.023545 -70.322254 
L 100.621539 -71.749143 
L 100.219532 -73.176635 
L 99.817525 -74.630432 
L 99.415518 -76.134247 
L 99.013511 -77.690562 
L 98.611504 -79.272484 
L 98.209498 -80.836412 
L 97.807491 -82.34769 
L 97.405484 -83.799421 
L 97.003477 -85.210559 
L 96.60147 -86.606846 
L 96.199464 -88.000388 
L 95.797457 -89.381432 
L 95.39545 -90.724407 
L 94.993443 -91.999975 
L 94.591436 -93.182706 
L 94.189429 -94.250145 
L 93.787423 -95.17849 
L 93.385416 -95.944765 
L 92.983409 -96.53962 
L 92.581402 -96.982722 
L 92.179395 -97.326006 
L 91.777388 -97.637124 
L 91.375382 -97.97082 
L 90.973375 -98.345493 
L 90.571368 -98.737989 
L 90.169361 -99.097255 
L 89.767354 -99.367911 
L 89.365347 -99.512716 
L 88.963341 -99.525062 
L 88.561334 -99.426313 
L 88.159327 -99.249299 
L 87.75732 -99.018011 
L 87.355313 -98.737393 
L 86.953307 -98.39944 
L 86.5513 -97.997809 
L 86.149293 -97.536741 
L 85.747286 -97.027842 
L 85.345279 -96.480616 
L 84.943272 -95.896032 
L 84.541266 -95.266631 
L 84.139259 -94.581688 
L 83.737252 -93.836171 
L 83.335245 -93.041394 
L 82.933238 -92.230283 
L 82.531231 -91.448509 
L 82.129225 -90.731626 
L 81.727218 -90.081994 
L 81.325211 -89.463608 
L 80.923204 -88.821628 
L 80.521197 -88.115204 
L 80.11919 -87.34226 
L 79.717184 -86.540735 
L 79.315177 -85.766757 
L 78.91317 -85.064068 
L 78.511163 -84.441965 
L 78.109156 -83.871277 
L 77.70715 -83.29686 
L 77.305143 -82.658497 
L 76.903136 -81.911602 
L 76.501129 -81.041417 
L 76.099122 -80.066348 
L 75.697115 -79.028968 
L 75.295109 -77.978313 
L 74.893102 -76.952047 
L 74.491095 -75.967388 
L 74.089088 -75.024097 
L 73.687081 -74.115193 
L 73.285074 -73.236689 
L 72.883068 -72.389699 
L 72.481061 -71.574714 
L 72.079054 -70.784092 
L 71.677047 -70.000206 
L 71.27504 -69.201883 
L 70.873033 -68.374103 
L 70.471027 -67.512272 
L 70.06902 -66.61726 
L 69.667013 -65.686929 
L 69.265006 -64.714038 
L 68.862999 -63.693855 
L 68.460993 -62.633998 
L 68.058986 -61.5554 
L 67.656979 -60.481271 
L 67.254972 -59.422858 
L 66.852965 -58.3751 
L 66.450958 -57.327018 
L 66.048952 -56.278087 
L 65.646945 -55.245801 
L 65.244938 -54.257306 
L 64.842931 -53.331915 
L 64.440924 -52.468241 
L 64.038917 -51.644303 
L 63.636911 -50.828412 
L 63.234904 -49.993061 
L 62.832897 -49.125477 
L 62.43089 -48.23209 
L 62.028883 -47.335961 
L 61.626876 -46.467259 
L 61.22487 -45.64945 
L 60.822863 -44.887653 
L 60.420856 -44.16682 
L 60.018849 -43.462851 
L 59.616842 -42.76059 
L 59.214836 -42.066364 
L 58.812829 -41.406023 
L 58.410822 -40.81048 
L 58.008815 -40.299616 
L 57.606808 -39.874711 
L 57.204801 -39.521696 
L 56.802795 -39.220322 
L 56.400788 -38.95279 
L 55.998781 -38.708279 
L 55.596774 -38.483295 
L 55.194767 -38.279523 
L 54.79276 -38.100868 
L 54.390754 -37.950784 
L 53.988747 -37.830547 
L 53.58674 -37.738769 
L 53.184733 -37.671981 
L 52.782726 -37.6257 
L 52.380719 -37.595327 
L 51.978713 -37.576646 
L 51.576706 -37.56602 
L 51.174699 -37.560503 
L 50.772692 -37.557919 
L 50.370685 -37.556837 
z
" style="stroke: #8e7fbb; stroke-width: 2"/>
    </defs>
    <g clip-path="url(#p0cc917f02a)">
     <use xlink:href="#m2956d90f2f" x="0" y="133.46025" style="fill: #8e7fbb; fill-opacity: 0.6; stroke: #8e7fbb; stroke-width: 2"/>
    </g>
   </g>
   <g id="matplotlib.axis_1">
    <g id="xtick_1">
     <g id="line2d_1">
      <defs>
       <path id="m6b44d2dd83" d="M 0 0 
L 0 3.5 
" style="stroke: #000000; stroke-width: 0.8"/>
      </defs>
      <g>
       <use xlink:href="#m6b44d2dd83" x="95.705335" y="95.904" style="stroke: #000000; stroke-width: 0.8"/>
      </g>
     </g>
     <g id="text_1">
      <!-- 5 -->
      <g transform="translate(92.524085 110.502437) scale(0.1 -0.1)">
       <defs>
        <path id="DejaVuSans-35" d="M 691 4666 
L 3169 4666 
L 3169 4134 
L 1269 4134 
L 1269 2991 
Q 1406 3038 1543 3061 
Q 1681 3084 1819 3084 
Q 2600 3084 3056 2656 
Q 3513 2228 3513 1497 
Q 3513 744 3044 326 
Q 2575 -91 1722 -91 
Q 1428 -91 1123 -41 
Q 819 9 494 109 
L 494 744 
Q 775 591 1075 516 
Q 1375 441 1709 441 
Q 2250 441 2565 725 
Q 2881 1009 2881 1497 
Q 2881 1984 2565 2268 
Q 2250 2553 1709 2553 
Q 1456 2553 1204 2497 
Q 953 2441 691 2322 
L 691 4666 
z
" transform="scale(0.015625)"/>
       </defs>
       <use xlink:href="#DejaVuSans-35"/>
      </g>
     </g>
    </g>
    <g id="xtick_2">
     <g id="line2d_2">
      <g>
       <use xlink:href="#m6b44d2dd83" x="148.135347" y="95.904" style="stroke: #000000; stroke-width: 0.8"/>
      </g>
     </g>
     <g id="text_2">
      <!-- 10 -->
      <g transform="translate(141.772847 110.502437) scale(0.1 -0.1)">
       <defs>
        <path id="DejaVuSans-31" d="M 794 531 
L 1825 531 
L 1825 4091 
L 703 3866 
L 703 4441 
L 1819 4666 
L 2450 4666 
L 2450 531 
L 3481 531 
L 3481 0 
L 794 0 
L 794 531 
z
" transform="scale(0.015625)"/>
        <path id="DejaVuSans-30" d="M 2034 4250 
Q 1547 4250 1301 3770 
Q 1056 3291 1056 2328 
Q 1056 1369 1301 889 
Q 1547 409 2034 409 
Q 2525 409 2770 889 
Q 3016 1369 3016 2328 
Q 3016 3291 2770 3770 
Q 2525 4250 2034 4250 
z
M 2034 4750 
Q 2819 4750 3233 4129 
Q 3647 3509 3647 2328 
Q 3647 1150 3233 529 
Q 2819 -91 2034 -91 
Q 1250 -91 836 529 
Q 422 1150 422 2328 
Q 422 3509 836 4129 
Q 1250 4750 2034 4750 
z
" transform="scale(0.015625)"/>
       </defs>
       <use xlink:href="#DejaVuSans-31"/>
       <use xlink:href="#DejaVuSans-30" x="63.623047"/>
      </g>
     </g>
    </g>
    <g id="text_3">
     <!-- SAS -->
     <g transform="translate(89.71875 124.180562) scale(0.1 -0.1)">
      <defs>
       <path id="DejaVuSans-53" d="M 3425 4513 
L 3425 3897 
Q 3066 4069 2747 4153 
Q 2428 4238 2131 4238 
Q 1616 4238 1336 4038 
Q 1056 3838 1056 3469 
Q 1056 3159 1242 3001 
Q 1428 2844 1947 2747 
L 2328 2669 
Q 3034 2534 3370 2195 
Q 3706 1856 3706 1288 
Q 3706 609 3251 259 
Q 2797 -91 1919 -91 
Q 1588 -91 1214 -16 
Q 841 59 441 206 
L 441 856 
Q 825 641 1194 531 
Q 1563 422 1919 422 
Q 2459 422 2753 634 
Q 3047 847 3047 1241 
Q 3047 1584 2836 1778 
Q 2625 1972 2144 2069 
L 1759 2144 
Q 1053 2284 737 2584 
Q 422 2884 422 3419 
Q 422 4038 858 4394 
Q 1294 4750 2059 4750 
Q 2388 4750 2728 4690 
Q 3069 4631 3425 4513 
z
" transform="scale(0.015625)"/>
       <path id="DejaVuSans-41" d="M 2188 4044 
L 1331 1722 
L 3047 1722 
L 2188 4044 
z
M 1831 4666 
L 2547 4666 
L 4325 0 
L 3669 0 
L 3244 1197 
L 1141 1197 
L 716 0 
L 50 0 
L 1831 4666 
z
" transform="scale(0.015625)"/>
      </defs>
      <use xlink:href="#DejaVuSans-53"/>
      <use xlink:href="#DejaVuSans-41" x="65.351562"/>
      <use xlink:href="#DejaVuSans-53" x="133.759766"/>
     </g>
    </g>
   </g>
   <g id="matplotlib.axis_2">
    <g id="ytick_1">
     <g id="line2d_3">
      <defs>
       <path id="mfb0f5ba7e3" d="M 0 0 
L -3.5 0 
" style="stroke: #000000; stroke-width: 0.8"/>
      </defs>
      <g>
       <use xlink:href="#mfb0f5ba7e3" x="43.78125" y="95.904" style="stroke: #000000; stroke-width: 0.8"/>
      </g>
     </g>
     <g id="text_4">
      <!-- 0.0 -->
      <g transform="translate(20.878125 99.703219) scale(0.1 -0.1)">
       <defs>
        <path id="DejaVuSans-2e" d="M 684 794 
L 1344 794 
L 1344 0 
L 684 0 
L 684 794 
z
" transform="scale(0.015625)"/>
       </defs>
       <use xlink:href="#DejaVuSans-30"/>
       <use xlink:href="#DejaVuSans-2e" x="63.623047"/>
       <use xlink:href="#DejaVuSans-30" x="95.410156"/>
      </g>
     </g>
    </g>
    <g id="ytick_2">
     <g id="line2d_4">
      <g>
       <use xlink:href="#mfb0f5ba7e3" x="43.78125" y="59.643999" style="stroke: #000000; stroke-width: 0.8"/>
      </g>
     </g>
     <g id="text_5">
      <!-- 0.2 -->
      <g transform="translate(20.878125 63.443217) scale(0.1 -0.1)">
       <defs>
        <path id="DejaVuSans-32" d="M 1228 531 
L 3431 531 
L 3431 0 
L 469 0 
L 469 531 
Q 828 903 1448 1529 
Q 2069 2156 2228 2338 
Q 2531 2678 2651 2914 
Q 2772 3150 2772 3378 
Q 2772 3750 2511 3984 
Q 2250 4219 1831 4219 
Q 1534 4219 1204 4116 
Q 875 4013 500 3803 
L 500 4441 
Q 881 4594 1212 4672 
Q 1544 4750 1819 4750 
Q 2544 4750 2975 4387 
Q 3406 4025 3406 3419 
Q 3406 3131 3298 2873 
Q 3191 2616 2906 2266 
Q 2828 2175 2409 1742 
Q 1991 1309 1228 531 
z
" transform="scale(0.015625)"/>
       </defs>
       <use xlink:href="#DejaVuSans-30"/>
       <use xlink:href="#DejaVuSans-2e" x="63.623047"/>
       <use xlink:href="#DejaVuSans-32" x="95.410156"/>
      </g>
     </g>
    </g>
    <g id="ytick_3">
     <g id="line2d_5">
      <g>
       <use xlink:href="#mfb0f5ba7e3" x="43.78125" y="23.383997" style="stroke: #000000; stroke-width: 0.8"/>
      </g>
     </g>
     <g id="text_6">
      <!-- 0.4 -->
      <g transform="translate(20.878125 27.183216) scale(0.1 -0.1)">
       <defs>
        <path id="DejaVuSans-34" d="M 2419 4116 
L 825 1625 
L 2419 1625 
L 2419 4116 
z
M 2253 4666 
L 3047 4666 
L 3047 1625 
L 3713 1625 
L 3713 1100 
L 3047 1100 
L 3047 0 
L 2419 0 
L 2419 1100 
L 313 1100 
L 313 1709 
L 2253 4666 
z
" transform="scale(0.015625)"/>
       </defs>
       <use xlink:href="#DejaVuSans-30"/>
       <use xlink:href="#DejaVuSans-2e" x="63.623047"/>
       <use xlink:href="#DejaVuSans-34" x="95.410156"/>
      </g>
     </g>
    </g>
    <g id="text_7">
     <!-- Density -->
     <g transform="translate(14.798438 70.560594) rotate(-90) scale(0.1 -0.1)">
      <defs>
       <path id="DejaVuSans-44" d="M 1259 4147 
L 1259 519 
L 2022 519 
Q 2988 519 3436 956 
Q 3884 1394 3884 2338 
Q 3884 3275 3436 3711 
Q 2988 4147 2022 4147 
L 1259 4147 
z
M 628 4666 
L 1925 4666 
Q 3281 4666 3915 4102 
Q 4550 3538 4550 2338 
Q 4550 1131 3912 565 
Q 3275 0 1925 0 
L 628 0 
L 628 4666 
z
" transform="scale(0.015625)"/>
       <path id="DejaVuSans-65" d="M 3597 1894 
L 3597 1613 
L 953 1613 
Q 991 1019 1311 708 
Q 1631 397 2203 397 
Q 2534 397 2845 478 
Q 3156 559 3463 722 
L 3463 178 
Q 3153 47 2828 -22 
Q 2503 -91 2169 -91 
Q 1331 -91 842 396 
Q 353 884 353 1716 
Q 353 2575 817 3079 
Q 1281 3584 2069 3584 
Q 2775 3584 3186 3129 
Q 3597 2675 3597 1894 
z
M 3022 2063 
Q 3016 2534 2758 2815 
Q 2500 3097 2075 3097 
Q 1594 3097 1305 2825 
Q 1016 2553 972 2059 
L 3022 2063 
z
" transform="scale(0.015625)"/>
       <path id="DejaVuSans-6e" d="M 3513 2113 
L 3513 0 
L 2938 0 
L 2938 2094 
Q 2938 2591 2744 2837 
Q 2550 3084 2163 3084 
Q 1697 3084 1428 2787 
Q 1159 2491 1159 1978 
L 1159 0 
L 581 0 
L 581 3500 
L 1159 3500 
L 1159 2956 
Q 1366 3272 1645 3428 
Q 1925 3584 2291 3584 
Q 2894 3584 3203 3211 
Q 3513 2838 3513 2113 
z
" transform="scale(0.015625)"/>
       <path id="DejaVuSans-73" d="M 2834 3397 
L 2834 2853 
Q 2591 2978 2328 3040 
Q 2066 3103 1784 3103 
Q 1356 3103 1142 2972 
Q 928 2841 928 2578 
Q 928 2378 1081 2264 
Q 1234 2150 1697 2047 
L 1894 2003 
Q 2506 1872 2764 1633 
Q 3022 1394 3022 966 
Q 3022 478 2636 193 
Q 2250 -91 1575 -91 
Q 1294 -91 989 -36 
Q 684 19 347 128 
L 347 722 
Q 666 556 975 473 
Q 1284 391 1588 391 
Q 1994 391 2212 530 
Q 2431 669 2431 922 
Q 2431 1156 2273 1281 
Q 2116 1406 1581 1522 
L 1381 1569 
Q 847 1681 609 1914 
Q 372 2147 372 2553 
Q 372 3047 722 3315 
Q 1072 3584 1716 3584 
Q 2034 3584 2315 3537 
Q 2597 3491 2834 3397 
z
" transform="scale(0.015625)"/>
       <path id="DejaVuSans-69" d="M 603 3500 
L 1178 3500 
L 1178 0 
L 603 0 
L 603 3500 
z
M 603 4863 
L 1178 4863 
L 1178 4134 
L 603 4134 
L 603 4863 
z
" transform="scale(0.015625)"/>
       <path id="DejaVuSans-74" d="M 1172 4494 
L 1172 3500 
L 2356 3500 
L 2356 3053 
L 1172 3053 
L 1172 1153 
Q 1172 725 1289 603 
Q 1406 481 1766 481 
L 2356 481 
L 2356 0 
L 1766 0 
Q 1100 0 847 248 
Q 594 497 594 1153 
L 594 3053 
L 172 3053 
L 172 3500 
L 594 3500 
L 594 4494 
L 1172 4494 
z
" transform="scale(0.015625)"/>
       <path id="DejaVuSans-79" d="M 2059 -325 
Q 1816 -950 1584 -1140 
Q 1353 -1331 966 -1331 
L 506 -1331 
L 506 -850 
L 844 -850 
Q 1081 -850 1212 -737 
Q 1344 -625 1503 -206 
L 1606 56 
L 191 3500 
L 800 3500 
L 1894 763 
L 2988 3500 
L 3597 3500 
L 2059 -325 
z
" transform="scale(0.015625)"/>
      </defs>
      <use xlink:href="#DejaVuSans-44"/>
      <use xlink:href="#DejaVuSans-65" x="77.001953"/>
      <use xlink:href="#DejaVuSans-6e" x="138.525391"/>
      <use xlink:href="#DejaVuSans-73" x="201.904297"/>
      <use xlink:href="#DejaVuSans-69" x="254.003906"/>
      <use xlink:href="#DejaVuSans-74" x="281.787109"/>
      <use xlink:href="#DejaVuSans-79" x="320.996094"/>
     </g>
    </g>
   </g>
   <g id="patch_3">
    <path d="M 43.78125 95.904 
L 43.78125 7.2 
" style="fill: none; stroke: #000000; stroke-width: 0.8; stroke-linejoin: miter; stroke-linecap: square"/>
   </g>
   <g id="patch_4">
    <path d="M 155.38125 95.904 
L 155.38125 7.2 
" style="fill: none; stroke: #000000; stroke-width: 0.8; stroke-linejoin: miter; stroke-linecap: square"/>
   </g>
   <g id="patch_5">
    <path d="M 43.78125 95.904 
L 155.38125 95.904 
" style="fill: none; stroke: #000000; stroke-width: 0.8; stroke-linejoin: miter; stroke-linecap: square"/>
   </g>
   <g id="patch_6">
    <path d="M 43.78125 7.2 
L 155.38125 7.2 
" style="fill: none; stroke: #000000; stroke-width: 0.8; stroke-linejoin: miter; stroke-linecap: square"/>
   </g>
  </g>
 </g>
 <defs>
  <clipPath id="p0cc917f02a">
   <rect x="43.78125" y="7.2" width="111.6" height="88.704"/>
  </clipPath>
 </defs>
</svg>
